#N canvas 827 157 613 721 10;
#X obj 330 139 +pitchdelay~;
#N canvas 603 133 445 357 output 0;
#X obj 216 125 dbtorms;
#X obj 195 204 *~;
#X obj 216 171 line~;
#X msg 216 148 \$1 50;
#X obj 195 39 inlet~;
#X obj 36 40 inlet~;
#X obj 36 315 outlet~ mix;
#X obj 57 121 dbtorms;
#X obj 36 200 *~;
#X obj 57 167 line~;
#X msg 57 144 \$1 50;
#X obj 36 266 +~, f 27;
#X obj 57 94 r \$0-dryvol.s;
#X obj 216 98 r \$0-delvol.s;
#X connect 0 0 3 0;
#X connect 1 0 11 1;
#X connect 2 0 1 1;
#X connect 3 0 2 0;
#X connect 4 0 1 0;
#X connect 5 0 8 0;
#X connect 7 0 10 0;
#X connect 8 0 11 0;
#X connect 9 0 8 1;
#X connect 10 0 9 0;
#X connect 11 0 6 0;
#X connect 12 0 7 0;
#X connect 13 0 0 0;
#X restore 279 167 pd output;
#X floatatom 360 347 5 0 200 0 - - -;
#X floatatom 51 335 5 0 100 0 - - -;
#X msg 146 365 time \$1;
#X msg 360 365 feedback \$1;
#X msg 455 365 octave \$1;
#X msg 51 364 loopDepth \$1;
#X msg 253 366 pitchFactor \$1;
#X obj 106 136 hsl 60 18 0 34 0 0 \$0-factor.s \$0-factor.r factor
2 9 0 10 -232576 -1 -1 0 1;
#X obj 173 136 hsl 60 18 1 5000 0 0 \$0-time.s \$0-time.r time 2 9
0 10 -203904 -1 -1 4800 1;
#X obj 106 176 hsl 60 18 0 100 0 0 \$0-dryvol.s \$0-dryvol.r dryvol
2 9 0 10 -105344 -1 -1 1600 1;
#X obj 173 176 hsl 60 18 0 100 0 0 \$0-delvol.s \$0-delvol.r delvol
2 9 0 10 -88704 -1 -1 2200 1;
#X obj 173 156 hsl 60 18 0 200 0 0 \$0-feedback.s \$0-feedback.r feedback
2 9 0 10 -204800 -1 -1 1900 1;
#X obj 106 156 hsl 60 18 10 100 0 0 \$0-lpdepth.s \$0-lpdepth.r lpdepth
2 9 0 10 -261234 -1 -1 2100 1;
#X obj 253 323 int;
#X symbolatom 103 119 12 0 0 0 - #0-label -;
#N canvas 624 151 656 333 label 0;
#X obj 117 188 list;
#X obj 117 209 list split 1;
#X obj 77 83 t b f f b;
#X obj 117 238 list split 1;
#X obj 77 63 + 1;
#X obj 238 220 - 1;
#X obj 77 35 inlet;
#X msg 146 106 Unison Minor_2nd 16/15 10/9 Major_2nd 9/8 8/7 7/6 Minor_3rd
6/5 5/4 Major_3rd 9/7 4/3 Perfect_4th 7/5 Tritone 10/7 Perfect_5th
3/2 14/9 11/7 Minor_6th 8/5 5/3 Major_6th 12/7 7/4 16/9 Minor_7th 9/5
13/7 15/8 Major_7th Octave;
#X obj 163 264 s \$0-label;
#X connect 0 0 1 0;
#X connect 1 0 3 0;
#X connect 2 0 0 0;
#X connect 2 1 1 1;
#X connect 2 2 5 0;
#X connect 2 3 7 0;
#X connect 3 1 8 0;
#X connect 4 0 2 0;
#X connect 5 0 3 1;
#X connect 6 0 4 0;
#X connect 7 0 0 1;
#X restore 262 345 pd label;
#X obj 103 211 hradio 15 1 0 7 \$0-octave.s \$0-octave.r octave 0 -8
0 10 -262144 -128992 -1 3;
#X obj 454 344 - 3;
#X obj 279 93 inlet~;
#X obj 279 205 outlet~;
#X obj 330 114 r \$0-pitchdel;
#X obj 253 442 s \$0-pitchdel;
#N canvas 370 487 725 391 store.state 0;
#N canvas 81 45 329 237 read.write 0;
#X obj 74 111 savestate;
#X obj 74 91 r \$0-to.savestate;
#X obj 125 131 s \$0-savestate.right;
#X text 78 33 send and receive lists from the individual abstractions
, f 27;
#X obj 74 171 s \$0-savestate.left;
#X obj 74 131 t a b;
#X obj 101 151 s \$0-stop.loadbang;
#X connect 0 0 5 0;
#X connect 0 1 2 0;
#X connect 1 0 0 0;
#X connect 5 0 4 0;
#X connect 5 1 6 0;
#X restore 52 41 pd read.write;
#X obj 52 91 store.param \$0 factor;
#X obj 52 111 store.param \$0 time;
#X obj 52 151 store.param \$0 feedback;
#X obj 52 171 store.param \$0 dryvol;
#X obj 52 191 store.param \$0 delvol;
#X obj 237 91 param-label \$0 factor;
#X obj 237 151 param-label \$0 feedback;
#X obj 237 171 param-label \$0 dryvol;
#X obj 237 191 param-label \$0 delvol;
#X obj 52 211 store.param \$0 octave;
#X obj 52 231 store.param \$0 sync;
#X obj 237 111 param-label \$0 time;
#X obj 52 131 store.param \$0 lpdepth;
#X obj 237 131 param-label \$0 lpdepth;
#X restore 103 60 pd store.state;
#X floatatom 211 211 3 0 0 0 - - foo-oct;
#X obj 220 119 tgl 15 0 \$0-sync.s \$0-sync.r sync -26 7 0 10 -262144
-1 -1 1 1;
#N canvas 254 67 650 568 time-handler 0;
#X obj 201 106 inlet;
#X obj 123 488 outlet;
#X obj 272 361 r mstr-ms;
#X obj 124 105 r \$0-sync.s;
#X obj 123 159 pack f f;
#X obj 123 190 route 0 1;
#X msg 322 285 1;
#X msg 292 285 2;
#X obj 350 427 /;
#X obj 350 363 t b f;
#X msg 352 285 0.75;
#X msg 387 285 0.5;
#X msg 233 285 8;
#X msg 265 285 4;
#X msg 422 285 0.333333;
#X obj 310 200 div 625;
#X obj 310 223 sel 0 1 2 3 4 5 6 7 8;
#X msg 488 285 0.25;
#X msg 530 285 0.125;
#X obj 201 135 t b f;
#X obj 189 422 spigot;
#X obj 123 420 spigot;
#X obj 156 336 != 1;
#X obj 124 134 t f f f;
#X connect 0 0 19 0;
#X connect 2 0 8 0;
#X connect 3 0 23 0;
#X connect 4 0 5 0;
#X connect 5 0 21 0;
#X connect 5 1 15 0;
#X connect 6 0 9 0;
#X connect 7 0 9 0;
#X connect 8 0 20 0;
#X connect 9 0 8 0;
#X connect 9 1 8 1;
#X connect 10 0 9 0;
#X connect 11 0 9 0;
#X connect 12 0 9 0;
#X connect 13 0 9 0;
#X connect 14 0 9 0;
#X connect 15 0 16 0;
#X connect 16 0 12 0;
#X connect 16 1 13 0;
#X connect 16 2 7 0;
#X connect 16 3 6 0;
#X connect 16 4 10 0;
#X connect 16 5 11 0;
#X connect 16 6 14 0;
#X connect 16 7 17 0;
#X connect 16 8 18 0;
#X connect 17 0 9 0;
#X connect 18 0 9 0;
#X connect 19 0 4 0;
#X connect 19 1 4 1;
#X connect 20 0 1 0;
#X connect 21 0 1 0;
#X connect 22 0 21 1;
#X connect 23 0 4 0;
#X connect 23 1 22 0;
#X connect 23 2 20 1;
#X restore 146 338 pd time-handler;
#X obj 146 311 r \$0-time.s;
#X connect 0 0 1 1;
#X connect 1 0 21 0;
#X connect 2 0 5 0;
#X connect 3 0 7 0;
#X connect 4 0 23 0;
#X connect 5 0 23 0;
#X connect 6 0 23 0;
#X connect 7 0 23 0;
#X connect 8 0 23 0;
#X connect 9 0 15 0;
#X connect 13 0 2 0;
#X connect 14 0 3 0;
#X connect 15 0 8 0;
#X connect 15 0 17 0;
#X connect 18 0 19 0;
#X connect 19 0 6 0;
#X connect 19 0 25 0;
#X connect 20 0 0 0;
#X connect 20 0 1 0;
#X connect 22 0 0 0;
#X connect 27 0 4 0;
#X connect 28 0 27 0;
#X coords 0 -1 1 1 139 132 1 100 100;
