#N canvas 706 118 734 614 10;
#X msg 143 313 start;
#X msg 65 307 stop;
#X obj 104 104 tgl 15 0 empty empty empty 17 7 0 10 -258113 -262144
-1 0 1;
#X obj 105 255 sel 0 1;
#X symbolatom 105 125 20 0 0 0 - - -;
#X obj 383 18 env~;
#X obj 433 -49 inlet~;
#X obj 193 314 print;
#X obj 134 216 symbol;
#X obj 131 189 sel 1;
#X obj 104 166 t f f;
#X obj 219 105 cnv 15 24 14 empty empty clip 0 6 0 10 -261234 -66577
0;
#X obj 138 353 writesf~ 2;
#X obj 28 349 r~ \$0-inR;
#X obj -45 350 r~ \$0-inL;
#X obj 513 -51 inlet~;
#X obj 514 18 s~ \$0-inR;
#X obj 431 17 s~ \$0-inL;
#X obj 124 104 tgl 15 0 empty empty slave 17 7 0 10 -204800 -1 -1 0
1;
#X obj 19 -47 r mstr-start;
#X obj 19 50 spigot;
#X obj 197 104 LED \$0;
#X obj 65 282 del 1000;
#X msg 193 289 open -bytes 3 \$1;
#X msg 79 44 0;
#X obj 19 -15 t f f;
#X obj 584 705 bng 15 250 50 0 empty empty empty 17 7 0 10 -262144
-1 -1;
#X msg 419 194 0;
#X msg 484 126 0;
#X obj 423 96 > 0;
#X obj 419 172 t b b;
#X obj 420 148 sel 0;
#X obj 420 125 spigot 1;
#X obj 77 20 sel 0 1;
#X msg 112 44 1;
#X obj 331 43 moses 100;
#X msg 333 65 1;
#X msg 390 64 2;
#X obj 280 44 moses 1;
#X msg 281 68 0;
#X obj 155 47 savepanel;
#X obj 155 74 symbol \$1;
#X obj 179 104 bng 15 250 50 0 empty empty empty 17 7 0 10 -262144
-1 -1;
#X obj 98 73 stripdir;
#X connect 0 0 12 0;
#X connect 1 0 12 0;
#X connect 2 0 10 0;
#X connect 3 0 22 0;
#X connect 3 1 0 0;
#X connect 5 0 29 0;
#X connect 5 0 38 0;
#X connect 6 0 17 0;
#X connect 6 0 12 0;
#X connect 6 0 5 0;
#X connect 8 0 23 0;
#X connect 9 0 8 0;
#X connect 10 0 3 0;
#X connect 10 1 9 0;
#X connect 15 0 16 0;
#X connect 15 0 12 1;
#X connect 15 0 5 0;
#X connect 18 0 20 1;
#X connect 19 0 25 0;
#X connect 20 0 2 0;
#X connect 22 0 1 0;
#X connect 23 0 7 0;
#X connect 23 0 12 0;
#X connect 24 0 18 0;
#X connect 25 0 20 0;
#X connect 25 1 33 0;
#X connect 27 0 2 0;
#X connect 28 0 32 1;
#X connect 29 0 32 0;
#X connect 30 0 27 0;
#X connect 30 1 28 0;
#X connect 31 0 30 0;
#X connect 32 0 31 0;
#X connect 33 0 24 0;
#X connect 33 1 34 0;
#X connect 34 0 32 1;
#X connect 35 0 36 0;
#X connect 35 1 37 0;
#X connect 36 0 21 0;
#X connect 37 0 21 0;
#X connect 38 0 39 0;
#X connect 38 1 35 0;
#X connect 39 0 21 0;
#X connect 40 0 41 0;
#X connect 40 0 8 1;
#X connect 41 0 43 0;
#X connect 41 0 4 0;
#X connect 42 0 40 0;
#X connect 43 0 4 0;
#X coords 0 -1 1 1 146 50 2 100 100;
