#N canvas 743 139 1378 703 10;
#X msg 52 168 start;
#X msg -18 192 stop;
#X obj 198 129 tgl 8 0 foo1 foo1-r empty 17 7 0 10 -258113 -262144
-1 0 1;
#X obj 18 139 sel 0 1;
#X symbolatom 122 130 12 0 0 0 1: - -;
#X obj 292 298 inlet~;
#X obj 487 107 tgl 15 0 empty empty ARM! 17 7 0 10 -204800 -1 -1 0
1;
#X obj 19 8 r mstr-start;
#X obj 18 104 spigot;
#X obj -14 170 del 1000;
#X msg 36 64 0;
#X obj 34 40 sel 0;
#X obj 187 297 inlet~;
#X obj 445 298 inlet~;
#X obj 364 298 inlet~;
#X obj 618 299 inlet~;
#X obj 565 299 inlet~;
#X obj 737 298 inlet~;
#X obj 678 298 inlet~;
#X symbolatom 228 130 12 0 0 0 2: - -;
#X symbolatom 333 130 12 0 0 0 3: - -;
#X symbolatom 438 130 12 0 0 0 4: - -;
#X symbolatom 122 155 12 0 0 0 5: - -;
#X symbolatom 228 155 12 0 0 0 6: - -;
#X symbolatom 333 155 12 0 0 0 7: - -;
#X symbolatom 438 155 12 0 0 0 8: - -;
#N canvas 506 94 842 697 name-maker 0;
#X obj 347 163 makefilename /Pd-bounce/%s.wav;
#X obj 416 81 r proj-name;
#X obj 347 106 list prepend;
#X msg 377 132 symbol _;
#X obj 438 132 r init;
#X obj 290 27 inlet;
#X obj 56 421 outlet;
#X obj 287 253 route 1 2 3 4 5 6 7 8;
#X obj 290 78 unpack f s;
#X msg 290 53 \$2 \$1;
#X msg 347 188 open -bytes 3 \$1;
#X obj 347 133 l2s;
#X obj 287 215 list append;
#X obj 55 369 list;
#X obj 56 311 r poll-name;
#X obj 153 311 r poll-name;
#X obj 233 311 r poll-name;
#X obj 318 310 r poll-name;
#X obj 397 310 r poll-name;
#X obj 482 309 r poll-name;
#X obj 562 309 r poll-name;
#X obj 647 308 r poll-name;
#X obj 56 390 list trim;
#X obj 66 342 t b a;
#X obj 152 421 outlet;
#X obj 151 369 list;
#X obj 152 390 list trim;
#X obj 162 342 t b a;
#X obj 233 421 outlet;
#X obj 232 369 list;
#X obj 233 390 list trim;
#X obj 243 342 t b a;
#X obj 319 414 outlet;
#X obj 318 362 list;
#X obj 319 383 list trim;
#X obj 329 335 t b a;
#X obj 400 414 outlet;
#X obj 399 362 list;
#X obj 400 383 list trim;
#X obj 410 335 t b a;
#X obj 483 417 outlet;
#X obj 482 365 list;
#X obj 483 386 list trim;
#X obj 493 338 t b a;
#X obj 569 410 outlet;
#X obj 568 358 list;
#X obj 569 379 list trim;
#X obj 579 331 t b a;
#X obj 650 410 outlet;
#X obj 649 358 list;
#X obj 650 379 list trim;
#X obj 660 331 t b a;
#X obj 378 563 qlist;
#X obj 379 518 until;
#X msg 379 495 8;
#X obj 384 604 print;
#X msg 453 529 print;
#X msg 378 540 next;
#X msg 477 555 clear;
#X msg 229 506 add \$1;
#X connect 0 0 10 0;
#X connect 1 0 2 1;
#X connect 2 0 11 0;
#X connect 3 0 11 1;
#X connect 4 0 3 0;
#X connect 5 0 9 0;
#X connect 7 0 23 0;
#X connect 7 1 27 0;
#X connect 7 2 31 0;
#X connect 7 3 35 0;
#X connect 7 4 39 0;
#X connect 7 5 43 0;
#X connect 7 6 47 0;
#X connect 7 7 51 0;
#X connect 8 0 12 0;
#X connect 8 1 2 0;
#X connect 9 0 8 0;
#X connect 10 0 12 1;
#X connect 11 0 0 0;
#X connect 12 0 7 0;
#X connect 13 0 22 0;
#X connect 14 0 13 0;
#X connect 15 0 25 0;
#X connect 16 0 29 0;
#X connect 17 0 33 0;
#X connect 18 0 37 0;
#X connect 19 0 41 0;
#X connect 20 0 45 0;
#X connect 21 0 49 0;
#X connect 22 0 6 0;
#X connect 23 0 13 0;
#X connect 23 1 13 1;
#X connect 25 0 26 0;
#X connect 26 0 24 0;
#X connect 27 0 25 0;
#X connect 27 1 25 1;
#X connect 29 0 30 0;
#X connect 30 0 28 0;
#X connect 31 0 29 0;
#X connect 31 1 29 1;
#X connect 33 0 34 0;
#X connect 34 0 32 0;
#X connect 35 0 33 0;
#X connect 35 1 33 1;
#X connect 37 0 38 0;
#X connect 38 0 36 0;
#X connect 39 0 37 0;
#X connect 39 1 37 1;
#X connect 41 0 42 0;
#X connect 42 0 40 0;
#X connect 43 0 41 0;
#X connect 43 1 41 1;
#X connect 45 0 46 0;
#X connect 46 0 44 0;
#X connect 47 0 45 0;
#X connect 47 1 45 1;
#X connect 49 0 50 0;
#X connect 50 0 48 0;
#X connect 51 0 49 0;
#X connect 51 1 49 1;
#X connect 52 0 55 0;
#X connect 53 0 57 0;
#X connect 54 0 53 0;
#X connect 56 0 52 0;
#X connect 57 0 52 0;
#X connect 58 0 52 0;
#X connect 59 0 52 0;
#X restore 486 355 pd name-maker;
#X obj -151 -26 symbol \$1;
#X obj -152 -97 loadbang;
#X obj -212 -86 r poll;
#X obj -151 -2 s proj-name;
#X obj -177 -33 bng 15 250 50 0 empty empty empty 17 7 0 10 -262144
-1 -1;
#X obj 188 510 writesf~;
#X obj 374 510 writesf~;
#X obj 284 510 writesf~;
#X obj 454 510 writesf~;
#X obj 571 512 writesf~ 2;
#X obj 686 512 writesf~ 2;
#X obj 868 298 inlet~;
#X obj 809 298 inlet~;
#X obj 1000 299 inlet~;
#X obj 943 299 inlet~;
#X obj 821 512 writesf~ 2;
#X obj 949 512 writesf~ 2;
#X obj 198 138 LED2 \$0;
#X obj 304 129 tgl 8 0 foo2 foo2-r empty 17 7 0 10 -258113 -262144
-1 0 1;
#X obj 409 129 tgl 8 0 foo3 foo3r empty 17 7 0 10 -258113 -262144 -1
0 1;
#X obj -124 -47 s init;
#X obj -151 -68 t b b;
#X obj 164 239 pack s 1;
#X obj 241 240 pack s 2;
#X obj 378 241 pack s 4;
#X obj 312 241 pack s 3;
#X obj 444 239 pack s 5;
#X obj 521 240 pack s 6;
#X obj 592 241 pack s 7;
#X obj 658 241 pack s 8;
#X obj 514 129 tgl 8 0 foo4 foo4r empty 17 7 0 10 -258113 -262144 -1
0 1;
#X obj 585 342 +~;
#X obj 514 154 tgl 8 0 foo8 foo8r empty 17 7 0 10 -258113 -262144 -1
0 1;
#X obj 409 155 tgl 8 0 foo7 foo7r empty 17 7 0 10 -258113 -262144 -1
0 1;
#X obj 304 154 tgl 8 0 foo6 foo6r empty 17 7 0 10 -258113 -262144 -1
0 1;
#X obj 198 154 tgl 8 0 foo5 foo5r empty 17 7 0 10 -258113 -262144 -1
0 1;
#X obj 699 336 +~;
#X obj 834 335 +~;
#X obj 967 339 +~;
#X obj 211 458 spigot;
#X obj 291 448 spigot;
#X obj 401 453 spigot;
#X obj 457 453 spigot;
#X obj 582 458 spigot;
#X obj 685 453 spigot;
#X obj 829 453 spigot;
#X obj 958 449 spigot;
#X obj 20 246 s go;
#X obj 291 422 r go;
#X obj 402 419 r go;
#X obj 462 419 r go;
#X obj 583 423 r go;
#X obj 680 423 r go;
#X obj 826 423 r go;
#X obj 953 419 r go;
#X obj 555 141 s poll-name;
#X obj 318 -87 bng 15 250 50 0 empty empty empty 17 7 0 10 -262144
-1 -1;
#X obj 555 120 sel 1;
#X obj 211 428 r go;
#X obj 304 138 LED2 \$0;
#X obj 409 138 LED2 \$0;
#X obj 514 138 LED2 \$0;
#X obj 514 163 LED2 \$0;
#X obj 409 164 LED2 \$0;
#X obj 304 163 LED2 \$0;
#X obj 198 163 LED2 \$0;
#X text 807 -58 an 8 track sound recorder 4 mono / 4 stereo tracks
sm2008;
#X obj 395 363 print;
#X connect 0 0 74 0;
#X connect 1 0 74 0;
#X connect 2 0 66 1;
#X connect 3 0 9 0;
#X connect 3 1 0 0;
#X connect 4 0 49 0;
#X connect 5 0 34 0;
#X connect 5 0 86 0;
#X connect 6 0 8 1;
#X connect 6 0 84 0;
#X connect 7 0 8 0;
#X connect 7 0 11 0;
#X connect 8 0 3 0;
#X connect 9 0 1 0;
#X connect 10 0 6 0;
#X connect 11 0 10 0;
#X connect 12 0 32 0;
#X connect 12 0 44 0;
#X connect 13 0 35 0;
#X connect 13 0 88 0;
#X connect 14 0 33 0;
#X connect 14 0 87 0;
#X connect 15 0 36 1;
#X connect 15 0 58 1;
#X connect 16 0 36 0;
#X connect 16 0 58 0;
#X connect 17 0 37 1;
#X connect 17 0 63 1;
#X connect 18 0 37 0;
#X connect 18 0 63 0;
#X connect 19 0 50 0;
#X connect 20 0 52 0;
#X connect 21 0 51 0;
#X connect 22 0 53 0;
#X connect 23 0 54 0;
#X connect 24 0 55 0;
#X connect 25 0 56 0;
#X connect 26 0 66 0;
#X connect 26 0 94 0;
#X connect 26 1 67 0;
#X connect 26 2 68 0;
#X connect 26 3 69 0;
#X connect 26 4 70 0;
#X connect 26 5 71 0;
#X connect 26 6 72 0;
#X connect 26 7 73 0;
#X connect 27 0 30 0;
#X connect 28 0 48 0;
#X connect 29 0 27 0;
#X connect 31 0 27 0;
#X connect 38 0 42 1;
#X connect 38 0 64 1;
#X connect 39 0 42 0;
#X connect 39 0 64 0;
#X connect 40 0 43 1;
#X connect 40 0 65 1;
#X connect 41 0 43 0;
#X connect 41 0 65 0;
#X connect 45 0 67 1;
#X connect 46 0 68 1;
#X connect 48 0 27 0;
#X connect 48 1 47 0;
#X connect 49 0 26 0;
#X connect 50 0 26 0;
#X connect 51 0 26 0;
#X connect 52 0 26 0;
#X connect 53 0 26 0;
#X connect 54 0 26 0;
#X connect 55 0 26 0;
#X connect 56 0 26 0;
#X connect 57 0 69 1;
#X connect 58 0 92 0;
#X connect 59 0 73 1;
#X connect 60 0 72 1;
#X connect 61 0 71 1;
#X connect 62 0 70 1;
#X connect 63 0 91 0;
#X connect 64 0 90 0;
#X connect 65 0 89 0;
#X connect 66 0 32 0;
#X connect 67 0 34 0;
#X connect 68 0 33 0;
#X connect 69 0 35 0;
#X connect 70 0 36 0;
#X connect 71 0 37 0;
#X connect 72 0 42 0;
#X connect 73 0 43 0;
#X connect 75 0 67 0;
#X connect 76 0 68 0;
#X connect 77 0 69 0;
#X connect 78 0 70 0;
#X connect 79 0 71 0;
#X connect 80 0 72 0;
#X connect 81 0 73 0;
#X connect 83 0 4 0;
#X connect 83 0 19 0;
#X connect 83 0 20 0;
#X connect 83 0 21 0;
#X connect 84 0 82 0;
#X connect 85 0 66 0;
#X coords 0 -1 1 1 430 80 1 100 100;
