#N canvas 470 30 506 245 10;
#X obj 38 93 8-trk \$1;
#X obj 38 55 audio-sorter, f 71;
#X connect 1 0 0 0;
#X connect 1 1 0 1;
#X connect 1 2 0 2;
#X connect 1 3 0 3;
#X connect 1 4 0 4;
#X connect 1 5 0 5;
#X connect 1 6 0 6;
#X connect 1 7 0 7;
#X connect 1 8 0 8;
#X connect 1 9 0 9;
#X connect 1 10 0 10;
#X connect 1 11 0 11;
