#N canvas 470 30 446 147 10;
#X obj -6 -11 audio-sorter -------------------------------------;
#X obj -68 27 8-trk \$1;
#X connect 0 0 1 0;
#X connect 0 1 1 1;
#X connect 0 2 1 2;
#X connect 0 3 1 3;
#X connect 0 4 1 4;
#X connect 0 5 1 5;
#X connect 0 6 1 6;
#X connect 0 7 1 7;
#X connect 0 8 1 8;
#X connect 0 9 1 9;
#X connect 0 10 1 10;
#X connect 0 11 1 11;
