#N canvas 133 285 1069 158 10;
#X obj 22 103 outlet~;
#X obj 105 103 outlet~;
#X obj 177 103 outlet~;
#X obj 251 103 outlet~;
#X obj 331 103 outlet~;
#X obj 420 103 outlet~;
#X obj 508 103 outlet~;
#X obj 596 103 outlet~;
#X obj 685 103 outlet~;
#X obj 778 103 outlet~;
#X obj 867 103 outlet~;
#X obj 958 103 outlet~;
#X text 21 8 this abstraction overcomes the 64 sample blocksize delay
sm2008;
#X obj 22 66 catch~ trk1;
#X obj 105 66 catch~ trk2;
#X obj 178 66 catch~ trk3;
#X obj 251 66 catch~ trk4;
#X obj 331 66 catch~ trk5-L;
#X obj 420 66 catch~ trk5-R;
#X obj 508 66 catch~ trk6-L;
#X obj 596 66 catch~ trk6-R;
#X obj 685 66 catch~ trk7-L;
#X obj 778 66 catch~ trk7-R;
#X obj 867 66 catch~ trk8-L;
#X obj 958 66 catch~ trk8-R;
#X connect 13 0 0 0;
#X connect 14 0 1 0;
#X connect 15 0 2 0;
#X connect 16 0 3 0;
#X connect 17 0 4 0;
#X connect 18 0 5 0;
#X connect 19 0 6 0;
#X connect 20 0 7 0;
#X connect 21 0 8 0;
#X connect 22 0 9 0;
#X connect 23 0 10 0;
#X connect 24 0 11 0;
