#N canvas 446 78 878 556 10;
#X obj 276 262 clip~ -1 1;
#X obj 276 237 *~;
#X obj 286 365 svf~ low;
#X obj 276 333 mtof~;
#X obj 277 286 *~ 100;
#X floatatom 330 332 5 0 0 0 - - -;
#X obj 107 141 hsl 128 15 1 10 0 0 empty empty <--smooth_____hard-->
0 8 0 10 -261682 -1 -162280 6700 1;
#X obj 363 367 svf~ low;
#X obj 377 339 mtof~;
#X obj 364 294 *~ 100;
#X obj 357 263 clip~ -1 1;
#X obj 358 241 *~;
#X msg 323 9 0;
#X obj 354 134 +~;
#X floatatom 157 120 5 0 1 1 phase - -;
#X floatatom 107 121 5 0 0 1 Hz - -;
#X obj 276 308 +~ 1;
#X obj 374 319 +~ 1;
#X obj 355 163 cos~;
#X obj 354 98 phasor~;
#X obj 273 105 phasor~;
#X obj 274 164 cos~;
#X obj 273 135 +~;
#X obj 266 65 t f f;
#X obj 315 38 t f f;
#X obj 175 54 line~;
#X msg 168 20 30 \, 0.1 6000;
#X obj 113 246 inlet~ L;
#X obj 182 247 inlet~ R;
#X obj 308 212 line~;
#X msg 307 190 \$1 5;
#X obj 292 453 outlet~ L;
#X obj 360 452 outlet~ R;
#X obj 222 121 bng 15 250 50 0 empty empty empty 17 7 0 10 -262144
-1 -1;
#X obj 53 31 r clock;
#X obj 53 62 intcount2 16;
#X connect 0 0 4 0;
#X connect 1 0 0 0;
#X connect 2 0 31 0;
#X connect 3 0 2 1;
#X connect 4 0 16 0;
#X connect 5 0 2 2;
#X connect 5 0 7 2;
#X connect 6 0 30 0;
#X connect 7 0 32 0;
#X connect 8 0 7 1;
#X connect 9 0 17 0;
#X connect 10 0 9 0;
#X connect 11 0 10 0;
#X connect 12 0 24 0;
#X connect 13 0 18 0;
#X connect 14 0 13 1;
#X connect 15 0 23 0;
#X connect 16 0 3 0;
#X connect 17 0 8 0;
#X connect 18 0 11 0;
#X connect 19 0 13 0;
#X connect 20 0 22 0;
#X connect 21 0 1 0;
#X connect 22 0 21 0;
#X connect 23 0 20 0;
#X connect 23 1 19 0;
#X connect 24 0 20 1;
#X connect 24 1 19 1;
#X connect 26 0 25 0;
#X connect 27 0 2 0;
#X connect 28 0 7 0;
#X connect 29 0 1 1;
#X connect 29 0 11 1;
#X connect 30 0 29 0;
#X connect 33 0 12 0;
#X connect 34 0 35 0;
#X connect 35 0 33 0;
#X coords 0 -1 1 1 140 60 1 100 100;
