#N canvas 625 183 498 536 10;
#X obj 231 156 vline~;
#X obj 169 216 *~;
#X obj 163 19 inlet;
#X obj 173 280 outlet~;
#X obj 165 69 mtof;
#X obj 95 120 osc~;
#X obj 270 100 \$1;
#X msg 270 127 0 \, 1 5 0 \, 0 \$1 5;
#X obj 230 184 *~;
#X obj 238 70 del 5;
#X obj 162 43 t f b b;
#X msg 222 112 0 5;
#X obj 169 242 hip~ 5;
#X obj 279 16 inlet;
#X obj 154 119 osc~;
#X obj 94 192 clip~ -1 1;
#X obj 166 93 + 1;
#X obj 86 155 *~;
#X obj 148 160 *~ 1.2;
#X connect 0 0 8 0;
#X connect 0 0 8 1;
#X connect 1 0 12 0;
#X connect 2 0 10 0;
#X connect 4 0 5 0;
#X connect 4 0 16 0;
#X connect 5 0 17 0;
#X connect 5 0 17 1;
#X connect 6 0 7 0;
#X connect 7 0 0 0;
#X connect 8 0 1 1;
#X connect 9 0 6 0;
#X connect 10 0 4 0;
#X connect 10 1 9 0;
#X connect 10 2 11 0;
#X connect 11 0 0 0;
#X connect 12 0 3 0;
#X connect 13 0 6 1;
#X connect 14 0 18 0;
#X connect 15 0 1 0;
#X connect 16 0 14 0;
#X connect 17 0 15 0;
#X connect 18 0 15 0;
