#N canvas 613 120 498 536 10;
#X obj 258 157 vline~;
#X obj 159 266 *~;
#X obj 147 19 inlet;
#X obj 163 330 outlet~;
#X obj 136 66 mtof;
#X obj 25 152 osc~;
#X obj 258 101 \$1;
#X msg 258 129 0 \, 1 5 0 \, 0 \$1 5;
#X obj 258 185 *~;
#X obj 219 69 del 5;
#X msg 332 101 0 5;
#X obj 159 292 hip~ 5;
#X obj 279 16 inlet;
#X obj 79 148 osc~;
#X obj 94 212 clip~ -1 1;
#X obj 146 43 t f b b, f 25;
#X obj 25 180 *~ 1;
#X obj 136 87 t f f b;
#X obj 79 182 *~;
#X text 23 41 cos bip actually;
#X obj 125 147 osc~;
#X obj 125 181 *~;
#X obj 79 126 * 1.01;
#X obj 125 115 * 0.49;
#N canvas 0 23 450 300 rand 0;
#X obj 128 77 random 1000;
#X obj 128 98 / 1000;
#X obj 128 119 * 2;
#X obj 128 140 sig~;
#X obj 128 55 inlet;
#X obj 128 161 outlet~;
#X connect 0 0 1 0;
#X connect 1 0 2 0;
#X connect 2 0 3 0;
#X connect 3 0 5 0;
#X connect 4 0 0 0;
#X restore 163 158 pd rand;
#N canvas 0 23 450 300 rand 0;
#X obj 128 77 random 1000;
#X obj 128 98 / 1000;
#X obj 128 119 * 2;
#X obj 128 140 sig~;
#X obj 128 55 inlet;
#X obj 128 161 outlet~;
#X connect 0 0 1 0;
#X connect 1 0 2 0;
#X connect 2 0 3 0;
#X connect 3 0 5 0;
#X connect 4 0 0 0;
#X restore 173 181 pd rand;
#X obj 127 242 tanh~;
#X connect 0 0 8 0;
#X connect 0 0 8 1;
#X connect 1 0 11 0;
#X connect 2 0 15 0;
#X connect 4 0 17 0;
#X connect 5 0 16 0;
#X connect 6 0 7 0;
#X connect 7 0 0 0;
#X connect 8 0 1 1;
#X connect 9 0 6 0;
#X connect 10 0 0 0;
#X connect 11 0 3 0;
#X connect 12 0 6 1;
#X connect 13 0 18 0;
#X connect 14 0 26 0;
#X connect 15 0 4 0;
#X connect 15 1 9 0;
#X connect 15 2 10 0;
#X connect 16 0 14 0;
#X connect 17 0 5 0;
#X connect 17 1 22 0;
#X connect 17 1 23 0;
#X connect 17 2 24 0;
#X connect 17 2 25 0;
#X connect 18 0 14 0;
#X connect 20 0 21 0;
#X connect 21 0 14 0;
#X connect 22 0 13 0;
#X connect 23 0 20 0;
#X connect 24 0 18 1;
#X connect 25 0 21 1;
#X connect 26 0 1 0;
