#N canvas 608 380 461 418 10;
#X obj 241 157 vline~;
#X obj 178 195 *~;
#X obj 168 -5 inlet;
#X obj 178 318 outlet~;
#X obj 173 150 osc~;
#X floatatom 172 105 5 0 0 0 - - -, f 5;
#X obj 172 126 mtof;
#X obj 179 284 hip~ 5;
#X msg 241 129 0 \, 1 5 0 \, 0 \$1 5;
#X obj 88 74 t f f b;
#X obj 190 27 unpack f f f;
#X obj 111 42;
#X obj 259 55 sel 1;
#X obj 241 94 \$1, f 9;
#X connect 0 0 1 1;
#X connect 1 0 7 0;
#X connect 2 0 9 0;
#X connect 2 0 10 0;
#X connect 4 0 1 0;
#X connect 5 0 6 0;
#X connect 6 0 4 0;
#X connect 7 0 3 0;
#X connect 8 0 0 0;
#X connect 10 1 5 0;
#X connect 10 2 12 0;
#X connect 12 0 13 0;
#X connect 13 0 8 0;
