#N canvas 691 304 332 382 10;
#X obj 144 146 vline~;
#X obj 71 185 *~;
#X obj 71 18 inlet;
#X obj 71 259 outlet~;
#X obj 71 148 osc~;
#X obj 71 111 mtof;
#X obj 71 222 hip~ 5;
#X msg 144 114 0 \, 1 5 0 \, 0 \$1 5;
#X obj 144 86 \$1;
#X obj 72 56 t f b;
#X connect 0 0 1 1;
#X connect 1 0 6 0;
#X connect 2 0 9 0;
#X connect 4 0 1 0;
#X connect 5 0 4 0;
#X connect 6 0 3 0;
#X connect 7 0 0 0;
#X connect 8 0 7 0;
#X connect 9 0 5 0;
#X connect 9 1 8 0;
