#N canvas 1512 354 514 376 10;
#X obj 265 184 vline~;
#X obj 192 219 *~;
#X obj 192 22 inlet;
#X obj 192 342 outlet~;
#X obj 192 177 osc~;
#X floatatom 129 132 7 0 0 0 - - -;
#X obj 191 153 mtof;
#X obj 193 308 hip~ 5;
#X msg 265 156 0 \, 1 5 0 \, 0 \$1 5;
#X obj 112 101 t f f b;
#X obj 191 59 unpack f f f;
#X connect 0 0 1 1;
#X connect 1 0 7 0;
#X connect 2 0 9 0;
#X connect 2 0 10 0;
#X connect 4 0 1 0;
#X connect 5 0 6 0;
#X connect 6 0 4 0;
#X connect 7 0 3 0;
#X connect 8 0 0 0;
#X connect 10 0 6 0;
#X connect 10 1 8 0;
