#N canvas 289 204 635 506 10;
#X obj 36 34 inlet~;
#X obj 36 286 biquad~;
#X obj 36 309 biquad~;
#X obj 35 355 outlet~;
#X text 323 147 band pass 4th order;
#X obj 118 227 bandpass 4000 50;
#X obj 294 24 cnv 15 200 20 empty empty bandpass_4th_order 10 10 0
14 -261234 -66577 0;
#X obj 123 38 inlet;
#X obj 204 34 inlet;
#X obj 203 167 t b f;
#X obj 123 162 mtof;
#X obj 203 144 + 40;
#X obj 123 137 line;
#X msg 123 113 \$1 50;
#X obj 123 81 clip 0 127;
#X obj 204 124 line;
#X msg 204 100 \$1 50;
#X obj 204 72 clip 0 160;
#X connect 0 0 1 0;
#X connect 1 0 2 0;
#X connect 2 0 3 0;
#X connect 5 0 1 0;
#X connect 5 0 2 0;
#X connect 7 0 14 0;
#X connect 8 0 17 0;
#X connect 9 0 5 0;
#X connect 9 1 5 1;
#X connect 10 0 5 0;
#X connect 11 0 9 0;
#X connect 12 0 10 0;
#X connect 13 0 12 0;
#X connect 14 0 13 0;
#X connect 15 0 11 0;
#X connect 16 0 15 0;
#X connect 17 0 16 0;
