#N canvas 291 23 920 534 10;
#X obj 52 11 ctlin, f 8;
#X obj 53 113 route 80 81 82 83 84 85 86 87, f 63;
#X msg 53 86 \$2 \$1;
#X obj 52 297 outlet;
#X obj 102 297 outlet;
#X obj 152 297 outlet;
#X obj 202 297 outlet;
#X obj 252 297 outlet;
#X obj 302 297 outlet;
#X obj 352 297 outlet;
#X obj 402 297 outlet;
#X obj 53 62 pack f f;
#X floatatom 192 61 5 0 0 0 - - -;
#X floatatom 144 61 5 0 0 0 - - -;
#X floatatom 240 61 5 0 0 0 - - -;
#X obj 463 109 route 1 2 10, f 27;
#X obj 464 62 pack f f f;
#X msg 464 83 \$3 \$2 \$1;
#X obj 471 24 ctlin;
#X obj 462 146 print a;
#X obj 512 173 print b;
#X obj 567 145 print c;
#X obj 264 442 noteout;
#X msg 257 358 72;
#X obj 261 399 makenote 32 1000;
#X obj 510 348 notein;
#X floatatom 505 384 5 0 0 0 - - -;
#X floatatom 545 386 5 0 0 0 - - -;
#X floatatom 586 381 5 0 0 0 - - -;
#X connect 0 0 11 0;
#X connect 0 0 13 0;
#X connect 0 1 11 1;
#X connect 0 1 12 0;
#X connect 0 2 14 0;
#X connect 1 0 3 0;
#X connect 1 1 4 0;
#X connect 1 2 5 0;
#X connect 1 3 6 0;
#X connect 1 4 7 0;
#X connect 1 5 8 0;
#X connect 1 6 9 0;
#X connect 1 7 10 0;
#X connect 2 0 1 0;
#X connect 11 0 2 0;
#X connect 15 0 19 0;
#X connect 15 1 20 0;
#X connect 15 2 21 0;
#X connect 16 0 17 0;
#X connect 17 0 15 0;
#X connect 18 0 16 0;
#X connect 18 1 16 1;
#X connect 18 2 16 2;
#X connect 23 0 24 0;
#X connect 24 0 22 0;
#X connect 24 1 22 1;
#X connect 25 0 26 0;
#X connect 25 1 27 0;
#X connect 25 2 28 0;
