#N canvas 0 23 643 430 10;
#X obj 53 37 ctlin, f 8;
#X obj 53 113 route 80 81 82 83 84 85 86 87, f 63;
#X msg 53 86 \$2 \$1;
#X obj 52 297 outlet;
#X obj 102 297 outlet;
#X obj 152 297 outlet;
#X obj 202 297 outlet;
#X obj 252 297 outlet;
#X obj 302 297 outlet;
#X obj 352 297 outlet;
#X obj 402 297 outlet;
#X obj 53 62 pack f f;
#X connect 0 0 11 0;
#X connect 0 1 11 1;
#X connect 1 0 3 0;
#X connect 1 1 4 0;
#X connect 1 2 5 0;
#X connect 1 3 6 0;
#X connect 1 4 7 0;
#X connect 1 5 8 0;
#X connect 1 6 9 0;
#X connect 1 7 10 0;
#X connect 2 0 1 0;
#X connect 11 0 2 0;
