#N canvas 13 22 806 175 10;
#X obj 33 16 ctlin;
#X obj 33 41 pack f f;
#X msg 33 64 \$2 \$1;
#X obj 31 123 s cc1;
#X obj 83 146 s cc4;
#X obj 66 123 s cc3;
#X obj 44 146 s cc2;
#X obj 111 123 s cc5;
#X obj 124 146 s cc6;
#X obj 146 123 s cc7;
#X obj 163 146 s cc8;
#X obj 189 123 s cc9;
#X obj 203 146 s cc10;
#X obj 232 123 s cc11;
#X obj 249 146 s cc12;
#X obj 283 123 s cc13;
#X obj 296 146 s cc14;
#X obj 329 123 s cc15;
#X obj 340 146 s cc16;
#X obj 409 120 s cc17;
#X obj 426 143 s cc18;
#X obj 458 119 s cc19;
#X obj 474 144 s cc20;
#X obj 508 120 s cc21;
#X obj 523 144 s cc22;
#X obj 554 120 s cc23;
#X obj 568 144 s cc24;
#X obj 597 120 s cc25;
#X obj 611 143 s cc26;
#X obj 643 120 s cc27;
#X obj 657 143 s cc28;
#X obj 691 120 s cc29;
#X obj 743 120 s cc31;
#X obj 704 143 s cc30;
#X obj 749 145 s cc32;
#X obj 102 65 print;
#X obj 33 88 route 0 1 2 3 4 5 6 7 8 9 10 11 12 13 14 15;
#X obj 407 41 pack f f;
#X obj 476 65 print;
#X obj 407 9 notein;
#X obj 410 89 route 36 37 38 39 40 41 42 43 44 45 46 47 48 49 50 51
;
#X text 622 24 Kenton Freak 16 patchbay;
#X connect 0 0 1 0;
#X connect 0 1 1 1;
#X connect 1 0 2 0;
#X connect 2 0 35 0;
#X connect 2 0 36 0;
#X connect 36 0 3 0;
#X connect 36 1 6 0;
#X connect 36 2 5 0;
#X connect 36 3 4 0;
#X connect 36 4 7 0;
#X connect 36 5 8 0;
#X connect 36 6 9 0;
#X connect 36 7 10 0;
#X connect 36 8 11 0;
#X connect 36 9 12 0;
#X connect 36 10 13 0;
#X connect 36 11 14 0;
#X connect 36 12 15 0;
#X connect 36 13 16 0;
#X connect 36 14 17 0;
#X connect 36 15 18 0;
#X connect 37 0 40 0;
#X connect 37 0 38 0;
#X connect 39 0 37 0;
#X connect 39 1 37 1;
#X connect 40 0 19 0;
#X connect 40 1 20 0;
#X connect 40 2 21 0;
#X connect 40 3 22 0;
#X connect 40 4 23 0;
#X connect 40 5 24 0;
#X connect 40 6 25 0;
#X connect 40 7 26 0;
#X connect 40 8 27 0;
#X connect 40 9 28 0;
#X connect 40 10 29 0;
#X connect 40 11 30 0;
#X connect 40 12 31 0;
#X connect 40 13 33 0;
#X connect 40 14 32 0;
#X connect 40 15 34 0;
