#N canvas 572 106 861 776 10;
#X obj 214 109 *~;
#X obj 354 116 line~;
#X msg 354 95 \$1 5;
#X obj 158 124 vu 8 80 empty empty -1 -8 1 9 -66577 -1 0 0;
#X obj 274 110 *~;
#X obj 107 208 hsl 40 15 0 100 0 0 \$0-pan \$0-pan-r empty -2 -8 0
10 -66577 -4034 -1 1950 1;
#X obj 104 123 vsl 36 80 1.3 130 0 0 \$0-vol \$0-vol-r empty 0 -9 0
10 -66577 -258113 -1 6559 1;
#X obj 146 124 vu 8 80 empty empty -1 -8 0 10 -66577 -1 0 0;
#X obj 353 40 r \$0-vol;
#X obj 257 542 outlet~ L;
#X obj 335 544 outlet~ R;
#X obj 214 39 inlet~ L;
#X obj 274 39 inlet~ R;
#X obj 559 -2 loadbang;
#X obj 559 47 pack f;
#X obj 559 23 f \$0;
#X obj 537 24 bng 15 250 50 0 empty empty empty 17 7 0 10 -262144 -1
-1;
#X obj 68 393 r \$0-vol;
#X obj 130 392 r \$0-pan;
#X obj 71 508 table \$0-mixersave 2;
#X obj 68 474 tabwrite \$0-mixersave;
#X msg 68 430 \$1 0;
#X msg 131 430 \$1 1;
#X obj 360 168 r \$0-pan;
#X obj 274 237 -;
#X obj 359 188 / 100;
#X msg 273 216 1 \$1;
#X obj 319 309 *~;
#X obj 245 313 *~;
#X msg 274 260 \$1 5;
#X obj 274 280 line~;
#X msg 337 255 \$1 5;
#X obj 337 275 line~;
#X obj 152 208 bng 15 250 50 0 empty empty empty 17 7 0 10 -86277 -262130
-1;
#X msg 152 265 \; \$1-pan-r 50 \;;
#X obj 152 238 f \$0;
#X floatatom 303 11 5 0 0 0 - - -, f 5;
#X floatatom 396 101 5 0 0 0 - - -, f 5;
#X obj 428 64 curve_log;
#X floatatom 429 85 5 0 0 0 - - -, f 5;
#X obj 355 62 dbtorms;
#X msg 559 73 \; \$1-pan-r 50 \; \$1-vol-r 100 \;;
#X obj 220 360 - 100;
#X obj 292 365 - 100;
#X obj 292 342 env~ 1024;
#X obj 220 338 env~ 1024;
#X connect 0 0 28 0;
#X connect 1 0 0 1;
#X connect 1 0 4 1;
#X connect 2 0 1 0;
#X connect 4 0 27 0;
#X connect 8 0 36 0;
#X connect 8 0 40 0;
#X connect 11 0 0 0;
#X connect 12 0 4 0;
#X connect 13 0 15 0;
#X connect 14 0 41 0;
#X connect 15 0 14 0;
#X connect 16 0 15 0;
#X connect 17 0 21 0;
#X connect 18 0 22 0;
#X connect 21 0 20 0;
#X connect 22 0 20 0;
#X connect 23 0 25 0;
#X connect 24 0 29 0;
#X connect 25 0 26 0;
#X connect 25 0 31 0;
#X connect 26 0 24 0;
#X connect 27 0 10 0;
#X connect 27 0 44 0;
#X connect 28 0 9 0;
#X connect 28 0 45 0;
#X connect 29 0 30 0;
#X connect 30 0 28 1;
#X connect 31 0 32 0;
#X connect 32 0 27 1;
#X connect 33 0 35 0;
#X connect 35 0 34 0;
#X connect 38 0 39 0;
#X connect 40 0 2 0;
#X connect 40 0 37 0;
#X connect 42 0 7 0;
#X connect 43 0 3 0;
#X connect 44 0 43 0;
#X connect 45 0 42 0;
#X coords 0 -1 1 1 75 130 1 100 100;
