#N canvas 223 159 1217 692 10;
#X obj 313 267 cos~;
#X obj 313 290 +~ 1;
#X obj 400 211 +~ 0.25;
#X obj 400 266 cos~;
#X obj 400 289 +~ 1;
#X obj 368 571 outlet~;
#X obj 499 210 +~ 0.25;
#X obj 499 265 cos~;
#X obj 499 288 +~ 1;
#X obj 594 208 +~ 0.25;
#X obj 594 263 cos~;
#X obj 594 286 +~ 1;
#X obj 248 43 inlet~;
#X obj 679 296 line~;
#X obj 679 275 pack 0 50;
#X obj 594 347 *~;
#X obj 499 349 *~;
#X obj 400 350 *~;
#X obj 313 351 *~;
#X obj 309 169 line~;
#X obj 309 144 pack 0 50;
#X obj 313 192 phasor~;
#X obj 536 567 outlet~;
#X text 679 209 modulation;
#X text 304 101 frequency;
#X obj 96 341 block~ 1;
#X obj 107 135 hsl 67 15 0 100 0 1 \$0-depth \$1-depth-r moddepth 15
8 0 10 -90603 -191407 -262144 1500 1;
#X obj 107 153 hsl 67 15 0 1 0 1 \$0-mix \$1-mix-r mix 15 8 0 10 -225271
-1 -1 0 1;
#X obj 107 117 hsl 67 15 0 20 0 1 \$0-freq \$1-freq-r freq 15 8 0 10
-152832 -191407 -262144 0 1;
#X msg 461 437 1 \$1;
#X obj 461 462 -;
#X obj 460 412 r \$0-mix;
#X obj 358 480 *~;
#X obj 523 475 *~;
#X obj 400 479 *~;
#X obj 559 475 *~;
#X obj 307 119 r \$0-freq;
#X obj 673 238 r \$0-depth;
#X obj 90 195 auto \$0-mix \$1-mix-r;
#X obj 90 218 auto \$0-freq \$1-freq-r;
#X obj 90 240 auto \$0-depth \$1-depth-r;
#X obj 251 79 delwrite~ \$0-chorus-L 1000;
#X obj 546 46 inlet~;
#X obj 558 86 delwrite~ \$0-chorus-R 1000;
#X obj 299 374 vd~ \$0-chorus-L;
#X obj 600 369 vd~ \$0-chorus-R;
#X obj 401 374 vd~ \$0-chorus-L;
#X obj 499 370 vd~ \$0-chorus-R;
#X obj 366 535 hip~ 5;
#X obj 536 534 hip~ 5;
#X connect 0 0 1 0;
#X connect 1 0 18 0;
#X connect 2 0 3 0;
#X connect 2 0 6 0;
#X connect 3 0 4 0;
#X connect 4 0 17 0;
#X connect 6 0 7 0;
#X connect 6 0 9 0;
#X connect 7 0 8 0;
#X connect 8 0 16 0;
#X connect 9 0 10 0;
#X connect 10 0 11 0;
#X connect 11 0 15 0;
#X connect 12 0 34 0;
#X connect 12 0 41 0;
#X connect 13 0 15 1;
#X connect 13 0 16 1;
#X connect 13 0 17 1;
#X connect 13 0 18 1;
#X connect 14 0 13 0;
#X connect 15 0 45 0;
#X connect 16 0 47 0;
#X connect 17 0 46 0;
#X connect 18 0 44 0;
#X connect 19 0 21 0;
#X connect 20 0 19 0;
#X connect 21 0 0 0;
#X connect 21 0 2 0;
#X connect 29 0 30 0;
#X connect 30 0 35 1;
#X connect 30 0 34 1;
#X connect 31 0 29 0;
#X connect 31 0 33 1;
#X connect 31 0 32 1;
#X connect 32 0 48 0;
#X connect 33 0 49 0;
#X connect 34 0 48 0;
#X connect 35 0 49 0;
#X connect 36 0 20 0;
#X connect 37 0 14 0;
#X connect 42 0 35 0;
#X connect 42 0 43 0;
#X connect 44 0 32 0;
#X connect 45 0 33 0;
#X connect 46 0 33 0;
#X connect 47 0 32 0;
#X connect 48 0 5 0;
#X connect 49 0 22 0;
#X coords 0 -1 1 1 80 72 1 103 100;
