#N canvas 0 23 450 300 10;
#X obj 67 36 inlet;
#X obj 109 290 change;
#X obj 109 269 int;
#X obj 113 155 f;
#X obj 147 155 + 1;
#X obj 128 100 r reset;
#X msg 128 128 0;
#X obj 109 248 div;
#X obj 216 148 loadbang;
#X obj 109 311 outlet bang;
#X obj 213 226 \$1;
#X obj 237 53 inlet;
#X connect 0 0 3 0;
#X connect 1 0 9 0;
#X connect 2 0 1 0;
#X connect 3 0 4 0;
#X connect 3 0 7 0;
#X connect 4 0 3 1;
#X connect 5 0 6 0;
#X connect 6 0 3 1;
#X connect 7 0 2 0;
#X connect 8 0 10 0;
#X connect 10 0 7 1;
#X connect 11 0 10 0;
