#N canvas 604 280 729 514 10;
#X obj 370 230 pack 0 50;
#X obj 353 292 *~;
#X obj 246 227 pack 0 50;
#X obj 229 289 *~;
#X obj 370 256 line~;
#X obj 246 252 line~;
#X obj 474 78 / 127;
#X obj 474 100 * 1.5708;
#X text 543 100 *~ M_PI/2;
#X obj 229 20 inlet~;
#X obj 339 20 inlet~;
#X obj 230 358 outlet~;
#X obj 474 15 inlet;
#X obj 518 14 loadbang;
#X obj 518 39 f \$1;
#X obj 246 198 cos;
#X obj 370 195 sin;
#X obj 396 20 inlet~;
#X obj 275 20 inlet~;
#X obj 266 291 *~;
#X obj 321 292 *~;
#X obj 341 352 outlet~;
#X obj 103 114 hsl 128 15 0 127 0 0 empty empty empty -2 -8 0 10 -204786
-1 -1 4400 1;
#X connect 0 0 4 0;
#X connect 1 0 21 0;
#X connect 2 0 5 0;
#X connect 3 0 11 0;
#X connect 4 0 1 1;
#X connect 4 0 19 1;
#X connect 5 0 3 1;
#X connect 5 0 20 1;
#X connect 6 0 7 0;
#X connect 7 0 15 0;
#X connect 7 0 16 0;
#X connect 9 0 3 0;
#X connect 10 0 19 0;
#X connect 12 0 6 0;
#X connect 13 0 14 0;
#X connect 14 0 6 0;
#X connect 15 0 2 0;
#X connect 16 0 0 0;
#X connect 17 0 1 0;
#X connect 18 0 20 0;
#X connect 19 0 11 0;
#X connect 20 0 21 0;
#X connect 22 0 6 0;
#X coords 0 -1 1 1 133 32 1 100 100;
