#N canvas 0 22 450 300 10;
#X obj 111 40 inlet~;
#X obj 111 255 outlet~;
#X obj 111 89 +~ 0.5;
#X obj 111 117 cos~;
#X obj 111 140 *~ 0.5;
#X obj 111 160 +~ 0.5;
#X obj 111 203 *~ 100;
#X obj 111 183 clip~ 0 0.01;
#X connect 0 0 2 0;
#X connect 2 0 3 0;
#X connect 3 0 4 0;
#X connect 4 0 5 0;
#X connect 5 0 7 0;
#X connect 6 0 1 0;
#X connect 7 0 6 0;
