#N canvas 464 127 572 506 10;
#X obj 102 272 delay;
#X obj 122 117 bng 15 50 10 0 empty empty empty 0 -6 0 8 -1 -258113
-1;
#X obj 104 117 tgl 15 0 \$0-active.s \$0-active.r empty 0 -6 0 8 -262144
-1 -1 1 1;
#X obj 102 251 random 500;
#X obj 102 230 metro 500;
#X floatatom 104 135 5 0 100 1 - #0-rate.r #0-rate.s;
#X obj 102 328 outlet;
#X obj 145 33 loadbang;
#X obj 145 66 \$1;
#X obj 207 179 / 100;
#X obj 207 202 expr (1-$f1)*5000;
#N canvas 650 159 291 295 store.state 0;
#N canvas 81 45 329 237 read.write 0;
#X obj 74 111 savestate;
#X obj 74 91 r \$0-to.savestate;
#X obj 125 131 s \$0-savestate.right;
#X text 78 33 send and receive lists from the individual abstractions
, f 27;
#X obj 74 171 s \$0-savestate.left;
#X obj 74 131 t a b;
#X obj 101 151 s \$0-stop.loadbang;
#X connect 0 0 5 0;
#X connect 0 1 2 0;
#X connect 1 0 0 0;
#X connect 5 0 4 0;
#X connect 5 1 6 0;
#X restore 52 41 pd read.write;
#X obj 52 91 store.param \$0 active;
#X obj 52 111 store.param \$0 rate;
#X restore 180 104 pd store.state;
#X obj 77 62 inlet;
#X obj 102 192 r \$0-active.s;
#X obj 207 156 r \$0-rate.s;
#X connect 0 0 1 0;
#X connect 0 0 6 0;
#X connect 3 0 0 0;
#X connect 4 0 3 0;
#X connect 7 0 8 0;
#X connect 9 0 10 0;
#X connect 10 0 4 1;
#X connect 10 0 3 1;
#X connect 12 0 2 0;
#X connect 13 0 4 0;
#X connect 14 0 9 0;
#X coords 0 -1 1 1 45 55 1 100 100;
