#N canvas 464 149 976 751 10;
#X obj 103 268 delay;
#X obj 122 117 bng 15 50 10 0 empty empty empty 0 -6 0 8 -1 -258113
-1;
#X obj 104 117 tgl 15 0 empty empty empty 0 -6 0 8 -262144 -1 -1 0
1;
#X obj 103 247 random 500;
#X obj 103 226 metro 500;
#X floatatom 105 135 5 0 100 1 rate - -;
#X obj 103 324 outlet;
#X obj 146 29 loadbang;
#X obj 146 62 \$1;
#X obj 173 175 / 100;
#X obj 173 198 expr (1-$f1)*1000;
#X connect 0 0 1 0;
#X connect 0 0 6 0;
#X connect 2 0 4 0;
#X connect 3 0 0 0;
#X connect 4 0 3 0;
#X connect 5 0 9 0;
#X connect 7 0 8 0;
#X connect 8 0 5 0;
#X connect 9 0 10 0;
#X connect 10 0 4 1;
#X connect 10 0 3 1;
#X coords 0 -1 1 1 65 58 1 100 100;
