#N canvas 300 60 379 606 10;
#X obj 122 118 bng 15 50 10 0 empty \$0-bngs empty 0 -6 0 8 -1 -258113
-1;
#X obj 104 118 tgl 15 0 \$0-active.s \$0-active.r empty 0 -6 0 8 -262144
-1 -1 1 1;
#X floatatom 104 154 5 0 100 1 rate #0-rate.r #0-rate.s;
#X obj 77 526 outlet;
#X obj 22 111 loadbang;
#X obj 177 210 / 100;
#X obj 77 361 random 100;
#X obj 77 382 / 100;
#X obj 77 403 pack f f;
#X msg 77 424 \$1 \$2;
#X obj 161 462 line~;
#X obj 161 526 outlet~;
#X obj 77 299 delay;
#X obj 120 299 random 500;
#X obj 120 322 max 50;
#X obj 120 266 b;
#X msg 77 266 stop;
#X obj 77 232 sel 0 1;
#X obj 214 377 mux 1 2;
#X obj 104 136 tgl 15 0 \$0-smooth.s \$0-smooth.r smooth 17 7 0 10
-4160 -262144 -1 1 1;
#X msg 214 355 0;
#X obj 214 311 t f f;
#X obj 214 332 sel 0;
#X obj 77 462 line 0 50;
#X obj 177 232 max 0.0001;
#X obj 177 255 expr (1-$f1)*2000;
#X obj 161 484 -~ 0.5;
#X obj 161 505 *~ 2;
#X obj 32 328 s \$0-bngs;
#X obj 77 209 r \$0-active.s;
#X obj 177 189 r \$0-rate.s;
#X obj 214 288 r \$0-smooth.s;
#N canvas 650 159 291 295 store.state 0;
#N canvas 81 45 329 237 read.write 0;
#X obj 74 111 savestate;
#X obj 74 91 r \$0-to.savestate;
#X obj 125 131 s \$0-savestate.right;
#X text 78 33 send and receive lists from the individual abstractions
, f 27;
#X obj 74 171 s \$0-savestate.left;
#X obj 74 131 t a b;
#X obj 101 151 s \$0-stop.loadbang;
#X connect 0 0 5 0;
#X connect 0 1 2 0;
#X connect 1 0 0 0;
#X connect 5 0 4 0;
#X connect 5 1 6 0;
#X restore 52 41 pd read.write;
#X obj 52 91 store.param \$0 active;
#X obj 52 111 store.param \$0 smooth;
#X obj 52 131 store.param \$0 rate;
#X restore 181 100 pd store.state;
#X msg 22 134 20;
#X connect 4 0 33 0;
#X connect 5 0 24 0;
#X connect 6 0 7 0;
#X connect 7 0 8 0;
#X connect 8 0 9 0;
#X connect 9 0 10 0;
#X connect 9 0 23 0;
#X connect 10 0 26 0;
#X connect 12 0 13 0;
#X connect 12 0 6 0;
#X connect 12 0 28 0;
#X connect 13 0 14 0;
#X connect 14 0 12 0;
#X connect 14 0 18 1;
#X connect 15 0 13 0;
#X connect 16 0 12 0;
#X connect 17 0 16 0;
#X connect 17 1 15 0;
#X connect 18 0 8 1;
#X connect 20 0 18 0;
#X connect 21 0 22 0;
#X connect 21 1 18 2;
#X connect 22 0 20 0;
#X connect 23 0 3 0;
#X connect 24 0 25 0;
#X connect 25 0 13 1;
#X connect 26 0 27 0;
#X connect 27 0 11 0;
#X connect 29 0 17 0;
#X connect 30 0 5 0;
#X connect 31 0 21 0;
#X coords 0 -1 1 1 69 75 1 100 100;
