#N canvas 919 384 976 774 10;
#X obj 122 118 bng 15 50 10 0 empty empty empty 0 -6 0 8 -1 -258113
-1;
#X obj 104 118 tgl 15 0 empty empty empty 0 -6 0 8 -262144 -1 -1 1
1;
#X floatatom 104 154 5 0 100 1 rate - -, f 5;
#X obj 95 540 outlet;
#X obj 146 29 loadbang;
#X obj 146 62 \$1;
#X obj 179 249 / 100;
#X obj 179 311 expr (1-$f1)*1000;
#X obj 98 408 random 100;
#X obj 97 430 / 100;
#X obj 97 453 pack f f;
#X msg 97 480 \$1 \$2;
#X obj 161 504 line~;
#X obj 161 532 outlet~;
#X obj 78 351 delay;
#X obj 121 347 random 500;
#X obj 122 374 max 50;
#X obj 121 314 b;
#X msg 79 314 stop;
#X obj 99 248 sel 0 1;
#X obj 178 277 max 0.01;
#X obj 164 448 mux 1 2;
#X obj 104 136 tgl 15 1 empty empty smooth 17 7 0 10 -4160 -262144
-1 1 1;
#X msg 170 416 0;
#X obj 193 361 t f f;
#X obj 171 394 sel 0;
#X obj 96 512 line 0 50;
#X connect 1 0 19 0;
#X connect 2 0 6 0;
#X connect 4 0 5 0;
#X connect 5 0 2 0;
#X connect 6 0 20 0;
#X connect 7 0 15 1;
#X connect 8 0 9 0;
#X connect 9 0 10 0;
#X connect 10 0 11 0;
#X connect 11 0 12 0;
#X connect 11 0 26 0;
#X connect 12 0 13 0;
#X connect 14 0 15 0;
#X connect 14 0 8 0;
#X connect 14 0 0 0;
#X connect 15 0 16 0;
#X connect 16 0 14 0;
#X connect 16 0 21 1;
#X connect 17 0 15 0;
#X connect 18 0 14 0;
#X connect 19 0 18 0;
#X connect 19 1 17 0;
#X connect 20 0 7 0;
#X connect 21 0 10 1;
#X connect 22 0 24 0;
#X connect 23 0 21 0;
#X connect 24 0 25 0;
#X connect 24 1 21 2;
#X connect 25 0 23 0;
#X connect 26 0 3 0;
#X coords 0 -1 1 1 75 78 1 100 100;
