#N canvas 63 103 790 496 10;
#X obj 43 212 line~;
#X msg 43 187 0 \, 1 \$1;
#X obj 44 85 t b b;
#X msg 104 195 0 \$1;
#X obj 217 143 *~;
#X obj 217 170 *~;
#X obj 217 193 outlet~;
#X obj 104 169 f \$2;
#X obj 44 119 f \$1;
#X obj 217 8 inlet bng;
#X obj 295 9 inlet att;
#X obj 373 10 inlet dec;
#X obj 217 117 vline~;
#X floatatom 57 150 5 0 0 0 - - -, f 5;
#X obj 104 141 del;
#X obj 104 118 + 1;
#X obj 46 258 *~;
#X obj 45 285 *~;
#X obj 217 71 pack \$1 \$2;
#X msg 217 94 0 \, 1 \$1 \, 0 \$2 \$1;
#X obj 217 49 f \$1;
#X connect 0 0 16 0;
#X connect 0 0 16 1;
#X connect 1 0 0 0;
#X connect 2 0 8 0;
#X connect 3 0 0 0;
#X connect 4 0 5 0;
#X connect 4 0 5 1;
#X connect 5 0 6 0;
#X connect 7 0 3 0;
#X connect 8 0 1 0;
#X connect 8 0 13 0;
#X connect 8 0 15 0;
#X connect 9 0 20 0;
#X connect 10 0 20 1;
#X connect 11 0 18 1;
#X connect 12 0 4 0;
#X connect 12 0 4 1;
#X connect 14 0 7 0;
#X connect 15 0 14 0;
#X connect 16 0 17 0;
#X connect 16 0 17 1;
#X connect 18 0 19 0;
#X connect 19 0 12 0;
#X connect 20 0 18 0;
