#N canvas 293 30 1147 744 10;
#X msg 20 121 duration \$1;
#X msg 321 106 dump;
#X obj 68 305 outlet~;
#X obj 160 290 line;
#X obj 160 318 outlet;
#X obj 175 242 nbx 5 14 -1e+37 1e+37 0 1 \$0-envdepth \$1-envdepth-r
depth 60 7 0 10 -257985 -1 -1 110 256;
#X obj 160 262 *;
#X obj 68 275 *~ 1;
#N canvas 715 487 725 391 store.state 0;
#N canvas 81 45 329 237 read.write 0;
#X obj 74 111 savestate;
#X obj 74 91 r \$0-to.savestate;
#X obj 125 131 s \$0-savestate.right;
#X text 78 33 send and receive lists from the individual abstractions
, f 27;
#X obj 74 171 s \$0-savestate.left;
#X obj 74 131 t a b;
#X obj 101 151 s \$0-stop.loadbang;
#X connect 0 0 5 0;
#X connect 0 1 2 0;
#X connect 1 0 0 0;
#X connect 5 0 4 0;
#X connect 5 1 6 0;
#X restore 52 41 pd read.write;
#X obj 237 91 param-label \$0 mix;
#X obj 52 91 store.text \$0 envvalues;
#X obj 237 111 param-label \$0 length;
#X obj 52 111 store.param \$0 length;
#X obj 53 174 text define \$0-envvalues;
#X restore 270 36 pd store.state;
#X obj 106 196 hsl 109 18 10 5000 0 1 \$0-length.s \$0-length.r length
2 9 0 10 -262144 -1 -1 400 1;
#X obj 270 70 savestate;
#X obj 103 40 inlet;
#X obj 32 208 print;
#X obj 105 118 envgen 108 70 1 0  ;
#X obj 68 231 vline~;
#X connect 0 0 13 0;
#X connect 1 0 13 0;
#X connect 3 0 4 0;
#X connect 5 0 6 1;
#X connect 6 0 3 0;
#X connect 7 0 2 0;
#X connect 9 0 0 0;
#X connect 10 0 13 0;
#X connect 10 1 1 0;
#X connect 11 0 13 0;
#X connect 13 0 14 0;
#X connect 13 1 10 0;
#X connect 14 0 7 0;
#X coords 0 -1 1 1 121 119 1 100 100;
