#N canvas 1038 476 676 430 10;
#X obj 247 158 inlet~;
#X obj 247 228 outlet~;
#X obj 104 120 nbx 5 14 0 1000 0 1 \$0-ramp \$1-ramp-r ms 60 7 0 10
-204800 -1 -1 113 256;
#X msg 105 173 ramp \$1;
#X obj 247 192 rampsmooth~ 44100 44100;
#X floatatom 65 210 10 0 0 0 - - -;
#X obj 104 153 expr $f1/1000*44100;
#X obj 69 58 auto \$0-ramp \$1-ramp-r;
#X connect 0 0 4 0;
#X connect 2 0 6 0;
#X connect 3 0 4 0;
#X connect 4 0 1 0;
#X connect 6 0 3 0;
#X connect 6 0 5 0;
#X coords 0 -1 1 1 85 40 1 100 100;
