#N canvas 930 302 783 619 10;
#X obj 108 448 *~ 0.1;
#X obj 141 408 nbx 5 14 -1e+37 1e+37 0 0 empty amp empty 0 -6 0 10
-262144 -1 -1 1 256;
#X obj 164 353 nbx 5 14 -1e+37 1e+37 0 0 empty \$0-synth_thresh empty
0 -6 0 10 -262144 -1 -1 1.87879 256;
#X obj 142 334 nbx 5 14 -1e+37 1e+37 0 0 empty \$0-transpose empty
0 -6 0 10 -262144 -1 -1 1 256;
#X text 157 310 <- something more interesting could go here.;
#X obj 109 528 hip~ 5;
#X obj 107 158 hsl 100 15 0 2 0 1 \$0-synth_thresh \$1-synth_thresh-r
synth_thresh 9 7 0 10 -162879 -1 -1 9300 0;
#X obj 107 122 hsl 80 15 0.01 1 0 1 \$0-amp \$1-amp-r amp 15 7 0 10
-162879 -1 -33289 7900 0;
#X obj 108 311 inlet~;
#X obj 109 552 outlet~;
#X obj 281 400 r \$0-amp;
#X floatatom 281 426 5 0 0 0 - - -;
#X obj 281 451 s \$1-amp;
#X obj 107 176 hsl 100 15 0 1 0 1 \$0-mix \$1-mix-r mix 30 8 0 10 -225271
-1 -1 6400 1;
#X obj 104 209 hradio 11 1 1 6 \$0-fftsize \$1-fftsize-r fft-size 0
-8 0 10 -261682 -1 -1 1;
#X obj 104 260 expr pow(2 \, $f1)*128;
#X obj 170 209 nbx 4 11 -1e+37 1e+37 0 0 \$0-foo $-foo-r empty 0 -8
1 9 -261682 -1 -1 256 256;
#X obj 159 460 expr 1-$f1;
#X obj 159 435 r \$0-mix;
#X obj 144 490 *~;
#X obj 83 494 *~;
#N canvas 109 388 450 300 admin 0;
#X obj 74 43 auto \$0-amp \$1-amp-r;
#X obj 74 65 auto \$0-threshold \$1-threshold-r;
#X obj 74 109 auto \$0-damp \$1-damp-r;
#X obj 74 131 auto \$0-mix \$1-mix-r;
#X obj 74 153 auto \$0-fftsize \$1-fftsize-r;
#X obj 74 87 auto \$0-transpose \$1-transpose-r;
#X restore 246 104 pd admin;
#N canvas 0 22 502 352 tuneblock 0;
#X obj 33 21 inlet~;
#X obj 97 20 inlet;
#X obj 161 25 inlet;
#X obj 242 56 inlet;
#X obj 33 203 outlet~;
#X obj 33 102 pvtuner~ 0 5000;
#X obj 147 208 block~ 256;
#X connect 0 0 5 0;
#X connect 1 0 5 1;
#X connect 2 0 5 2;
#X connect 3 0 5 0;
#X connect 5 0 4 0;
#X restore 118 377 pd tuneblock;
#X obj 104 140 nbx 4 14 0 48 0 0 \$0-transpose \$1-transpose-r transpose
50 7 0 10 -162879 -1 -1 1 256;
#N canvas 811 586 654 290 \$0-messages 0;
#X obj 21 216 outlet;
#N canvas 0 22 536 459 built-in-scales 0;
#X msg 11 30 major_seventh_chord;
#X msg 41 49 minor_seventh_chord;
#X msg 113 88 minor_added_sixth;
#X msg 84 68 major_added_sixth;
#X msg 320 8 pelog;
#X msg 324 36 slendro;
#X obj 46 312 outlet;
#X msg 296 97 eq5;
#X msg 302 117 eq8;
#X msg 309 138 eq12;
#X msg -1 11 dominant_seventh_chord;
#X msg 276 181 minor;
#X msg 284 208 pentatonic;
#X msg 282 233 eastern;
#X msg 255 261 pentaclust;
#X msg 270 282 quarterclust;
#X connect 0 0 6 0;
#X connect 1 0 6 0;
#X connect 2 0 6 0;
#X connect 3 0 6 0;
#X connect 4 0 6 0;
#X connect 5 0 6 0;
#X connect 7 0 6 0;
#X connect 8 0 6 0;
#X connect 9 0 6 0;
#X connect 10 0 6 0;
#X connect 11 0 6 0;
#X connect 12 0 6 0;
#X connect 13 0 6 0;
#X connect 14 0 6 0;
#X connect 15 0 6 0;
#X restore 21 27 pd built-in-scales;
#N canvas 519 357 742 434 more-scales 0;
#X msg 77 94 27.5 41.25 55 82.5 110 165 220 330 440 660 880 1320 1760
2640 3520 5280 7040 10560 14080 21120;
#X text 80 78 define scale as ordered list of numbers;
#X obj 77 223 outlet;
#X msg 165 148 import_scale /Applications/Pd/Pd-0.38-3.app/Contents/Resources/extra/blue3.scale
;
#X text 161 130 you can even load a file \, but be sure to use a full
pathname;
#X connect 0 0 2 0;
#X connect 3 0 2 0;
#X restore 48 48 pd more-scales;
#N canvas 968 224 694 704 frequency-management 0;
#X obj 37 509 outlet;
#X msg 37 122 toptune \$1;
#X msg 187 129 topfreq \$1;
#X floatatom 37 93 5 0 0 0 - - -;
#X floatatom 187 98 5 0 0 0 - - -;
#X obj 160 31 hsl 200 15 500 9000 0 0 empty empty empty -2 -6 0 8 -126035
-1 -1 0 1;
#X obj 157 57 t f f;
#X msg 258 181 frequency_range 500 2000;
#X msg 258 207 frequency_range 0 6000;
#X text 45 106 highest tuned freq;
#X text 191 114 highest synthesized freq;
#X text 256 166 set synthesize range;
#X msg 155 471 basefreq \$1;
#X floatatom 155 454 5 0 0 0 - - -;
#X obj 158 433 hsl 128 15 27.5 500 0 0 empty empty empty -2 -6 0 8
-261681 -1 -1 0 1;
#X msg 155 406 27.5;
#X obj 155 381 loadbang;
#X text 190 409 set base frequency for scale;
#X obj 40 12 hsl 200 15 500 9000 0 0 empty empty empty -2 -6 0 8 -126035
-1 -1 0 1;
#X connect 1 0 0 0;
#X connect 2 0 0 0;
#X connect 3 0 1 0;
#X connect 4 0 2 0;
#X connect 5 0 6 0;
#X connect 6 0 3 0;
#X connect 6 1 4 0;
#X connect 7 0 0 0;
#X connect 8 0 0 0;
#X connect 12 0 0 0;
#X connect 13 0 12 0;
#X connect 14 0 13 0;
#X connect 15 0 14 0;
#X connect 16 0 15 0;
#X connect 18 0 3 0;
#X restore 56 73 pd frequency-management;
#X msg 109 116 binfo;
#N canvas 0 22 543 426 fft-sys 0;
#X obj 184 217 outlet;
#X msg 252 175 overlap \$1;
#X msg 218 137 4;
#X msg 251 137 8;
#X msg 454 175 winfac \$1;
#X msg 440 138 1;
#X msg 481 138 2;
#X msg 513 134 4;
#X msg 46 185 fftinfo;
#X msg 112 165 mute \$1;
#X obj 112 130 tgl 15 0 empty empty empty 0 -6 0 8 -262144 -1 -1 0
1;
#X text 58 6 FFT size is overlap times the fftease subpatch block size
(256 in our examples). With a blocksize of 256 and overlap 4 your FFT
size is 1024 Higher overlap generally gives higher quality \, but CPU
load is proportional to overlap \, so if you double the overlap \,
you double the CPU load.;
#X text 43 255 winfac determines the ratio between the FFT size and
an input window that funnels samples into the FFT. Roughly speaking
\, smaller window sizes (minimum is 1) give tighter temporal response
\, but higher sizes can improve frequency performance \, especially
with lower FFT sizes.;
#X text 39 347 It is recommended that overlap and winfac only be used
when the DACs are off. They can potentially crash Pd when the DACs
are active.;
#X msg 178 137 2;
#X msg 286 137 16;
#X obj 222 80 r \$0-fftsize;
#X msg 320 138 32;
#X obj 222 103 sel 0 1 2 3 4 5;
#X msg 358 137 64;
#X connect 1 0 0 0;
#X connect 2 0 1 0;
#X connect 3 0 1 0;
#X connect 4 0 0 0;
#X connect 5 0 4 0;
#X connect 6 0 4 0;
#X connect 7 0 4 0;
#X connect 8 0 0 0;
#X connect 9 0 0 0;
#X connect 10 0 9 0;
#X connect 14 0 1 0;
#X connect 15 0 1 0;
#X connect 16 0 18 0;
#X connect 17 0 1 0;
#X connect 18 0 14 0;
#X connect 18 1 2 0;
#X connect 18 2 3 0;
#X connect 18 3 15 0;
#X connect 18 4 17 0;
#X connect 18 5 19 0;
#X connect 19 0 1 0;
#X restore 103 167 pd fft-sys;
#X connect 1 0 0 0;
#X connect 2 0 0 0;
#X connect 3 0 0 0;
#X connect 4 0 0 0;
#X connect 5 0 0 0;
#X restore 203 374 pd \$0-messages;
#X obj 192 122 bng 15 250 50 0 empty empty empty 17 7 0 10 -262144
-1 -1;
#X obj 224 164 \$0;
#X msg 224 188 \; pd-\$1-messages vis 1 \;;
#X connect 0 0 19 0;
#X connect 1 0 0 1;
#X connect 2 0 22 2;
#X connect 3 0 22 1;
#X connect 5 0 9 0;
#X connect 8 0 20 0;
#X connect 8 0 22 0;
#X connect 10 0 11 0;
#X connect 10 0 1 0;
#X connect 11 0 12 0;
#X connect 14 0 15 0;
#X connect 15 0 16 0;
#X connect 17 0 20 1;
#X connect 18 0 17 0;
#X connect 18 0 19 1;
#X connect 19 0 5 0;
#X connect 20 0 5 0;
#X connect 22 0 0 0;
#X connect 24 0 22 3;
#X connect 25 0 26 0;
#X connect 26 0 27 0;
#X coords 0 -1 1 1 113 128 1 100 100;
