#N canvas 583 254 783 619 10;
#X obj 308 249 *~ 0.1;
#X obj 341 204 nbx 5 14 -1e+37 1e+37 0 0 empty amp empty 0 -6 0 10
-262144 -1 -1 2.34343 256;
#X obj 395 120 nbx 5 14 -1e+37 1e+37 0 0 empty \$0-damp empty 0 -6
0 10 -262144 -1 -1 0.996485 256;
#X obj 351 102 nbx 5 14 -1e+37 1e+37 0 0 empty \$0-threshold empty
0 -6 0 10 -262144 -1 -1 0.141417 256;
#X text 357 71 <- something more interesting could go here.;
#X obj 309 329 hip~ 5;
#X obj 687 129 tgl 15 0 empty empty empty 17 7 0 10 -262144 -1 -1 0
1;
#X obj 107 158 hsl 100 15 0.75 0.999 0 1 \$0-damp \$1-damp-r damping_factor
9 7 0 10 -162879 -1 -1 9800 0;
#X obj 107 140 hsl 100 15 1e-05 0.2 0 1 \$0-threshold \$1-threshold-r
threshold 15 7 0 10 -162879 -1 -33289 7000 0;
#X obj 107 122 hsl 100 15 0 4 0 1 \$0-amp \$1-amp-r amp 15 7 0 10 -162879
-1 -33289 5800 0;
#X obj 308 72 inlet~;
#X obj 309 353 outlet~;
#X obj 491 135 r \$0-amp;
#X floatatom 491 161 5 0 0 0 - - -, f 5;
#X obj 491 186 s \$1-amp;
#N canvas 61 170 543 426 fft-sys 0;
#X obj 184 217 outlet;
#X msg 252 175 overlap \$1;
#X msg 218 137 4;
#X msg 251 137 8;
#X msg 454 175 winfac \$1;
#X msg 440 138 1;
#X msg 481 138 2;
#X msg 513 134 4;
#X msg 46 185 fftinfo;
#X msg 112 165 mute \$1;
#X obj 112 130 tgl 15 0 empty empty empty 0 -6 0 8 -262144 -1 -1 0
1;
#X text 58 6 FFT size is overlap times the fftease subpatch block size
(256 in our examples). With a blocksize of 256 and overlap 4 your FFT
size is 1024 Higher overlap generally gives higher quality \, but CPU
load is proportional to overlap \, so if you double the overlap \,
you double the CPU load.;
#X text 43 255 winfac determines the ratio between the FFT size and
an input window that funnels samples into the FFT. Roughly speaking
\, smaller window sizes (minimum is 1) give tighter temporal response
\, but higher sizes can improve frequency performance \, especially
with lower FFT sizes.;
#X text 39 347 It is recommended that overlap and winfac only be used
when the DACs are off. They can potentially crash Pd when the DACs
are active.;
#X msg 178 137 2;
#X msg 286 137 16;
#X obj 222 80 r \$0-fftsize;
#X msg 320 138 32;
#X obj 222 103 sel 0 1 2 3 4 5;
#X msg 358 137 64;
#X connect 1 0 0 0;
#X connect 2 0 1 0;
#X connect 3 0 1 0;
#X connect 4 0 0 0;
#X connect 5 0 4 0;
#X connect 6 0 4 0;
#X connect 7 0 4 0;
#X connect 8 0 0 0;
#X connect 9 0 0 0;
#X connect 10 0 9 0;
#X connect 14 0 1 0;
#X connect 15 0 1 0;
#X connect 16 0 18 0;
#X connect 17 0 1 0;
#X connect 18 0 14 0;
#X connect 18 1 2 0;
#X connect 18 2 3 0;
#X connect 18 3 15 0;
#X connect 18 4 17 0;
#X connect 18 5 19 0;
#X connect 19 0 1 0;
#X restore 683 161 pd fft-sys;
#X obj 107 176 hsl 100 15 0 1 0 1 \$0-mix \$1-mix-r mix 30 8 0 10 -225271
-1 -1 7500 1;
#X obj 104 279 hradio 11 1 1 6 \$0-fftsize \$1-fftsize-r fft-size 0
-8 0 10 -261682 -1 -1 1;
#X obj 104 330 expr pow(2 \, $f1)*128;
#X obj 173 279 nbx 4 11 -1e+37 1e+37 0 0 \$0-foo $-foo-r empty 0 -8
1 9 -261682 -1 -1 256 256;
#X obj 367 256 expr 1-$f1;
#X obj 367 233 r \$0-mix;
#X obj 344 291 *~;
#X obj 274 295 *~;
#N canvas 109 388 450 300 admin 0;
#X obj 74 43 auto \$0-amp \$1-amp-r;
#X obj 75 64 auto \$0-threshold \$1-threshold-r;
#X obj 76 84 auto \$0-damp \$1-damp-r;
#X obj 76 104 auto \$0-mix \$1-mix-r;
#X obj 76 126 auto \$0-fftsize \$1-fftsize-r;
#X restore 697 67 pd admin;
#X obj 308 140 thresher~ \$1 \$2;
#X connect 0 0 22 0;
#X connect 1 0 0 1;
#X connect 2 0 25 2;
#X connect 3 0 25 1;
#X connect 5 0 11 0;
#X connect 10 0 23 0;
#X connect 10 0 25 0;
#X connect 12 0 13 0;
#X connect 12 0 1 0;
#X connect 13 0 14 0;
#X connect 17 0 18 0;
#X connect 18 0 19 0;
#X connect 20 0 23 1;
#X connect 21 0 20 0;
#X connect 21 0 22 1;
#X connect 22 0 5 0;
#X connect 23 0 5 0;
#X connect 25 0 0 0;
#X coords 0 -1 1 1 113 95 1 100 100;
