#N canvas 301 105 607 514 10;
#X obj 54 37 inlet~;
#X obj 52 269 biquad~;
#X obj 52 365 outlet~;
#X obj 128 210 highpass 4000 50;
#X obj 137 36 inlet;
#X obj 218 32 inlet;
#X obj 217 165 t b f;
#X obj 137 160 mtof;
#X obj 217 142 + 40;
#X obj 137 135 line;
#X msg 137 111 \$1 50;
#X obj 137 79 clip 0 127;
#X obj 218 122 line;
#X msg 218 98 \$1 50;
#X obj 218 70 clip 0 160;
#X obj 382 24 cnv 15 200 20 empty empty highpass_4th_order 10 10 0
14 -261234 -66577 0;
#X obj 52 307 biquad~;
#X connect 0 0 1 0;
#X connect 1 0 16 0;
#X connect 3 0 1 0;
#X connect 3 0 16 0;
#X connect 4 0 11 0;
#X connect 5 0 14 0;
#X connect 6 0 3 0;
#X connect 6 1 3 1;
#X connect 7 0 3 0;
#X connect 8 0 6 0;
#X connect 9 0 7 0;
#X connect 10 0 9 0;
#X connect 11 0 10 0;
#X connect 12 0 8 0;
#X connect 13 0 12 0;
#X connect 14 0 13 0;
#X connect 16 0 2 0;
