#N canvas 420 284 528 408 10;
#X obj 109 290 change;
#X obj 109 269 int;
#X obj 113 155 f;
#X obj 147 155 + 1;
#X obj 116 19 inlet;
#X obj 107 368 outlet;
#X obj 128 100 r reset;
#X msg 128 128 0;
#X obj 324 13 inlet;
#X obj 189 16 inlet;
#X obj 109 248 div;
#X obj 250 17 inlet;
#X obj 216 148 loadbang;
#X obj 109 311 mod \$1;
#X obj 213 226 \$2;
#X obj 174 342 b;
#X obj 174 366 outlet;
#X text 279 93 <mod no> <div value> <step>;
#X connect 0 0 13 0;
#X connect 1 0 0 0;
#X connect 2 0 3 0;
#X connect 2 0 10 0;
#X connect 3 0 2 1;
#X connect 4 0 2 0;
#X connect 6 0 7 0;
#X connect 7 0 2 1;
#X connect 8 0 3 1;
#X connect 9 0 13 1;
#X connect 10 0 1 0;
#X connect 11 0 14 0;
#X connect 12 0 14 0;
#X connect 13 0 5 0;
#X connect 13 0 15 0;
#X connect 14 0 10 1;
#X connect 15 0 16 0;
