#N canvas 0 23 454 304 10;
#X obj 138 92 r reset;
#X msg 54 136 0;
#X obj 53 92 inlet;
#X obj 54 204 outlet;
#X obj 163 158 mod \$1;
#X obj 85 160 + 1;
#X obj 53 160 f;
#X obj 196 92 inlet;
#X obj 273 91 inlet;
#X text 322 100 <mod size> <step>;
#X obj 54 114 route reset;
#X connect 0 0 1 0;
#X connect 1 0 6 1;
#X connect 2 0 10 0;
#X connect 4 0 6 1;
#X connect 5 0 4 0;
#X connect 6 0 3 0;
#X connect 6 0 5 0;
#X connect 7 0 4 1;
#X connect 8 0 5 1;
#X connect 10 0 1 0;
#X connect 10 1 6 0;
