#N canvas 896 383 659 618 10;
#X obj 102 276 jon~, f 15;
#N canvas 1162 89 387 608 receive_params 0;
#X msg 57 290 input_diffusion1 \$1;
#X msg 70 349 input_diffusion2 \$1;
#X msg 78 410 decay_diffusion1 \$1;
#X msg 87 469 decay_diffusion2 \$1;
#X msg 33 75 predelay \$1;
#X msg 33 132 bandwidth \$1;
#X msg 33 183 damping \$1;
#X msg 33 238 decay \$1;
#X msg 125 533 excursion \$1;
#X obj 33 547 outlet;
#X obj 33 48 r \$0-predelay.s;
#X obj 34 105 r \$0-bandwidth.s;
#X obj 33 159 r \$0-damping.s;
#X obj 33 213 r \$0-decay.s;
#X obj 125 503 r \$0-excursion.s;
#X obj 57 268 r \$0-indiffus1.s;
#X obj 70 322 r \$0-indiffus2.s;
#X obj 78 383 r \$0-decdiffus1.s;
#X obj 87 442 r \$0-decdiffus2.s;
#X connect 0 0 9 0;
#X connect 1 0 9 0;
#X connect 2 0 9 0;
#X connect 3 0 9 0;
#X connect 4 0 9 0;
#X connect 5 0 9 0;
#X connect 6 0 9 0;
#X connect 7 0 9 0;
#X connect 8 0 9 0;
#X connect 10 0 4 0;
#X connect 11 0 5 0;
#X connect 12 0 6 0;
#X connect 13 0 7 0;
#X connect 14 0 8 0;
#X connect 15 0 0 0;
#X connect 16 0 1 0;
#X connect 17 0 2 0;
#X connect 18 0 3 0;
#X restore 190 242 pd receive_params;
#X obj 102 242 inlet~;
#X obj 145 242 inlet~;
#X obj 102 303 outlet~;
#X obj 189 305 outlet~;
#X obj 107 158 hsl 60 18 220.5 22050 1 0 \$0-damping.s \$0-damping.r
damping 2 9 0 10 -262144 -1 -1 3902 0;
#X obj 107 178 hsl 60 18 0 1 0 0 \$0-decay.s \$0-decay.r decay 2 9
0 10 -262144 -1 -1 5782 0;
#X obj 107 118 hsl 60 18 0 250 0 0 \$0-predelay.s \$0-predelay.r predelay
2 9 0 10 -262144 -1 -1 0 0;
#X obj 107 138 hsl 60 18 220.5 22050 1 0 \$0-bandwidth.s \$0-bandwidth.r
bandwidth 2 9 0 10 -262144 -1 -1 4887 0;
#X obj 174 138 hsl 60 18 0 1 0 0 \$0-indiffus2.s \$0-indiffus2.r indiffus2
2 9 0 10 -262144 -1 -1 4366 0;
#X obj 174 118 hsl 60 18 0 1 0 0 \$0-indiffus1.s \$0-indiffus1.r indiffus1
2 9 0 10 -262144 -1 -1 4596 0;
#X obj 174 178 hsl 60 18 0 1 0 0 \$0-decdiffus2.s \$0-decdiffus2.r
decdiffus2 2 9 0 10 -262144 -1 -1 3172 0;
#X obj 174 158 hsl 60 18 0 1 0 0 \$0-decdiffus1.s \$0-decdiffus1.r
decdiffus1 2 9 0 10 -262144 -1 -1 4012 0;
#X obj 107 198 hsl 60 18 0 5 0 0 \$0-excursion.s \$0-excursion.r excursion
2 9 0 10 -262144 -1 -1 808 0;
#N canvas 856 708 474 324 presets 0;
#X msg 37 67 default;
#X msg 37 136 huge;
#X msg 37 159 huge_noexcursion;
#X msg 37 90 large;
#X msg 37 113 large_noexcursion;
#X msg 37 182 tadada;
#X msg 227 183 metallic;
#X msg 227 159 bubblebath;
#N canvas 624 189 1236 362 preset_loader 0;
#X obj 39 18 inlet;
#X obj 39 99 route default large large_noexcursion huge huge_noexcursion
tadada, f 162;
#X obj 39 45 pack s \$0;
#X obj 39 72 list trim;
#X msg 39 176 \; \$1-predelay.r 0 \; \$1-bandwidth.r 22050 \; \$1-damping.r
22050 \; \$1-decay.r 0.5 \; \$1-excursion.r 0.75 \; \$1-indiffus1.r
0.625 \; \$1-indiffus2.r 0.7 \; \$1-decdiffus1.r 0.5 \; \$1-decdiffus2.r
0.53761 \;;
#X msg 200 176 \; \$1-predelay.r 0 \; \$1-bandwidth.r 10000 \; \$1-damping.r
4637 \; \$1-decay.r 0.98 \; \$1-excursion.r 0.685 \; \$1-indiffus1.r
0.779 \; \$1-indiffus2.r 0.74 \; \$1-decdiffus1.r 0.68 \; \$1-decdiffus2.r
0.53761 \;;
#X msg 362 176 \; \$1-predelay.r 0 \; \$1-bandwidth.r 10000 \; \$1-damping.r
4637 \; \$1-decay.r 0.98 \; \$1-excursion.r 0.685 \; \$1-indiffus1.r
0.779 \; \$1-indiffus2.r 0.74 \; \$1-decdiffus1.r 0.68 \; \$1-decdiffus2.r
0 \;;
#X msg 523 176 \; \$1-predelay.r 10 \; \$1-bandwidth.r 10000 \; \$1-damping.r
4637 \; \$1-decay.r 0.99 \; \$1-excursion.r 0.685 \; \$1-indiffus1.r
0.779 \; \$1-indiffus2.r 0.889 \; \$1-decdiffus1.r 0.84 \; \$1-decdiffus2.r
0.53761 \;;
#X msg 685 176 \; \$1-predelay.r 10 \; \$1-bandwidth.r 10000 \; \$1-damping.r
4637 \; \$1-decay.r 0.99 \; \$1-excursion.r 0.685 \; \$1-indiffus1.r
0.779 \; \$1-indiffus2.r 0.889 \; \$1-decdiffus1.r 0.84 \; \$1-decdiffus2.r
0 \;;
#X msg 846 176 \; \$1-predelay.r 216.535 \; \$1-bandwidth.r 22050 \;
\$1-damping.r 22050 \; \$1-decay.r 0.677165 \; \$1-excursion.r 0.850394
\; \$1-indiffus1.r 0.92126 \; \$1-indiffus2.r 0.80315 \; \$1-decdiffus1.r
0.818898 \; \$1-decdiffus2.r 0.11811 \;;
#X connect 0 0 2 0;
#X connect 1 0 4 0;
#X connect 1 1 5 0;
#X connect 1 2 6 0;
#X connect 1 3 7 0;
#X connect 1 4 8 0;
#X connect 1 5 9 0;
#X connect 2 0 3 0;
#X connect 3 0 1 0;
#X restore 37 219 pd preset_loader;
#N canvas 760 761 678 492 preset_loader 0;
#X obj 40 26 inlet;
#X obj 40 104 route metallic bubblebath;
#X msg 39 203 \; \$1-predelay.r 0 \; \$1-bandwidth.r 22050 \; \$1-damping.r
22050 \; \$1-decay.r 0.653543 \; \$1-excursion.r 0.629921 \; \$1-indiffus1.r
0.409449 \; \$1-indiffus2.r 0.889764 \; \$1-decdiffus1.r 0.866142 \;
\$1-decdiffus2.r 0 \;;
#X msg 209 204 \; \$1-predelay.r 0 \; \$1-bandwidth.r 2894.14 \; \$1-damping.r
22050 \; \$1-decay.r 0.92126 \; \$1-excursion.r 0.897638 \; \$1-indiffus1.r
0.299213 \; \$1-indiffus2.r 0.984252 \; \$1-decdiffus1.r 0.944882 \;
\$1-decdiffus2.r 0.393701 \;;
#X obj 40 52 pack s \$0;
#X obj 40 79 list trim;
#X connect 0 0 4 0;
#X connect 1 0 2 0;
#X connect 1 1 3 0;
#X connect 4 0 5 0;
#X connect 5 0 1 0;
#X restore 227 219 pd preset_loader;
#X obj 37 17 loadbang;
#X connect 0 0 8 0;
#X connect 1 0 8 0;
#X connect 2 0 8 0;
#X connect 3 0 8 0;
#X connect 4 0 8 0;
#X connect 5 0 8 0;
#X connect 6 0 9 0;
#X connect 7 0 9 0;
#X connect 10 0 0 0;
#X restore 314 268 pd presets;
#X msg 288 293 \; pd-presets vis \$1;
#X obj 175 201 tgl 15 0 empty empty presets 17 7 0 10 -262144 -1 -1
0 1;
#N canvas 785 629 394 295 store.state 0;
#N canvas 81 45 329 237 read.write 0;
#X obj 74 111 savestate;
#X obj 74 91 r \$0-to.savestate;
#X obj 125 131 s \$0-savestate.right;
#X text 78 33 send and receive lists from the individual abstractions
, f 27;
#X obj 74 171 s \$0-savestate.left;
#X obj 74 131 t a b;
#X obj 101 151 s \$0-stop.loadbang;
#X connect 0 0 5 0;
#X connect 0 1 2 0;
#X connect 1 0 0 0;
#X connect 5 0 4 0;
#X connect 5 1 6 0;
#X restore 50 32 pd read.write;
#X obj 50 82 store.param \$0 predelay;
#X obj 50 102 store.param \$0 bandwidth;
#X obj 50 122 store.param \$0 damping;
#X obj 50 142 store.param \$0 decay;
#X obj 50 162 store.param \$0 indiffus1;
#X obj 50 182 store.param \$0 indiffus2;
#X obj 50 222 store.param \$0 decdiffus2;
#X obj 50 202 store.param \$0 decdiffus1;
#X obj 50 242 store.param \$0 excursion;
#X obj 219 82 param-label \$0 predelay;
#X obj 219 102 param-label \$0 bandwidth;
#X obj 219 122 param-label \$0 damping;
#X obj 219 142 param-label \$0 decay;
#X obj 219 162 param-label \$0 indiffus1;
#X obj 219 182 param-label \$0 indiffus2;
#X obj 219 202 param-label \$0 decdiffus1;
#X obj 219 222 param-label \$0 decdiffus2;
#X obj 219 242 param-label \$0 excursion;
#X restore 283 61 pd store.state;
#X obj 305 376 print, f 7;
#X connect 0 0 4 0;
#X connect 0 1 5 0;
#X connect 1 0 0 2;
#X connect 1 0 19 0;
#X connect 2 0 0 0;
#X connect 3 0 0 1;
#X connect 17 0 16 0;
#X coords 0 -1 1 1 140 121 1 100 100;
