#N canvas 1077 274 659 618 10;
#X obj 100 509 jon~, f 15;
#N canvas 66 50 387 608 receive_params 0;
#X msg 58 293 input_diffusion1 \$1;
#X msg 70 349 input_diffusion2 \$1;
#X msg 78 410 decay_diffusion1 \$1;
#X msg 87 469 decay_diffusion2 \$1;
#X msg 33 75 predelay \$1;
#X msg 33 132 bandwidth \$1;
#X msg 33 183 damping \$1;
#X msg 33 238 decay \$1;
#X msg 125 533 excursion \$1;
#X obj 33 547 outlet;
#X obj 33 48 r predelay;
#X obj 33 105 r bandwidth;
#X obj 33 159 r damping;
#X obj 33 213 r decay;
#X obj 58 268 r input_diffusion1;
#X obj 70 322 r input_diffusion2;
#X obj 78 383 r decay_diffusion1;
#X obj 87 442 r decay_diffusion2;
#X obj 125 503 r excursion;
#X connect 0 0 9 0;
#X connect 1 0 9 0;
#X connect 2 0 9 0;
#X connect 3 0 9 0;
#X connect 4 0 9 0;
#X connect 5 0 9 0;
#X connect 6 0 9 0;
#X connect 7 0 9 0;
#X connect 8 0 9 0;
#X connect 10 0 4 0;
#X connect 11 0 5 0;
#X connect 12 0 6 0;
#X connect 13 0 7 0;
#X connect 14 0 0 0;
#X connect 15 0 1 0;
#X connect 16 0 2 0;
#X connect 17 0 3 0;
#X connect 18 0 8 0;
#X restore 188 475 pd receive_params;
#X obj 100 475 inlet~;
#X obj 143 475 inlet~;
#X obj 100 536 outlet~;
#X obj 187 538 outlet~;
#X obj 111 159 hsl 60 18 220.5 22050 1 0 param3 param3 damping 2 9
0 10 -262144 -1 -1 5900 0;
#X floatatom 177 159 10 0 0 0 - param3 damping;
#X obj 111 179 hsl 60 18 0 1 0 0 param4 param4 decay 2 9 0 10 -262144
-1 -1 5900 0;
#X floatatom 177 178 10 0 0 0 - param4 decay;
#X obj 111 119 hsl 60 18 0 250 0 0 param1 param1 predelay 2 9 0 10
-262144 -1 -1 5900 0;
#X floatatom 177 120 10 0 0 0 - param1 predelay;
#X obj 111 139 hsl 60 18 220.5 22050 1 0 param2 param2 bandwidth 2
9 0 10 -262144 -1 -1 4200 0;
#X floatatom 177 140 10 0 0 0 - param2 bandwidth;
#X obj 111 219 hsl 60 18 0 1 0 0 param6 param6 indiffus2 2 9 0 10 -262144
-1 -1 5900 0;
#X floatatom 177 214 10 0 0 0 - param6 input_diffusion2;
#X obj 111 199 hsl 60 18 0 1 0 0 param5 param5 indiffus1 2 9 0 10 -262144
-1 -1 5900 0;
#X floatatom 177 196 10 0 0 0 - param5 input_diffusion1;
#X obj 111 259 hsl 60 18 0 1 0 0 param8 param8 decdiffus2 2 9 0 10
-262144 -1 -1 5900 0;
#X floatatom 177 248 10 0 0 0 - param8 decay_diffusion2;
#X obj 111 239 hsl 60 18 0 1 0 0 param7 param7 decdiffus1 2 9 0 10
-262144 -1 -1 5900 0;
#X floatatom 177 231 10 0 0 0 - param7 decay_diffusion1;
#X obj 111 279 hsl 60 18 0 5 0 0 param9 param9 excursion 2 9 0 10 -262144
-1 -1 1366 0;
#X floatatom 177 265 10 0 0 0 - param9 excursion;
#N canvas 2 50 474 324 presets 0;
#X msg 37 67 default;
#X msg 37 136 huge;
#X msg 37 159 huge_noexcursion;
#X msg 37 90 large;
#X msg 37 113 large_noexcursion;
#X msg 37 182 tadada;
#X msg 227 183 metallic;
#X msg 227 159 bubblebath;
#N canvas 15 98 678 492 preset_loader 0;
#X obj 40 26 inlet;
#X msg 43 122 \; param1 0 \; param2 22050 \; param3 22050 \; param4
0.5 \; param5 0.75 \; param6 0.625 \; param7 0.7 \; param8 0.5 \; param9
0.53761 \;;
#X msg 19 306 \; param1 0 \; param2 10000 \; param3 4637 \; param4
0.98 \; param5 0.685 \; param6 0.779 \; param7 0.74 \; param8 0.68
\; param9 0.53761 \;;
#X msg 199 123 \; param1 0 \; param2 10000 \; param3 4637 \; param4
0.98 \; param5 0.685 \; param6 0.779 \; param7 0.74 \; param8 0.68
\; param9 0 \;;
#X msg 181 303 \; param1 10 \; param2 10000 \; param3 4637 \; param4
0.99 \; param5 0.685 \; param6 0.779 \; param7 0.889 \; param8 0.84
\; param9 0.53761 \;;
#X msg 359 131 \; param1 10 \; param2 10000 \; param3 4637 \; param4
0.99 \; param5 0.685 \; param6 0.779 \; param7 0.889 \; param8 0.84
\; param9 0 \;;
#X msg 346 302 \; param1 216.535 \; param2 22050 \; param3 22050 \;
param4 0.677165 \; param5 0.850394 \; param6 0.92126 \; param7 0.80315
\; param8 0.818898 \; param9 0.11811 \;;
#X obj 39 70 route default large large_noexcursion huge huge_noexcursion
tadada;
#X connect 0 0 7 0;
#X connect 7 0 1 0;
#X connect 7 1 2 0;
#X connect 7 2 3 0;
#X connect 7 3 4 0;
#X connect 7 4 5 0;
#X connect 7 5 6 0;
#X restore 37 219 pd preset_loader;
#N canvas 15 98 678 492 preset_loader 0;
#X obj 40 26 inlet;
#X msg 39 203 \; param1 0 \; param2 22050 \; param3 22050 \; param4
0.653543 \; param5 0.629921 \; param6 0.409449 \; param7 0.889764 \;
param8 0.866142 \; param9 0 \;;
#X msg 209 204 \; param1 0 \; param2 2894.14 \; param3 22050 \; param4
0.92126 \; param5 0.897638 \; param6 0.299213 \; param7 0.984252 \;
param8 0.944882 \; param9 0.393701 \;;
#X obj 39 70 route metallic bubblebath;
#X connect 0 0 3 0;
#X connect 3 0 1 0;
#X connect 3 1 2 0;
#X restore 227 219 pd preset_loader;
#X obj 37 17 loadbang;
#X connect 0 0 8 0;
#X connect 1 0 8 0;
#X connect 2 0 8 0;
#X connect 3 0 8 0;
#X connect 4 0 8 0;
#X connect 5 0 8 0;
#X connect 6 0 9 0;
#X connect 7 0 9 0;
#X connect 10 0 0 0;
#X restore 312 501 pd presets;
#X msg 286 526 \; pd-presets vis \$1;
#X obj 108 300 tgl 15 0 empty empty presets 17 7 0 10 -262144 -1 -1
1 1;
#X connect 0 0 4 0;
#X connect 0 1 5 0;
#X connect 1 0 0 2;
#X connect 2 0 0 0;
#X connect 3 0 0 1;
#X connect 26 0 25 0;
#X coords 0 -1 1 1 146 238 1 100 100;
