#N canvas 520 157 799 743 10;
#X obj 194 169 ctlin;
#X obj 430 178 del 3000;
#X obj 296 235 spigot;
#X msg 332 211 1;
#X msg 395 211 0;
#X obj 137 118 bng 15 250 50 0 \$0-learn foo1 empty 17 7 0 10 -262144
-1 -1;
#X obj 282 294 f;
#X obj 192 292 spigot;
#X obj 224 265 ==;
#X obj 238 294 tgl 15 0 empty empty empty 17 7 0 10 -262144 -1 -1 0
1;
#X obj 297 256 t b f;
#X obj 225 223 t f f;
#X obj 192 359 outlet;
#X floatatom 103 117 5 0 0 0 - #0-ctl-num foo;
#X floatatom 103 135 5 0 0 0 - #0-ctl-val foo;
#X obj 137 136 tgl 15 0 foo \$0-learning empty 17 7 0 10 -262144 -1
-262144 0 1;
#X obj 438 275 pack \$0 f;
#X msg 447 216 16;
#X msg 488 217 0;
#X obj 369 96 r \$0-learn;
#X obj 369 118 t b b;
#X obj 463 245 t b f;
#X msg 437 303 \; \$1-learning color \$2;
#X obj 280 332 s \$0-ctl-num;
#X obj 98 337 s \$0-ctl-val;
#X obj 351 249 s \$0-learning;
#X text 197 106 midi learn -;
#X connect 0 0 7 0;
#X connect 0 1 11 0;
#X connect 1 0 4 0;
#X connect 1 0 18 0;
#X connect 2 0 10 0;
#X connect 3 0 2 1;
#X connect 3 0 25 0;
#X connect 4 0 2 1;
#X connect 4 0 25 0;
#X connect 6 0 8 1;
#X connect 6 0 23 0;
#X connect 7 0 12 0;
#X connect 7 0 24 0;
#X connect 8 0 7 1;
#X connect 8 0 9 0;
#X connect 10 0 6 0;
#X connect 10 1 6 1;
#X connect 11 0 8 0;
#X connect 11 1 2 0;
#X connect 16 0 22 0;
#X connect 17 0 21 0;
#X connect 18 0 21 0;
#X connect 19 0 20 0;
#X connect 20 0 3 0;
#X connect 20 0 17 0;
#X connect 20 1 1 0;
#X connect 21 0 16 0;
#X connect 21 1 16 1;
#X coords 0 -1 1 1 55 56 1 100 100;
