#N canvas 620 23 799 743 10;
#X obj 194 169 ctlin;
#X obj 528 191 del 3000;
#X obj 296 235 spigot;
#X msg 329 209 1;
#X msg 435 291 0;
#X obj 137 118 bng 15 250 50 0 \$0-learn foo1 empty 17 7 0 10 -262144
-1 -1;
#X obj 282 294 f;
#X obj 192 292 spigot;
#X obj 224 265 ==;
#X obj 238 294 tgl 15 0 empty empty empty 17 7 0 10 -262144 -1 -1 1
1;
#X obj 282 261 t b f;
#X obj 225 223 t f f;
#X obj 192 339 outlet;
#X floatatom 103 118 5 0 0 0 - #0-ctl-num.r #0-ctl-num.s;
#X floatatom 103 136 5 0 0 0 - #0-ctl-val foo;
#X obj 137 136 tgl 15 0 foo \$0-learning empty 17 7 0 10 -262144 -1
-262144 0 1;
#X obj 536 288 pack \$0 f;
#X msg 545 229 16;
#X msg 586 230 0;
#X obj 369 96 r \$0-learn;
#X obj 369 118 t b b, f 27;
#X obj 561 258 t b f;
#X msg 535 316 \; \$1-learning color \$2;
#X obj 98 337 s \$0-ctl-val;
#X obj 391 331 s \$0-learning;
#X text 197 106 midi learn -;
#N canvas 715 487 725 391 store.state 1;
#N canvas 81 45 329 237 read.write 0;
#X obj 74 111 savestate;
#X obj 74 91 r \$0-to.savestate;
#X obj 125 131 s \$0-savestate.right;
#X text 78 33 send and receive lists from the individual abstractions
, f 27;
#X obj 74 171 s \$0-savestate.left;
#X obj 74 131 t a b;
#X obj 101 151 s \$0-stop.loadbang;
#X connect 0 0 5 0;
#X connect 0 1 2 0;
#X connect 1 0 0 0;
#X connect 5 0 4 0;
#X connect 5 1 6 0;
#X restore 52 41 pd read.write;
#X obj 52 91 store.param \$0 mix;
#X obj 52 111 store.param \$0 depth;
#X obj 52 131 store.param \$0 freq;
#X obj 237 91 param-label \$0 mix;
#X obj 237 111 param-label \$0 depth;
#X obj 237 131 param-label \$0 freq;
#X restore 101 64 pd store.state;
#X obj 282 331 s \$0-ctl-num.r;
#X obj 282 173 r \$0-ctl-num.s;
#X connect 0 0 7 0;
#X connect 0 1 11 0;
#X connect 1 0 4 0;
#X connect 1 0 18 0;
#X connect 2 0 10 0;
#X connect 3 0 2 1;
#X connect 3 0 24 0;
#X connect 4 0 2 1;
#X connect 4 0 24 0;
#X connect 6 0 8 1;
#X connect 6 0 27 0;
#X connect 7 0 12 0;
#X connect 7 0 23 0;
#X connect 8 0 7 1;
#X connect 8 0 9 0;
#X connect 10 0 6 0;
#X connect 10 1 6 1;
#X connect 11 0 8 0;
#X connect 11 1 2 0;
#X connect 16 0 22 0;
#X connect 17 0 21 0;
#X connect 18 0 21 0;
#X connect 19 0 20 0;
#X connect 20 0 3 0;
#X connect 20 0 17 0;
#X connect 20 1 1 0;
#X connect 21 0 16 0;
#X connect 21 1 16 1;
#X connect 28 0 10 0;
#X coords 0 -1 1 1 55 56 1 100 100;
