#N canvas 247 205 739 561 10;
#X obj 100 100 cnv 15 15 15 empty \$0-color-test • -1 9 0 30 -1 -24198
0;
#X obj 151 -127 inlet on/off;
#X obj 164 -69 sel 0 1 2;
#X obj 80 -80 loadbang;
#X obj 103 -28 pack \$0 22 0 22;
#X msg 103 54 \; \$1-color-test color \$2 \$3 \$4;
#X obj 213 -27 pack \$0 22 0 16;
#X obj 318 -26 pack \$0 22 0 13;
#X connect 1 0 2 0;
#X connect 2 0 4 0;
#X connect 2 1 6 0;
#X connect 2 2 7 0;
#X connect 3 0 4 0;
#X connect 4 0 5 0;
#X connect 6 0 5 0;
#X connect 7 0 5 0;
#X coords 0 -1 1 1 16 16 2 100 100;
