#N canvas 732 30 952 795 10;
#X obj 100 100 cnv 8 8 8 empty \$0-color-test • 2 4 0 9 -1 -1 0;
#X obj 96 -102 env~;
#X obj 211 -69 moses 100;
#X obj 152 -69 moses 90;
#X obj 98 -131 inlet~;
#X obj 99 -69 moses 1;
#X msg 154 -36 16;
#X msg 256 -36 13;
#X msg 210 -37 14;
#X msg 99 -36 22;
#X obj 164 34 pack f \$0;
#X msg 164 61 \; \$2-color-test color 22 \$1;
#X connect 1 0 5 0;
#X connect 2 0 8 0;
#X connect 2 1 7 0;
#X connect 3 0 6 0;
#X connect 3 1 2 0;
#X connect 4 0 1 0;
#X connect 5 0 9 0;
#X connect 5 1 3 0;
#X connect 6 0 10 0;
#X connect 7 0 10 0;
#X connect 8 0 10 0;
#X connect 9 0 10 0;
#X connect 10 0 11 0;
#X coords 0 -1 1 1 8 8 2 100 100;
