#N canvas 1369 192 952 795 10;
#X obj 100 100 cnv 8 8 8 empty \$0-color-test empty 2 4 0 9 -24198
-33289 0;
#X obj 96 153 env~;
#X obj 210 195 moses 100;
#X obj 151 195 moses 90;
#X obj 96 131 inlet~;
#X obj 98 195 moses 1;
#X msg 153 228 16;
#X msg 255 228 13;
#X msg 209 227 14;
#X msg 98 231 22;
#X obj 163 298 pack f \$0;
#X obj 97 175 speedlim 125;
#X msg 163 325 \; \$2-color-test color \$1 \$1;
#X connect 1 0 11 0;
#X connect 2 0 8 0;
#X connect 2 1 7 0;
#X connect 3 0 6 0;
#X connect 3 1 2 0;
#X connect 4 0 1 0;
#X connect 5 0 9 0;
#X connect 5 1 3 0;
#X connect 6 0 10 0;
#X connect 7 0 10 0;
#X connect 8 0 10 0;
#X connect 9 0 10 0;
#X connect 10 0 12 0;
#X connect 11 0 5 0;
#X coords 0 -1 1 1 8 8 2 100 100;
