#N canvas 0 23 450 300 10;
#X obj 70 83 t l l;
#X obj 96 117 list length;
#X obj 96 138 t b f;
#X obj 96 159 random;
#X obj 61 191 list split;
#X obj 71 29 inlet;
#X obj 89 267 outlet;
#X obj 89 229 list split 1;
#X connect 0 0 4 0;
#X connect 0 1 1 0;
#X connect 1 0 2 0;
#X connect 2 0 3 0;
#X connect 2 1 3 1;
#X connect 3 0 4 1;
#X connect 4 1 7 0;
#X connect 5 0 0 0;
#X connect 7 0 6 0;
