#N canvas 690 192 615 476 10;
#X obj 164 9 inlet;
#X obj 242 10 inlet;
#X obj 74 12 inlet~;
#X obj 241 143 t b f;
#X floatatom 99 158 8 0 0 0 - - -;
#X obj 73 239 biquad~;
#X obj 73 274 outlet~;
#X obj 161 176 lowpass 4000 50;
#X obj 241 120 + 40;
#X obj 164 52 clip 0 127;
#X obj 388 16 cnv 15 200 20 empty empty lowpass_2nd_order 10 10 0 14
-232576 -66577 0;
#X obj 242 100 line;
#X msg 242 76 \$1 50;
#X obj 242 48 clip 0 160;
#X floatatom 286 186 5 0 0 0 - - -;
#X msg 164 84 \$1 100;
#X obj 164 108 line;
#X obj 165 134 mtof;
#X connect 0 0 9 0;
#X connect 1 0 13 0;
#X connect 2 0 5 0;
#X connect 3 0 7 0;
#X connect 3 1 7 1;
#X connect 3 1 14 0;
#X connect 5 0 6 0;
#X connect 7 0 5 0;
#X connect 8 0 3 0;
#X connect 9 0 15 0;
#X connect 11 0 8 0;
#X connect 12 0 11 0;
#X connect 13 0 12 0;
#X connect 15 0 16 0;
#X connect 16 0 17 0;
#X connect 17 0 4 0;
#X connect 17 0 7 0;
