#N canvas 691 237 607 468 10;
#X obj 164 9 inlet;
#X obj 242 10 inlet;
#X obj 74 12 inlet~;
#X obj 241 143 t b f;
#X obj 164 133 mtof;
#X floatatom 99 158 8 0 0 0 - - -;
#X obj 74 205 biquad~;
#X obj 74 228 biquad~;
#X obj 73 274 outlet~;
#X obj 161 176 lowpass 4000 50;
#X obj 241 120 + 40;
#X obj 164 108 line;
#X msg 164 84 \$1 50;
#X obj 164 52 clip 0 127;
#X obj 388 16 cnv 15 200 20 empty empty lowpass_4th_order 10 10 0 14
-261234 -66577 0;
#X obj 242 100 line;
#X msg 242 76 \$1 50;
#X obj 242 48 clip 0 160;
#X floatatom 286 186 5 0 0 0 - - -;
#X connect 0 0 13 0;
#X connect 1 0 17 0;
#X connect 2 0 6 0;
#X connect 3 0 9 0;
#X connect 3 1 9 1;
#X connect 3 1 18 0;
#X connect 4 0 5 0;
#X connect 4 0 9 0;
#X connect 6 0 7 0;
#X connect 7 0 8 0;
#X connect 9 0 6 0;
#X connect 9 0 7 0;
#X connect 10 0 3 0;
#X connect 11 0 4 0;
#X connect 12 0 11 0;
#X connect 13 0 12 0;
#X connect 15 0 10 0;
#X connect 16 0 15 0;
#X connect 17 0 16 0;
