#N canvas 157 32 1283 868 10;
#X obj 277 500 svf~ main;
#X obj 595 230 int;
#X obj 594 66 + 1;
#X obj 567 66 int;
#N canvas 213 59 591 590 swingbox 0;
#X obj 48 141 alternate;
#X obj 36 9 inlet;
#X obj 33 284 outlet;
#X obj 344 88 r swing;
#X obj 240 161 *;
#X obj 287 118 t b f;
#X floatatom 240 197 5 0 0 0 - - -;
#X obj 208 43 r mstr-ms;
#X obj 209 78 * 4;
#X obj 284 45 t b f;
#X obj 284 18 inlet divSize;
#X obj 212 127 / 2;
#X obj 96 56 r mstr-reset;
#X msg 96 117 reset;
#X obj 36 60 t b;
#X floatatom 111 171 5 0 0 0 - - -;
#X obj 17 197 delay 0;
#X obj 84 196 delay 0;
#X connect 0 1 17 0;
#X connect 1 0 14 0;
#X connect 3 0 5 0;
#X connect 4 0 6 0;
#X connect 5 0 4 0;
#X connect 5 1 4 1;
#X connect 7 0 8 0;
#X connect 8 0 11 0;
#X connect 9 0 8 0;
#X connect 9 1 8 1;
#X connect 10 0 9 0;
#X connect 11 0 4 0;
#X connect 12 0 13 0;
#X connect 13 0 0 0;
#X connect 14 0 16 0;
#X connect 15 0 17 1;
#X connect 16 0 2 0;
#X connect 17 0 2 0;
#X restore 567 41 pd swingbox;
#X msg 675 40 0;
#N canvas 380 83 371 424 \$0-midi-input 0;
#X obj 78 64 notein;
#X obj 78 155 stripnote;
#X obj 78 114 pack f f f;
#X obj 79 302 s \$0-seldiv;
#X msg 78 261 1;
#X msg 108 261 2;
#X msg 137 261 3;
#X msg 166 261 4;
#X obj 195 263 s \$0-rev;
#X obj 78 212 sel 49 57 53 51 50;
#X connect 0 0 2 0;
#X connect 0 1 2 1;
#X connect 0 2 2 2;
#X connect 1 0 9 0;
#X connect 2 0 1 0;
#X connect 4 0 3 0;
#X connect 5 0 3 0;
#X connect 6 0 3 0;
#X connect 7 0 3 0;
#X connect 9 0 4 0;
#X connect 9 1 5 0;
#X connect 9 2 6 0;
#X connect 9 3 7 0;
#X connect 9 4 8 0;
#X restore 239 27 pd \$0-midi-input;
#N canvas 739 98 1050 638 \$0-looper 0;
#X obj 489 556 outlet~;
#X floatatom 421 -7 5 0 0 0 - - -;
#X obj 63 229 vline~;
#X floatatom 594 283 8 0 0 0 - - -;
#N canvas 78 540 594 560 ramplength-convert 0;
#X floatatom 167 349 8 0 0 0 - - -;
#X obj 167 386 outlet;
#X obj 164 223 r mstr-ms;
#X obj 204 272 t b f;
#X obj 231 245 / 4;
#X obj 231 223 r \$0-num-beats;
#X obj 168 273 * 1;
#X obj 164 311 * 2;
#X connect 0 0 1 0;
#X connect 2 0 6 0;
#X connect 3 0 7 0;
#X connect 3 1 7 1;
#X connect 4 0 3 0;
#X connect 5 0 4 0;
#X connect 6 0 7 0;
#X connect 7 0 0 0;
#X restore 117 68 pd ramplength-convert;
#X obj 523 288 f;
#X obj 538 122 inlet rev;
#X obj 63 256 s~ \$0-phase;
#X obj 490 94 r~ \$0-phase;
#X obj 565 153 r \$0-buf-numFrm;
#X obj 489 373 tabread4~ \$0-buf;
#X obj 565 238 / 16;
#X obj 65 179 pack f f;
#X msg 63 204 0 \, 1 \$2;
#N canvas 457 397 475 434 norm-phase 0;
#X obj 29 6 inlet~;
#X obj 101 246 outlet~;
#X obj 101 171 *~;
#X obj 101 208 +~;
#X obj 180 166 *~;
#X obj 180 145 sig~;
#X obj 187 189 samphold~;
#X obj 168 122 samphold~;
#X obj 169 100 sig~;
#X obj 179 3 inlet slicePos;
#X obj 284 3 inlet nfrm;
#X obj 101 110 *~ 1;
#X obj 101 136 wrap~;
#X msg 134 80 -1;
#X msg 104 80 1;
#X obj 111 53 sel 0 1;
#X obj 99 3 inlet rev;
#X obj 206 83 r~ \$0-phase;
#X obj 238 155 r~ \$0-phase;
#X connect 0 0 11 0;
#X connect 2 0 3 0;
#X connect 3 0 1 0;
#X connect 4 0 6 0;
#X connect 5 0 4 0;
#X connect 6 0 3 1;
#X connect 7 0 2 1;
#X connect 8 0 7 0;
#X connect 9 0 5 0;
#X connect 10 0 8 0;
#X connect 10 0 4 1;
#X connect 11 0 12 0;
#X connect 12 0 2 0;
#X connect 13 0 11 1;
#X connect 14 0 11 1;
#X connect 15 0 14 0;
#X connect 15 1 13 0;
#X connect 16 0 15 0;
#X connect 17 0 7 1;
#X connect 18 0 6 1;
#X restore 489 342 pd norm-phase;
#X obj 488 512 *~;
#X obj 284 -28 inlet stutter;
#X obj 396 -37 r \$0-slicePos;
#X obj 412 168 r mstr-ms;
#X obj 193 119 multiplex 1 2;
#X msg 310 279 1 5;
#X obj 386 167 f;
#X obj 386 142 spigot;
#N canvas 81 244 412 425 phase-env 0;
#X obj 111 40 inlet~;
#X obj 111 255 outlet~;
#X obj 111 89 +~ 0.5;
#X obj 111 117 cos~;
#X obj 111 140 *~ 0.5;
#X obj 111 160 +~ 0.5;
#X obj 111 204 *~ 100;
#X obj 109 183 clip~ 0 0.01;
#X connect 0 0 2 0;
#X connect 2 0 3 0;
#X connect 3 0 4 0;
#X connect 4 0 5 0;
#X connect 5 0 7 0;
#X connect 6 0 1 0;
#X connect 7 0 6 0;
#X restore 520 442 pd phase-env;
#X obj 507 397 r~ \$0-phase;
#X obj 489 468 *~;
#X obj 400 19 t b b b f;
#X obj 376 326 vline~;
#N canvas 0 244 486 485 \$0-fill 0;
#X obj 179 288 i;
#X obj 208 288 + 1;
#X msg 126 269 bang;
#X msg 256 223 stop;
#X msg 293 222 0;
#X obj 179 253 delay 200;
#X obj 34 108 t b b;
#X obj 229 172 /;
#X obj 179 315 mod 4;
#X obj 256 201 t b b;
#X obj 179 339 sel 3;
#X obj 317 291 - 1;
#X obj 266 120 t b f f f;
#X obj 83 202 spigot;
#X obj 116 174 tgl 15 0 empty empty empty 0 -6 0 10 -262144 -1 -1 1
1;
#X obj 116 150 > 1;
#X obj 218 383 bng 15 50 10 0 empty empty empty 0 -6 0 10 -262144 -1
-1;
#X obj 35 400 outlet;
#X obj 34 25 inlet clk;
#X obj 205 54 t f f;
#X obj 112 24 r mstr-ms;
#X obj 97 382 spigot;
#X obj 320 30 inlet;
#X obj 232 27 r \$1-fillval;
#X obj 213 7 inlet fillval;
#X connect 0 0 1 0;
#X connect 0 0 2 0;
#X connect 0 0 8 0;
#X connect 1 0 0 1;
#X connect 2 0 5 0;
#X connect 3 0 5 0;
#X connect 4 0 0 0;
#X connect 5 0 0 0;
#X connect 6 0 17 0;
#X connect 6 1 13 0;
#X connect 7 0 5 1;
#X connect 8 0 10 0;
#X connect 9 0 3 0;
#X connect 9 1 4 0;
#X connect 10 0 9 0;
#X connect 10 0 16 0;
#X connect 10 1 21 0;
#X connect 11 0 10 1;
#X connect 12 0 7 0;
#X connect 12 1 7 1;
#X connect 12 2 8 1;
#X connect 12 3 11 0;
#X connect 13 0 2 0;
#X connect 14 0 13 1;
#X connect 15 0 14 0;
#X connect 18 0 6 0;
#X connect 19 0 15 0;
#X connect 19 1 12 0;
#X connect 20 0 7 0;
#X connect 21 0 17 0;
#X connect 22 0 21 1;
#X connect 24 0 19 0;
#X restore 280 174 pd \$0-fill;
#X floatatom 308 147 5 0 0 0 - - -;
#X msg 307 253 bang;
#X obj 316 206 sel 0;
#X obj 290 17 t f f f f;
#X obj 308 101 loadbang;
#X msg 308 123 4;
#X msg 388 215 1 \, 0.2 \$1;
#X connect 2 0 7 0;
#X connect 4 0 12 1;
#X connect 5 0 14 1;
#X connect 6 0 5 1;
#X connect 8 0 14 0;
#X connect 9 0 11 0;
#X connect 10 0 25 0;
#X connect 11 0 3 0;
#X connect 11 0 14 3;
#X connect 12 0 13 0;
#X connect 13 0 2 0;
#X connect 14 0 10 0;
#X connect 15 0 0 0;
#X connect 16 0 32 0;
#X connect 17 0 1 0;
#X connect 17 0 26 0;
#X connect 18 0 21 1;
#X connect 19 0 12 0;
#X connect 20 0 27 0;
#X connect 21 0 35 0;
#X connect 22 0 21 0;
#X connect 23 0 25 1;
#X connect 24 0 23 0;
#X connect 25 0 15 0;
#X connect 26 0 19 0;
#X connect 26 0 28 0;
#X connect 26 1 22 0;
#X connect 26 2 5 0;
#X connect 26 3 14 2;
#X connect 27 0 15 1;
#X connect 28 0 19 1;
#X connect 29 0 28 1;
#X connect 30 0 20 0;
#X connect 31 0 30 0;
#X connect 32 0 19 2;
#X connect 32 1 31 0;
#X connect 32 2 28 2;
#X connect 32 3 22 1;
#X connect 33 0 34 0;
#X connect 34 0 29 0;
#X connect 35 0 27 0;
#X restore 274 367 pd \$0-looper;
#X obj 567 156 mod 16;
#X obj 595 207 tabread \$0-diceRoll;
#N canvas 928 547 940 593 \$0-loop_buf 0;
#N canvas 0 22 458 308 (subpatch) 0;
#X array \$0-buf 92095 float 2;
#X coords 0 1 92095 -1 300 150 1;
#X restore 57 83 graph;
#X obj 438 39 openpanel;
#X obj 440 177 soundfiler;
#X floatatom 394 215 10 0 0 0 - - -;
#X msg 394 176 bang;
#X obj 438 11 inlet;
#X obj 685 56 stripdir;
#X obj 440 112 pack s s;
#X obj 485 69 loadbang;
#X obj 485 90 symbol \$0-buf;
#X obj 497 12 bng 15 250 50 0 empty empty empty 0 -6 0 10 -262144 -1
-1;
#X obj 686 131 s2l _;
#X obj 686 154 unpack f;
#X msg 440 148 read -resize \$1 \$2;
#X obj 394 237 s \$0-buf-numFrm;
#X msg 329 299 \; \$0-buf normalize;
#X obj 511 268 s \$0-num-beats;
#X obj 751 128 s \$0-filename;
#X obj 511 217 expr ($f1/44.1);
#X obj 643 291 nbx 5 14 -1e+37 1e+37 0 0 num-beats empty beats 0 -6
2 15 -86853 -260097 -203904 0 256;
#N canvas 159 113 390 373 beat-guesser 0;
#X obj 62 98 moses 600;
#X obj 113 120 moses 1200;
#X obj 170 143 moses 2400;
#X msg 62 121 1;
#X obj 35 71 t b f;
#X obj 227 167 moses 4800;
#X msg 113 143 2;
#X msg 170 164 4;
#X msg 227 189 8;
#X obj 41 236 f;
#X msg 284 212 16;
#X obj 284 190 moses 9600;
#X obj 37 24 inlet;
#X obj 41 318 outlet;
#X connect 0 0 3 0;
#X connect 0 1 1 0;
#X connect 1 0 6 0;
#X connect 1 1 2 0;
#X connect 2 0 7 0;
#X connect 2 1 5 0;
#X connect 3 0 9 1;
#X connect 4 0 9 0;
#X connect 4 1 0 0;
#X connect 5 0 8 0;
#X connect 5 1 11 0;
#X connect 6 0 9 1;
#X connect 7 0 9 1;
#X connect 8 0 9 1;
#X connect 9 0 13 0;
#X connect 10 0 9 1;
#X connect 11 0 10 0;
#X connect 12 0 4 0;
#X restore 511 241 pd beat-guesser;
#X connect 1 0 7 0;
#X connect 1 0 6 0;
#X connect 2 0 3 0;
#X connect 2 0 18 0;
#X connect 3 0 14 0;
#X connect 4 0 3 0;
#X connect 5 0 1 0;
#X connect 6 0 11 0;
#X connect 6 0 17 0;
#X connect 7 0 13 0;
#X connect 8 0 9 0;
#X connect 9 0 7 1;
#X connect 10 0 1 0;
#X connect 11 0 12 0;
#X connect 13 0 2 0;
#X connect 18 0 20 0;
#X connect 20 0 19 0;
#X connect 20 0 16 0;
#X restore 106 351 pd \$0-loop_buf;
#X obj 101 121 cnv 15 204 1 empty empty empty 20 12 0 14 -66577 -66577
0;
#X obj 567 132 change;
#X obj 567 110 int;
#X obj 257 782 outlet~;
#X obj 369 437 line~;
#X obj 369 459 mtof~;
#X obj 568 182 t f f;
#X obj 628 80 r \$0-num-beats;
#X obj 628 101 / 4;
#X obj 567 87 / 2;
#X obj 564 291 s \$0-slicePos;
#X obj 675 17 r reset;
#X obj 940 9 loadbang;
#X obj 940 58 pack f;
#X obj 940 34 f \$0;
#X obj 359 602 tanh~;
#X obj 267 605 *~;
#X obj 564 262 multiplex 1;
#X obj 895 17 bng 15 250 50 0 empty empty empty 17 7 0 10 -262144 -1
-1;
#X obj 627 236 r \$0-remix;
#X obj 369 390 r \$0-cutoff;
#X obj 471 213 s \$0-locate-r;
#X obj 308 323 r \$0-rev;
#X obj 274 303 r \$0-stutter;
#X obj 348 487 r \$0-res;
#X obj 101 123 cnv 15 204 155 empty empty empty 20 12 0 14 -262130
-66577 0;
#X obj 106 257 bng 15 250 50 0 empty empty empty 20 7 0 10 -262144
-1 -1;
#N canvas 0 22 607 396 (subpatch) 0;
#X array \$0-diceRoll 16 float 2;
#X coords 0 15 16 0 145 90 1;
#X restore 107 152 graph;
#X symbolatom 124 257 21 0 0 0 - #0-filename -;
#X obj 255 167 tgl 15 0 \$0-rev \$0-rev-r rev 18 7 0 10 -260097 -1
-1 0 1;
#X obj 256 264 hradio 8 1 0 4 empty empty empty 0 -6 0 10 -262144 -1
-1 0;
#X obj 255 182 tgl 15 0 \$0-stutter \$0-stutter-r stut 18 7 0 10 -258113
-1 -1 0 1;
#X obj 255 152 tgl 15 0 \$0-remix empty remix 18 7 0 10 -204800 -1
-1 0 1;
#X floatatom 184 133 4 0 100 1 clip #0-clip-r #0-clip;
#X obj 107 244 hradio 9 1 0 16 empty \$0-locate-r empty 0 -8 0 10 -262144
-1 -1 0;
#X obj 255 201 vsl 10 50 0 127 0 0 \$0-cutoff \$0-cutoff-r c 2 25 0
10 -262144 -1 -1 4900 1;
#X obj 267 201 vsl 10 50 0 1.2 0 0 \$0-res \$0-res-r q 2 25 0 10 -262144
-1 -1 0 1;
#X obj 429 501 r \$0-clip;
#X obj 494 643 line~;
#X msg 369 413 \$1 50;
#X msg 494 620 \$1 50;
#X floatatom 243 133 4 0 16 1 beats #0-beats-r #0-beats;
#X obj 610 132 r \$0-beats;
#X obj 567 19 r clock;
#N canvas 0 22 761 505 smooth_mux~ 0;
#X obj 88 93 == 0;
#X obj 123 93 == 1;
#X obj 157 93 == 2;
#X obj 193 93 == 3;
#X obj 88 62 t f f f f;
#X obj 71 125 sig~;
#X obj 71 146 lop~ 70;
#X obj 123 125 sig~;
#X obj 123 146 lop~ 70;
#X obj 173 125 sig~;
#X obj 173 146 lop~ 70;
#X obj 222 125 sig~;
#X obj 222 146 lop~ 70;
#X obj 238 220 *~;
#X obj 87 9 inlet;
#X obj 261 36 inlet~;
#X obj 307 36 inlet~;
#X obj 352 36 inlet~;
#X obj 396 36 inlet~;
#X obj 275 220 *~;
#X obj 310 220 *~;
#X obj 347 220 *~;
#X obj 240 292 outlet~;
#X connect 0 0 5 0;
#X connect 1 0 7 0;
#X connect 2 0 9 0;
#X connect 3 0 11 0;
#X connect 4 0 0 0;
#X connect 4 1 1 0;
#X connect 4 2 2 0;
#X connect 4 3 3 0;
#X connect 5 0 6 0;
#X connect 6 0 13 1;
#X connect 7 0 8 0;
#X connect 8 0 19 1;
#X connect 9 0 10 0;
#X connect 10 0 20 1;
#X connect 11 0 12 0;
#X connect 12 0 21 1;
#X connect 13 0 22 0;
#X connect 14 0 4 0;
#X connect 15 0 13 0;
#X connect 16 0 19 0;
#X connect 17 0 20 0;
#X connect 18 0 21 0;
#X connect 19 0 22 0;
#X connect 20 0 22 0;
#X connect 21 0 22 0;
#X restore 253 538 pd smooth_mux~;
#X obj 532 583 max 1;
#X obj 487 746 line~;
#X msg 487 722 \$1 50;
#X obj 266 702 /~ 100;
#X obj 266 679 -~;
#X obj 383 632 clip~ -0.3 0.3;
#X msg 940 83 \; \$1-cutoff-r 127 \; \$1-mstr-vol-r 100 \; \$1-clip-r
100 \;;
#X obj 186 747 s~ drum;
#X obj 308 647 cos~;
#X obj 892 174 until;
#X obj 893 216 f;
#X obj 929 216 + 1;
#X msg 889 139 16;
#X connect 0 0 55 1;
#X connect 0 1 55 2;
#X connect 0 2 55 3;
#X connect 0 3 55 4;
#X connect 1 0 28 1;
#X connect 2 0 3 1;
#X connect 3 0 2 0;
#X connect 3 0 20 0;
#X connect 4 0 3 0;
#X connect 5 0 3 1;
#X connect 7 0 0 0;
#X connect 8 0 17 0;
#X connect 8 0 32 0;
#X connect 9 0 1 0;
#X connect 12 0 8 0;
#X connect 13 0 12 0;
#X connect 15 0 16 0;
#X connect 16 0 0 1;
#X connect 17 0 28 0;
#X connect 17 1 9 0;
#X connect 18 0 19 0;
#X connect 19 0 20 1;
#X connect 20 0 13 0;
#X connect 22 0 5 0;
#X connect 23 0 25 0;
#X connect 23 0 68 0;
#X connect 24 0 62 0;
#X connect 25 0 24 0;
#X connect 27 0 60 0;
#X connect 27 0 26 0;
#X connect 27 0 61 0;
#X connect 27 0 64 0;
#X connect 28 0 21 0;
#X connect 29 0 25 0;
#X connect 30 0 28 2;
#X connect 31 0 50 0;
#X connect 33 0 7 1;
#X connect 34 0 7 0;
#X connect 35 0 0 2;
#X connect 37 0 10 0;
#X connect 41 0 55 0;
#X connect 48 0 56 0;
#X connect 48 0 59 1;
#X connect 48 0 27 1;
#X connect 50 0 15 0;
#X connect 51 0 49 0;
#X connect 53 0 8 1;
#X connect 54 0 4 0;
#X connect 55 0 27 0;
#X connect 56 0 51 0;
#X connect 58 0 57 0;
#X connect 59 0 63 0;
#X connect 59 0 14 0;
#X connect 60 0 59 0;
#X connect 64 0 60 1;
#X connect 65 0 66 0;
#X connect 66 0 67 0;
#X connect 67 0 66 1;
#X connect 68 0 65 0;
#X coords 0 -1 1 1 205 180 1 100 100;
