#N canvas 151 472 635 526 10;
#X obj 64 19 inlet start;
#X msg 196 168 0;
#X obj 254 290 outlet mstr-ms;
#X obj 22 183 metro 120;
#X obj 149 19 loadbang;
#X obj 13 134 s mstr-ms;
#X obj 196 117 bng 15 250 50 0 reset empty empty 17 7 0 10 -258113
-261234 -1;
#X obj 104 117 tgl 15 0 \$0-foo \$0-foo-r empty 17 7 0 10 -262144 -1
-1 1 1;
#X obj 183 117 bng 10 50 50 0 * beat-led empty 17 7 0 10 -1 -258113
-1;
#X obj 196 190 s reset;
#X obj 211 19 r poll-ms;
#X obj 104 171 s mstr-start;
#X obj 77 77 expr 60/$f1*1000/4;
#X obj -40 19 midirealtimein;
#X obj -39 49 sel 250 252;
#N canvas 297 385 574 352 update-led 1;
#X obj 62 86 div 4;
#X obj 62 64 f;
#X obj 87 65 + 1;
#X obj 62 136 s beat-led;
#X obj 62 107 change;
#X obj 62 42 inlet;
#X connect 0 0 4 0;
#X connect 1 0 2 0;
#X connect 1 0 0 0;
#X connect 2 0 1 1;
#X connect 4 0 3 0;
#X connect 5 0 1 0;
#X restore 22 309 pd update-led;
#X obj 234 317 s bar;
#X obj 147 318 s beat;
#N canvas 733 407 450 300 beats-n-bars 0;
#X obj 109 236 outlet;
#X obj 276 238 outlet;
#X obj 109 37 inlet;
#X obj 166 135 sel 0;
#X text 186 104 beats;
#X text 251 155 bar, f 7;
#X obj 110 105 intcount \$3;
#X obj 166 155 intcount \$4;
#X connect 2 0 6 0;
#X connect 3 0 7 0;
#X connect 6 0 3 0;
#X connect 6 0 0 0;
#X connect 7 0 1 0;
#X restore 147 290 pd beats-n-bars;
#X text 140 347 ----- timecode -----;
#X obj 41 284 outlet ticks;
#X obj 22 235 t b b b;
#X msg -7 75 0;
#X msg -39 75 1;
#N canvas 331 69 280 338 swing 0;
#X obj 33 123 sel 0 1;
#X obj 108 147 / 100;
#X obj 130 176 *;
#X obj 147 146 t b f;
#X floatatom 140 220 5 0 0 0 - - -;
#X obj 57 177 f;
#X obj 30 176 0;
#X floatatom 56 210 5 0 0 0 - - -;
#X obj -5 123 t b f;
#X obj -4 252 delay;
#X obj -7 10 inlet;
#X obj -4 283 outlet;
#X obj 45 53 0;
#X obj 147 120 r mstr-ms;
#X obj 45 10 r reset;
#X obj 108 93 r \$0-swing-amt;
#X obj 113 10 r mstr-start;
#X obj 113 32 sel 0;
#X obj 52 92 mod 2;
#X obj 25 92 + 1;
#X obj -3 92 f;
#X connect 0 0 6 0;
#X connect 0 1 5 0;
#X connect 1 0 2 0;
#X connect 2 0 4 0;
#X connect 2 0 5 1;
#X connect 3 0 2 0;
#X connect 3 1 2 1;
#X connect 5 0 7 0;
#X connect 5 0 9 1;
#X connect 6 0 9 1;
#X connect 8 0 9 0;
#X connect 8 1 0 0;
#X connect 9 0 11 0;
#X connect 10 0 20 0;
#X connect 12 0 20 1;
#X connect 13 0 3 0;
#X connect 14 0 12 0;
#X connect 15 0 1 0;
#X connect 16 0 17 0;
#X connect 17 0 12 0;
#X connect 18 0 20 1;
#X connect 19 0 18 0;
#X connect 20 0 19 0;
#X connect 20 0 8 0;
#X restore 22 206 pd swing;
#X floatatom 159 117 3 0 50 0 - #1-swing-amt-r #0-swing-amt;
#X obj 386 51 auto \$0-swing-amt \$1-swing-amt-r;
#X obj 149 48 \$2;
#X obj 387 72 auto \$0-bpm \$1-bpm-r;
#X obj 76 48 r \$0-bpm;
#X obj 121 117 nbx 3 15 1 999 0 0 \$0-bpm \$1-bpm-r empty 0 -8 0 10
-262144 -1 -1 125 256;
#X text 385 24 sssad.id | bpm | # beats| # bar;
#X obj 288 23 inlet reset;
#X obj 351 289 outlet bpm;
#X obj 423 251 expr 60000/($f1*24);
#X obj 423 290 outlet midi-tick-ms;
#X obj 351 193 t f f;
#X connect 0 0 7 0;
#X connect 1 0 9 0;
#X connect 3 0 24 0;
#X connect 4 0 27 0;
#X connect 6 0 1 0;
#X connect 6 0 12 0;
#X connect 7 0 3 0;
#X connect 7 0 11 0;
#X connect 10 0 30 0;
#X connect 12 0 3 1;
#X connect 12 0 2 0;
#X connect 12 0 5 0;
#X connect 13 0 14 0;
#X connect 14 0 23 0;
#X connect 14 1 22 0;
#X connect 18 0 17 0;
#X connect 18 1 16 0;
#X connect 21 0 15 0;
#X connect 21 1 20 0;
#X connect 21 2 18 0;
#X connect 22 0 7 0;
#X connect 22 0 1 0;
#X connect 23 0 7 0;
#X connect 24 0 21 0;
#X connect 27 0 30 0;
#X connect 29 0 12 0;
#X connect 30 0 36 0;
#X connect 32 0 6 0;
#X connect 34 0 35 0;
#X connect 36 0 33 0;
#X connect 36 1 34 0;
#X coords 0 -1 1 1 115 38 1 100 100;
