#N canvas 537 118 792 497 10;
#X obj 144 51 inlet start;
#X msg 276 261 0;
#X obj 415 400 outlet mstr-ms;
#X obj 102 295 metro 120;
#X obj 229 19 loadbang;
#X obj 93 196 s mstr-ms;
#X obj 276 179 bng 15 250 50 0 reset empty empty 17 7 0 10 -258113
-261234 -1;
#X obj 184 179 tgl 15 0 \$0-foo \$0-foo-r empty 17 7 0 10 -262144 -1
-1 0 1;
#X obj 263 179 bng 10 50 50 0 * beat-led empty 17 7 0 10 -1 -258113
-1;
#X obj 276 283 s reset;
#X obj 291 51 r poll-ms;
#X obj 184 283 s mstr-start;
#X obj 428 48 inlet;
#X obj 40 51 midirealtimein;
#X obj 41 81 sel 250 252;
#N canvas 218 414 450 300 update-led 0;
#X obj -29 96 div 4;
#X obj -29 74 f;
#X obj -2 73 + 1;
#X obj -31 143 t b;
#X obj -32 166 s beat-led;
#X obj -31 121 change;
#X obj -26 26 inlet;
#X connect 0 0 5 0;
#X connect 1 0 2 0;
#X connect 1 0 0 0;
#X connect 2 0 1 1;
#X connect 3 0 4 0;
#X connect 5 0 3 0;
#X connect 6 0 1 0;
#X restore 32 403 pd update-led;
#X obj 314 429 s bar;
#X obj 227 430 s beat;
#N canvas 631 461 450 300 beats-n-bars 0;
#X obj 110 182 outlet;
#X obj 277 184 outlet;
#X obj 110 -17 inlet;
#X floatatom 44 89 5 0 0 0 - - -, f 5;
#X obj 167 81 sel 0;
#X floatatom 167 171 5 0 0 0 - - -, f 5;
#X text 172 49 beats;
#X text 227 117 bar;
#X obj 111 51 count \$4;
#X obj 167 117 count \$5;
#X connect 2 0 8 0;
#X connect 4 0 9 0;
#X connect 8 0 3 0;
#X connect 8 0 4 0;
#X connect 8 0 0 0;
#X connect 9 0 5 0;
#X connect 9 0 1 0;
#X restore 227 402 pd beats-n-bars;
#X text 220 459 ----- timecode -----;
#X obj 127 402 outlet ticks;
#X obj 102 347 t b b b;
#X msg 73 107 0;
#X msg 41 107 1;
#N canvas 331 69 280 338 swing 0;
#X obj 33 123 sel 0 1;
#X obj 108 147 / 100;
#X obj 130 176 *;
#X obj 147 146 t b f;
#X floatatom 140 220 5 0 0 0 - - -, f 5;
#X obj 57 177 f;
#X obj 30 176 0;
#X floatatom 56 210 5 0 0 0 - - -, f 5;
#X obj -5 123 t b f;
#X obj -4 252 delay;
#X obj -7 10 inlet;
#X obj -4 283 outlet;
#X obj 45 53 0;
#X obj 147 120 r mstr-ms;
#X obj 45 10 r reset;
#X obj 108 93 r \$0-swing-amt;
#X obj 113 10 r mstr-start;
#X obj 113 32 sel 0;
#X obj 52 92 mod 2;
#X obj 25 92 + 1;
#X obj -3 92 f;
#X connect 0 0 6 0;
#X connect 0 1 5 0;
#X connect 1 0 2 0;
#X connect 2 0 4 0;
#X connect 2 0 5 1;
#X connect 3 0 2 0;
#X connect 3 1 2 1;
#X connect 5 0 7 0;
#X connect 5 0 9 1;
#X connect 6 0 9 1;
#X connect 8 0 9 0;
#X connect 8 1 0 0;
#X connect 9 0 11 0;
#X connect 10 0 20 0;
#X connect 12 0 20 1;
#X connect 13 0 3 0;
#X connect 14 0 12 0;
#X connect 15 0 1 0;
#X connect 16 0 17 0;
#X connect 17 0 12 0;
#X connect 18 0 20 1;
#X connect 19 0 18 0;
#X connect 20 0 19 0;
#X connect 20 0 8 0;
#X restore 102 318 pd swing;
#X floatatom 239 178 3 0 50 0 - #1-swing-amt-r #0-swing-amt, f 3;
#X obj 229 80 \$2;
#X obj 156 80 r \$0-bpm;
#X obj 202 179 nbx 3 15 1 999 0 0 \$0-bpm \$1-bpm-r empty 0 -8 0 10
-262144 -1 -1 1 256 0;
#X obj 184 197 hradio 10 1 0 8 \$0-resolution \$1-resolution-r empty
0 -8 0 10 -262144 -1 -1 0;
#X obj 291 80 r \$0-resolution;
#X obj 311 106 pow 2;
#X floatatom 311 131 5 0 0 0 - - -, f 5;
#X obj 273 107 \$3;
#X obj 156 133 expr 60/$f1*1000/$f2;
#X text 425 85 sssad.id | bpm | resolution | # beats| # bar;
#X obj 228 46 t b b;
#X obj 418 244 preset_hub global %hidden% %node% 1 38;
#X obj 323 189 preset_node global, f 16;
#X connect 0 0 7 0;
#X connect 1 0 9 0;
#X connect 3 0 24 0;
#X connect 4 0 36 0;
#X connect 6 0 1 0;
#X connect 7 0 3 0;
#X connect 7 0 11 0;
#X connect 10 0 28 0;
#X connect 13 0 14 0;
#X connect 14 0 23 0;
#X connect 14 1 22 0;
#X connect 18 0 17 0;
#X connect 18 1 16 0;
#X connect 21 0 15 0;
#X connect 21 1 20 0;
#X connect 21 2 18 0;
#X connect 22 0 7 0;
#X connect 22 0 1 0;
#X connect 23 0 7 0;
#X connect 24 0 21 0;
#X connect 26 0 28 0;
#X connect 27 0 34 0;
#X connect 28 0 37 0;
#X connect 30 0 31 0;
#X connect 31 0 32 0;
#X connect 33 0 34 1;
#X connect 34 0 3 1;
#X connect 34 0 2 0;
#X connect 34 0 5 0;
#X connect 36 0 26 0;
#X connect 36 1 33 0;
#X connect 38 0 28 0;
