#N canvas 678 504 786 700 10;
#X obj 85 208 inlet start;
#X obj 204 182 inlet tempo;
#X obj 287 247 inlet shuffle;
#X obj 174 489 + 1;
#X obj 126 282 metro 120;
#X obj 202 304 / 2;
#X obj 202 327 f;
#X obj 202 350 *;
#X obj 289 296 t b f;
#X floatatom 164 559 5 0 0 0 - - -;
#X obj 133 489 int 0;
#X msg 366 321 0;
#X obj 106 464 sel 0;
#X obj 106 432 int 0;
#X obj 147 433 + 1;
#X msg 323 320 reset;
#X floatatom 213 382 5 0 0 0 - - -;
#X obj 132 394 delay 0;
#X obj 104 358 alternate;
#X obj 148 247 expr (60000/$f1)/4;
#X obj 200 220 f \$1;
#X obj 284 182 loadbang;
#X obj 105 581 t b;
#X obj 103 617 outlet;
#X obj 456 302 s reset;
#X obj 422 253 t b b b;
#X obj 225 102 bng 15 250 50 0 empty empty empty 0 -6 0 10 -262144
-1 -1;
#X connect 0 0 4 0;
#X connect 1 0 20 0;
#X connect 2 0 8 0;
#X connect 3 0 10 1;
#X connect 4 0 18 0;
#X connect 5 0 6 0;
#X connect 6 0 7 0;
#X connect 7 0 16 0;
#X connect 7 0 17 1;
#X connect 8 0 7 0;
#X connect 8 1 7 1;
#X connect 10 0 3 0;
#X connect 10 0 9 0;
#X connect 10 0 22 0;
#X connect 11 0 13 1;
#X connect 11 0 10 1;
#X connect 12 0 22 0;
#X connect 12 1 10 0;
#X connect 13 0 12 0;
#X connect 13 0 14 0;
#X connect 14 0 13 1;
#X connect 15 0 18 0;
#X connect 17 0 13 0;
#X connect 18 0 13 0;
#X connect 18 1 17 0;
#X connect 19 0 4 1;
#X connect 20 0 19 0;
#X connect 20 0 5 0;
#X connect 21 0 20 0;
#X connect 22 0 23 0;
#X connect 25 0 15 0;
#X connect 25 1 11 0;
#X connect 25 2 24 0;
#X connect 26 0 25 0;
#X coords 0 -1 1 1 150 20 1 100 100;
