#N canvas 400 128 925 527 10;
#X obj 274 301 seq, f 15;
#X obj 275 343 print;
#X obj 276 202 midiformat, f 19;
#X msg 235 250 stop;
#X msg 278 250 print;
#X obj 251 44 inlet;
#X text 294 33 e.g. from makenote;
#X obj 454 177 pdcontrol;
#X msg 454 156 dir 1;
#X obj 353 64 loadbang;
#X obj 421 225 symbol;
#X obj 454 198 makefilename %s/export.mid;
#X msg 421 250 write \$1;
#X obj 382 110 inlet ticks;
#X msg 355 156 tick;
#X msg 323 250 start -1;
#X floatatom 401 136 5 0 0 0 - - -;
#X obj 355 135 metro;
#X obj 633 54 savestate;
#X obj 57 18 r mstr-start;
#X obj 101 117 cnv 15 131 65 empty empty empty 20 12 0 14 -261682 -66577
0;
#X obj 107 161 bng 15 250 50 0 empty empty rec 17 7 0 10 -258113 -1
-1;
#X obj 107 143 bng 15 250 50 0 empty empty stop 17 7 0 10 -228856 -1
-1;
#X obj 107 125 bng 15 250 50 0 empty empty play 17 7 0 10 -4034 -1
-1;
#X obj 177 125 bng 15 250 50 0 empty empty write 17 7 0 10 -262144
-1 -1;
#X obj 177 143 bng 15 250 50 0 empty empty print 17 7 0 10 -262144
-1 -1;
#X obj 57 46 sel 0 1;
#X msg 35 250 record;
#X floatatom 147 161 5 0 0 1 beats - -;
#X obj 50 298 r ticks;
#X obj 50 434 print;
#X obj 96 414 r \$0-numbeats.s;
#X obj 50 414 sel 16;
#X obj 50 319 f;
#X obj 81 319 + 1;
#X obj 743 54 r \$0-numbeats.s;
#X obj 684 76 pack;
#X obj 633 76 unpack;
#X obj 652 252 s \$0-numbeats.r;
#X msg 104 298 0;
#X obj 104 276 r reset;
#X obj 212 163 tgl 15 0 empty empty empty 17 7 0 10 -262144 -1 -1 1
1;
#X obj 50 339 div 4;
#X obj 50 359 int;
#X msg 163 323 0, f 1;
#X obj 50 381 change;
#X msg 76 68 1, f 1;
#X connect 0 0 1 0;
#X connect 2 0 0 0;
#X connect 3 0 0 0;
#X connect 4 0 0 0;
#X connect 5 0 2 0;
#X connect 7 0 11 0;
#X connect 8 0 7 0;
#X connect 9 0 8 0;
#X connect 9 0 17 0;
#X connect 10 0 12 0;
#X connect 11 0 10 1;
#X connect 12 0 0 0;
#X connect 13 0 16 0;
#X connect 13 0 17 1;
#X connect 14 0 0 0;
#X connect 15 0 0 0;
#X connect 17 0 14 0;
#X connect 18 0 37 0;
#X connect 18 1 36 0;
#X connect 19 0 26 0;
#X connect 21 0 27 0;
#X connect 22 0 3 0;
#X connect 23 0 15 0;
#X connect 24 0 10 0;
#X connect 25 0 4 0;
#X connect 26 0 3 0;
#X connect 26 1 27 0;
#X connect 26 1 46 0;
#X connect 27 0 0 0;
#X connect 28 0 36 1;
#X connect 29 0 33 0;
#X connect 31 0 32 1;
#X connect 32 0 30 0;
#X connect 32 0 41 0;
#X connect 32 0 44 0;
#X connect 33 0 34 0;
#X connect 33 0 42 0;
#X connect 34 0 33 1;
#X connect 36 0 18 0;
#X connect 37 1 28 0;
#X connect 39 0 33 1;
#X connect 40 0 39 0;
#X connect 42 0 43 0;
#X connect 43 0 45 0;
#X connect 44 0 3 0;
#X connect 45 0 32 0;
#X connect 46 0 41 0;
#X coords 0 -1 1 1 133 83 1 100 100;
