#N canvas 314 156 1097 633 10;
#X obj 89 367 monorhythm;
#X msg 135 337 exclusive;
#X obj 50 281 r \$0-exclusive.s;
#X obj 105 167 hradio 11 1 0 11 \$0-beatdiv.s \$0-beatdiv.r beatdiv
0 -8 0 10 -204786 -1 -1 5;
#X obj 105 186 tgl 15 0 \$0-exclusive.s \$0-exclusive.r exclsve 17
7 0 10 -262144 -1 -1 1 1;
#N canvas 411 64 698 700 toggles 1;
#X msg 457 433 set;
#X obj 145 187 t b f;
#X obj 217 521 list-rev;
#X obj 189 187 t b f;
#X obj 217 542 list prepend add2;
#X obj 217 563 list trim;
#X msg 217 589 2 2 2 1 1 1 0;
#X msg 336 578 set;
#X obj 99 367 list prepend add2;
#X obj 100 392 list trim;
#X obj 100 187 t b f;
#N canvas 0 23 450 300 bngblk 0;
#X obj 30 18 inlet;
#X obj 30 119 outlet;
#X obj 30 90 f;
#X obj 127 62 >= 0;
#X obj 30 67 spigot;
#X obj 100 17 inlet;
#X obj 100 41 t f f;
#X connect 0 0 4 0;
#X connect 2 0 1 0;
#X connect 3 0 4 1;
#X connect 4 0 2 0;
#X connect 5 0 6 0;
#X connect 6 0 2 1;
#X connect 6 1 3 0;
#X restore 100 290 pd bngblk;
#N canvas 0 23 450 300 bngblk 0;
#X obj 30 18 inlet;
#X obj 30 119 outlet;
#X obj 30 90 f;
#X obj 127 62 >= 0;
#X obj 30 67 spigot;
#X obj 100 17 inlet;
#X obj 100 41 t f f;
#X connect 0 0 4 0;
#X connect 2 0 1 0;
#X connect 3 0 4 1;
#X connect 4 0 2 0;
#X connect 5 0 6 0;
#X connect 6 0 2 1;
#X connect 6 1 3 0;
#X restore 143 332 pd bngblk;
#N canvas 0 23 450 300 bngblk 0;
#X obj 30 18 inlet;
#X obj 30 119 outlet;
#X obj 30 90 f;
#X obj 127 62 >= 0;
#X obj 30 67 spigot;
#X obj 100 17 inlet;
#X obj 100 41 t f f;
#X connect 0 0 4 0;
#X connect 2 0 1 0;
#X connect 3 0 4 1;
#X connect 4 0 2 0;
#X connect 5 0 6 0;
#X connect 6 0 2 1;
#X connect 6 1 3 0;
#X restore 189 290 pd bngblk;
#N canvas 0 23 450 300 bngblk 0;
#X obj 30 18 inlet;
#X obj 30 119 outlet;
#X obj 30 90 f;
#X obj 127 62 >= 0;
#X obj 30 67 spigot;
#X obj 100 17 inlet;
#X obj 100 41 t f f;
#X connect 0 0 4 0;
#X connect 2 0 1 0;
#X connect 3 0 4 1;
#X connect 4 0 2 0;
#X connect 5 0 6 0;
#X connect 6 0 2 1;
#X connect 6 1 3 0;
#X restore 233 332 pd bngblk;
#N canvas 0 23 450 300 bngblk 0;
#X obj 30 18 inlet;
#X obj 30 119 outlet;
#X obj 30 90 f;
#X obj 127 62 >= 0;
#X obj 30 67 spigot;
#X obj 100 17 inlet;
#X obj 100 41 t f f;
#X connect 0 0 4 0;
#X connect 2 0 1 0;
#X connect 3 0 4 1;
#X connect 4 0 2 0;
#X connect 5 0 6 0;
#X connect 6 0 2 1;
#X connect 6 1 3 0;
#X restore 278 290 pd bngblk;
#N canvas 0 23 450 300 bngblk 0;
#X obj 30 18 inlet;
#X obj 30 119 outlet;
#X obj 30 90 f;
#X obj 127 62 >= 0;
#X obj 30 67 spigot;
#X obj 100 17 inlet;
#X obj 100 41 t f f;
#X connect 0 0 4 0;
#X connect 2 0 1 0;
#X connect 3 0 4 1;
#X connect 4 0 2 0;
#X connect 5 0 6 0;
#X connect 6 0 2 1;
#X connect 6 1 3 0;
#X restore 322 332 pd bngblk;
#N canvas 0 23 450 300 bngblk 0;
#X obj 30 18 inlet;
#X obj 30 119 outlet;
#X obj 30 90 f;
#X obj 127 62 >= 0;
#X obj 30 67 spigot;
#X obj 100 17 inlet;
#X obj 100 41 t f f;
#X connect 0 0 4 0;
#X connect 2 0 1 0;
#X connect 3 0 4 1;
#X connect 4 0 2 0;
#X connect 5 0 6 0;
#X connect 6 0 2 1;
#X connect 6 1 3 0;
#X restore 367 290 pd bngblk;
#N canvas 0 23 450 300 bngblk 0;
#X obj 30 18 inlet;
#X obj 30 119 outlet;
#X obj 30 90 f;
#X obj 127 62 >= 0;
#X obj 30 67 spigot;
#X obj 100 17 inlet;
#X obj 100 41 t f f;
#X connect 0 0 4 0;
#X connect 2 0 1 0;
#X connect 3 0 4 1;
#X connect 4 0 2 0;
#X connect 5 0 6 0;
#X connect 6 0 2 1;
#X connect 6 1 3 0;
#X restore 412 332 pd bngblk;
#X obj 100 262 t b b b b b b b b b, f 60;
#X obj 232 187 t b f;
#X obj 322 188 t b f;
#X obj 366 188 t b f;
#X obj 277 188 t b f;
#X obj 409 188 t b f;
#X msg 99 449 0 1 1 1 2 2 2;
#X obj 457 578 t a b;
#X obj 99 475 t b a b, f 40;
#X msg 484 626 symbol;
#X obj 217 674 s \$0-listdisplay;
#X obj 94 533 loadbang;
#X obj 100 100 tgl-dlx \$0 0;
#X obj 115 100 tgl-dlx \$0 1;
#X obj 130 100 tgl-dlx \$0 2;
#X obj 145 100 tgl-dlx \$0 3;
#X obj 160 100 tgl-dlx \$0 4;
#X obj 175 100 tgl-dlx \$0 5;
#X obj 190 100 tgl-dlx \$0 6;
#X obj 205 100 tgl-dlx \$0 7;
#X obj 84 643 outlet list;
#X symbolatom 100 115 19 0 0 0 - #0-listdisplay #0-foo1;
#X obj 99 419 t b a;
#X obj 217 616 l2s :;
#X connect 0 0 25 0;
#X connect 0 0 26 0;
#X connect 1 0 19 0;
#X connect 1 1 12 1;
#X connect 2 0 4 0;
#X connect 3 0 19 0;
#X connect 3 1 13 1;
#X connect 4 0 5 0;
#X connect 5 0 6 0;
#X connect 6 0 39 0;
#X connect 6 0 42 0;
#X connect 7 0 6 0;
#X connect 8 0 9 0;
#X connect 9 0 41 0;
#X connect 10 0 19 0;
#X connect 10 1 11 1;
#X connect 11 0 8 0;
#X connect 12 0 8 0;
#X connect 13 0 8 0;
#X connect 14 0 8 0;
#X connect 15 0 8 0;
#X connect 16 0 8 0;
#X connect 17 0 8 0;
#X connect 18 0 8 0;
#X connect 19 0 11 0;
#X connect 19 1 12 0;
#X connect 19 2 13 0;
#X connect 19 3 14 0;
#X connect 19 4 15 0;
#X connect 19 5 16 0;
#X connect 19 6 17 0;
#X connect 19 7 18 0;
#X connect 19 8 0 0;
#X connect 20 0 19 0;
#X connect 20 1 14 1;
#X connect 21 0 19 0;
#X connect 21 1 16 1;
#X connect 22 0 19 0;
#X connect 22 1 17 1;
#X connect 23 0 19 0;
#X connect 23 1 15 1;
#X connect 24 0 19 0;
#X connect 24 1 18 1;
#X connect 25 0 27 0;
#X connect 26 0 6 0;
#X connect 26 1 28 0;
#X connect 27 0 6 0;
#X connect 27 1 2 0;
#X connect 27 2 7 0;
#X connect 28 0 29 0;
#X connect 30 0 6 0;
#X connect 31 0 10 0;
#X connect 32 0 1 0;
#X connect 33 0 3 0;
#X connect 34 0 20 0;
#X connect 35 0 23 0;
#X connect 36 0 21 0;
#X connect 37 0 22 0;
#X connect 38 0 24 0;
#X connect 41 0 25 0;
#X connect 41 1 25 0;
#X connect 42 0 29 0;
#X coords 0 -1 1 1 120 33 2 100 100;
#X restore 105 116 pd toggles;
#X obj 165 402 outlet acc;
#X obj 89 402 outlet beat;
#X obj 235 402 outlet sync;
#X obj 50 307 sel 0 1;
#X msg 50 337 nonexclusive;
#X obj 279 278 r \$0-beatdiv.s;
#N canvas 600 135 725 391 store.state 0;
#N canvas 81 45 329 237 read.write 0;
#X obj 74 111 savestate;
#X obj 74 91 r \$0-to.savestate;
#X obj 125 131 s \$0-savestate.right;
#X text 78 33 send and receive lists from the individual abstractions
, f 27;
#X obj 74 171 s \$0-savestate.left;
#X obj 74 131 t a b;
#X obj 101 151 s \$0-stop.loadbang;
#X connect 0 0 5 0;
#X connect 0 1 2 0;
#X connect 1 0 0 0;
#X connect 5 0 4 0;
#X connect 5 1 6 0;
#X restore 52 41 pd read.write;
#X obj 52 91 store.param \$0 beatdiv;
#X obj 52 111 store.param \$0 exclusive;
#X obj 52 130 store.param \$0 tgl0;
#X obj 52 149 store.param \$0 tgl1;
#X obj 52 168 store.param \$0 tgl2;
#X obj 52 187 store.param \$0 tgl3;
#X obj 52 206 store.param \$0 tgl4;
#X obj 52 225 store.param \$0 tgl5;
#X obj 52 244 store.param \$0 tgl6;
#X obj 52 263 store.param \$0 tgl7;
#X obj 279 79 r \$0-listdump;
#X obj 279 139 text set \$0-patterns;
#X obj 279 42 text define \$0-patterns;
#X obj 279 110 list prepend preset1;
#X connect 11 0 14 0;
#X connect 14 0 12 0;
#X restore 241 100 pd store.state;
#X obj 7 281 inlet;
#X obj 252 330 t b f;
#X obj 5 167 s \$0-listdump;
#X obj 138 208 r \$0-listdump;
#X text 396 252 time intervals 1/16 \, 1/8 \, 1/4 1/2 12 \, 3 \, 4
;
#X text 574 344 1/16 1/8 1/4 1/2 1 2 3 4 8;
#X text 592 370 1/12 1/6 1/3 1/1.5;
#N canvas 1176 597 955 546 time-handler 0;
#X obj 112 32 inlet;
#X msg 314 157 1;
#X msg 281 207 2;
#X msg 382 157 0.5;
#X msg 180 156 8;
#X msg 213 156 4;
#X msg 415 207 0.333333;
#X msg 449 157 0.25;
#X msg 570 183 0.125;
#X msg 348 207 0.666667;
#X msg 570 158 0.166667;
#X msg 570 208 0.0833333;
#X msg 570 233 0.0625;
#X msg 247 157 3;
#X obj 113 294 outlet;
#X obj 113 73 sel 0 1 2 3 4 5 6 7 8 9 10 11 12 13, f 79;
#X obj 350 318 s \$0-beatdiv-lab;
#X obj 351 294 symbol;
#X msg 180 181 2bar;
#X msg 213 181 1bar;
#X msg 281 231 1/2bar;
#X msg 247 181 3/4bar;
#X msg 314 181 1/4bar;
#X msg 348 231 1/6bar;
#X msg 382 181 1/8bar;
#X msg 415 233 1/12bar;
#X msg 449 181 1/16bar;
#X msg 146 156 16;
#X msg 146 181 4bar;
#X msg 113 156 32;
#X msg 113 181 8bar;
#X connect 0 0 15 0;
#X connect 1 0 14 0;
#X connect 2 0 14 0;
#X connect 3 0 14 0;
#X connect 4 0 14 0;
#X connect 5 0 14 0;
#X connect 6 0 14 0;
#X connect 7 0 14 0;
#X connect 9 0 14 0;
#X connect 13 0 14 0;
#X connect 15 0 29 0;
#X connect 15 0 30 0;
#X connect 15 1 27 0;
#X connect 15 1 28 0;
#X connect 15 2 4 0;
#X connect 15 2 18 0;
#X connect 15 3 5 0;
#X connect 15 3 19 0;
#X connect 15 4 13 0;
#X connect 15 4 21 0;
#X connect 15 5 2 0;
#X connect 15 5 20 0;
#X connect 15 6 1 0;
#X connect 15 6 22 0;
#X connect 15 7 9 0;
#X connect 15 7 23 0;
#X connect 15 8 3 0;
#X connect 15 8 24 0;
#X connect 15 9 6 0;
#X connect 15 9 25 0;
#X connect 15 10 7 0;
#X connect 15 10 26 0;
#X connect 17 0 16 0;
#X connect 18 0 17 0;
#X connect 19 0 17 0;
#X connect 20 0 17 0;
#X connect 21 0 17 0;
#X connect 22 0 17 0;
#X connect 23 0 17 0;
#X connect 24 0 17 0;
#X connect 25 0 17 0;
#X connect 26 0 17 0;
#X connect 27 0 14 0;
#X connect 28 0 17 0;
#X connect 29 0 14 0;
#X connect 30 0 17 0;
#X restore 252 308 pd time-handler;
#X floatatom 243 372 5 0 0 0 - - -;
#X obj 243 351 *;
#X symbolatom 177 186 8 0 0 0 - #0-beatdiv-lab #0-beatdiv-foo;
#X obj 243 247 expr 1000/($f1/60);
#X obj 243 195 inlet bpm;
#X obj 306 195 r mstr-bpm;
#X obj 117 258 list;
#X obj 555 153 r bar;
#X obj 252 278 f;
#X obj 555 174 sel 0;
#X obj 353 90 loadbang;
#X obj 151 313 print;
#X msg 152 280 1 2 0 1 1;
#X obj 113 233 bng 15 250 50 0 empty empty empty 17 7 0 10 -262144
-1 -1;
#X text 603 163 not sure best way for this;
#X obj 138 230 t b l;
#X connect 0 0 7 0;
#X connect 0 1 6 0;
#X connect 0 2 8 0;
#X connect 1 0 0 0;
#X connect 2 0 9 0;
#X connect 5 0 15 0;
#X connect 9 0 10 0;
#X connect 9 1 1 0;
#X connect 10 0 0 0;
#X connect 11 0 29 1;
#X connect 13 0 0 0;
#X connect 14 0 22 0;
#X connect 14 1 22 1;
#X connect 16 0 36 0;
#X connect 20 0 14 0;
#X connect 22 0 0 2;
#X connect 22 0 21 0;
#X connect 24 0 22 0;
#X connect 25 0 24 0;
#X connect 26 0 24 0;
#X connect 27 0 32 0;
#X connect 27 0 0 1;
#X connect 28 0 30 0;
#X connect 29 0 20 0;
#X connect 30 0 29 0;
#X connect 31 0 27 0;
#X connect 31 0 29 0;
#X connect 34 0 27 0;
#X connect 36 0 27 0;
#X connect 36 1 27 1;
#X coords 0 -1 1 1 131 108 1 100 100;
