#N canvas 374 139 384 605 10;
#X obj 89 337 monorhythm;
#X obj 89 456 makenote 127 100;
#X msg 89 310 exclusive;
#X obj 125 395 t f b;
#X obj 152 434 + 32;
#X obj 152 415 random 96;
#X obj 88 486 noteout;
#X msg 89 386 44;
#X msg 125 374 44;
#X obj 39 163 loadbang;
#X obj 208 300 *;
#X obj 89 269 r \$0-exclusive.s;
#X obj 226 248 inlet clock-ms;
#X obj 117 248 inlet patterns;
#X obj 101 116 cnv 15 129 69 empty empty empty 20 12 0 14 -228856 -66577
0;
#X obj 105 136 hradio 15 1 0 8 \$0-beatdiv.s \$0-beatdiv.r beatdiv
0 -8 0 10 -262144 -1 -1 3;
#X obj 105 158 tgl 15 0 \$0-exclusive.s \$0-exclusive.r exclusive 17
7 0 10 -262144 -1 -1 0 1;
#X obj 173 209 text;
#X obj 105 58 tgl 15 0 empty empty empty 17 7 0 10 -262144 -1 -1 1
1;
#X obj 120 58 tgl 15 0 empty empty empty 17 7 0 10 -262144 -1 -1 0
1;
#X obj 135 58 tgl 15 0 empty empty empty 17 7 0 10 -262144 -1 -1 1
1;
#X obj 150 58 tgl 15 0 empty empty empty 17 7 0 10 -262144 -1 -1 1
1;
#X obj 165 58 tgl 15 0 empty empty empty 17 7 0 10 -262144 -1 -1 0
1;
#X obj 180 58 tgl 15 0 empty empty empty 17 7 0 10 -262144 -1 -1 1
1;
#X obj 195 58 tgl 15 0 empty empty empty 17 7 0 10 -262144 -1 -1 0
1;
#X obj 210 58 tgl 15 0 empty empty empty 17 7 0 10 -262144 -1 -1 1
1;
#X connect 0 0 7 0;
#X connect 0 1 8 0;
#X connect 1 0 6 0;
#X connect 1 1 6 1;
#X connect 2 0 0 0;
#X connect 3 0 1 0;
#X connect 3 1 5 0;
#X connect 4 0 1 1;
#X connect 5 0 4 0;
#X connect 7 0 1 0;
#X connect 8 0 3 0;
#X connect 10 0 0 2;
#X connect 11 0 2 0;
#X connect 12 0 10 1;
#X connect 13 0 0 1;
#X coords 0 -1 1 1 131 86 1 100 100;
