#N canvas 751 166 835 756 10;
#X obj 392 623 *~;
#X obj 441 226 f;
#X obj 388 398 wrap~;
#X obj 388 374 *~;
#X obj 374 297 blosc~ saw;
#X obj 403 346 +~ 1;
#X obj 388 424 +~;
#X obj 493 330 phasor~;
#X obj 493 378 blosc~ comparator;
#X obj 493 354 -~ 0.5;
#X floatatom 547 332 5 0.01 0.5 0 - - -;
#X msg 441 271 \$1 \, 0 \$2;
#X obj 507 262 - 12;
#X obj 441 297 line~;
#X obj 441 248 pack f f;
#X obj 414 20 inlet;
#X obj 396 673 outlet~;
#X obj 420 546 *~;
#X obj 435 514 mtof~;
#X obj 567 450 ead~ 25 1000;
#X obj 421 571 +~;
#X obj 481 525 mtof~;
#X obj 105 245 nbx 5 14 0 100 0 0 \$0-syncdepth \$1-syncdepth-r sync_depth
0 -6 0 10 -204793 -1 -1 0 256;
#X obj 174 244 nbx 5 14 0 100 0 0 \$0-syncdecay \$1-syncdecay-r sync_decay
0 -6 0 10 -204793 -1 -1 46 256;
#X obj 244 247 hsl 50 8 0 0.5 0 0 \$0-pw \$1-pw-r p/w -2 -6 0 10 -262144
-258113 -1 2400 1;
#X obj 182 119 cnv 15 195 110 empty empty filter 5 12 0 10 -66577 -257985
0;
#X obj 188 152 vsl 8 50 0 2000 0 1 \$0-filtatt \$1-filtatt-r attack
0 -8 1 9 -262144 -1 -191407 0 1;
#X floatatom 188 208 5 0 0 0 - - -;
#X obj 225 152 vsl 8 50 0 2000 0 1 \$0-filtdec \$1-filtdec-r decay
0 -8 1 9 -262144 -1 -191407 800 1;
#X floatatom 225 208 5 0 0 0 - - -;
#X obj 264 152 vsl 8 50 0 127 0 1 \$0-filtenv \$1-filtenv-r env 0 -8
1 9 -262144 -1 -191407 2800 1;
#X floatatom 264 208 5 0 0 0 - - -;
#X obj 302 152 vsl 8 50 0 127 0 1 \$0-cutoff \$1-cutoff-r cutoff 0
-8 1 9 -262144 -1 -191407 3000 1;
#X floatatom 302 208 5 0 0 0 - - -;
#X obj 341 152 vsl 8 50 0.04 4 1 0 \$0-res \$1-res-r res 0 -8 1 9 -262144
-1 -191407 600 1;
#X floatatom 340 209 5 0 0 0 - - -;
#X obj 435 490 line~;
#X msg 435 468 \$1 50;
#X obj 481 502 line~;
#X msg 481 480 \$1 50;
#X obj 684 452 ead~ 25 1000;
#X obj 415 159 t f b b b;
#X obj 104 119 cnv 15 75 110 empty empty amp 5 12 0 10 -99865 -257985
0;
#X obj 109 152 vsl 8 50 0 127 0 1 \$0-att \$1-att-r attack 0 -8 1 9
-262144 -1 -191407 0 1;
#X floatatom 109 208 5 0 0 0 - - -;
#X obj 145 152 vsl 8 50 5 500 1 1 \$0-dec \$1-dec-r decay 0 -8 1 9
-262144 -1 -191407 4000 1;
#X floatatom 145 208 5 0 0 0 - - -;
#X obj 487 154 r \$0-syncdepth;
#X obj 500 178 r \$0-syncdecay;
#X obj 620 371 r \$0-filtatt;
#X obj 702 371 r \$0-filtdec;
#X obj 699 411 r \$0-att;
#X obj 756 411 r \$0-dec;
#X obj 435 437 r \$0-filtenv;
#X obj 481 457 r \$0-cutoff;
#X obj 455 568 r \$0-res;
#X obj 554 305 r \$0-pw;
#X obj 414 122 spigot;
#X obj 413 55 unpack f f f;
#X obj 392 646 hip~ 5;
#X floatatom 504 104 5 0 0 0 - - -;
#X obj 630 538 *~;
#X obj 386 253 mtof~;
#X obj 492 304 mtof~;
#X obj 395 598 svf~ low;
#X obj 324 469 pink~;
#X obj 323 494 *~ 0.01;
#X obj 361 531 +~;
#X obj 80 357 auto \$0-att \$1-att-r;
#X obj 79 381 auto \$0-dec \$1-dec-r;
#X obj 81 428 auto \$0-filtatt \$1-filtatt-r;
#X obj 79 453 auto \$0-filtdec \$1-filtdec-r;
#X obj 79 477 auto \$0-filtenv \$1-filtenv-r;
#X obj 79 502 auto \$0-cutoff \$1-cutoff-r;
#X obj 79 526 auto \$0-res \$1-res-r;
#X obj 79 549 auto \$0-syncdepth \$1-syncdepth-r;
#X obj 79 574 auto \$0-syncdecay \$1-syncdecay-r;
#X obj 79 598 auto \$0-pw \$1-pw-r;
#X connect 0 0 59 0;
#X connect 1 0 14 0;
#X connect 2 0 6 0;
#X connect 3 0 2 0;
#X connect 4 0 3 0;
#X connect 5 0 3 1;
#X connect 6 0 67 1;
#X connect 7 0 9 0;
#X connect 8 0 6 1;
#X connect 9 0 8 0;
#X connect 10 0 9 1;
#X connect 11 0 13 0;
#X connect 12 0 63 0;
#X connect 13 0 5 0;
#X connect 14 0 11 0;
#X connect 15 0 58 0;
#X connect 17 0 20 0;
#X connect 18 0 17 1;
#X connect 19 0 17 0;
#X connect 20 0 64 1;
#X connect 21 0 20 1;
#X connect 26 0 27 0;
#X connect 28 0 29 0;
#X connect 30 0 31 0;
#X connect 32 0 33 0;
#X connect 34 0 35 0;
#X connect 36 0 18 0;
#X connect 37 0 36 0;
#X connect 38 0 21 0;
#X connect 39 0 38 0;
#X connect 40 0 61 0;
#X connect 41 0 12 0;
#X connect 41 0 62 0;
#X connect 41 1 1 0;
#X connect 41 2 19 0;
#X connect 41 3 40 0;
#X connect 43 0 44 0;
#X connect 45 0 46 0;
#X connect 47 0 1 1;
#X connect 48 0 14 1;
#X connect 49 0 19 1;
#X connect 50 0 19 2;
#X connect 51 0 40 1;
#X connect 52 0 40 2;
#X connect 53 0 37 0;
#X connect 54 0 39 0;
#X connect 55 0 64 2;
#X connect 56 0 10 0;
#X connect 57 0 41 0;
#X connect 58 0 61 1;
#X connect 58 1 57 0;
#X connect 58 2 57 1;
#X connect 58 2 60 0;
#X connect 59 0 16 0;
#X connect 61 0 0 1;
#X connect 62 0 4 0;
#X connect 63 0 7 0;
#X connect 64 0 0 0;
#X connect 65 0 66 0;
#X connect 66 0 67 0;
#X connect 67 0 64 0;
#X coords 0 -1 1 1 280 165 1 100 100;
