#N canvas 575 234 1345 873 10;
#X obj 291 340 svf~ main;
#X obj 384 102 line~;
#X obj 384 124 mtof~;
#X obj 346 314 r \$0-res;
#X msg 384 78 \$1 50;
#N canvas 1043 563 761 505 smooth_mux~ 0;
#X obj 88 93 == 0;
#X obj 123 93 == 1;
#X obj 157 93 == 2;
#X obj 193 93 == 3;
#X obj 88 62 t f f f f;
#X obj 71 125 sig~;
#X obj 71 146 lop~ 70;
#X obj 123 125 sig~;
#X obj 123 146 lop~ 70;
#X obj 173 125 sig~;
#X obj 173 146 lop~ 70;
#X obj 222 125 sig~;
#X obj 222 146 lop~ 70;
#X obj 238 220 *~;
#X obj 87 9 inlet;
#X obj 261 36 inlet~;
#X obj 307 36 inlet~;
#X obj 352 36 inlet~;
#X obj 396 36 inlet~;
#X obj 275 220 *~;
#X obj 310 220 *~;
#X obj 347 220 *~;
#X obj 240 292 outlet~;
#X obj 20 28 loadbang;
#X connect 0 0 5 0;
#X connect 1 0 7 0;
#X connect 2 0 9 0;
#X connect 3 0 11 0;
#X connect 4 0 0 0;
#X connect 4 1 1 0;
#X connect 4 2 2 0;
#X connect 4 3 3 0;
#X connect 5 0 6 0;
#X connect 6 0 13 1;
#X connect 7 0 8 0;
#X connect 8 0 19 1;
#X connect 9 0 10 0;
#X connect 10 0 20 1;
#X connect 11 0 12 0;
#X connect 12 0 21 1;
#X connect 13 0 22 0;
#X connect 14 0 4 0;
#X connect 15 0 13 0;
#X connect 16 0 19 0;
#X connect 17 0 20 0;
#X connect 18 0 21 0;
#X connect 19 0 22 0;
#X connect 20 0 22 0;
#X connect 21 0 22 0;
#X connect 23 0 0 0;
#X restore 267 378 pd smooth_mux~;
#X obj 265 423 outlet~;
#X obj 269 53 inlet~;
#X obj 122 119 vsl 15 64 0 1 0 0 \$0-res empty empty 0 -9 0 10 -262144
-1 -1 0 1;
#X obj 141 118 vradio 11 1 0 4 empty empty empty 0 -8 0 10 -262144
-1 -1 0;
#X obj 105 119 vsl 15 64 0 127 0 0 \$0-cutoff empty empty 0 -9 0 10
-262144 -1 -1 6300 1;
#X text 152 115 lp;
#X text 154 126 hp;
#X text 153 137 bp;
#X text 153 147 notch;
#X obj 146 78 originator \$1 \$0;
#X obj 146 28 t b f;
#X msg 146 53 set;
#X msg 176 54 substate \$1;
#X obj 317 53 inlet OSC;
#X obj -57 204 commun /cutoff \$0;
#X obj -56 236 commun /res \$0;
#X obj -57 268 commun /filt-type \$0;
#X obj 384 55 r \$0-cutoff;
#X obj 218 172 nbx 2 14 0 12 0 0 empty empty empty 0 20 0 10 -261234
-1 -1 0 256;
#X obj 379 280 *~;
#X floatatom 187 117 5 0 100 1 depth - -;
#X obj 316 307 +~;
#X obj 379 235 lop~;
#X obj 379 207 *~;
#X floatatom 187 139 5 1 50 1 response - -;
#X obj 410 233 sig~;
#X obj 409 258 mtof~;
#X obj 416 183 / 100;
#X obj 416 206 * 200;
#X obj -26 18 loadbang;
#X msg -17 59 127;
#X connect 0 0 5 1;
#X connect 0 1 5 2;
#X connect 0 2 5 3;
#X connect 0 3 5 4;
#X connect 1 0 2 0;
#X connect 2 0 27 0;
#X connect 3 0 0 2;
#X connect 4 0 1 0;
#X connect 5 0 6 0;
#X connect 7 0 0 0;
#X connect 7 0 29 0;
#X connect 7 0 29 1;
#X connect 8 0 21 0;
#X connect 9 0 5 0;
#X connect 9 0 22 0;
#X connect 10 0 20 0;
#X connect 16 0 17 0;
#X connect 16 1 18 0;
#X connect 17 0 15 0;
#X connect 18 0 15 0;
#X connect 19 0 15 1;
#X connect 20 0 10 0;
#X connect 21 0 8 0;
#X connect 22 0 9 0;
#X connect 23 0 4 0;
#X connect 24 0 16 0;
#X connect 25 0 27 1;
#X connect 26 0 33 0;
#X connect 27 0 0 1;
#X connect 28 0 25 0;
#X connect 29 0 28 0;
#X connect 30 0 28 1;
#X connect 31 0 32 0;
#X connect 32 0 25 1;
#X connect 33 0 34 0;
#X connect 34 0 31 0;
#X connect 35 0 9 0;
#X connect 35 0 36 0;
#X connect 36 0 10 0;
#X coords 0 -1 1 1 180 90 1 100 100;
