#N canvas 271 300 790 469 10;
#X obj 32 14 inlet;
#X obj 76 13 inlet;
#X obj 76 42 t b f;
#X obj 118 13 inlet;
#X obj 118 42 t b f;
#X obj 159 13 inlet;
#X obj 159 42 t b f;
#X obj 201 13 inlet;
#X obj 201 42 t b f;
#X obj 242 13 inlet;
#X obj 242 42 t b f;
#X obj 285 13 inlet;
#X obj 285 42 t b f;
#X obj 327 13 inlet;
#X obj 327 42 t b f;
#X obj 368 13 inlet;
#X obj 368 42 t b f;
#X obj 136 121 pack \$0 f f f f f f f f;
#X obj 32 235 outlet;
#X text 134 248 Interpolate message inputs;
#X obj 77 141 print;
#X obj 430 11 table \$0-val 11;
#X text 131 269 [expr] method. Credit due to bsoisoi for original tabread
method;
#X msg 136 148 \; \$1-val 1 \$2 \$3 \$4 \$5 \$6 \$7 \$8 \$9 \;;
#X obj 33 142 + 1;
#X obj 33 188 tabread4 \$0-val;
#X connect 0 0 24 0;
#X connect 1 0 2 0;
#X connect 2 0 17 0;
#X connect 2 1 17 1;
#X connect 3 0 4 0;
#X connect 4 0 17 0;
#X connect 4 1 17 2;
#X connect 5 0 6 0;
#X connect 6 0 17 0;
#X connect 6 1 17 3;
#X connect 7 0 8 0;
#X connect 8 0 17 0;
#X connect 8 1 17 4;
#X connect 9 0 10 0;
#X connect 10 0 17 0;
#X connect 10 1 17 5;
#X connect 11 0 12 0;
#X connect 12 0 17 0;
#X connect 12 1 17 6;
#X connect 13 0 14 0;
#X connect 14 0 17 0;
#X connect 14 1 17 7;
#X connect 15 0 16 0;
#X connect 16 0 17 0;
#X connect 16 1 17 8;
#X connect 17 0 20 0;
#X connect 17 0 23 0;
#X connect 24 0 25 0;
#X connect 25 0 18 0;
