#N canvas 143 70 526 435 10;
#X obj 96 249 expr cos(1.57 * $f1) \; sin(1.57 * $f1);
#X floatatom 94 297 5 0 0 0 - - -;
#X floatatom 218 298 5 0 0 0 - - -;
#X obj 107 117 hsl 128 15 0 1 0 0 empty empty empty -2 -8 0 10 -262144
-1 -1 6100 1;
#X obj 285 204 inlet~;
#X obj 367 203 inlet~;
#X obj 280 312 *~;
#X obj 373 314 *~;
#X obj 277 355 outlet~;
#X obj 373 355 outlet~;
#X obj 30 83 loadbang;
#X msg 29 110 0.5;
#X connect 0 0 1 0;
#X connect 0 0 6 1;
#X connect 0 1 2 0;
#X connect 0 1 7 1;
#X connect 3 0 0 0;
#X connect 4 0 6 0;
#X connect 5 0 7 0;
#X connect 6 0 8 0;
#X connect 7 0 9 0;
#X connect 10 0 11 0;
#X connect 11 0 3 0;
#X coords 0 -1 1 1 140 34 1 100 100;
