#N canvas 270 392 450 300 10;
#X obj 123 82 makefilename %s;
#X obj 54 32 r \$1-\$2.s;
#X obj 88 103 symbol \$2;
#X obj 54 60 t b b f, f 12;
#X obj 55 127 pack \$1 s s, f 12;
#X msg 64 211 \; \$1-\$2.r label \$3;
#X obj 198 192 list;
#X obj 197 172 del 1500;
#X msg 199 216 \; \$1-\$2.r label \$2;
#X obj 55 154 t l b;
#X connect 0 0 4 2;
#X connect 1 0 3 0;
#X connect 2 0 4 1;
#X connect 3 0 4 0;
#X connect 3 1 2 0;
#X connect 3 2 0 0;
#X connect 4 0 9 0;
#X connect 6 0 8 0;
#X connect 7 0 6 0;
#X connect 9 0 6 1;
#X connect 9 0 5 0;
#X connect 9 1 7 0;
