#N canvas 140 22 450 300 10;
#X obj 68 55 f;
#X obj 104 55 + 1;
#X obj 133 54 mod 1e+06;
#X obj 68 77 makenote 64;
#X obj 68 122 stripnote;
#X obj 67 17 inlet bang;
#X obj 140 17 inlet note-length;
#X obj 69 185 outlet;
#X floatatom 405 316 5 0 0 0 - - -;
#X obj 69 99 poly \$1 1;
#X text 292 17 | max voice |;
#X connect 0 0 1 0;
#X connect 0 0 3 0;
#X connect 1 0 2 0;
#X connect 2 0 0 1;
#X connect 3 0 9 0;
#X connect 3 1 9 1;
#X connect 4 0 7 0;
#X connect 5 0 0 0;
#X connect 6 0 3 2;
#X connect 9 0 4 0;
#X connect 9 2 4 1;
