#N canvas 8 22 465 374 10;
#X obj 86 233 blosc~ comparator;
#X obj 86 207 -~;
#X text 194 77 mod freq;
#X obj 86 148 *~ 2;
#X obj 86 173 -~ 1;
#X obj 86 278 outlet~;
#X obj 83 25 inlet~;
#X obj 351 25 inlet;
#X obj 86 123 phasor~ \$1;
#X obj 181 104 osc~;
#X obj 178 25 inlet;
#X obj 221 23 inlet;
#X obj 181 165 *~ 0.5;
#X connect 0 0 5 0;
#X connect 1 0 0 0;
#X connect 3 0 4 0;
#X connect 4 0 1 0;
#X connect 6 0 8 0;
#X connect 7 0 8 1;
#X connect 8 0 3 0;
#X connect 9 0 12 0;
#X connect 10 0 9 0;
#X connect 11 0 12 1;
#X connect 12 0 1 1;
