#N canvas 647 78 717 555 10;
#X obj 246 338 inlet~;
#X obj 381 340 inlet~;
#X obj 246 491 outlet~;
#X obj 302 491 outlet~;
#X obj 106 117 hsl 60 18 0.1 1000 1 0 \$0-speed.s \$0-speed.r speed
2 9 0 10 -204786 -1 -1 0 1;
#X obj 106 137 hsl 60 18 0.0001 50 1 0 \$0-bufsize.s \$0-bufsize.r
bufsize 2 9 0 10 -204786 -1 -1 0 1;
#X msg 104 420 reset;
#N canvas 571 487 725 391 store.state 0;
#N canvas 81 45 329 237 read.write 0;
#X obj 74 111 savestate;
#X obj 74 91 r \$0-to.savestate;
#X obj 125 131 s \$0-savestate.right;
#X text 78 33 send and receive lists from the individual abstractions
, f 27;
#X obj 74 171 s \$0-savestate.left;
#X obj 74 131 t a b;
#X obj 101 151 s \$0-stop.loadbang;
#X connect 0 0 5 0;
#X connect 0 1 2 0;
#X connect 1 0 0 0;
#X connect 5 0 4 0;
#X connect 5 1 6 0;
#X restore 52 41 pd read.write;
#X obj 52 111 store.param \$0 level;
#X obj 237 111 param-label \$0 level;
#X obj 52 91 store.param \$0 amount;
#X obj 237 91 param-label \$0 amount;
#X obj 52 131 store.param \$0 tone;
#X restore 103 60 pd store.state;
#X obj 104 451 loadbang;
#X obj 246 437 csound6~ pvsbuffer.csd;
#X obj 173 117 hsl 60 18 0.1 1000 1 0 \$0-feedback.s \$0-feedback.r
feedback 2 9 0 10 -204786 -1 -1 0 1;
#X obj 106 157 hsl 60 18 0.1 1000 1 0 \$0-semitones.s \$0-semitones.r
semitones 2 9 0 10 -204786 -1 -1 0 1;
#X obj 106 177 hsl 60 18 0.0001 50 1 0 \$0-cents.s \$0-cents.r cents
2 9 0 10 -204786 -1 -1 0 1;
#X obj 173 137 hsl 60 18 0.1 1000 1 0 \$0-mix.s \$0-mix.r mix 2 9 0
10 -204786 -1 -1 0 1;
#X obj 173 157 hsl 60 18 0.0001 50 1 0 \$0-level.s \$0-level.r level
2 9 0 10 -204786 -1 -1 0 1;
#X msg 104 476 messages 1;
#N canvas 0 23 450 300 fft-label 0;
#X obj 38 35 r \$0-fftsize.s;
#X msg 38 97 64;
#X obj 38 139 s \$0-fftsize;
#X msg 67 97 128;
#X msg 97 97 256;
#X msg 127 97 512;
#X msg 158 97 1024;
#X msg 194 97 2048;
#X msg 230 97 4096;
#X msg 265 97 8196;
#X floatatom 149 24 5 0 0 0 - - -;
#X obj 38 56 sel 0 1 2 3 4 5 6 7 8;
#X connect 0 0 10 0;
#X connect 0 0 11 0;
#X connect 1 0 2 0;
#X connect 3 0 2 0;
#X connect 4 0 2 0;
#X connect 5 0 2 0;
#X connect 6 0 2 0;
#X connect 7 0 2 0;
#X connect 8 0 2 0;
#X connect 9 0 2 0;
#X connect 11 0 1 0;
#X connect 11 1 3 0;
#X connect 11 2 4 0;
#X connect 11 3 5 0;
#X connect 11 4 6 0;
#X connect 11 5 7 0;
#X connect 11 6 8 0;
#X connect 11 7 9 0;
#X restore 200 60 pd fft-label;
#X floatatom 202 199 5 0 0 0 - #0-fftsize #0-null;
#X obj 104 199 hradio 12 1 1 8 \$0-fftsize.s \$0-fftsize.r empty 0
-8 0 10 -116544 -262144 -1 4;
#X msg 104 228 chnset speed \$1;
#X msg 104 249 chnset feedback \$1;
#X msg 104 270 chnset bufsize \$1;
#X msg 104 290 chnset mix \$1;
#X msg 104 310 chnset semitones \$1;
#X msg 104 330 chnset level \$1;
#X msg 104 350 chnset cents \$1;
#X msg 104 370 chnset att_table \$1;
#X connect 0 0 9 0;
#X connect 1 0 9 1;
#X connect 4 0 19 0;
#X connect 5 0 21 0;
#X connect 6 0 9 0;
#X connect 8 0 15 0;
#X connect 9 0 2 0;
#X connect 9 1 3 0;
#X connect 10 0 20 0;
#X connect 11 0 23 0;
#X connect 12 0 25 0;
#X connect 13 0 22 0;
#X connect 14 0 24 0;
#X connect 15 0 9 0;
#X connect 18 0 26 0;
#X connect 19 0 9 0;
#X connect 20 0 9 0;
#X connect 21 0 9 0;
#X connect 22 0 9 0;
#X connect 23 0 9 0;
#X connect 24 0 9 0;
#X connect 25 0 9 0;
#X connect 26 0 9 0;
#X coords 0 -1 1 1 139 118 1 100 100;
