#N canvas 861 113 515 600 10;
#X obj 244 350 inlet~;
#X obj 409 352 inlet~;
#X obj 243 471 outlet~;
#X obj 299 471 outlet~;
#X obj 209 118 hsl 60 18 0.001 0.5 1 0 \$0-thresh.s \$0-thresh.r thresh
2 9 0 10 -204786 -1 -1 0 1;
#X obj 209 138 hsl 60 18 0.0001 0.5 1 0 \$0-delay.s \$0-delay.r delay
2 9 0 10 -204786 -1 -1 0 1;
#X obj 104 198 tgl 18 0 \$0-auto.s \$0-auto.r auto 22 9 0 10 -262144
-1 -1 0 1;
#X msg 301 376 reset;
#N canvas 558 536 725 391 store.state 0;
#N canvas 81 45 329 237 read.write 0;
#X obj 74 111 savestate;
#X obj 74 91 r \$0-to.savestate;
#X obj 125 131 s \$0-savestate.right;
#X text 78 33 send and receive lists from the individual abstractions
, f 27;
#X obj 74 171 s \$0-savestate.left;
#X obj 74 131 t a b;
#X obj 101 151 s \$0-stop.loadbang;
#X connect 0 0 5 0;
#X connect 0 1 2 0;
#X connect 1 0 0 0;
#X connect 5 0 4 0;
#X connect 5 1 6 0;
#X restore 52 41 pd read.write;
#X obj 52 91 store.param \$0 thresh;
#X obj 52 111 store.param \$0 delay;
#X obj 52 131 store.param \$0 mix;
#X obj 52 151 store.param \$0 level;
#X obj 52 171 store.param \$0 freeze-bth;
#X obj 52 191 store.param \$0 freeze-amp;
#X obj 52 211 store.param \$0 freeze-frq;
#X obj 52 231 store.param \$0 lock-phs;
#X obj 237 91 param-label \$0 thresh;
#X obj 237 131 param-label \$0 mix;
#X obj 237 151 param-label \$0 level;
#X obj 52 271 store.param \$0 fftsize;
#X obj 52 251 store.param \$0 auto;
#X obj 237 111 param-label \$0 delay;
#X restore 103 60 pd store.state;
#X msg 102 325 chnset thresh \$1;
#X msg 102 345 chnset delay \$1;
#X obj 209 158 hsl 60 18 0 1 0 1 \$0-mix.s \$0-mix.r mix 2 9 0 10 -204786
-1 -1 5900 1;
#X obj 209 178 hsl 60 18 0 1 0 1 \$0-level.s \$0-level.r level 2 9
0 10 -204786 -1 -1 4900 1;
#X msg 102 365 chnset mix \$1;
#X msg 102 385 chnset lev \$1;
#X obj 104 138 tgl 18 0 \$0-freeze-amp.s \$0-freeze-amp.r freeze-amp
22 9 0 10 -262144 -1 -1 0 1;
#X obj 104 158 tgl 18 0 \$0-freeze-frq.s \$0-freeze-frq.r freeze-frq
22 9 0 10 -262144 -1 -1 0 1;
#X obj 104 178 tgl 18 0 \$0-lock-phs.s \$0-lock-phs.r lock-phs 22 9
0 10 -262144 -1 -1 0 1;
#X obj 104 118 tgl 18 0 \$0-freeze-bth.s \$0-freeze-bth.r freeze-bth
22 9 0 10 -262144 -1 -1 0 1;
#X msg 102 405 chnset freeza \$1;
#X msg 102 425 chnset freezf \$1;
#X msg 102 445 chnset freezb \$1;
#X msg 102 465 chnset lock \$1;
#X msg 102 485 chnset att_table \$1;
#X msg 102 305 chnset auto \$1;
#X floatatom 226 224 5 0 0 0 - #0-fftsize #0-null;
#N canvas 0 23 450 300 fft-label 0;
#X obj 38 35 r \$0-fftsize.s;
#X msg 38 97 64;
#X obj 38 139 s \$0-fftsize;
#X msg 67 97 128;
#X msg 97 97 256;
#X msg 127 97 512;
#X msg 158 97 1024;
#X msg 194 97 2048;
#X msg 230 97 4096;
#X msg 265 97 8196;
#X floatatom 149 24 5 0 0 0 - - -;
#X obj 38 56 sel 0 1 2 3 4 5 6 7 8;
#X connect 0 0 10 0;
#X connect 0 0 11 0;
#X connect 1 0 2 0;
#X connect 3 0 2 0;
#X connect 4 0 2 0;
#X connect 5 0 2 0;
#X connect 6 0 2 0;
#X connect 7 0 2 0;
#X connect 8 0 2 0;
#X connect 9 0 2 0;
#X connect 11 0 1 0;
#X connect 11 1 3 0;
#X connect 11 2 4 0;
#X connect 11 3 5 0;
#X connect 11 4 6 0;
#X connect 11 5 7 0;
#X connect 11 6 8 0;
#X connect 11 7 9 0;
#X restore 200 60 pd fft-label;
#X obj 62 449 + 1;
#X obj 22 139 t f f;
#X obj 189 143 tgl 8 0 \$0-foo1 \$0-freeza empty 17 7 0 10 -262144
-258113 -1 0 1;
#X obj 189 163 tgl 8 0 \$0-foo \$0-freezf empty 17 7 0 10 -262144 -258113
-1 0 1;
#X obj 354 429 unpack s f;
#X obj 354 470 pack \$0 s f;
#X obj 354 450 t b s;
#X msg 354 490 \; \$1-\$2 \$3;
#X obj 104 224 hradio 15 1 1 8 \$0-fftsize.s \$0-fftsize.r empty 0
-8 0 10 -116544 -262144 -1 5;
#X obj 304 306 loadbang;
#X obj 244 409 csound6~ pvsfreeze.csd, f 28;
#X obj 469 60 inlet;
#X msg 304 338 messages 0;
#X connect 0 0 37 0;
#X connect 1 0 37 1;
#X connect 4 0 9 0;
#X connect 5 0 10 0;
#X connect 6 0 24 0;
#X connect 7 0 37 0;
#X connect 9 0 37 0;
#X connect 10 0 37 0;
#X connect 11 0 13 0;
#X connect 12 0 14 0;
#X connect 13 0 37 0;
#X connect 14 0 37 0;
#X connect 15 0 19 0;
#X connect 16 0 20 0;
#X connect 17 0 22 0;
#X connect 18 0 21 0;
#X connect 18 0 28 0;
#X connect 19 0 37 0;
#X connect 20 0 37 0;
#X connect 21 0 37 0;
#X connect 22 0 37 0;
#X connect 23 0 37 0;
#X connect 24 0 37 0;
#X connect 27 0 23 0;
#X connect 28 0 16 0;
#X connect 28 1 15 0;
#X connect 31 0 33 0;
#X connect 31 1 32 2;
#X connect 32 0 34 0;
#X connect 33 0 32 0;
#X connect 33 1 32 1;
#X connect 35 0 27 0;
#X connect 36 0 39 0;
#X connect 37 0 2 0;
#X connect 37 1 3 0;
#X connect 37 2 31 0;
#X connect 38 0 18 0;
#X connect 39 0 37 0;
#X coords 0 -1 1 1 175 144 1 100 100;
