#N canvas 268 32 1161 868 10;
#X obj 324 304 vline~;
#X obj 324 352 *~;
#X msg 324 278 0 \, 1 \$1;
#X obj 324 253 pack f;
#X obj 323 612 *~;
#X obj 367 632 vline~;
#X obj 324 166 delay 5;
#X obj 391 360 *~;
#X obj 406 340 line~;
#X obj 324 19 inlet trig;
#X obj 44 353 cnv 15 150 260 empty empty empty 20 12 0 14 -261682 -66577
0;
#X obj 53 380 openpanel;
#X obj 105 116 bng 15 250 50 0 empty empty empty 0 -6 0 10 -262144
-1 -1;
#X obj 53 494 soundfiler;
#X floatatom 53 540 5 0 0 0 - - -;
#X msg 67 516 bang;
#X floatatom 53 579 5 0 0 0 - - -;
#X obj 53 559 expr ($f1/44100)*1000;
#X symbolatom 124 117 15 0 0 0 - - -;
#X obj 323 685 outlet~;
#X obj 189 397 stripdir;
#X obj 188 420 s \$0-filename;
#X obj 124 71 r \$0-filename;
#X obj 91 539 s \$0-num-frm;
#X obj 94 583 s \$0-ms;
#X obj 334 230 r \$0-ms;
#X obj 391 292 r \$0-num-frm;
#X obj 367 607 r \$0-cutoff;
#X obj 53 448 pack s s;
#X obj 98 407 loadbang;
#X msg 53 469 read -resize \$1 \$2;
#X obj 52 357 table \$0-buf;
#X obj 98 427 symbol \$0-buf;
#X obj 324 532 tabread4~ \$0-buf;
#X obj 395 228 s \$0-cutoff;
#X msg 402 190 0 5;
#X msg 350 189 1;
#X obj 324 89 spigot;
#X obj 324 66 t b f;
#X obj 108 135 hsl 80 14 0 2 0 0 empty empty pitch 20 7 0 10 -262144
-1 -1 3950 1;
#X obj 36 135 init 1;
#X floatatom 192 135 4 0 0 0 - - -;
#X obj 108 149 hsl 80 14 0.01 1 1 0 empty empty level 20 7 0 10 -262144
-1 -1 7406 1;
#X floatatom 192 149 4 0 0 0 - - -;
#X obj 35 156 init 0.75;
#X obj 481 167 sel 0 1;
#X msg 518 198 1;
#X obj 494 45 / 100;
#X msg 410 317 \$1 50;
#X obj 495 380 vline~;
#X obj 323 654 *~;
#X obj 551 265 r \$0-ms;
#X floatatom 511 77 5 0 0 0 - - -;
#X obj 494 16 r \$1-accent;
#X text 353 584 amp env;
#X text 352 655 overall level;
#X floatatom 522 310 5 0 0 0 - - -;
#X obj 481 197 f;
#X obj 481 141 f;
#X msg 495 357 \$1 \, 0 \$2 \$3;
#X obj 495 336 pack f f f;
#X floatatom 559 310 5 0 0 0 - - -;
#X obj 322 490 +~;
#X obj 393 461 *~;
#X obj 408 440 line~;
#X obj 393 392 r \$0-num-frm;
#X msg 408 417 \$1 50;
#X obj 108 163 hsl 80 14 0 1 0 0 empty empty start 20 7 0 10 -262144
-1 -1 0 1;
#X obj 354 488 samphold~;
#X obj 323 585 *~;
#X obj 108 177 hsl 80 14 10 1000 1 0 empty empty hold 20 7 0 10 -262144
-1 -1 0 1;
#X obj 108 191 hsl 80 14 10 1000 1 0 empty empty decay 20 7 0 10 -262144
-1 -1 0 1;
#X obj 379 735 switch~;
#X obj 379 688 env~;
#X obj 379 711 > 0.1;
#X obj 323 134 t b b b b;
#X msg 788 386 1;
#X floatatom 342 731 5 0 0 0 - - -;
#N canvas 813 116 486 485 \$0-fill 0;
#X obj 179 288 i;
#X obj 208 288 + 1;
#X msg 126 269 bang;
#X msg 256 223 stop;
#X msg 293 222 0;
#X obj 179 253 delay 200;
#X obj 34 108 t b b;
#X obj 229 172 /;
#X obj 179 315 mod 4;
#X obj 256 201 t b b;
#X obj 179 339 sel 3;
#X obj 317 291 - 1;
#X obj 266 120 t b f f f;
#X obj 83 202 spigot;
#X obj 116 174 tgl 15 0 empty empty empty 0 -6 0 10 -262144 -1 -1 0
1;
#X obj 116 150 > 1;
#X obj 218 383 bng 15 50 10 0 empty empty empty 0 -6 0 10 -262144 -1
-1;
#X obj 35 400 outlet;
#X obj 34 25 inlet clk;
#X obj 205 54 t f f;
#X obj 112 24 r mstr-ms;
#X obj 97 382 spigot;
#X obj 320 30 inlet;
#X obj 205 27 r \$1-fillval;
#X connect 0 0 1 0;
#X connect 0 0 2 0;
#X connect 0 0 8 0;
#X connect 1 0 0 1;
#X connect 2 0 5 0;
#X connect 3 0 5 0;
#X connect 4 0 0 0;
#X connect 5 0 0 0;
#X connect 6 0 17 0;
#X connect 6 1 13 0;
#X connect 7 0 5 1;
#X connect 8 0 10 0;
#X connect 9 0 3 0;
#X connect 9 1 4 0;
#X connect 10 0 9 0;
#X connect 10 0 16 0;
#X connect 10 1 21 0;
#X connect 11 0 10 1;
#X connect 12 0 7 0;
#X connect 12 1 7 1;
#X connect 12 2 8 1;
#X connect 12 3 11 0;
#X connect 13 0 2 0;
#X connect 14 0 13 1;
#X connect 15 0 14 0;
#X connect 18 0 6 0;
#X connect 19 0 15 0;
#X connect 19 1 12 0;
#X connect 20 0 7 0;
#X connect 21 0 17 0;
#X connect 22 0 21 1;
#X connect 23 0 19 0;
#X restore 323 111 pd \$0-fill;
#X obj 324 42 unpack f f f;
#X floatatom 406 81 5 0 0 0 - - -;
#X connect 0 0 1 0;
#X connect 0 0 68 1;
#X connect 1 0 62 0;
#X connect 2 0 0 0;
#X connect 3 0 2 0;
#X connect 4 0 50 0;
#X connect 5 0 4 1;
#X connect 6 0 3 0;
#X connect 6 0 36 0;
#X connect 7 0 1 1;
#X connect 8 0 7 1;
#X connect 9 0 79 0;
#X connect 11 0 28 0;
#X connect 11 0 20 0;
#X connect 12 0 11 0;
#X connect 13 0 14 0;
#X connect 14 0 17 0;
#X connect 14 0 23 0;
#X connect 15 0 14 0;
#X connect 16 0 24 0;
#X connect 17 0 16 0;
#X connect 20 0 21 0;
#X connect 22 0 18 0;
#X connect 25 0 3 0;
#X connect 26 0 7 0;
#X connect 27 0 5 0;
#X connect 28 0 30 0;
#X connect 29 0 32 0;
#X connect 30 0 13 0;
#X connect 32 0 28 1;
#X connect 33 0 69 0;
#X connect 35 0 34 0;
#X connect 36 0 34 0;
#X connect 37 0 78 0;
#X connect 38 0 37 0;
#X connect 38 1 37 1;
#X connect 39 0 48 0;
#X connect 39 0 41 0;
#X connect 40 0 39 0;
#X connect 42 0 43 0;
#X connect 42 0 50 1;
#X connect 44 0 42 0;
#X connect 45 0 57 0;
#X connect 45 1 46 0;
#X connect 46 0 60 0;
#X connect 47 0 52 0;
#X connect 47 0 57 1;
#X connect 48 0 8 0;
#X connect 49 0 69 1;
#X connect 50 0 19 0;
#X connect 50 0 73 0;
#X connect 53 0 47 0;
#X connect 56 0 60 1;
#X connect 57 0 60 0;
#X connect 58 0 45 0;
#X connect 59 0 49 0;
#X connect 60 0 59 0;
#X connect 61 0 60 2;
#X connect 62 0 33 0;
#X connect 63 0 68 0;
#X connect 64 0 63 1;
#X connect 65 0 63 0;
#X connect 66 0 64 0;
#X connect 67 0 66 0;
#X connect 68 0 62 1;
#X connect 69 0 4 0;
#X connect 70 0 61 0;
#X connect 71 0 56 0;
#X connect 73 0 74 0;
#X connect 73 0 77 0;
#X connect 74 0 72 0;
#X connect 75 0 6 0;
#X connect 75 1 35 0;
#X connect 75 2 58 0;
#X connect 75 3 76 0;
#X connect 76 0 72 0;
#X connect 78 0 75 0;
#X connect 79 0 38 0;
#X connect 79 1 58 1;
#X connect 79 2 78 1;
#X connect 79 2 80 0;
#X coords 0 -1 1 1 140 120 1 100 100;
