#N canvas 704 410 1173 1004 10;
#X obj 324 304 vline~;
#X obj 324 404 *~;
#X msg 324 278 0 \, 1 \$1;
#X obj 322 682 *~;
#X obj 357 683 vline~;
#X obj 383 369 *~;
#X obj 398 322 line~;
#X obj 322 778 outlet~;
#X obj 339 223 r \$0-ms;
#X obj 383 251 r \$0-num-frm;
#X obj 404 683 r \$0-cutoff;
#X obj 402 216 s \$0-cutoff;
#X msg 371 190 1;
#X obj 64 425 spigot;
#X obj 324 66 t b f;
#X obj 108 173 hsl 105 18 0 2 0 1 \$0-pitch.s \$0-pitch.r pitch 2 9
0 10 -204800 -1 -1 3300 1;
#X obj 108 193 hsl 105 18 0 1 0 1 \$0-level.s \$0-level.r level 2 9
0 10 -203904 -1 -1 10400 1;
#X msg 398 302 \$1 50;
#X obj 495 398 vline~;
#X obj 322 724 *~;
#X text 352 654 amp env;
#X obj 495 201 pack f f f, f 25;
#X obj 322 590 +~;
#X obj 393 561 *~;
#X obj 408 540 line~;
#X obj 393 393 r \$0-num-frm;
#X msg 408 518 \$1 50;
#X obj 108 213 hsl 105 18 0 1 0 1 \$0-start.s \$0-start.r start 2 9
0 10 -204786 -1 -1 0 1;
#X obj 354 588 samphold~;
#X obj 322 655 *~;
#X obj 108 233 hsl 105 18 0.01 1 1 1 \$0-hold.s \$0-hold.r hold 2 9
0 10 -204786 -1 -1 10400 1;
#X obj 108 253 hsl 105 18 0.01 1 1 1 \$0-decay.s \$0-decay.r decay
2 9 0 10 -204786 -1 -1 0 1;
#N canvas 813 116 486 485 \$0-fill 0;
#X obj 179 288 i;
#X obj 208 288 + 1;
#X msg 126 269 bang;
#X msg 256 223 stop;
#X msg 293 222 0;
#X obj 179 253 delay 200;
#X obj 34 108 t b b;
#X obj 229 172 /;
#X obj 179 315 mod 4;
#X obj 256 201 t b b;
#X obj 179 339 sel 3;
#X obj 317 291 - 1;
#X obj 266 120 t b f f f;
#X obj 83 202 spigot;
#X obj 116 174 tgl 15 0 empty empty empty 0 -6 0 10 -262144 -1 -1 0
1;
#X obj 116 150 > 1;
#X obj 218 383 bng 15 50 10 0 empty empty empty 0 -6 0 10 -262144 -1
-1;
#X obj 35 400 outlet;
#X obj 34 25 inlet clk;
#X obj 205 54 t f f;
#X obj 112 24 r mstr-ms;
#X obj 97 382 spigot;
#X obj 320 30 inlet;
#X obj 205 27 r \$1-fillval;
#X text 94 455 think this is doing some kind of trill efect;
#X connect 0 0 1 0;
#X connect 0 0 2 0;
#X connect 0 0 8 0;
#X connect 1 0 0 1;
#X connect 2 0 5 0;
#X connect 3 0 5 0;
#X connect 4 0 0 0;
#X connect 5 0 0 0;
#X connect 6 0 17 0;
#X connect 6 1 13 0;
#X connect 7 0 5 1;
#X connect 8 0 10 0;
#X connect 9 0 3 0;
#X connect 9 1 4 0;
#X connect 10 0 9 0;
#X connect 10 0 16 0;
#X connect 10 1 21 0;
#X connect 11 0 10 1;
#X connect 12 0 7 0;
#X connect 12 1 7 1;
#X connect 12 2 8 1;
#X connect 12 3 11 0;
#X connect 13 0 2 0;
#X connect 14 0 13 1;
#X connect 15 0 14 0;
#X connect 18 0 6 0;
#X connect 19 0 15 0;
#X connect 19 1 12 0;
#X connect 20 0 7 0;
#X connect 21 0 17 0;
#X connect 22 0 21 1;
#X connect 23 0 19 0;
#X restore 63 445 pd \$0-fill;
#X obj 495 549 *~;
#X obj 324 7 inlet;
#X text 239 88 necessary? >>;
#X obj 107 427 bng 15 250 50 0 empty empty empty 17 7 0 10 -262144
-1 -1;
#X obj 322 751 hip~ 5;
#N canvas 0 23 450 278 (subpatch) 0;
#X array \$0-display 1024 float 0;
#X coords 0 1 1023 -1 110 21 1 0 0;
#X restore 105 150 graph;
#X obj 105 118 bng 15 250 50 0 \$0-load empty empty 0 -6 0 10 -262144
-1 -1;
#X symbolatom 123 118 15 0 0 0 - #0-filenamedisplay foo1;
#N canvas 571 535 725 390 store.state 0;
#N canvas 81 45 329 237 read.write 0;
#X obj 74 111 savestate;
#X obj 74 91 r \$0-to.savestate;
#X obj 125 131 s \$0-savestate.right;
#X text 78 33 send and receive lists from the individual abstractions
, f 27;
#X obj 74 171 s \$0-savestate.left;
#X obj 74 131 t a b;
#X obj 101 151 s \$0-stop.loadbang;
#X connect 0 0 5 0;
#X connect 0 1 2 0;
#X connect 1 0 0 0;
#X connect 5 0 4 0;
#X connect 5 1 6 0;
#X restore 52 41 pd read.write;
#X obj 52 91 store.param \$0 pitch;
#X obj 52 111 store.param \$0 level;
#X obj 52 131 store.param \$0 start;
#X obj 52 151 store.param \$0 hold;
#X obj 52 171 store.param \$0 decay;
#X obj 52 191 store.param \$0 filename;
#X obj 237 91 param-label \$0 pitch;
#X obj 237 111 param-label \$0 level;
#X obj 237 131 param-label \$0 start;
#X obj 237 151 param-label \$0 hold;
#X obj 237 171 param-label \$0 decay;
#X restore 100 11 pd store.state;
#X obj 324 37 unpack f f f f f, f 39;
#X obj 354 725 r \$0-level.s;
#X obj 324 253 f;
#X obj 642 116 r \$0-hold.s;
#X text 370 7 pitch \, vel \, start \, hold \, dec;
#X obj 568 164 +;
#X obj 398 279 r \$0-pitch.s;
#X obj 408 435 r \$0-start.s;
#X obj 568 95 r \$0-decay.s;
#X obj 323 134 t b b, f 14;
#X text 435 723 overall amp level;
#X obj 642 176 +;
#X obj 568 136 *;
#X obj 583 115 r \$0-ms;
#X obj 642 156 *;
#X obj 657 135 r \$0-ms;
#X floatatom 678 161 10 0 0 0 - - -;
#N canvas 28 647 792 436 snd-load 0;
#X obj 282 115 openpanel;
#X obj 282 240 soundfiler;
#X obj 281 326 outlet;
#X obj 281 304 f;
#X obj 382 142 s \$0-filenamedisplay;
#X obj 326 142 stripdir;
#X obj 77 57 table \$0-snd-l;
#X obj 282 68 inlet load;
#X obj 442 239 inlet refresh;
#X obj 282 142 symbol;
#X obj 253 143 bng 15 250 50 0 empty empty empty 17 7 0 10 -262144
-1 -1;
#X msg 282 91 symbol ~/Dropbox/Audio Work/;
#X obj 180 181 s \$0-filename.s;
#X obj 183 91 r \$0-filename.r;
#X obj 282 181 pack s \$0;
#X obj 183 112 l2s;
#X msg 339 265 \$3;
#X obj 339 326 outlet;
#X obj 339 290 < 2;
#X obj 134 328 expr ($f1/44100)*1000;
#X obj 134 351 s \$0-ms;
#X obj 195 351 s \$0-num-frm;
#X msg 282 208 read -resize \$1 \$2-snd-l;
#X obj 77 79 table \$0-snd-r;
#X connect 0 0 9 0;
#X connect 1 0 3 0;
#X connect 1 1 16 0;
#X connect 3 0 2 0;
#X connect 3 0 19 0;
#X connect 3 0 21 0;
#X connect 5 0 4 0;
#X connect 7 0 11 0;
#X connect 8 0 3 0;
#X connect 9 0 5 0;
#X connect 9 0 12 0;
#X connect 9 0 14 0;
#X connect 10 0 9 0;
#X connect 11 0 0 0;
#X connect 13 0 15 0;
#X connect 14 0 22 0;
#X connect 15 0 9 0;
#X connect 16 0 18 0;
#X connect 18 0 17 0;
#X connect 19 0 20 0;
#X connect 22 0 1 0;
#X restore 101 53 pd snd-load;
#N canvas 16 403 384 655 display-redraw 0;
#X obj 83 100 until;
#X obj 83 178 *, f 9;
#X obj 83 48 t b f f;
#X obj 23 434 del 500;
#X obj 79 355 pack f f;
#X obj 23 411 b;
#X obj 122 74 / 1024;
#X msg 83 74 1024;
#X obj 83 126 intcount 1024;
#X obj 23 454 \$0;
#X obj 33 277 tabread \$0-snd-l;
#X obj 162 278 tabread \$0-snd-r;
#X obj 83 204 t f f;
#X obj 78 404 tabwrite \$0-display;
#X obj 83 22 r \$0-num-frm;
#X obj 83 152 t f f;
#X msg 23 474 \; \$1-display normalize 1 \;;
#X obj 60 313 expr ($f1+$f2)/2, f 18;
#X connect 0 0 8 0;
#X connect 1 0 12 0;
#X connect 2 0 7 0;
#X connect 2 2 6 0;
#X connect 3 0 9 0;
#X connect 4 0 5 0;
#X connect 4 0 13 0;
#X connect 5 0 3 0;
#X connect 6 0 1 1;
#X connect 7 0 0 0;
#X connect 8 0 15 0;
#X connect 9 0 16 0;
#X connect 10 0 17 0;
#X connect 11 0 17 1;
#X connect 12 0 10 0;
#X connect 12 1 11 0;
#X connect 14 0 2 0;
#X connect 15 0 1 0;
#X connect 15 1 4 1;
#X connect 17 0 4 0;
#X restore 101 73 pd display-redraw;
#X obj 322 615 tabread4~ \$0-snd-l;
#X obj 101 34 r \$0-load;
#X obj 164 35 bng 15 250 50 0 empty empty empty 17 7 0 10 -262144 -1
-1;
#X obj 398 345 +~;
#X obj 426 345 sig~;
#X msg 495 367 \$1 \, 0 \$2 \$3;
#X msg 402 190 0 1;
#X obj 323 163 delay 1;
#X obj 408 497 +;
#X obj 455 497 print;
#X obj 439 468 t b f;
#X connect 0 0 1 0;
#X connect 0 0 28 1;
#X connect 1 0 22 0;
#X connect 2 0 0 0;
#X connect 3 0 19 0;
#X connect 4 0 3 1;
#X connect 5 0 1 1;
#X connect 6 0 64 0;
#X connect 8 0 44 1;
#X connect 9 0 5 0;
#X connect 10 0 4 0;
#X connect 12 0 11 0;
#X connect 13 0 32 0;
#X connect 13 0 36 0;
#X connect 14 0 51 0;
#X connect 14 1 65 0;
#X connect 17 0 6 0;
#X connect 18 0 33 0;
#X connect 18 0 33 1;
#X connect 19 0 37 0;
#X connect 21 0 66 0;
#X connect 22 0 61 0;
#X connect 23 0 28 0;
#X connect 24 0 23 1;
#X connect 25 0 23 0;
#X connect 26 0 24 0;
#X connect 28 0 22 1;
#X connect 29 0 3 0;
#X connect 33 0 29 1;
#X connect 34 0 42 0;
#X connect 37 0 7 0;
#X connect 42 0 14 0;
#X connect 42 1 21 0;
#X connect 42 2 71 0;
#X connect 42 3 53 1;
#X connect 42 4 47 1;
#X connect 43 0 19 1;
#X connect 44 0 2 0;
#X connect 45 0 56 0;
#X connect 47 0 21 1;
#X connect 48 0 17 0;
#X connect 49 0 69 0;
#X connect 50 0 54 0;
#X connect 51 0 68 0;
#X connect 51 1 67 0;
#X connect 53 0 21 2;
#X connect 54 0 47 0;
#X connect 55 0 54 1;
#X connect 56 0 53 0;
#X connect 57 0 56 1;
#X connect 57 0 58 0;
#X connect 61 0 29 0;
#X connect 62 0 59 0;
#X connect 63 0 59 1;
#X connect 64 0 5 1;
#X connect 65 0 64 1;
#X connect 66 0 18 0;
#X connect 67 0 11 0;
#X connect 68 0 12 0;
#X connect 68 0 44 0;
#X connect 69 0 26 0;
#X connect 71 0 69 0;
#X connect 71 1 69 1;
#X coords 0 -1 1 1 120 176 1 100 100;
