#N canvas 1230 626 627 585 10;
#X obj 291 394 +;
#X obj 321 270 -;
#X obj 344 359 *;
#X obj 343 319 /;
#X obj 374 270 -;
#X obj 256 267 -, f 1;
#X floatatom 224 407 5 0 0 0 - - -, f 5;
#X obj 322 199 t b f;
#X obj 435 198 t b b f;
#X obj 291 428 outlet;
#X obj 154 50 inlet sigmin;
#X obj 243 50 inlet sigmax;
#X obj 332 50 inlet scalemin;
#X obj 433 50 inlet scalemax;
#X obj 149 98 f \$1;
#X obj 244 98 f \$2;
#X obj 334 98 f \$3;
#X obj 432 98 f \$4;
#X obj 64 69 loadbang;
#X obj 20 109 inlet inval;
#X obj 21 136 t f b b b b;
#X connect 0 0 6 0;
#X connect 0 0 9 0;
#X connect 1 0 3 0;
#X connect 2 0 0 1;
#X connect 3 0 2 0;
#X connect 4 0 3 1;
#X connect 5 0 2 1;
#X connect 7 0 1 0;
#X connect 7 0 4 0;
#X connect 7 1 4 1;
#X connect 7 1 1 1;
#X connect 8 0 3 0;
#X connect 8 1 4 0;
#X connect 8 2 4 1;
#X connect 10 0 14 0;
#X connect 11 0 15 0;
#X connect 12 0 16 0;
#X connect 13 0 17 0;
#X connect 14 0 7 0;
#X connect 15 0 8 0;
#X connect 16 0 5 1;
#X connect 16 0 0 0;
#X connect 17 0 5 0;
#X connect 18 0 17 0;
#X connect 18 0 16 0;
#X connect 18 0 15 0;
#X connect 18 0 14 0;
#X connect 19 0 20 0;
#X connect 20 0 1 0;
#X connect 20 1 14 0;
#X connect 20 2 15 0;
#X connect 20 3 16 0;
#X connect 20 4 17 0;
