#N canvas 137 266 527 317 10;
#X floatatom 111 87 5 0 0 0 - - -, f 5;
#X text 90 67 scale min;
#X obj 142 251 +;
#X floatatom 36 90 5 0 0 0 - - -, f 5;
#X text 19 67 scale max;
#X floatatom 143 14 5 0 15 0 - - -, f 5;
#X obj 172 127 -;
#X obj 195 216 *;
#X obj 194 176 /;
#X floatatom 217 27 5 0 0 0 - - -, f 5;
#X floatatom 286 26 5 0 0 0 - - -, f 5;
#X text 281 4 sig max;
#X text 206 4 sig min;
#X obj 225 127 -;
#X obj 62 142 -;
#X floatatom 143 288 5 0 0 0 - - -, f 5;
#X obj 30 13 inlet value;
#X obj 72 39 t b f;
#X obj 197 53 t b f;
#X floatatom 151 181 5 0 0 0 - - -, f 5;
#X obj 286 55 t b b f;
#X connect 0 0 2 0;
#X connect 0 0 14 1;
#X connect 2 0 15 0;
#X connect 3 0 14 0;
#X connect 5 0 6 0;
#X connect 6 0 8 0;
#X connect 7 0 2 1;
#X connect 8 0 7 0;
#X connect 8 0 19 0;
#X connect 9 0 18 0;
#X connect 10 0 20 0;
#X connect 13 0 8 1;
#X connect 14 0 7 1;
#X connect 16 0 17 0;
#X connect 18 0 6 0;
#X connect 18 0 13 0;
#X connect 18 1 13 1;
#X connect 18 1 6 1;
#X connect 20 0 8 0;
#X connect 20 1 13 0;
#X connect 20 2 13 1;
