#N canvas 0 23 419 265 10;
#X obj 291 127 metro 100;
#X floatatom 342 107 5 0 0 0 - - -, f 5;
#X obj 283 55 loadbang;
#X obj 291 152 tabwrite~ \$0-scope;
#X obj 232 66 inlet~;
#N canvas 0 22 450 278 (subpatch) 0;
#X array \$0-scope 4096 float 2;
#X coords 0 1 4096 -1 120 70 2 0 0;
#X restore 102 118 graph;
#X obj 102 102 cnv 15 100 14 empty empty empty 20 12 0 14 -262144 -66577
0;
#X connect 0 0 3 0;
#X connect 1 0 0 1;
#X connect 2 0 0 0;
#X connect 4 0 3 0;
#X coords 0 -1 1 1 124 90 1 100 100;
