#N canvas 627 253 714 557 10;
#X floatatom 103 218 3 0 0 0 - #1-note-0-r #1-note-0, f 3;
#X floatatom 123 218 3 0 0 0 - #1-note-1-r #1-note-1, f 3;
#X floatatom 143 218 3 0 0 0 - #1-note-2-r #1-note-2, f 3;
#X floatatom 163 218 3 0 0 0 - #1-note-3-r #1-note-3, f 3;
#X floatatom 183 218 3 0 0 0 - #1-note-4-r #1-note-4, f 3;
#X floatatom 203 218 3 0 0 0 - #1-note-5-r #1-note-5, f 3;
#X floatatom 223 218 3 0 0 0 - #1-note-6-r #1-note-6, f 3;
#X floatatom 243 218 3 0 0 0 - #1-note-7-r #1-note-7, f 3;
#X floatatom 263 218 3 0 0 0 - #1-note-8-r #1-note-8, f 3;
#X floatatom 283 218 3 0 0 0 - #1-note-9-r #1-note-9, f 3;
#X floatatom 303 218 3 0 0 0 - #1-note-10-r #1-note-10, f 3;
#X floatatom 323 218 3 0 0 0 - #1-note-11-r #1-note-11, f 3;
#X floatatom 343 218 3 0 0 0 - #1-note-12-r #1-note-12, f 3;
#X floatatom 363 218 3 0 0 0 - #1-note-13-r #1-note-13, f 3;
#X floatatom 383 218 3 0 0 0 - #1-note-14-r #1-note-14, f 3;
#X floatatom 403 218 3 0 0 0 - #1-note-15-r #1-note-15, f 3;
#X obj 103 143 vsl 20 60 0 1 0 0 \$1-level-0 \$1-level-0-r empty 0
-8 0 10 -228856 -1 -1 4525 1;
#X obj 123 143 vsl 20 60 0 1 0 0 \$1-level-1 \$1-level-1-r empty 0
-8 0 10 -262144 -1 -1 3425 1;
#X obj 143 143 vsl 20 60 0 1 0 0 \$1-level-2 \$1-level-2-r empty 0
-8 0 10 -262144 -1 -1 2225 1;
#X obj 163 143 vsl 20 60 0 1 0 0 \$1-level-3 \$1-level-3-r empty 0
-8 0 10 -262144 -1 -1 2525 1;
#X obj 183 143 vsl 20 60 0 1 0 0 \$1-level-4 \$1-level-4-r empty 0
-8 0 10 -228856 -1 -1 2425 1;
#X obj 203 143 vsl 20 60 0 1 0 0 \$1-level-5 \$1-level-5-r empty 0
-8 0 10 -262144 -1 -1 4225 1;
#X obj 223 143 vsl 20 60 0 1 0 0 \$1-level-6 \$1-level-6-r empty 0
-8 0 10 -262144 -1 -1 2925 1;
#X obj 263 118 tgl 20 0 \$1-mute-8 \$1-mute-8-r empty 0 -6 0 10 -228856
-62783 -1 0 1;
#X obj 283 118 tgl 20 0 \$1-mute-9 \$1-mute-9-r empty 0 -6 0 10 -262144
-62783 -1 1 1;
#X obj 303 118 tgl 20 0 \$1-mute-10 \$1-mute-10-r empty 0 -6 0 10 -262144
-62783 -1 0 1;
#X obj 323 118 tgl 20 0 \$1-mute-11 \$1-mute-11-r empty 0 -6 0 10 -262144
-62783 -1 1 1;
#X obj 343 118 tgl 20 0 \$1-mute-12 \$1-mute-12-r empty 0 -6 0 10 -228856
-62783 -1 0 1;
#X obj 363 118 tgl 20 0 \$1-mute-13 \$1-mute-13-r empty 0 -6 0 10 -262144
-62783 -1 1 1;
#X obj 383 118 tgl 20 0 \$1-mute-14 \$1-mute-14-r empty 0 -6 0 10 -262144
-62783 -1 1 1;
#X obj 403 118 tgl 20 0 \$1-mute-15 \$1-mute-15-r empty 0 -6 0 10 -262144
-62783 -1 0 1;
#X obj 243 143 vsl 20 60 0 1 0 0 \$1-level-7 \$1-level-7-r empty 0
-8 0 10 -262144 -1 -1 4425 1;
#X obj 263 143 vsl 20 60 0 1 0 0 \$1-level-8 \$1-level-8-r empty 0
-8 0 10 -228856 -1 -1 4425 1;
#X obj 283 143 vsl 20 60 0 1 0 0 \$1-level-9 \$1-level-9-r empty 0
-8 0 10 -262144 -1 -1 4425 1;
#X obj 303 143 vsl 20 60 0 1 0 0 \$1-level-10 \$1-level-10-r empty
0 -8 0 10 -262144 -1 -1 4425 1;
#X obj 323 143 vsl 20 60 0 1 0 0 \$1-level-11 \$1-level-11-r empty
0 -8 0 10 -262144 -1 -1 4425 1;
#X obj 343 143 vsl 20 60 0 1 0 0 \$1-level-12 \$1-level-12-r empty
0 -8 0 10 -228856 -1 -1 4425 1;
#X obj 363 143 vsl 20 60 0 1 0 0 \$1-level-13 \$1-level-13-r empty
0 -8 0 10 -262144 -1 -1 4425 1;
#X obj 383 143 vsl 20 60 0 1 0 0 \$1-level-14 \$1-level-14-r empty
0 -8 0 10 -262144 -1 -1 4425 1;
#X obj 403 143 vsl 20 60 0 1 0 0 \$1-level-15 \$1-level-15-r empty
0 -8 0 10 -262144 -1 -1 4425 1;
#X floatatom 191 257 4 0 0 1 level #1-level-val -, f 4;
#X obj 103 234 hradio 20 1 0 16 empty \$1-patt-pos empty 0 -6 0 10
-262144 -1 -1 1;
#X floatatom 103 257 5 0 0 1 length #0-int-length -, f 5;
#X obj 103 206 tgl 10 0 \$1-accent-0 \$1-accent-0-r empty 0 -6 0 10
-262144 -1 -1 0 1;
#X obj 113 206 tgl 10 0 \$1-fill-0 \$1-fill-0-r empty 0 -6 0 10 -66577
-262144 -1 1 1;
#X obj 123 206 tgl 10 0 \$1-accent-1 \$1-accent-1-r empty 0 -6 0 10
-262144 -1 -1 0 1;
#X obj 133 206 tgl 10 0 \$1-fill-1 \$1-fill-1-r empty 0 -6 0 10 -66577
-262144 -1 0 1;
#X obj 143 206 tgl 10 0 \$1-accent-2 \$1-accent-2-r empty 0 -6 0 10
-262144 -1 -1 0 1;
#X obj 153 206 tgl 10 0 \$1-fill-2 \$1-fill-2-r empty 0 -6 0 10 -66577
-262144 -1 0 1;
#X obj 163 206 tgl 10 0 \$1-accent-3 \$1-accent-3-r empty 0 -6 0 10
-262144 -1 -1 0 1;
#X obj 173 206 tgl 10 0 \$1-fill-3 \$1-fill-3-r empty 0 -6 0 10 -66577
-262144 -1 0 1;
#X obj 183 206 tgl 10 0 \$1-accent-4 \$1-accent-4-r empty 0 -6 0 10
-262144 -1 -1 0 1;
#X obj 193 206 tgl 10 0 \$1-fill-4 \$1-fill-4-r empty 0 -6 0 10 -66577
-262144 -1 0 1;
#X obj 203 206 tgl 10 0 \$1-accent-5 \$1-accent-5-r empty 0 -6 0 10
-262144 -1 -1 0 1;
#X obj 213 206 tgl 10 0 \$1-fill-5 \$1-fill-5-r empty 0 -6 0 10 -66577
-262144 -1 0 1;
#X obj 223 206 tgl 10 0 \$1-accent-6 \$1-accent-6-r empty 0 -6 0 10
-262144 -1 -1 0 1;
#X obj 233 206 tgl 10 0 \$1-fill-6 \$1-fill-6-r empty 0 -6 0 10 -66577
-262144 -1 0 1;
#X obj 243 206 tgl 10 0 \$1-accent-7 \$1-accent-7-r empty 0 -6 0 10
-262144 -1 -1 0 1;
#X obj 253 206 tgl 10 0 \$1-fill-7 \$1-fill-7-r empty 0 -6 0 10 -66577
-262144 -1 0 1;
#X obj 263 206 tgl 10 0 \$1-accent-8 \$1-accent-8-r empty 0 -6 0 10
-262144 -1 -1 0 1;
#X obj 273 206 tgl 10 0 \$1-fill-8 \$1-fill-8-r empty 0 -6 0 10 -66577
-262144 -1 0 1;
#X obj 283 206 tgl 10 0 \$1-accent-9 \$1-accent-9-r empty 0 -6 0 10
-262144 -1 -1 0 1;
#X obj 293 206 tgl 10 0 \$1-fill-9 \$1-fill-9-r empty 0 -6 0 10 -66577
-262144 -1 0 1;
#X obj 303 206 tgl 10 0 \$1-accent-10 \$1-accent-10-r empty 0 -6 0
10 -262144 -1 -1 0 1;
#X obj 313 206 tgl 10 0 \$1-fill-10 \$1-fill-10-r empty 0 -6 0 10 -66577
-262144 -1 0 1;
#X obj 323 206 tgl 10 0 \$1-accent-11 \$1-accent-11-r empty 0 -6 0
10 -262144 -1 -1 0 1;
#X obj 333 206 tgl 10 0 \$1-fill-11 \$1-fill-11-r empty 0 -6 0 10 -66577
-262144 -1 0 1;
#X obj 343 206 tgl 10 0 \$1-accent-12 \$1-accent-12-r empty 0 -6 0
10 -262144 -1 -1 0 1;
#X obj 353 206 tgl 10 0 \$1-fill-12 \$1-fill-12-r empty 0 -6 0 10 -66577
-262144 -1 0 1;
#X obj 363 206 tgl 10 0 \$1-accent-13 \$1-accent-13-r empty 0 -6 0
10 -262144 -1 -1 0 1;
#X obj 373 206 tgl 10 0 \$1-fill-13 \$1-fill-13-r empty 0 -6 0 10 -66577
-262144 -1 0 1;
#X obj 383 206 tgl 10 0 \$1-accent-14 \$1-accent-14-r empty 0 -6 0
10 -262144 -1 -1 0 1;
#X obj 393 206 tgl 10 0 \$1-fill-14 \$1-fill-14-r empty 0 -6 0 10 -66577
-262144 -1 0 1;
#X obj 403 206 tgl 10 0 \$1-accent-15 \$1-accent-15-r empty 0 -6 0
10 -262144 -1 -1 0 1;
#X obj 413 206 tgl 10 0 \$1-fill-15 \$1-fill-15-r empty 0 -6 0 10 -66577
-262144 -1 0 1;
#X obj 100 388 outlet list;
#N canvas 95 244 507 438 save 0;
#X obj 58 10 r SSSAD_SAVE;
#X obj 53 333 list prepend;
#X obj 146 333 t l;
#X obj 30 362 list;
#X obj 30 386 outlet;
#X obj 96 112 until;
#X obj 96 135 f;
#X obj 126 135 + 1;
#X msg 141 112 0;
#X obj 58 36 t b b b b;
#X obj 96 160 tabread \$1-seqtab;
#X msg 96 82 80;
#X connect 0 0 9 0;
#X connect 1 0 2 0;
#X connect 1 0 3 1;
#X connect 2 0 1 1;
#X connect 3 0 4 0;
#X connect 5 0 6 0;
#X connect 6 0 7 0;
#X connect 6 0 10 0;
#X connect 7 0 6 1;
#X connect 8 0 6 1;
#X connect 9 0 1 1;
#X connect 9 1 3 0;
#X connect 9 2 11 0;
#X connect 9 3 8 0;
#X connect 10 0 1 0;
#X connect 11 0 5 0;
#X restore 630 187 pd save;
#N canvas 319 115 783 596 load 0;
#X obj 40 6 inlet;
#X obj 40 65 until;
#X obj 40 92 list append;
#X obj 133 121 bang;
#X obj 40 121 list split 1;
#X obj 200 186 f;
#X obj 230 186 + 1;
#X msg 216 164 0;
#X obj 40 147 t f b;
#X obj 40 32 t b l b;
#X obj 40 456 pack f s;
#X msg 40 481 \; \$2 \$1 \;;
#X obj 172 152 bng 15 250 50 0 empty empty empty 17 7 0 10 -262144
-1 -1;
#X obj 246 445 symbol;
#X obj 96 4 bng 15 250 50 0 empty empty empty 17 7 0 10 -262144 -1
-1;
#X msg 266 304 symbol level;
#X msg 511 303 symbol fill;
#X msg 589 303 symbol accent;
#X obj 329 384 sprintf \$1-%s-%d-r;
#X obj 204 240 mod 16;
#X obj 204 211 t f f;
#X obj 204 266 t b f;
#X obj 375 225 sel 0 16 32 48 64;
#X obj 246 361 symbol;
#X msg 352 303 symbol note;
#X msg 431 304 symbol mute;
#X obj 246 418 makefilename \$1-%s-%d-r;
#X obj 324 480 print;
#X connect 0 0 9 0;
#X connect 1 0 2 0;
#X connect 2 0 4 0;
#X connect 3 0 1 1;
#X connect 4 0 8 0;
#X connect 4 1 2 1;
#X connect 4 2 3 0;
#X connect 5 0 6 0;
#X connect 5 0 20 0;
#X connect 6 0 5 1;
#X connect 7 0 5 1;
#X connect 8 0 10 0;
#X connect 8 1 5 0;
#X connect 9 0 1 0;
#X connect 9 1 2 1;
#X connect 9 2 7 0;
#X connect 10 0 11 0;
#X connect 12 0 5 0;
#X connect 13 0 10 1;
#X connect 14 0 9 0;
#X connect 15 0 23 1;
#X connect 16 0 23 1;
#X connect 17 0 23 1;
#X connect 19 0 21 0;
#X connect 20 0 19 0;
#X connect 20 1 22 0;
#X connect 21 0 23 0;
#X connect 21 1 18 1;
#X connect 22 0 15 0;
#X connect 22 1 24 0;
#X connect 22 2 25 0;
#X connect 22 3 16 0;
#X connect 22 4 17 0;
#X connect 23 0 18 0;
#X connect 23 0 26 0;
#X connect 24 0 23 1;
#X connect 25 0 23 1;
#X connect 26 0 27 0;
#X connect 26 0 13 0;
#X restore 477 239 pd load;
#N canvas 83 426 779 339 \$1-writer 1;
#X obj 193 29 r \$1-levels;
#X obj 369 27 r \$1-mutes;
#X obj 271 28 r \$1-notes;
#X obj 212 166 tabwrite \$1-seqtab;
#X obj 272 54 unpack f f;
#X obj 328 79 + 16;
#X obj 271 102 pack f f;
#X obj 368 51 unpack f f;
#X obj 367 113 pack f f;
#N canvas 14 323 1423 534 \$1-levels 0;
#X floatatom 13 110 5 0 0 0 - - -, f 5;
#X floatatom 83 110 5 0 0 0 - - -, f 5;
#X msg 241 156 3;
#X msg 307 156 4;
#X msg 369 152 5;
#X msg 431 154 6;
#X msg 491 152 7;
#X msg 185 156 2;
#X msg 112 156 1;
#X msg 62 156 0;
#X floatatom 153 111 5 0 0 0 - - -, f 5;
#X floatatom 214 111 5 0 0 0 - - -, f 5;
#X obj 214 133 t f b;
#X obj 158 134 t f b;
#X obj 85 133 t f b;
#X obj 35 135 t f b;
#X floatatom 279 109 5 0 0 0 - - -, f 5;
#X obj 279 131 t f b;
#X floatatom 342 109 5 0 0 0 - - -, f 5;
#X obj 342 131 t f b;
#X floatatom 403 109 5 0 0 0 - - -, f 5;
#X obj 403 131 t f b;
#X floatatom 465 109 5 0 0 0 - - -, f 5;
#X obj 465 131 t f b;
#X floatatom 533 109 5 0 0 0 - - -, f 5;
#X obj 533 131 t f b;
#X floatatom 595 109 5 0 0 0 - - -, f 5;
#X obj 595 131 t f b;
#X msg 559 152 8;
#X msg 621 152 9;
#X floatatom 658 109 5 0 0 0 - - -, f 5;
#X obj 658 131 t f b;
#X msg 684 152 10;
#X floatatom 731 108 5 0 0 0 - - -, f 5;
#X obj 731 130 t f b;
#X floatatom 801 108 5 0 0 0 - - -, f 5;
#X obj 801 130 t f b;
#X floatatom 878 100 5 0 0 0 - - -, f 5;
#X obj 878 122 t f b;
#X msg 756 150 11;
#X msg 827 153 12;
#X msg 899 153 13;
#X floatatom 948 99 5 0 0 0 - - -, f 5;
#X obj 948 121 t f b;
#X floatatom 1017 99 5 0 0 0 - - -, f 5;
#X obj 1017 121 t f b;
#X msg 969 152 14;
#X msg 1038 152 15;
#X obj 508 66 * 100;
#X obj 4 35 r \$1-level-0;
#X obj 85 35 r \$1-level-1;
#X obj 167 35 r \$1-level-2;
#X obj 248 36 r \$1-level-3;
#X obj 332 35 r \$1-level-4;
#X obj 417 35 r \$1-level-5;
#X obj 497 35 r \$1-level-6;
#X obj 578 36 r \$1-level-7;
#X obj 660 34 r \$1-level-8;
#X obj 741 34 r \$1-level-9;
#X obj 822 33 r \$1-level-10;
#X obj 910 34 r \$1-level-11;
#X obj 998 34 r \$1-level-12;
#X obj 1088 34 r \$1-level-13;
#X obj 1180 34 r \$1-level-14;
#X obj 1272 33 r \$1-level-15;
#X obj 509 87 s \$1-level-val;
#X obj 579 331 pack f f;
#X obj 579 352 s \$1-levels;
#X connect 0 0 15 0;
#X connect 1 0 14 0;
#X connect 2 0 66 1;
#X connect 3 0 66 1;
#X connect 4 0 66 1;
#X connect 5 0 66 1;
#X connect 6 0 66 1;
#X connect 7 0 66 1;
#X connect 8 0 66 1;
#X connect 9 0 66 1;
#X connect 10 0 13 0;
#X connect 11 0 12 0;
#X connect 12 0 66 0;
#X connect 12 1 2 0;
#X connect 13 0 66 0;
#X connect 13 1 7 0;
#X connect 14 0 66 0;
#X connect 14 1 8 0;
#X connect 15 0 66 0;
#X connect 15 1 9 0;
#X connect 16 0 17 0;
#X connect 17 0 66 0;
#X connect 17 1 3 0;
#X connect 18 0 19 0;
#X connect 19 0 66 0;
#X connect 19 1 4 0;
#X connect 20 0 21 0;
#X connect 21 0 66 0;
#X connect 21 1 5 0;
#X connect 22 0 23 0;
#X connect 23 0 66 0;
#X connect 23 1 6 0;
#X connect 24 0 25 0;
#X connect 25 0 66 0;
#X connect 25 1 28 0;
#X connect 26 0 27 0;
#X connect 27 0 66 0;
#X connect 27 1 29 0;
#X connect 28 0 66 1;
#X connect 29 0 66 1;
#X connect 30 0 31 0;
#X connect 31 0 66 0;
#X connect 31 1 32 0;
#X connect 32 0 66 1;
#X connect 33 0 34 0;
#X connect 34 0 66 0;
#X connect 34 1 39 0;
#X connect 35 0 36 0;
#X connect 36 0 66 0;
#X connect 36 1 40 0;
#X connect 37 0 38 0;
#X connect 38 0 66 0;
#X connect 38 1 41 0;
#X connect 39 0 66 1;
#X connect 40 0 66 1;
#X connect 41 0 66 1;
#X connect 42 0 43 0;
#X connect 43 0 66 0;
#X connect 43 1 46 0;
#X connect 44 0 45 0;
#X connect 45 0 66 0;
#X connect 45 1 47 0;
#X connect 46 0 66 1;
#X connect 47 0 66 1;
#X connect 48 0 65 0;
#X connect 49 0 0 0;
#X connect 49 0 48 0;
#X connect 50 0 1 0;
#X connect 50 0 48 0;
#X connect 51 0 10 0;
#X connect 51 0 48 0;
#X connect 52 0 11 0;
#X connect 52 0 48 0;
#X connect 53 0 16 0;
#X connect 53 0 48 0;
#X connect 54 0 18 0;
#X connect 54 0 48 0;
#X connect 55 0 20 0;
#X connect 55 0 48 0;
#X connect 56 0 22 0;
#X connect 56 0 48 0;
#X connect 57 0 24 0;
#X connect 57 0 48 0;
#X connect 58 0 26 0;
#X connect 58 0 48 0;
#X connect 59 0 30 0;
#X connect 59 0 48 0;
#X connect 60 0 33 0;
#X connect 60 0 48 0;
#X connect 61 0 35 0;
#X connect 61 0 48 0;
#X connect 62 0 37 0;
#X connect 62 0 48 0;
#X connect 63 0 42 0;
#X connect 63 0 48 0;
#X connect 64 0 44 0;
#X connect 64 0 48 0;
#X connect 66 0 67 0;
#X restore 27 19 pd \$1-levels;
#N canvas 71 420 1299 379 \$1-notes 0;
#X floatatom 13 110 5 0 0 0 - - -, f 5;
#X floatatom 83 110 5 0 0 0 - - -, f 5;
#X msg 241 156 3;
#X msg 307 156 4;
#X msg 369 152 5;
#X msg 431 154 6;
#X msg 491 152 7;
#X msg 185 156 2;
#X msg 112 156 1;
#X msg 62 156 0;
#X floatatom 153 111 5 0 0 0 - - -, f 5;
#X floatatom 214 111 5 0 0 0 - - -, f 5;
#X obj 214 133 t f b;
#X obj 158 134 t f b;
#X obj 85 133 t f b;
#X obj 35 135 t f b;
#X floatatom 279 109 5 0 0 0 - - -, f 5;
#X obj 279 131 t f b;
#X floatatom 342 109 5 0 0 0 - - -, f 5;
#X obj 342 131 t f b;
#X floatatom 403 109 5 0 0 0 - - -, f 5;
#X obj 403 131 t f b;
#X floatatom 465 109 5 0 0 0 - - -, f 5;
#X obj 465 131 t f b;
#X floatatom 533 109 5 0 0 0 - - -, f 5;
#X obj 533 131 t f b;
#X floatatom 595 109 5 0 0 0 - - -, f 5;
#X obj 595 131 t f b;
#X msg 559 152 8;
#X msg 621 152 9;
#X floatatom 658 109 5 0 0 0 - - -, f 5;
#X obj 658 131 t f b;
#X msg 684 152 10;
#X floatatom 731 108 5 0 0 0 - - -, f 5;
#X obj 731 130 t f b;
#X floatatom 801 108 5 0 0 0 - - -, f 5;
#X obj 801 130 t f b;
#X floatatom 878 100 5 0 0 0 - - -, f 5;
#X obj 878 122 t f b;
#X msg 756 150 11;
#X msg 827 153 12;
#X msg 899 153 13;
#X floatatom 948 99 5 0 0 0 - - -, f 5;
#X obj 948 121 t f b;
#X floatatom 1017 99 5 0 0 0 - - -, f 5;
#X obj 1017 121 t f b;
#X msg 969 152 14;
#X msg 1038 152 15;
#X obj 3 35 r \$1-note-0;
#X obj 77 35 r \$1-note-1;
#X obj 155 36 r \$1-note-2;
#X obj 228 35 r \$1-note-3;
#X obj 302 34 r \$1-note-4;
#X obj 383 35 r \$1-note-5;
#X obj 460 33 r \$1-note-6;
#X obj 541 34 r \$1-note-7;
#X obj 617 32 r \$1-note-8;
#X obj 692 32 r \$1-note-9;
#X obj 767 32 r \$1-note-10;
#X obj 850 31 r \$1-note-11;
#X obj 931 30 r \$1-note-12;
#X obj 1010 30 r \$1-note-13;
#X obj 1089 30 r \$1-note-14;
#X obj 1169 30 r \$1-note-15;
#X obj 580 313 pack f f;
#X obj 580 348 s \$1-notes;
#X connect 0 0 15 0;
#X connect 1 0 14 0;
#X connect 2 0 64 1;
#X connect 3 0 64 1;
#X connect 4 0 64 1;
#X connect 5 0 64 1;
#X connect 6 0 64 1;
#X connect 7 0 64 1;
#X connect 8 0 64 1;
#X connect 9 0 64 1;
#X connect 10 0 13 0;
#X connect 11 0 12 0;
#X connect 12 0 64 0;
#X connect 12 1 2 0;
#X connect 13 0 64 0;
#X connect 13 1 7 0;
#X connect 14 0 64 0;
#X connect 14 1 8 0;
#X connect 15 0 64 0;
#X connect 15 1 9 0;
#X connect 16 0 17 0;
#X connect 17 0 64 0;
#X connect 17 1 3 0;
#X connect 18 0 19 0;
#X connect 19 0 64 0;
#X connect 19 1 4 0;
#X connect 20 0 21 0;
#X connect 21 0 64 0;
#X connect 21 1 5 0;
#X connect 22 0 23 0;
#X connect 23 0 64 0;
#X connect 23 1 6 0;
#X connect 24 0 25 0;
#X connect 25 0 64 0;
#X connect 25 1 28 0;
#X connect 26 0 27 0;
#X connect 27 0 64 0;
#X connect 27 1 29 0;
#X connect 28 0 64 1;
#X connect 29 0 64 1;
#X connect 30 0 31 0;
#X connect 31 0 64 0;
#X connect 31 1 32 0;
#X connect 32 0 64 1;
#X connect 33 0 34 0;
#X connect 34 0 64 0;
#X connect 34 1 39 0;
#X connect 35 0 36 0;
#X connect 36 0 64 0;
#X connect 36 1 40 0;
#X connect 37 0 38 0;
#X connect 38 0 64 0;
#X connect 38 1 41 0;
#X connect 39 0 64 1;
#X connect 40 0 64 1;
#X connect 41 0 64 1;
#X connect 42 0 43 0;
#X connect 43 0 64 0;
#X connect 43 1 46 0;
#X connect 44 0 45 0;
#X connect 45 0 64 0;
#X connect 45 1 47 0;
#X connect 46 0 64 1;
#X connect 47 0 64 1;
#X connect 48 0 0 0;
#X connect 49 0 1 0;
#X connect 50 0 10 0;
#X connect 51 0 11 0;
#X connect 52 0 16 0;
#X connect 53 0 18 0;
#X connect 54 0 20 0;
#X connect 55 0 22 0;
#X connect 56 0 24 0;
#X connect 57 0 26 0;
#X connect 58 0 30 0;
#X connect 59 0 33 0;
#X connect 60 0 35 0;
#X connect 61 0 37 0;
#X connect 62 0 42 0;
#X connect 63 0 44 0;
#X connect 64 0 65 0;
#X restore 27 40 pd \$1-notes;
#N canvas 579 260 1280 448 \$1-mutes 0;
#X floatatom 13 110 5 0 0 0 - - -, f 5;
#X floatatom 83 110 5 0 0 0 - - -, f 5;
#X msg 241 156 3;
#X msg 307 156 4;
#X msg 369 152 5;
#X msg 431 154 6;
#X msg 491 152 7;
#X msg 185 156 2;
#X msg 112 156 1;
#X msg 62 156 0;
#X floatatom 153 111 5 0 0 0 - - -, f 5;
#X floatatom 214 111 5 0 0 0 - - -, f 5;
#X obj 214 133 t f b;
#X obj 158 134 t f b;
#X obj 85 133 t f b;
#X obj 35 135 t f b;
#X floatatom 279 109 5 0 0 0 - - -, f 5;
#X obj 279 131 t f b;
#X floatatom 342 109 5 0 0 0 - - -, f 5;
#X obj 342 131 t f b;
#X floatatom 403 109 5 0 0 0 - - -, f 5;
#X obj 403 131 t f b;
#X floatatom 465 109 5 0 0 0 - - -, f 5;
#X obj 465 131 t f b;
#X floatatom 533 109 5 0 0 0 - - -, f 5;
#X obj 533 131 t f b;
#X floatatom 595 109 5 0 0 0 - - -, f 5;
#X obj 595 131 t f b;
#X msg 559 152 8;
#X msg 621 152 9;
#X floatatom 658 109 5 0 0 0 - - -, f 5;
#X obj 658 131 t f b;
#X msg 684 152 10;
#X floatatom 731 108 5 0 0 0 - - -, f 5;
#X obj 731 130 t f b;
#X floatatom 801 108 5 0 0 0 - - -, f 5;
#X obj 801 130 t f b;
#X floatatom 878 100 5 0 0 0 - - -, f 5;
#X obj 878 122 t f b;
#X msg 756 150 11;
#X msg 827 153 12;
#X msg 899 153 13;
#X floatatom 948 99 5 0 0 0 - - -, f 5;
#X obj 948 121 t f b;
#X floatatom 1017 99 5 0 0 0 - - -, f 5;
#X obj 1017 121 t f b;
#X msg 969 152 14;
#X msg 1038 152 15;
#X obj 3 36 r \$1-mute-0;
#X obj 80 36 r \$1-mute-1;
#X obj 155 35 r \$1-mute-2;
#X obj 229 35 r \$1-mute-3;
#X obj 303 35 r \$1-mute-4;
#X obj 378 35 r \$1-mute-5;
#X obj 451 35 r \$1-mute-6;
#X obj 525 34 r \$1-mute-7;
#X obj 598 34 r \$1-mute-8;
#X obj 670 34 r \$1-mute-9;
#X obj 743 35 r \$1-mute-10;
#X obj 822 34 r \$1-mute-11;
#X obj 907 35 r \$1-mute-12;
#X obj 989 37 r \$1-mute-13;
#X obj 1070 36 r \$1-mute-14;
#X obj 1149 36 r \$1-mute-15;
#X obj 582 333 pack f f;
#X obj 580 359 s \$1-mutes;
#X obj 443 371 print;
#X connect 0 0 15 0;
#X connect 1 0 14 0;
#X connect 2 0 64 1;
#X connect 3 0 64 1;
#X connect 4 0 64 1;
#X connect 5 0 64 1;
#X connect 6 0 64 1;
#X connect 7 0 64 1;
#X connect 8 0 64 1;
#X connect 9 0 64 1;
#X connect 10 0 13 0;
#X connect 11 0 12 0;
#X connect 12 0 64 0;
#X connect 12 1 2 0;
#X connect 13 0 64 0;
#X connect 13 1 7 0;
#X connect 14 0 64 0;
#X connect 14 1 8 0;
#X connect 15 0 64 0;
#X connect 15 1 9 0;
#X connect 16 0 17 0;
#X connect 17 0 64 0;
#X connect 17 1 3 0;
#X connect 18 0 19 0;
#X connect 19 0 64 0;
#X connect 19 1 4 0;
#X connect 20 0 21 0;
#X connect 21 0 64 0;
#X connect 21 1 5 0;
#X connect 22 0 23 0;
#X connect 23 0 64 0;
#X connect 23 1 6 0;
#X connect 24 0 25 0;
#X connect 25 0 64 0;
#X connect 25 1 28 0;
#X connect 26 0 27 0;
#X connect 27 0 64 0;
#X connect 27 1 29 0;
#X connect 28 0 64 1;
#X connect 29 0 64 1;
#X connect 30 0 31 0;
#X connect 31 0 64 0;
#X connect 31 1 32 0;
#X connect 32 0 64 1;
#X connect 33 0 34 0;
#X connect 34 0 64 0;
#X connect 34 1 39 0;
#X connect 35 0 36 0;
#X connect 36 0 64 0;
#X connect 36 1 40 0;
#X connect 37 0 38 0;
#X connect 38 0 64 0;
#X connect 38 1 41 0;
#X connect 39 0 64 1;
#X connect 40 0 64 1;
#X connect 41 0 64 1;
#X connect 42 0 43 0;
#X connect 43 0 64 0;
#X connect 43 1 46 0;
#X connect 44 0 45 0;
#X connect 45 0 64 0;
#X connect 45 1 47 0;
#X connect 46 0 64 1;
#X connect 47 0 64 1;
#X connect 48 0 0 0;
#X connect 49 0 1 0;
#X connect 50 0 10 0;
#X connect 51 0 11 0;
#X connect 52 0 16 0;
#X connect 53 0 18 0;
#X connect 54 0 20 0;
#X connect 55 0 22 0;
#X connect 56 0 24 0;
#X connect 57 0 26 0;
#X connect 58 0 30 0;
#X connect 59 0 33 0;
#X connect 60 0 35 0;
#X connect 61 0 37 0;
#X connect 62 0 42 0;
#X connect 63 0 44 0;
#X connect 64 0 65 0;
#X connect 64 0 66 0;
#X restore 27 62 pd \$1-mutes;
#X obj 424 76 + 32;
#X obj 466 53 unpack f f;
#X obj 465 115 pack f f;
#X obj 467 29 r \$1-accent;
#X obj 522 78 + 48;
#X obj 569 55 unpack f f;
#X obj 568 117 pack f f;
#X obj 625 80 + 64;
#X obj 570 31 r \$1-fill;
#X connect 0 0 3 0;
#X connect 1 0 7 0;
#X connect 2 0 4 0;
#X connect 4 0 6 0;
#X connect 4 1 5 0;
#X connect 5 0 6 1;
#X connect 6 0 3 0;
#X connect 7 0 8 0;
#X connect 7 1 12 0;
#X connect 8 0 3 0;
#X connect 12 0 8 1;
#X connect 13 0 14 0;
#X connect 13 1 16 0;
#X connect 15 0 13 0;
#X connect 16 0 14 1;
#X connect 17 0 18 0;
#X connect 17 1 19 0;
#X connect 19 0 18 1;
#X connect 20 0 17 0;
#X restore 102 336 pd \$1-writer;
#N canvas 822 242 568 641 \$1-reader 0;
#X obj 202 475 pack f f f;
#X obj 202 504 outlet list;
#X obj 184 348 t f f f;
#X obj 294 183 int;
#X obj 335 321 s \$1-int-length;
#X obj 206 82 change;
#X obj 206 60 int;
#N canvas 351 460 628 404 swingbox 0;
#X obj 98 115 alternate;
#X obj 25 28 inlet;
#X obj 92 235 outlet;
#X obj 228 27 r swing;
#X obj 189 125 *;
#X obj 220 76 t b f;
#X floatatom 191 159 5 0 0 0 - - -, f 5;
#X obj 157 28 r mstr-ms;
#X obj 185 240 bng 15 250 50 0 empty empty empty 0 -6 0 10 -262144
-1 -1;
#X obj 149 196 delay 0;
#X text 273 127 x/2 = 32 x/4 = 16 x/8 = 8 x/16 = 4 etc;
#X obj 157 63 * 4;
#X obj 172 99 / 2;
#X obj 116 6 r mstr-reset;
#X obj 316 24 inlet reset;
#X msg 109 81 reset;
#X connect 0 0 2 0;
#X connect 0 1 9 0;
#X connect 1 0 0 0;
#X connect 3 0 5 0;
#X connect 4 0 6 0;
#X connect 5 0 4 0;
#X connect 5 1 4 1;
#X connect 6 0 9 1;
#X connect 7 0 11 0;
#X connect 9 0 2 0;
#X connect 9 0 8 0;
#X connect 11 0 12 0;
#X connect 12 0 4 0;
#X connect 13 0 15 0;
#X connect 15 0 0 0;
#X restore 211 138 pd swingbox;
#X obj 209 105 t b;
#X text 329 121 x/2 = 32 x/4 = 16 x/8 = 8 x/16 = 4 etc;
#X obj 285 154 r \$1-patt-length;
#X obj 268 344 s \$1-patt-pos;
#X obj 206 31 / 1;
#X obj 105 407 tabread \$1-seqtab;
#X obj 237 408 tabread \$1-seqtab;
#X obj 374 408 tabread \$1-seqtab;
#X obj 219 382 + 16;
#X obj 167 7 r clock;
#X obj 374 376 + 32;
#X obj 168 212 intcount 16;
#X connect 0 0 1 0;
#X connect 2 0 13 0;
#X connect 2 1 16 0;
#X connect 2 2 18 0;
#X connect 3 0 4 0;
#X connect 3 0 19 1;
#X connect 5 0 8 0;
#X connect 6 0 5 0;
#X connect 8 0 7 0;
#X connect 10 0 3 0;
#X connect 12 0 6 0;
#X connect 13 0 0 0;
#X connect 14 0 0 1;
#X connect 15 0 0 2;
#X connect 16 0 14 0;
#X connect 17 0 12 0;
#X connect 17 0 19 0;
#X connect 18 0 15 0;
#X connect 19 0 2 0;
#X connect 19 0 11 0;
#X restore 100 362 pd \$1-reader;
#N canvas 0 22 450 300 init 0;
#X obj 45 94 intcount 16;
#X obj 45 72 until;
#X msg 45 49 16;
#X obj 40 174 makefilename \$1-note-%d-r;
#X obj 42 16 loadbang;
#X msg 17 205 \; \$1 36 \;;
#X obj 90 199 makefilename \$1-level-%d-r;
#X msg 89 229 \; \$1 0.75 \;;
#X obj 69 131 t f f f;
#X obj 174 228 makefilename \$1-mute-%d-r;
#X msg 171 259 \; \$1 0 \;;
#X connect 0 0 8 0;
#X connect 1 0 0 0;
#X connect 2 0 1 0;
#X connect 3 0 5 0;
#X connect 4 0 2 0;
#X connect 6 0 7 0;
#X connect 8 0 3 0;
#X connect 8 1 6 0;
#X connect 8 2 9 0;
#X connect 9 0 10 0;
#X restore 103 69 pd init;
#X obj 566 38 symbol \$1;
#X obj 565 18 bng 15 250 50 0 empty empty empty 17 7 0 10 -262144 -1
-1;
#X msg 566 63 \; \$1-seqtab const 0;
#X text 491 36 flush table;
#X obj 101 313 table \$1-seqtab 80;
#X obj 103 118 tgl 20 0 \$1-mute-0 \$1-mute-0-r empty 0 -6 0 10 -228856
-62783 -1 1 1;
#X obj 123 118 tgl 20 0 \$1-mute-1 \$1-mute-1-r empty 0 -6 0 10 -262144
-62783 -1 0 1;
#X obj 143 118 tgl 20 0 \$1-mute-2 \$1-mute-2-r empty 0 -6 0 10 -262144
-62783 -1 0 1;
#X obj 163 118 tgl 20 0 \$1-mute-3 \$1-mute-3-r empty 0 -6 0 10 -262144
-62783 -1 1 1;
#X obj 183 118 tgl 20 0 \$1-mute-4 \$1-mute-4-r empty 0 -6 0 10 -228856
-62783 -1 0 1;
#X obj 203 118 tgl 20 0 \$1-mute-5 \$1-mute-5-r empty 0 -6 0 10 -262144
-62783 -1 1 1;
#X obj 223 118 tgl 20 0 \$1-mute-6 \$1-mute-6-r empty 0 -6 0 10 -262144
-62783 -1 0 1;
#X obj 243 118 tgl 20 0 \$1-mute-7 \$1-mute-7-r empty 0 -6 0 10 -262144
-62783 -1 1 1;
#X obj 280 260 cnv 15 100 10 empty empty Patterns: 2 5 0 9 -262144
-66577 0;
#X obj 340 259 tgl 12 0 \$1-patt1 \$1-patt1-r 1 4 6 0 9 -262144 -258113
-1 0 1;
#X obj 355 259 tgl 12 0 \$1-patt2 \$1-patt2-r 2 4 6 0 9 -262144 -258113
-1 0 1;
#X obj 370 259 tgl 12 0 \$1-patt3 \$1-patt3-r 3 4 6 0 9 -262144 -258113
-1 0 1;
#X obj 385 259 tgl 12 0 \$1-patt4 \$1-patt4-r 4 4 6 0 9 -262144 -258113
-1 0 1;
#X obj 405 259 bng 12 250 50 0 empty empty empty 17 7 0 10 -4034 -262144
-1;
#X obj 274 329 r \$1-patt1;
#X obj 303 422 print;
#X obj 347 330 symbol \$1;
#X obj 359 306 bng 15 250 50 0 empty empty empty 17 7 0 10 -262144
-1 -1;
#X obj 303 354 pack f s;
#X msg 303 384 \; \$2-test \$1;
#X text 507 361 todo:;
#X text 507 377 make pattern pages;
#X text 507 393 copy pattern func;
#X text 507 409 legato;
#X text 507 425 fill - clock or delwrite?;
#X obj 106 284 hsl 128 15 0 16 0 0 empty \$1-patt-pos empty -2 -8 0
10 -262144 -258113 -1 794 1;
#X obj 477 215 sssad \$1/seqtab-data;
#X connect 76 0 112 1;
#X connect 79 0 75 0;
#X connect 81 0 83 0;
#X connect 82 0 81 0;
#X connect 100 0 104 0;
#X connect 102 0 104 1;
#X connect 103 0 102 0;
#X connect 104 0 105 0;
#X connect 105 0 101 0;
#X connect 112 0 77 0;
#X coords 0 -1 1 1 326 176 1 100 100;
