#N canvas 115 26 714 718 10;
#X floatatom 103 215 3 0 0 0 - #1-#2-note-0-r #1-#2-note-0, f 3;
#X floatatom 123 215 3 0 0 0 - #1-#2-note-1-r #1-#2-note-1, f 3;
#X floatatom 143 215 3 0 0 0 - #1-#2-note-2-r #1-#2-note-2, f 3;
#X floatatom 163 215 3 0 0 0 - #1-#2-note-3-r #1-#2-note-3, f 3;
#X floatatom 183 215 3 0 0 0 - #1-#2-note-4-r #1-#2-note-4, f 3;
#X floatatom 203 215 3 0 0 0 - #1-#2-note-5-r #1-#2-note-5, f 3;
#X floatatom 223 215 3 0 0 0 - #1-#2-note-6-r #1-#2-note-6, f 3;
#X floatatom 243 215 3 0 0 0 - #1-#2-note-7-r #1-#2-note-7, f 3;
#X floatatom 263 215 3 0 0 0 - #1-#2-note-8-r #1-#2-note-8, f 3;
#X floatatom 283 215 3 0 0 0 - #1-#2-note-9-r #1-#2-note-9, f 3;
#X floatatom 303 215 3 0 0 0 - #1-#2-note-10-r #1-#2-note-10, f 3
;
#X floatatom 323 215 3 0 0 0 - #1-#2-note-11-r #1-#2-note-11, f 3
;
#X floatatom 343 215 3 0 0 0 - #1-#2-note-12-r #1-#2-note-12, f 3
;
#X floatatom 363 215 3 0 0 0 - #1-#2-note-13-r #1-#2-note-13, f 3
;
#X floatatom 383 215 3 0 0 0 - #1-#2-note-14-r #1-#2-note-14, f 3
;
#X floatatom 403 215 3 0 0 0 - #1-#2-note-15-r #1-#2-note-15, f 3
;
#X obj 103 140 vsl 20 60 0 1 0 0 \$1-\$2-level-0 \$1-\$2-level-0-r
empty 0 -8 0 10 -228856 -1 -1 4425 0;
#X obj 123 140 vsl 20 60 0 1 0 0 \$1-\$2-level-1 \$1-\$2-level-1-r
empty 0 -8 0 10 -262144 -1 -1 4425 0;
#X obj 143 140 vsl 20 60 0 1 0 0 \$1-\$2-level-2 \$1-\$2-level-2-r
empty 0 -8 0 10 -262144 -1 -1 4425 0;
#X obj 163 140 vsl 20 60 0 1 0 0 \$1-\$2-level-3 \$1-\$2-level-3-r
empty 0 -8 0 10 -262144 -1 -1 4425 0;
#X obj 183 140 vsl 20 60 0 1 0 0 \$1-\$2-level-4 \$1-\$2-level-4-r
empty 0 -8 0 10 -228856 -1 -1 4425 0;
#X obj 203 140 vsl 20 60 0 1 0 0 \$1-\$2-level-5 \$1-\$2-level-5-r
empty 0 -8 0 10 -262144 -1 -1 4425 0;
#X obj 223 140 vsl 20 60 0 1 0 0 \$1-\$2-level-6 \$1-\$2-level-6-r
empty 0 -8 0 10 -262144 -1 -1 4425 0;
#X obj 263 120 tgl 20 0 \$1-\$2-mute-8 \$1-\$2-mute-8-r empty 0 -6
0 10 -228856 -62783 -1 1 1;
#X obj 283 120 tgl 20 0 \$1-\$2-mute-9 \$1-\$2-mute-9-r empty 0 -6
0 10 -262144 -62783 -1 1 1;
#X obj 303 120 tgl 20 0 \$1-\$2-mute-10 \$1-\$2-mute-10-r empty 0 -6
0 10 -262144 -62783 -1 1 1;
#X obj 323 120 tgl 20 0 \$1-\$2-mute-11 \$1-\$2-mute-11-r empty 0 -6
0 10 -262144 -62783 -1 1 1;
#X obj 343 120 tgl 20 0 \$1-\$2-mute-12 \$1-\$2-mute-12-r empty 0 -6
0 10 -228856 -62783 -1 1 1;
#X obj 363 120 tgl 20 0 \$1-\$2-mute-13 \$1-\$2-mute-13-r empty 0 -6
0 10 -262144 -62783 -1 1 1;
#X obj 383 120 tgl 20 0 \$1-\$2-mute-14 \$1-\$2-mute-14-r empty 0 -6
0 10 -262144 -62783 -1 1 1;
#X obj 403 120 tgl 20 0 \$1-\$2-mute-15 \$1-\$2-mute-15-r empty 0 -6
0 10 -262144 -62783 -1 1 1;
#X obj 243 140 vsl 20 60 0 1 0 0 \$1-\$2-level-7 \$1-\$2-level-7-r
empty 0 -8 0 10 -262144 -1 -1 4425 0;
#X obj 263 140 vsl 20 60 0 1 0 0 \$1-\$2-level-8 \$1-\$2-level-8-r
empty 0 -8 0 10 -228856 -1 -1 4425 0;
#X obj 283 140 vsl 20 60 0 1 0 0 \$1-\$2-level-9 \$1-\$2-level-9-r
empty 0 -8 0 10 -262144 -1 -1 4425 0;
#X obj 303 140 vsl 20 60 0 1 0 0 \$1-\$2-level-10 \$1-\$2-level-10-r
empty 0 -8 0 10 -262144 -1 -1 4425 0;
#X obj 323 140 vsl 20 60 0 1 0 0 \$1-\$2-level-11 \$1-\$2-level-11-r
empty 0 -8 0 10 -262144 -1 -1 4425 0;
#X obj 343 140 vsl 20 60 0 1 0 0 \$1-\$2-level-12 \$1-\$2-level-12-r
empty 0 -8 0 10 -228856 -1 -1 4425 0;
#X obj 363 140 vsl 20 60 0 1 0 0 \$1-\$2-level-13 \$1-\$2-level-13-r
empty 0 -8 0 10 -262144 -1 -1 4425 0;
#X obj 383 140 vsl 20 60 0 1 0 0 \$1-\$2-level-14 \$1-\$2-level-14-r
empty 0 -8 0 10 -262144 -1 -1 4425 0;
#X obj 403 140 vsl 20 60 0 1 0 0 \$1-\$2-level-15 \$1-\$2-level-15-r
empty 0 -8 0 10 -262144 -1 -1 4425 0;
#X obj 103 231 hradio 20 0 0 16 empty \$1-\$2-patt-pos empty 0 -6 0
10 -262144 -66577 -33289 0;
#X obj 103 203 tgl 10 0 \$1-accent-0 \$1-accent-0-r empty 0 -6 0 10
-262144 -1 -1 0 1;
#X obj 113 203 tgl 10 0 \$1-fill-0 \$1-fill-0-r empty 0 -6 0 10 -66577
-262144 -1 0 1;
#X obj 123 203 tgl 10 0 \$1-accent-1 \$1-accent-1-r empty 0 -6 0 10
-262144 -1 -1 0 1;
#X obj 133 203 tgl 10 0 \$1-fill-1 \$1-fill-1-r empty 0 -6 0 10 -66577
-262144 -1 0 1;
#X obj 143 203 tgl 10 0 \$1-accent-2 \$1-accent-2-r empty 0 -6 0 10
-262144 -1 -1 0 1;
#X obj 153 203 tgl 10 0 \$1-fill-2 \$1-fill-2-r empty 0 -6 0 10 -66577
-262144 -1 0 1;
#X obj 163 203 tgl 10 0 \$1-accent-3 \$1-accent-3-r empty 0 -6 0 10
-262144 -1 -1 0 1;
#X obj 173 203 tgl 10 0 \$1-fill-3 \$1-fill-3-r empty 0 -6 0 10 -66577
-262144 -1 0 1;
#X obj 183 203 tgl 10 0 \$1-accent-4 \$1-accent-4-r empty 0 -6 0 10
-262144 -1 -1 0 1;
#X obj 193 203 tgl 10 0 \$1-fill-4 \$1-fill-4-r empty 0 -6 0 10 -66577
-262144 -1 0 1;
#X obj 203 203 tgl 10 0 \$1-accent-5 \$1-accent-5-r empty 0 -6 0 10
-262144 -1 -1 0 1;
#X obj 213 203 tgl 10 0 \$1-fill-5 \$1-fill-5-r empty 0 -6 0 10 -66577
-262144 -1 0 1;
#X obj 223 203 tgl 10 0 \$1-accent-6 \$1-accent-6-r empty 0 -6 0 10
-262144 -1 -1 0 1;
#X obj 233 203 tgl 10 0 \$1-fill-6 \$1-fill-6-r empty 0 -6 0 10 -66577
-262144 -1 0 1;
#X obj 243 203 tgl 10 0 \$1-accent-7 \$1-accent-7-r empty 0 -6 0 10
-262144 -1 -1 0 1;
#X obj 253 203 tgl 10 0 \$1-fill-7 \$1-fill-7-r empty 0 -6 0 10 -66577
-262144 -1 0 1;
#X obj 263 203 tgl 10 0 \$1-accent-8 \$1-accent-8-r empty 0 -6 0 10
-262144 -1 -1 0 1;
#X obj 273 203 tgl 10 0 \$1-fill-8 \$1-fill-8-r empty 0 -6 0 10 -66577
-262144 -1 0 1;
#X obj 283 203 tgl 10 0 \$1-accent-9 \$1-accent-9-r empty 0 -6 0 10
-262144 -1 -1 0 1;
#X obj 293 203 tgl 10 0 \$1-fill-9 \$1-fill-9-r empty 0 -6 0 10 -66577
-262144 -1 0 1;
#X obj 303 203 tgl 10 0 \$1-accent-10 \$1-accent-10-r empty 0 -6 0
10 -262144 -1 -1 0 1;
#X obj 313 203 tgl 10 0 \$1-fill-10 \$1-fill-10-r empty 0 -6 0 10 -66577
-262144 -1 0 1;
#X obj 323 203 tgl 10 0 \$1-accent-11 \$1-accent-11-r empty 0 -6 0
10 -262144 -1 -1 0 1;
#X obj 333 203 tgl 10 0 \$1-fill-11 \$1-fill-11-r empty 0 -6 0 10 -66577
-262144 -1 0 1;
#X obj 343 203 tgl 10 0 \$1-accent-12 \$1-accent-12-r empty 0 -6 0
10 -262144 -1 -1 0 1;
#X obj 353 203 tgl 10 0 \$1-fill-12 \$1-fill-12-r empty 0 -6 0 10 -66577
-262144 -1 0 1;
#X obj 363 203 tgl 10 0 \$1-accent-13 \$1-accent-13-r empty 0 -6 0
10 -262144 -1 -1 0 1;
#X obj 373 203 tgl 10 0 \$1-fill-13 \$1-fill-13-r empty 0 -6 0 10 -66577
-262144 -1 0 1;
#X obj 383 203 tgl 10 0 \$1-accent-14 \$1-accent-14-r empty 0 -6 0
10 -262144 -1 -1 0 1;
#X obj 393 203 tgl 10 0 \$1-fill-14 \$1-fill-14-r empty 0 -6 0 10 -66577
-262144 -1 0 1;
#X obj 403 203 tgl 10 0 \$1-accent-15 \$1-accent-15-r empty 0 -6 0
10 -262144 -1 -1 0 1;
#X obj 413 203 tgl 10 0 \$1-fill-15 \$1-fill-15-r empty 0 -6 0 10 -66577
-262144 -1 0 1;
#X obj 124 446 outlet list;
#N canvas 95 244 507 438 save 0;
#X obj 58 10 r SSSAD_SAVE;
#X obj 53 333 list prepend;
#X obj 146 333 t l;
#X obj 30 362 list;
#X obj 30 386 outlet;
#X obj 96 112 until;
#X obj 96 135 f;
#X obj 126 135 + 1;
#X msg 141 112 0;
#X obj 58 36 t b b b b;
#X obj 96 160 tabread \$1-seqtab;
#X msg 96 82 80;
#X connect 0 0 9 0;
#X connect 1 0 2 0;
#X connect 1 0 3 1;
#X connect 2 0 1 1;
#X connect 3 0 4 0;
#X connect 5 0 6 0;
#X connect 6 0 7 0;
#X connect 6 0 10 0;
#X connect 7 0 6 1;
#X connect 8 0 6 1;
#X connect 9 0 1 1;
#X connect 9 1 3 0;
#X connect 9 2 11 0;
#X connect 9 3 8 0;
#X connect 10 0 1 0;
#X connect 11 0 5 0;
#X restore 630 187 pd save;
#N canvas 319 115 783 596 load 0;
#X obj 40 6 inlet;
#X obj 40 65 until;
#X obj 40 92 list append;
#X obj 133 121 bang;
#X obj 40 121 list split 1;
#X obj 200 186 f;
#X obj 230 186 + 1;
#X msg 216 164 0;
#X obj 40 147 t f b;
#X obj 40 32 t b l b;
#X obj 40 456 pack f s;
#X msg 40 481 \; \$2 \$1 \;;
#X obj 172 152 bng 15 250 50 0 empty empty empty 17 7 0 10 -262144
-1 -1;
#X obj 246 445 symbol;
#X obj 96 4 bng 15 250 50 0 empty empty empty 17 7 0 10 -262144 -1
-1;
#X msg 266 304 symbol level;
#X msg 511 303 symbol fill;
#X msg 589 303 symbol accent;
#X obj 329 384 sprintf \$1-%s-%d-r;
#X obj 204 240 mod 16;
#X obj 204 211 t f f;
#X obj 204 266 t b f;
#X obj 375 225 sel 0 16 32 48 64;
#X obj 246 361 symbol;
#X msg 352 303 symbol note;
#X msg 431 304 symbol mute;
#X obj 246 418 makefilename \$1-%s-%d-r;
#X connect 0 0 9 0;
#X connect 1 0 2 0;
#X connect 2 0 4 0;
#X connect 3 0 1 1;
#X connect 4 0 8 0;
#X connect 4 1 2 1;
#X connect 4 2 3 0;
#X connect 5 0 6 0;
#X connect 5 0 20 0;
#X connect 6 0 5 1;
#X connect 7 0 5 1;
#X connect 8 0 10 0;
#X connect 8 1 5 0;
#X connect 9 0 1 0;
#X connect 9 1 2 1;
#X connect 9 2 7 0;
#X connect 10 0 11 0;
#X connect 12 0 5 0;
#X connect 13 0 10 1;
#X connect 14 0 9 0;
#X connect 15 0 23 1;
#X connect 16 0 23 1;
#X connect 17 0 23 1;
#X connect 19 0 21 0;
#X connect 20 0 19 0;
#X connect 20 1 22 0;
#X connect 21 0 23 0;
#X connect 21 1 18 1;
#X connect 22 0 15 0;
#X connect 22 1 24 0;
#X connect 22 2 25 0;
#X connect 22 3 16 0;
#X connect 22 4 17 0;
#X connect 23 0 18 0;
#X connect 23 0 26 0;
#X connect 24 0 23 1;
#X connect 25 0 23 1;
#X connect 26 0 13 0;
#X restore 477 239 pd load;
#N canvas 0 22 450 300 init 0;
#X obj 45 94 intcount 16;
#X obj 45 72 until;
#X msg 45 49 16;
#X obj 42 16 loadbang;
#X msg 17 205 \; \$1 36 \;;
#X msg 89 229 \; \$1 0.75 \;;
#X obj 69 131 t f f f;
#X msg 171 259 \; \$1 0 \;;
#X obj 40 174 makefilename \$1-\$2-note-%d-r;
#X obj 90 199 makefilename \$1-\$2-level-%d-r;
#X obj 174 228 makefilename \$1-\$2-mute-%d-r;
#X connect 0 0 6 0;
#X connect 1 0 0 0;
#X connect 2 0 1 0;
#X connect 3 0 2 0;
#X connect 6 0 8 0;
#X connect 6 1 9 0;
#X connect 6 2 10 0;
#X connect 8 0 4 0;
#X connect 9 0 5 0;
#X connect 10 0 7 0;
#X restore 103 69 pd init;
#X obj 614 27 symbol \$1;
#X obj 565 18 bng 15 250 50 0 empty empty empty 17 7 0 10 -262144 -1
-1;
#X text 491 36 flush table;
#X obj 103 120 tgl 20 0 \$1-\$2-mute-0 \$1-\$2-mute-0-r empty 0 -6
0 10 -228856 -62783 -1 1 1;
#X obj 123 120 tgl 20 0 \$1-\$2-mute-1 \$1-\$2-mute-1-r empty 0 -6
0 10 -262144 -62783 -1 1 1;
#X obj 143 120 tgl 20 0 \$1-\$2-mute-2 \$1-\$2-mute-2-r empty 0 -6
0 10 -262144 -62783 -1 1 1;
#X obj 163 120 tgl 20 0 \$1-\$2-mute-3 \$1-\$2-mute-3-r empty 0 -6
0 10 -262144 -62783 -1 1 1;
#X obj 183 120 tgl 20 0 \$1-\$2-mute-4 \$1-\$2-mute-4-r empty 0 -6
0 10 -228856 -62783 -1 1 1;
#X obj 203 120 tgl 20 0 \$1-\$2-mute-5 \$1-\$2-mute-5-r empty 0 -6
0 10 -262144 -62783 -1 1 1;
#X obj 223 120 tgl 20 0 \$1-\$2-mute-6 \$1-\$2-mute-6-r empty 0 -6
0 10 -262144 -62783 -1 1 1;
#X obj 243 120 tgl 20 0 \$1-\$2-mute-7 \$1-\$2-mute-7-r empty 0 -6
0 10 -262144 -62783 -1 1 1;
#X obj 274 329 r \$1-patt1;
#X obj 303 438 print;
#X obj 347 330 symbol \$1;
#X obj 359 306 bng 15 250 50 0 empty empty empty 17 7 0 10 -262144
-1 -1;
#X obj 303 354 pack f s;
#X msg 303 384 \; \$2-test \$1;
#X text 507 361 todo:;
#X text 507 377 make pattern pages;
#X text 507 393 copy pattern func;
#X text 507 409 legato;
#X text 507 425 fill - clock or delwrite?;
#X obj 477 215 sssad \$1/seqtab-data;
#X obj 102 355 table \$1-\$2-seqtab 80;
#X floatatom 362 102 4 0 0 1 level #1-#2-level-val -, f 4;
#X floatatom 366 61 5 0 0 1 length #0-int-length -, f 5;
#N canvas 31 23 779 408 \$1-\$2-writer 0;
#X obj 272 54 unpack f f;
#X obj 328 79 + 16;
#X obj 271 102 pack f f;
#X obj 368 51 unpack f f;
#X obj 367 113 pack f f;
#X obj 424 76 + 32;
#X obj 549 51 unpack f f;
#X obj 548 113 pack f f;
#X obj 605 76 + 48;
#X obj 652 53 unpack f f;
#X obj 651 115 pack f f;
#X obj 708 78 + 64;
#X obj 212 166 tabwrite \$1-\$2-seqtab;
#N canvas 797 747 1718 603 \$1-\$2-levels 0;
#X floatatom 141 138 5 0 0 0 - - -, f 5;
#X floatatom 211 138 5 0 0 0 - - -, f 5;
#X msg 369 184 3;
#X msg 435 184 4;
#X msg 497 180 5;
#X msg 559 182 6;
#X msg 619 180 7;
#X msg 313 184 2;
#X msg 240 184 1;
#X msg 190 184 0;
#X floatatom 281 139 5 0 0 0 - - -, f 5;
#X floatatom 342 139 5 0 0 0 - - -, f 5;
#X obj 342 161 t f b;
#X obj 286 162 t f b;
#X obj 213 161 t f b;
#X obj 163 163 t f b;
#X floatatom 407 137 5 0 0 0 - - -, f 5;
#X obj 407 159 t f b;
#X floatatom 470 137 5 0 0 0 - - -, f 5;
#X obj 470 159 t f b;
#X floatatom 531 137 5 0 0 0 - - -, f 5;
#X obj 531 159 t f b;
#X floatatom 593 137 5 0 0 0 - - -, f 5;
#X obj 593 159 t f b;
#X floatatom 661 137 5 0 0 0 - - -, f 5;
#X obj 661 159 t f b;
#X floatatom 723 137 5 0 0 0 - - -, f 5;
#X obj 723 159 t f b;
#X msg 687 180 8;
#X msg 749 180 9;
#X floatatom 786 137 5 0 0 0 - - -, f 5;
#X obj 786 159 t f b;
#X msg 812 180 10;
#X floatatom 859 136 5 0 0 0 - - -, f 5;
#X obj 859 158 t f b;
#X floatatom 929 136 5 0 0 0 - - -, f 5;
#X obj 929 158 t f b;
#X floatatom 1006 128 5 0 0 0 - - -, f 5;
#X obj 1006 150 t f b;
#X msg 884 178 11;
#X msg 955 181 12;
#X msg 1027 181 13;
#X floatatom 1076 127 5 0 0 0 - - -, f 5;
#X obj 1076 149 t f b;
#X floatatom 1145 127 5 0 0 0 - - -, f 5;
#X obj 1145 149 t f b;
#X msg 1097 180 14;
#X msg 1166 180 15;
#X obj 636 94 * 100;
#X obj 707 359 pack f f;
#X obj 19 30 r \$1-\$2-level-0;
#X obj 115 30 r \$1-\$2-level-1;
#X obj 211 30 r \$1-\$2-level-2;
#X obj 307 30 r \$1-\$2-level-3;
#X obj 403 30 r \$1-\$2-level-4;
#X obj 707 380 s \$1-\$2-levels;
#X obj 499 30 r \$1-\$2-level-5;
#X obj 595 30 r \$1-\$2-level-6;
#X obj 691 30 r \$1-\$2-level-7;
#X obj 787 30 r \$1-\$2-level-8;
#X obj 883 30 r \$1-\$2-level-9;
#X obj 979 30 r \$1-\$2-level-10;
#X obj 1081 30 r \$1-\$2-level-11;
#X obj 1183 30 r \$1-\$2-level-12;
#X obj 1285 30 r \$1-\$2-level-13;
#X obj 1387 30 r \$1-\$2-level-14;
#X obj 1489 30 r \$1-\$2-level-15;
#X obj 637 115 s \$1-\$2-level-val;
#X connect 0 0 15 0;
#X connect 1 0 14 0;
#X connect 2 0 49 1;
#X connect 3 0 49 1;
#X connect 4 0 49 1;
#X connect 5 0 49 1;
#X connect 6 0 49 1;
#X connect 7 0 49 1;
#X connect 8 0 49 1;
#X connect 9 0 49 1;
#X connect 10 0 13 0;
#X connect 11 0 12 0;
#X connect 12 0 49 0;
#X connect 12 1 2 0;
#X connect 13 0 49 0;
#X connect 13 1 7 0;
#X connect 14 0 49 0;
#X connect 14 1 8 0;
#X connect 15 0 49 0;
#X connect 15 1 9 0;
#X connect 16 0 17 0;
#X connect 17 0 49 0;
#X connect 17 1 3 0;
#X connect 18 0 19 0;
#X connect 19 0 49 0;
#X connect 19 1 4 0;
#X connect 20 0 21 0;
#X connect 21 0 49 0;
#X connect 21 1 5 0;
#X connect 22 0 23 0;
#X connect 23 0 49 0;
#X connect 23 1 6 0;
#X connect 24 0 25 0;
#X connect 25 0 49 0;
#X connect 25 1 28 0;
#X connect 26 0 27 0;
#X connect 27 0 49 0;
#X connect 27 1 29 0;
#X connect 28 0 49 1;
#X connect 29 0 49 1;
#X connect 30 0 31 0;
#X connect 31 0 49 0;
#X connect 31 1 32 0;
#X connect 32 0 49 1;
#X connect 33 0 34 0;
#X connect 34 0 49 0;
#X connect 34 1 39 0;
#X connect 35 0 36 0;
#X connect 36 0 49 0;
#X connect 36 1 40 0;
#X connect 37 0 38 0;
#X connect 38 0 49 0;
#X connect 38 1 41 0;
#X connect 39 0 49 1;
#X connect 40 0 49 1;
#X connect 41 0 49 1;
#X connect 42 0 43 0;
#X connect 43 0 49 0;
#X connect 43 1 46 0;
#X connect 44 0 45 0;
#X connect 45 0 49 0;
#X connect 45 1 47 0;
#X connect 46 0 49 1;
#X connect 47 0 49 1;
#X connect 48 0 67 0;
#X connect 49 0 55 0;
#X connect 50 0 0 0;
#X connect 50 0 48 0;
#X connect 51 0 1 0;
#X connect 51 0 48 0;
#X connect 52 0 10 0;
#X connect 52 0 48 0;
#X connect 53 0 11 0;
#X connect 53 0 48 0;
#X connect 54 0 16 0;
#X connect 54 0 48 0;
#X connect 56 0 18 0;
#X connect 56 0 48 0;
#X connect 57 0 20 0;
#X connect 57 0 48 0;
#X connect 58 0 22 0;
#X connect 58 0 48 0;
#X connect 59 0 24 0;
#X connect 59 0 48 0;
#X connect 60 0 26 0;
#X connect 60 0 48 0;
#X connect 61 0 30 0;
#X connect 61 0 48 0;
#X connect 62 0 33 0;
#X connect 62 0 48 0;
#X connect 63 0 35 0;
#X connect 63 0 48 0;
#X connect 64 0 37 0;
#X connect 64 0 48 0;
#X connect 65 0 42 0;
#X connect 65 0 48 0;
#X connect 66 0 44 0;
#X connect 66 0 48 0;
#X restore 31 73 pd \$1-\$2-levels;
#N canvas 71 420 1299 379 \$1-\$2-notes 0;
#X floatatom 67 100 5 0 0 0 - - -, f 5;
#X floatatom 128 100 5 0 0 0 - - -, f 5;
#X msg 241 156 3;
#X msg 307 156 4;
#X msg 369 152 5;
#X msg 431 154 6;
#X msg 491 152 7;
#X msg 185 156 2;
#X msg 112 156 1;
#X msg 62 156 0;
#X floatatom 189 100 5 0 0 0 - - -, f 5;
#X floatatom 250 100 5 0 0 0 - - -, f 5;
#X obj 214 133 t f b;
#X obj 158 134 t f b;
#X obj 85 133 t f b;
#X obj 35 135 t f b;
#X floatatom 311 100 5 0 0 0 - - -, f 5;
#X obj 279 131 t f b;
#X floatatom 372 100 5 0 0 0 - - -, f 5;
#X obj 342 131 t f b;
#X floatatom 433 100 5 0 0 0 - - -, f 5;
#X obj 403 131 t f b;
#X floatatom 494 100 5 0 0 0 - - -, f 5;
#X obj 465 131 t f b;
#X floatatom 555 100 5 0 0 0 - - -, f 5;
#X obj 533 131 t f b;
#X floatatom 616 100 5 0 0 0 - - -, f 5;
#X obj 595 131 t f b;
#X msg 559 152 8;
#X msg 621 152 9;
#X floatatom 677 100 5 0 0 0 - - -, f 5;
#X obj 658 131 t f b;
#X msg 684 152 10;
#X floatatom 738 100 5 0 0 0 - - -, f 5;
#X obj 731 130 t f b;
#X floatatom 799 100 5 0 0 0 - - -, f 5;
#X obj 801 130 t f b;
#X floatatom 860 100 5 0 0 0 - - -, f 5;
#X obj 878 122 t f b;
#X msg 756 150 11;
#X msg 827 153 12;
#X msg 899 153 13;
#X floatatom 921 100 5 0 0 0 - - -, f 5;
#X obj 948 121 t f b;
#X floatatom 982 100 5 0 0 0 - - -, f 5;
#X obj 1017 121 t f b;
#X msg 969 152 14;
#X msg 1038 152 15;
#X obj 3 35 r \$1-\$2-note-0;
#X obj 96 35 r \$1-\$2-note-1;
#X obj 189 35 r \$1-\$2-note-2;
#X obj 282 35 r \$1-\$2-note-3;
#X obj 375 35 r \$1-\$2-note-4;
#X obj 468 35 r \$1-\$2-note-5;
#X obj 561 35 r \$1-\$2-note-6;
#X obj 654 35 r \$1-\$2-note-7;
#X obj 747 35 r \$1-\$2-note-8;
#X obj 840 35 r \$1-\$2-note-9;
#X obj 933 35 r \$1-\$2-note-10;
#X obj 1032 35 r \$1-\$2-note-11;
#X obj 1131 35 r \$1-\$2-note-12;
#X obj 1230 35 r \$1-\$2-note-13;
#X obj 1329 35 r \$1-\$2-note-14;
#X obj 1428 35 r \$1-\$2-note-15;
#X obj 580 313 pack f f;
#X obj 580 348 s \$1-\$2-notes;
#X connect 0 0 15 0;
#X connect 1 0 14 0;
#X connect 2 0 64 1;
#X connect 3 0 64 1;
#X connect 4 0 64 1;
#X connect 5 0 64 1;
#X connect 6 0 64 1;
#X connect 7 0 64 1;
#X connect 8 0 64 1;
#X connect 9 0 64 1;
#X connect 10 0 13 0;
#X connect 11 0 12 0;
#X connect 12 0 64 0;
#X connect 12 1 2 0;
#X connect 13 0 64 0;
#X connect 13 1 7 0;
#X connect 14 0 64 0;
#X connect 14 1 8 0;
#X connect 15 0 64 0;
#X connect 15 1 9 0;
#X connect 16 0 17 0;
#X connect 17 0 64 0;
#X connect 17 1 3 0;
#X connect 18 0 19 0;
#X connect 19 0 64 0;
#X connect 19 1 4 0;
#X connect 20 0 21 0;
#X connect 21 0 64 0;
#X connect 21 1 5 0;
#X connect 22 0 23 0;
#X connect 23 0 64 0;
#X connect 23 1 6 0;
#X connect 24 0 25 0;
#X connect 25 0 64 0;
#X connect 25 1 28 0;
#X connect 26 0 27 0;
#X connect 27 0 64 0;
#X connect 27 1 29 0;
#X connect 28 0 64 1;
#X connect 29 0 64 1;
#X connect 30 0 31 0;
#X connect 31 0 64 0;
#X connect 31 1 32 0;
#X connect 32 0 64 1;
#X connect 33 0 34 0;
#X connect 34 0 64 0;
#X connect 34 1 39 0;
#X connect 35 0 36 0;
#X connect 36 0 64 0;
#X connect 36 1 40 0;
#X connect 37 0 38 0;
#X connect 38 0 64 0;
#X connect 38 1 41 0;
#X connect 39 0 64 1;
#X connect 40 0 64 1;
#X connect 41 0 64 1;
#X connect 42 0 43 0;
#X connect 43 0 64 0;
#X connect 43 1 46 0;
#X connect 44 0 45 0;
#X connect 45 0 64 0;
#X connect 45 1 47 0;
#X connect 46 0 64 1;
#X connect 47 0 64 1;
#X connect 48 0 0 0;
#X connect 49 0 1 0;
#X connect 50 0 10 0;
#X connect 51 0 11 0;
#X connect 52 0 16 0;
#X connect 53 0 18 0;
#X connect 54 0 20 0;
#X connect 55 0 22 0;
#X connect 56 0 24 0;
#X connect 57 0 26 0;
#X connect 58 0 30 0;
#X connect 59 0 33 0;
#X connect 60 0 35 0;
#X connect 61 0 37 0;
#X connect 62 0 42 0;
#X connect 63 0 44 0;
#X connect 64 0 65 0;
#X restore 31 51 pd \$1-\$2-notes;
#N canvas 579 260 1581 502 \$1-\$2-mutes 0;
#X floatatom 13 110 5 0 0 0 - - -, f 5;
#X floatatom 83 110 5 0 0 0 - - -, f 5;
#X msg 241 156 3;
#X msg 307 156 4;
#X msg 369 152 5;
#X msg 431 154 6;
#X msg 491 152 7;
#X msg 185 156 2;
#X msg 112 156 1;
#X msg 62 156 0;
#X floatatom 153 111 5 0 0 0 - - -, f 5;
#X floatatom 214 111 5 0 0 0 - - -, f 5;
#X obj 214 133 t f b;
#X obj 158 134 t f b;
#X obj 85 133 t f b;
#X obj 35 135 t f b;
#X floatatom 279 109 5 0 0 0 - - -, f 5;
#X obj 279 131 t f b;
#X floatatom 342 109 5 0 0 0 - - -, f 5;
#X obj 342 131 t f b;
#X floatatom 403 109 5 0 0 0 - - -, f 5;
#X obj 403 131 t f b;
#X floatatom 465 109 5 0 0 0 - - -, f 5;
#X obj 465 131 t f b;
#X floatatom 533 109 5 0 0 0 - - -, f 5;
#X obj 533 131 t f b;
#X floatatom 595 109 5 0 0 0 - - -, f 5;
#X obj 595 131 t f b;
#X msg 559 152 8;
#X msg 621 152 9;
#X floatatom 658 109 5 0 0 0 - - -, f 5;
#X obj 658 131 t f b;
#X msg 684 152 10;
#X floatatom 731 108 5 0 0 0 - - -, f 5;
#X obj 731 130 t f b;
#X floatatom 801 108 5 0 0 0 - - -, f 5;
#X obj 801 130 t f b;
#X floatatom 878 100 5 0 0 0 - - -, f 5;
#X obj 878 122 t f b;
#X msg 756 150 11;
#X msg 827 153 12;
#X msg 899 153 13;
#X floatatom 948 99 5 0 0 0 - - -, f 5;
#X obj 948 121 t f b;
#X floatatom 1017 99 5 0 0 0 - - -, f 5;
#X obj 1017 121 t f b;
#X msg 969 152 14;
#X msg 1038 152 15;
#X obj 3 36 r \$1-\$2-mute-0;
#X obj 96 36 r \$1-\$2-mute-1;
#X obj 189 36 r \$1-\$2-mute-2;
#X obj 282 36 r \$1-\$2-mute-3;
#X obj 375 36 r \$1-\$2-mute-4;
#X obj 468 36 r \$1-\$2-mute-5;
#X obj 561 36 r \$1-\$2-mute-6;
#X obj 654 36 r \$1-\$2-mute-7;
#X obj 747 36 r \$1-\$2-mute-8;
#X obj 840 36 r \$1-\$2-mute-9;
#X obj 933 36 r \$1-\$2-mute-10;
#X obj 1032 36 r \$1-\$2-mute-11;
#X obj 1131 36 r \$1-\$2-mute-12;
#X obj 1230 36 r \$1-\$2-mute-13;
#X obj 1329 36 r \$1-\$2-mute-14;
#X obj 1428 36 r \$1-\$2-mute-15;
#X obj 582 333 pack f f;
#X obj 580 359 s \$1-\$2-mutes;
#X connect 0 0 15 0;
#X connect 1 0 14 0;
#X connect 2 0 64 1;
#X connect 3 0 64 1;
#X connect 4 0 64 1;
#X connect 5 0 64 1;
#X connect 6 0 64 1;
#X connect 7 0 64 1;
#X connect 8 0 64 1;
#X connect 9 0 64 1;
#X connect 10 0 13 0;
#X connect 11 0 12 0;
#X connect 12 0 64 0;
#X connect 12 1 2 0;
#X connect 13 0 64 0;
#X connect 13 1 7 0;
#X connect 14 0 64 0;
#X connect 14 1 8 0;
#X connect 15 0 64 0;
#X connect 15 1 9 0;
#X connect 16 0 17 0;
#X connect 17 0 64 0;
#X connect 17 1 3 0;
#X connect 18 0 19 0;
#X connect 19 0 64 0;
#X connect 19 1 4 0;
#X connect 20 0 21 0;
#X connect 21 0 64 0;
#X connect 21 1 5 0;
#X connect 22 0 23 0;
#X connect 23 0 64 0;
#X connect 23 1 6 0;
#X connect 24 0 25 0;
#X connect 25 0 64 0;
#X connect 25 1 28 0;
#X connect 26 0 27 0;
#X connect 27 0 64 0;
#X connect 27 1 29 0;
#X connect 28 0 64 1;
#X connect 29 0 64 1;
#X connect 30 0 31 0;
#X connect 31 0 64 0;
#X connect 31 1 32 0;
#X connect 32 0 64 1;
#X connect 33 0 34 0;
#X connect 34 0 64 0;
#X connect 34 1 39 0;
#X connect 35 0 36 0;
#X connect 36 0 64 0;
#X connect 36 1 40 0;
#X connect 37 0 38 0;
#X connect 38 0 64 0;
#X connect 38 1 41 0;
#X connect 39 0 64 1;
#X connect 40 0 64 1;
#X connect 41 0 64 1;
#X connect 42 0 43 0;
#X connect 43 0 64 0;
#X connect 43 1 46 0;
#X connect 44 0 45 0;
#X connect 45 0 64 0;
#X connect 45 1 47 0;
#X connect 46 0 64 1;
#X connect 47 0 64 1;
#X connect 48 0 0 0;
#X connect 49 0 1 0;
#X connect 50 0 10 0;
#X connect 51 0 11 0;
#X connect 52 0 16 0;
#X connect 53 0 18 0;
#X connect 54 0 20 0;
#X connect 55 0 22 0;
#X connect 56 0 24 0;
#X connect 57 0 26 0;
#X connect 58 0 30 0;
#X connect 59 0 33 0;
#X connect 60 0 35 0;
#X connect 61 0 37 0;
#X connect 62 0 42 0;
#X connect 63 0 44 0;
#X connect 64 0 65 0;
#X restore 31 29 pd \$1-\$2-mutes;
#X obj 263 28 r \$1-\$2-notes;
#X obj 550 27 r \$1-\$2-accent;
#X obj 653 29 r \$1-\$2-fill;
#X obj 162 29 r \$1-\$2-mutes;
#X obj 369 27 r \$1-\$2-levels;
#X connect 0 0 2 0;
#X connect 0 1 1 0;
#X connect 1 0 2 1;
#X connect 2 0 12 0;
#X connect 3 0 4 0;
#X connect 3 1 5 0;
#X connect 4 0 12 0;
#X connect 5 0 4 1;
#X connect 6 0 7 0;
#X connect 6 1 8 0;
#X connect 8 0 7 1;
#X connect 9 0 10 0;
#X connect 9 1 11 0;
#X connect 11 0 10 1;
#X connect 16 0 0 0;
#X connect 17 0 6 0;
#X connect 18 0 9 0;
#X connect 19 0 12 0;
#X connect 20 0 3 0;
#X restore 102 380 pd \$1-\$2-writer;
#N canvas 653 23 604 693 \$1-\$2-reader 0;
#X obj 155 784 outlet list;
#X obj 133 561 t f f f;
#X obj 247 497 int;
#X obj 247 522 s \$1-int-length;
#X obj 195 368 change;
#X obj 195 346 int;
#N canvas 351 460 628 404 swingbox 0;
#X obj 98 115 alternate;
#X obj 25 28 inlet;
#X obj 92 235 outlet;
#X obj 228 27 r swing;
#X obj 189 125 *;
#X obj 220 76 t b f;
#X floatatom 191 159 5 0 0 0 - - -, f 5;
#X obj 157 28 r mstr-ms;
#X obj 185 240 bng 15 250 50 0 empty empty empty 0 -6 0 10 -262144
-1 -1;
#X obj 149 196 delay 0;
#X text 273 127 x/2 = 32 x/4 = 16 x/8 = 8 x/16 = 4 etc;
#X obj 157 63 * 4;
#X obj 172 99 / 2;
#X obj 116 6 r mstr-reset;
#X obj 316 24 inlet reset;
#X msg 109 81 reset;
#X connect 0 0 2 0;
#X connect 0 1 9 0;
#X connect 1 0 0 0;
#X connect 3 0 5 0;
#X connect 4 0 6 0;
#X connect 5 0 4 0;
#X connect 5 1 4 1;
#X connect 6 0 9 1;
#X connect 7 0 11 0;
#X connect 9 0 2 0;
#X connect 9 0 8 0;
#X connect 11 0 12 0;
#X connect 12 0 4 0;
#X connect 13 0 15 0;
#X connect 15 0 0 0;
#X restore 200 424 pd swingbox;
#X obj 198 391 t b;
#X text 299 423 x/2 = 32 x/4 = 16 x/8 = 8 x/16 = 4 etc;
#X obj 247 472 r \$1-patt-length;
#X obj 195 317 / 1;
#X obj 184 658 + 16;
#X obj 147 6 r clock;
#X obj 339 652 + 32;
#X obj 130 513 intcount 16;
#X obj 41 657 tabread \$1-\$2-seqtab;
#X obj 184 685 tabread \$1-\$2-seqtab;
#X obj 339 684 tabread \$1-\$2-seqtab;
#X obj 208 561 s \$1-\$2-patt-pos;
#X obj 203 54 == \$2;
#X obj 148 143 spigot;
#X obj 94 330 bng 61 50 50 0 empty empty empty 17 7 0 10 -262144 -233017
-1;
#X obj 147 31 unpack f f;
#X obj 253 206 symbol \$1;
#X obj 225 115 * 2;
#X obj 253 232 pack s \$2 f;
#X obj 252 157 t b f, f 13;
#X obj 198 84 t f f;
#X msg 253 256 \; \$1-\$2-patt-pos color 0 \$3 12 \; \$1-\$2-patt-pos
0 \;;
#X obj 41 683 sel 1;
#X text 239 758 #note #level;
#X obj 155 724 f;
#X obj 155 748 pack f f;
#X connect 1 0 15 0;
#X connect 1 1 11 0;
#X connect 1 2 13 0;
#X connect 2 0 3 0;
#X connect 2 0 14 1;
#X connect 4 0 7 0;
#X connect 5 0 4 0;
#X connect 7 0 6 0;
#X connect 9 0 2 0;
#X connect 10 0 5 0;
#X connect 11 0 16 0;
#X connect 12 0 22 0;
#X connect 13 0 17 0;
#X connect 14 0 1 0;
#X connect 14 0 18 0;
#X connect 15 0 29 0;
#X connect 16 0 31 1;
#X connect 17 0 32 1;
#X connect 19 0 27 0;
#X connect 20 0 10 0;
#X connect 20 0 21 0;
#X connect 21 0 14 0;
#X connect 22 0 20 0;
#X connect 22 1 19 0;
#X connect 23 0 25 0;
#X connect 24 0 26 0;
#X connect 25 0 28 0;
#X connect 26 0 23 0;
#X connect 26 1 25 2;
#X connect 27 0 20 1;
#X connect 27 1 24 0;
#X connect 29 0 31 0;
#X connect 31 0 32 0;
#X connect 32 0 0 0;
#X restore 102 406 pd \$1-\$2-reader;
#X msg 566 63 \; \$1-\$2-seqtab const 0;
#X obj 102 487 s \$1-data;
#X obj 103 277 inlet;
#N canvas 655 358 450 369 msg-handler 1;
#N canvas 1017 85 450 323 setnotes 0;
#X obj 56 25 inlet;
#X obj 56 109 until;
#X msg 56 81 16;
#X obj 56 137 f;
#X obj 91 138 + 1;
#X msg 96 87 0;
#X obj 56 165 t b f, f 12;
#X obj 56 193 symbol \$1;
#X obj 56 53 t b b f, f 17;
#X obj 56 221 pack s \$2 f f, f 17;
#X msg 54 302 \; \$1-\$2-note-\$3-r \$4;
#X connect 0 0 8 0;
#X connect 1 0 3 0;
#X connect 2 0 1 0;
#X connect 3 0 4 0;
#X connect 3 0 6 0;
#X connect 4 0 3 1;
#X connect 5 0 3 1;
#X connect 6 0 7 0;
#X connect 6 1 9 2;
#X connect 7 0 9 0;
#X connect 8 0 2 0;
#X connect 8 1 5 0;
#X connect 8 2 9 3;
#X connect 9 0 10 0;
#X restore 46 100 pd setnotes;
#X obj 41 29 inlet;
#N canvas 1017 85 450 323 setlevels 0;
#X obj 56 25 inlet;
#X obj 56 109 until;
#X msg 56 81 16;
#X obj 56 137 f;
#X obj 91 138 + 1;
#X msg 96 87 0;
#X obj 56 165 t b f, f 12;
#X obj 56 193 symbol \$1;
#X obj 56 53 t b b f, f 17;
#X obj 56 221 pack s \$2 f f, f 17;
#X msg 54 302 \; \$1-\$2-level-\$3-r \$4;
#X connect 0 0 8 0;
#X connect 1 0 3 0;
#X connect 2 0 1 0;
#X connect 3 0 4 0;
#X connect 3 0 6 0;
#X connect 4 0 3 1;
#X connect 5 0 3 1;
#X connect 6 0 7 0;
#X connect 6 1 9 2;
#X connect 7 0 9 0;
#X connect 8 0 2 0;
#X connect 8 1 5 0;
#X connect 8 2 9 3;
#X connect 9 0 10 0;
#X restore 199 102 pd setlevels;
#X obj 44 59 route setnotes setmutes setlevels;
#N canvas 530 23 1064 851 setmutes 0;
#X obj 98 65 inlet;
#X obj 99 143 until;
#X obj 198 207 list append;
#X obj 99 207 f;
#X obj 127 207 + 1;
#X obj 99 164 t b b;
#X obj 99 244 t b f;
#X obj 99 271 symbol \$1;
#X obj 99 299 pack s \$2 f f, f 17;
#X msg 99 328 \; \$1-\$2-mute-\$3-r \$4;
#X msg 182 140 0;
#X obj 198 229 list split 1;
#X obj 232 263 route bang;
#X obj 98 94 t b b l, f 24;
#X connect 0 0 13 0;
#X connect 1 0 5 0;
#X connect 2 0 11 0;
#X connect 3 0 4 0;
#X connect 3 0 6 0;
#X connect 4 0 3 1;
#X connect 5 0 3 0;
#X connect 5 1 2 0;
#X connect 6 0 7 0;
#X connect 6 1 8 2;
#X connect 7 0 8 0;
#X connect 8 0 9 0;
#X connect 10 0 3 1;
#X connect 11 0 8 3;
#X connect 11 1 2 1;
#X connect 11 1 12 0;
#X connect 12 0 1 1;
#X connect 13 0 1 0;
#X connect 13 1 10 0;
#X connect 13 2 2 1;
#X restore 120 101 pd setmutes;
#X connect 1 0 3 0;
#X connect 3 0 0 0;
#X connect 3 1 4 0;
#X connect 3 2 2 0;
#X restore 103 307 pd msg-handler;
#X obj 151 275 r \$1-util-data;
#X connect 74 0 99 1;
#X connect 78 0 77 0;
#X connect 78 0 105 0;
#X connect 88 0 92 0;
#X connect 90 0 92 1;
#X connect 91 0 90 0;
#X connect 92 0 93 0;
#X connect 99 0 75 0;
#X connect 104 0 73 0;
#X connect 104 0 106 0;
#X connect 107 0 108 0;
#X connect 109 0 108 0;
#X coords 0 -1 1 1 320 160 1 103 100;
