#N canvas 918 270 1147 744 10;
#X msg 11 155 duration \$1;
#X obj 107 203 nbx 5 14 -1e+37 1e+37 0 1 \$0-duration \$1-duration-r
ms 60 7 0 10 -4032 -1 -1 0 256;
#X msg 339 370 0 0 1 200 0.493333 328 0.48 272 0;
#X obj 339 346 list trim;
#X obj 339 323 list prepend set;
#X msg 127 32 dump;
#X obj 170 235 s \$0-envvalues;
#X obj 107 78 r \$1-envvalues-r;
#X obj 67 336 outlet~;
#X obj 136 307 line;
#X obj 132 335 outlet;
#X obj 82 29 inlet;
#X obj 355 164 auto \$0-envvalues \$1-envvalues-r;
#X obj 355 186 auto \$0-duration \$1-duration-r;
#X obj 144 259 nbx 5 14 -1e+37 1e+37 0 1 \$0-envdepth \$1-envdepth-r
depth 60 7 0 10 -257985 -1 -1 110 256;
#X obj 355 207 auto \$0-envdepth \$1-envdepth-r;
#X obj 12 66 loadbang;
#X obj 11 95 \$2;
#X msg 58 102 set $;
#X obj 28 135 print;
#X obj 237 127 delay 500;
#X obj 125 279 *;
#X obj 68 285 *~ 1;
#X obj 127 8 r SSSAD_SAVE;
#X obj 247 293 print;
#X obj 68 252 vline~;
#X obj 109 119 envgen 100 75 1 0  ;
#X connect 0 0 26 0;
#X connect 1 0 0 0;
#X connect 3 0 2 0;
#X connect 4 0 3 0;
#X connect 5 0 26 0;
#X connect 7 0 26 0;
#X connect 9 0 10 0;
#X connect 11 0 26 0;
#X connect 14 0 21 1;
#X connect 16 0 17 0;
#X connect 17 0 0 0;
#X connect 17 0 1 0;
#X connect 17 0 19 0;
#X connect 21 0 9 0;
#X connect 22 0 8 0;
#X connect 23 0 5 0;
#X connect 25 0 22 0;
#X connect 26 0 25 0;
#X connect 26 0 21 0;
#X connect 26 1 6 0;
#X connect 26 1 4 0;
#X connect 26 1 24 0;
#X coords 0 -1 1 1 120 123 1 100 100;
