#N canvas 425 531 624 361 10;
#X obj 129 92 == 0;
#X obj 164 92 == 1;
#X obj 198 92 == 2;
#X obj 234 92 == 3;
#X obj 129 61 t f f f f;
#X obj 112 124 sig~;
#X obj 112 145 lop~ 70;
#X obj 164 124 sig~;
#X obj 164 145 lop~ 70;
#X obj 214 124 sig~;
#X obj 214 145 lop~ 70;
#X obj 263 124 sig~;
#X obj 263 145 lop~ 70;
#X obj 310 192 *~;
#X obj 128 26 inlet;
#X obj 310 34 inlet~;
#X obj 355 34 inlet~;
#X obj 399 34 inlet~;
#X obj 443 34 inlet~;
#X obj 353 192 *~;
#X obj 398 192 *~;
#X obj 446 192 *~;
#X obj 333 275 outlet~;
#X connect 0 0 5 0;
#X connect 1 0 7 0;
#X connect 2 0 9 0;
#X connect 3 0 11 0;
#X connect 4 0 0 0;
#X connect 4 1 1 0;
#X connect 4 2 2 0;
#X connect 4 3 3 0;
#X connect 5 0 6 0;
#X connect 6 0 13 1;
#X connect 7 0 8 0;
#X connect 8 0 19 1;
#X connect 9 0 10 0;
#X connect 10 0 20 1;
#X connect 11 0 12 0;
#X connect 12 0 21 1;
#X connect 13 0 22 0;
#X connect 14 0 4 0;
#X connect 15 0 13 0;
#X connect 16 0 19 0;
#X connect 17 0 20 0;
#X connect 18 0 21 0;
#X connect 19 0 22 0;
#X connect 20 0 22 0;
#X connect 21 0 22 0;
