#N canvas 487 395 1069 489 10;
#X obj 129 92 == 0;
#X obj 164 92 == 1;
#X obj 198 92 == 2;
#X obj 234 92 == 3;
#X obj 112 124 sig~;
#X obj 112 145 lop~ 70;
#X obj 164 124 sig~;
#X obj 164 145 lop~ 70;
#X obj 214 124 sig~;
#X obj 214 145 lop~ 70;
#X obj 263 124 sig~;
#X obj 263 145 lop~ 70;
#X obj 310 192 *~;
#X obj 128 26 inlet;
#X obj 310 34 inlet~;
#X obj 355 34 inlet~;
#X obj 399 34 inlet~;
#X obj 443 34 inlet~;
#X obj 353 192 *~;
#X obj 398 192 *~;
#X obj 446 192 *~;
#X obj 333 275 outlet~;
#X obj 452 720 chnl_strip;
#X obj 491 192 *~;
#X obj 491 34 inlet~;
#X obj 536 34 inlet~;
#X obj 580 34 inlet~;
#X obj 624 34 inlet~;
#X obj 534 192 *~;
#X obj 579 192 *~;
#X obj 627 192 *~;
#X obj 318 124 sig~;
#X obj 318 145 lop~ 70;
#X obj 370 124 sig~;
#X obj 370 145 lop~ 70;
#X obj 420 124 sig~;
#X obj 420 145 lop~ 70;
#X obj 469 124 sig~;
#X obj 469 145 lop~ 70;
#X obj 130 56 t f f f f f f f f;
#X obj 273 91 == 4;
#X obj 308 91 == 5;
#X obj 342 91 == 6;
#X obj 378 91 == 7;
#X connect 0 0 4 0;
#X connect 1 0 6 0;
#X connect 2 0 8 0;
#X connect 3 0 10 0;
#X connect 4 0 5 0;
#X connect 5 0 12 1;
#X connect 6 0 7 0;
#X connect 7 0 18 1;
#X connect 8 0 9 0;
#X connect 9 0 19 1;
#X connect 10 0 11 0;
#X connect 11 0 20 1;
#X connect 12 0 21 0;
#X connect 13 0 39 0;
#X connect 14 0 12 0;
#X connect 15 0 18 0;
#X connect 16 0 19 0;
#X connect 17 0 20 0;
#X connect 18 0 21 0;
#X connect 19 0 21 0;
#X connect 20 0 21 0;
#X connect 23 0 21 0;
#X connect 24 0 23 0;
#X connect 25 0 28 0;
#X connect 26 0 29 0;
#X connect 27 0 30 0;
#X connect 28 0 21 0;
#X connect 29 0 21 0;
#X connect 30 0 21 0;
#X connect 31 0 32 0;
#X connect 32 0 23 1;
#X connect 33 0 34 0;
#X connect 34 0 28 1;
#X connect 35 0 36 0;
#X connect 36 0 29 1;
#X connect 37 0 38 0;
#X connect 38 0 30 1;
#X connect 39 0 0 0;
#X connect 39 1 1 0;
#X connect 39 2 2 0;
#X connect 39 3 3 0;
#X connect 39 4 40 0;
#X connect 39 5 41 0;
#X connect 39 6 42 0;
#X connect 39 7 43 0;
#X connect 40 0 31 0;
#X connect 41 0 33 0;
#X connect 42 0 35 0;
#X connect 43 0 37 0;
