#N canvas 0 22 450 300 10;
#X obj 65 168 spigot;
#X obj 101 101 tgl 15 0 \$0-foo \$0-foo-r empty 17 7 0 10 -262144 -1
-1 0 1;
#X obj 60 109 inlet;
#X obj 67 223 outlet;
#X connect 0 0 3 0;
#X connect 1 0 0 1;
#X connect 2 0 0 0;
#X coords 0 -1 1 1 17 17 2 100 100;
