#N canvas 776 168 485 374 10;
#X obj 98 156 alternate;
#X obj 92 276 outlet;
#X obj 424 29 r swing;
#X obj 189 166 *;
#X obj 311 57 t b f;
#X floatatom 189 202 5 0 0 0 - - -;
#X obj 158 52 r mstr-ms;
#X obj 149 237 delay 0;
#X obj 158 77 f;
#X obj 158 107 * 4;
#X obj 233 50 t b f;
#X obj 233 23 inlet divSize;
#X obj 161 132 / 2;
#X obj 77 52 r mstr-reset;
#X msg 96 117 reset;
#X obj 36 20 inlet pos;
#X obj 338 24 inlet;
#X connect 0 0 1 0;
#X connect 0 1 7 0;
#X connect 2 0 4 0;
#X connect 3 0 5 0;
#X connect 4 0 3 0;
#X connect 4 1 3 1;
#X connect 5 0 7 1;
#X connect 6 0 8 0;
#X connect 7 0 1 0;
#X connect 8 0 9 0;
#X connect 9 0 12 0;
#X connect 10 0 9 0;
#X connect 10 1 9 1;
#X connect 11 0 10 0;
#X connect 12 0 3 0;
#X connect 13 0 14 0;
#X connect 14 0 0 0;
#X connect 15 0 0 0;
#X connect 16 0 4 0;
