#N canvas 1490 222 695 597 10;
#X floatatom 5 31 6 0 1000 3 del-ms - -, f 6;
#X obj 67 225 line~;
#X obj 9 226 inlet~;
#X obj 13 430 outlet~;
#X floatatom 51 31 3 0 105 3 fb #1-feedback-r #0-feedback, f 3;
#X obj 135 184 / 100;
#X obj 224 5 r mstr-ms;
#X obj 4 17 hradio 9 1 1 8 \$0-delbeat \$1-delbeat-r empty 0 -8 0 8
-141632 -262144 -1 3;
#X obj 244 29 r \$0-delbeat;
#X obj 244 55 sel 0 1 2 3 4 5 6 7;
#X msg 274 89 1;
#X msg 244 89 2;
#X obj 237 158 /;
#X obj 232 126 t b f;
#X floatatom 230 192 5 0 0 0 - - -, f 5;
#X msg 304 90 0.75;
#X msg 339 91 0.5;
#X obj 67 202 pack 0 200;
#X msg 191 88 8;
#X msg 217 89 4;
#X msg 377 92 0.375;
#X msg 419 91 0.25;
#X obj 13 402 hip~ 5;
#X obj 139 230 inlet~ external-mod;
#N canvas 1195 151 450 300 admin 0;
#X obj 47 55 auto \$0-feedback \$1-feedback-r;
#X obj 47 77 auto \$0-delbeat \$1-delbeat-r;
#X obj 47 99 auto \$0-mix \$1-mix-r;
#X obj 325 38 loadbang;
#X obj 356 91 s poll-ms;
#X obj 284 51 bng 15 250 50 0 empty empty empty 17 7 0 10 -262144 -1
-1;
#X obj 322 118 symbol \$1;
#X msg 324 160 \; \$1-delbeat-r 3 \; \$1-feedback-r 50 \;;
#X obj 326 61 t b b;
#X connect 3 0 8 0;
#X connect 5 0 8 0;
#X connect 6 0 7 0;
#X connect 8 0 6 0;
#X connect 8 1 4 0;
#X restore 478 17 pd admin;
#N canvas 0 22 450 300 delay-block 0;
#X obj 46 59 inlet~;
#X obj 210 63 inlet;
#X obj 132 61 inlet~;
#X obj 45 227 outlet~;
#N canvas 840 57 600 400 delay-writer 0;
#X obj 96 107 inlet~;
#X obj 95 260 outlet~;
#X obj 173 110 inlet;
#X floatatom 263 199 5 0 0 0 - - -, f 5;
#X obj 180 259 delwrite~ \$0-delay 2000;
#X obj 128 219 hip~ 100;
#X obj 127 190 clip~ -1 1;
#X obj 127 163 *~;
#X connect 0 0 1 0;
#X connect 0 0 7 0;
#X connect 2 0 7 1;
#X connect 3 0 5 1;
#X connect 5 0 4 0;
#X connect 6 0 5 0;
#X connect 7 0 6 0;
#X restore 47 163 pd delay-writer;
#N canvas 1093 559 280 330 delay-reader 0;
#X obj 96 107 inlet~;
#X obj 76 289 outlet~;
#X obj 112 163 inlet~;
#X obj 76 259 +~;
#X obj 112 198 vd~ \$0-delay;
#X connect 0 0 3 0;
#X connect 2 0 4 0;
#X connect 3 0 1 0;
#X connect 4 0 3 1;
#X restore 47 131 pd delay-reader;
#X obj 252 169 block~ 1;
#X connect 0 0 5 0;
#X connect 1 0 4 1;
#X connect 2 0 5 1;
#X connect 4 0 3 0;
#X connect 5 0 4 0;
#X restore 46 300 pd delay-block;
#X obj 134 163 r \$0-feedback;
#X obj 7 65 hsl 67 15 0 1 0 1 \$0-mix \$1-mix-r mix 15 8 0 10 -225271
-1 -1 3300 1;
#X obj 12 353 *~;
#X obj 44 353 *~;
#X msg 84 348 1 \$1;
#X obj 84 373 -;
#X obj 83 323 r \$0-mix;
#X floatatom 84 405 5 0 0 0 - - -, f 5;
#X connect 0 0 17 0;
#X connect 1 0 25 1;
#X connect 2 0 25 0;
#X connect 2 0 28 0;
#X connect 5 0 25 2;
#X connect 6 0 12 0;
#X connect 8 0 9 0;
#X connect 9 0 18 0;
#X connect 9 1 19 0;
#X connect 9 2 11 0;
#X connect 9 3 10 0;
#X connect 9 4 15 0;
#X connect 9 5 16 0;
#X connect 9 6 20 0;
#X connect 9 7 21 0;
#X connect 10 0 13 0;
#X connect 11 0 13 0;
#X connect 12 0 14 0;
#X connect 12 0 0 0;
#X connect 13 0 12 0;
#X connect 13 1 12 1;
#X connect 15 0 13 0;
#X connect 16 0 13 0;
#X connect 17 0 1 0;
#X connect 18 0 13 0;
#X connect 19 0 13 0;
#X connect 20 0 13 0;
#X connect 21 0 13 0;
#X connect 22 0 3 0;
#X connect 23 0 25 1;
#X connect 25 0 29 0;
#X connect 26 0 5 0;
#X connect 28 0 22 0;
#X connect 29 0 22 0;
#X connect 30 0 31 0;
#X connect 31 0 33 0;
#X connect 31 0 28 1;
#X connect 32 0 30 0;
#X connect 32 0 29 1;
#X coords 0 -1 1 1 80 85 1 0 0;
