#N canvas 61 196 1073 800 10;
#X floatatom 25 54 6 0 1000 3 del-ms #0-delms-l.s #0-foo;
#X obj 112 211 line~;
#X obj 34 162 inlet~;
#X obj 36 489 outlet~;
#X floatatom 70 54 4 0 105 3 fb #0-feedback-l.r #0-feedback-l.s;
#X obj 349 37 r mstr-ms;
#X obj 25 40 hradio 9 1 1 8 \$0-delbeat-l.s \$0-delbeat-l.r empty 0
-8 0 8 -99865 -262144 -1 5;
#X obj 112 187 pack 0 200;
#X obj 270 211 line~;
#X obj 270 187 pack 0 200;
#X obj 36 459 hip~ 5;
#X obj 182 490 outlet~;
#X obj 182 466 hip~ 5;
#X floatatom 103 54 6 0 1000 3 del-ms #0-delms-r.s #foo1;
#X obj 103 40 hradio 9 1 1 8 \$0-delbeat-r.s \$0-delbeat-r.r empty
0 -8 0 8 -258113 -262144 -1 6;
#X obj 191 162 inlet~;
#X obj 349 207 inlet~ external mod;
#X obj 28 87 hsl 145 18 0 1 0 1 \$0-mix.s \$0-mix.r mix 2 9 0 10 -225271
-1 -1 6200 0;
#X msg 156 299 1 \$1;
#X obj 156 324 -;
#X obj 154 376 line~;
#X msg 153 353 \$1 20;
#X obj 77 431 *~;
#X obj 215 439 *~;
#X obj 36 431 *~;
#X obj 182 437 *~;
#X obj 95 377 line~;
#X msg 94 354 \$1 20;
#N canvas 620 280 737 338 delay-block 0;
#X obj 35 37 inlet~;
#X obj 318 33 inlet~;
#X obj 39 203 outlet~;
#X obj 324 213 outlet~;
#X obj 180 122 / 100;
#X obj 437 121 / 100;
#N canvas 904 388 280 330 \$0-delay-reader 0;
#X obj 96 107 inlet~;
#X obj 76 289 outlet~;
#X obj 112 163 inlet~;
#X obj 76 259 +~;
#X obj 112 198 vd~ \$0-delay-R;
#X connect 0 0 3 0;
#X connect 2 0 4 0;
#X connect 3 0 1 0;
#X connect 4 0 3 1;
#X restore 319 126 pd \$0-delay-reader;
#N canvas 716 372 600 400 \$0-delay-writer 0;
#X obj 96 107 inlet~;
#X obj 95 260 outlet~;
#X obj 173 110 inlet;
#X floatatom 263 199 5 0 0 0 - - -;
#X obj 127 210 hip~ 100;
#X obj 267 155 clip~ -1 1;
#X obj 127 163 *~;
#X obj 180 259 delwrite~ \$0-delay-R 2000;
#X obj 127 186 expr~ tanh($v1);
#X connect 0 0 1 0;
#X connect 0 0 6 0;
#X connect 2 0 6 1;
#X connect 3 0 4 1;
#X connect 4 0 7 0;
#X connect 5 0 4 0;
#X connect 6 0 8 0;
#X connect 8 0 4 0;
#X restore 319 147 pd \$0-delay-writer;
#N canvas 1005 193 280 330 \$0-delay-reader 0;
#X obj 96 107 inlet~;
#X obj 76 289 outlet~;
#X obj 112 163 inlet~;
#X obj 76 259 +~;
#X obj 112 198 vd~ \$0-delay-L;
#X connect 0 0 3 0;
#X connect 2 0 4 0;
#X connect 3 0 1 0;
#X connect 4 0 3 1;
#X restore 63 124 pd \$0-delay-reader;
#N canvas 840 57 600 400 \$0-delay-writer 0;
#X obj 96 107 inlet~;
#X obj 95 260 outlet~;
#X obj 173 110 inlet;
#X floatatom 263 199 5 0 0 0 - - -;
#X obj 128 219 hip~ 100;
#X obj 287 142 clip~ -1 1;
#X obj 127 163 *~;
#X obj 180 259 delwrite~ \$0-delay-L 2000;
#X obj 128 190 expr~ tanh($v1);
#X connect 0 0 1 0;
#X connect 0 0 6 0;
#X connect 2 0 6 1;
#X connect 3 0 4 1;
#X connect 4 0 7 0;
#X connect 5 0 4 0;
#X connect 6 0 8 0;
#X connect 8 0 4 0;
#X restore 62 150 pd \$0-delay-writer;
#X obj 490 37 inlet~ mod;
#X obj 153 37 inlet~;
#X obj 416 37 inlet~;
#X obj 626 97 block~ 1;
#X obj 180 99 r \$0-feedback-l.s;
#X obj 437 100 r \$0-feedback-r.s;
#X connect 0 0 8 0;
#X connect 1 0 6 0;
#X connect 4 0 9 1;
#X connect 5 0 7 1;
#X connect 6 0 7 0;
#X connect 7 0 3 0;
#X connect 8 0 9 0;
#X connect 9 0 2 0;
#X connect 10 0 6 1;
#X connect 10 0 8 1;
#X connect 11 0 8 1;
#X connect 12 0 6 1;
#X connect 14 0 4 0;
#X connect 15 0 5 0;
#X restore 34 235 pd delay-block;
#X f 53;
#N canvas 701 423 725 391 store.state 1;
#N canvas 81 45 329 237 read.write 0;
#X obj 74 111 savestate;
#X obj 74 91 r \$0-to.savestate;
#X obj 125 131 s \$0-savestate.right;
#X text 78 33 send and receive lists from the individual abstractions
, f 27;
#X obj 74 171 s \$0-savestate.left;
#X obj 74 131 t a b;
#X obj 101 151 s \$0-stop.loadbang;
#X connect 0 0 5 0;
#X connect 0 1 2 0;
#X connect 1 0 0 0;
#X connect 5 0 4 0;
#X connect 5 1 6 0;
#X restore 52 41 pd read.write;
#X obj 52 91 store.param \$0 mix;
#X obj 52 111 store.param \$0 delbeat-l;
#X obj 52 131 store.param \$0 delbeat-r;
#X obj 52 151 store.param \$0 feedback-l;
#X obj 52 171 store.param \$0 feedback-r;
#X obj 237 91 param-label \$0 mix;
#X restore 208 38 pd store.state;
#X floatatom 148 54 4 0 105 3 fb #0-feedback-r.r #0-feedback-r.s;
#X obj 94 268 r \$0-mix.s;
#N canvas 458 410 718 374 beat-intervals 0;
#X obj 260 75 inlet;
#X obj 80 101 sel 0 1 2 3 4 5 6 7;
#X msg 169 134 1;
#X msg 139 134 2;
#X obj 80 204 /;
#X obj 80 172 t b f;
#X msg 199 134 0.75;
#X msg 234 134 0.5;
#X msg 80 134 8;
#X msg 112 134 4;
#X msg 335 134 0.125;
#X msg 269 134 0.333333;
#X obj 80 75 r \$0-delbeat-l.s;
#X obj 386 101 sel 0 1 2 3 4 5 6 7;
#X msg 475 132 1;
#X msg 445 132 2;
#X obj 386 210 /;
#X obj 386 178 t b f;
#X msg 505 132 0.75;
#X msg 540 132 0.5;
#X msg 386 132 8;
#X msg 418 132 4;
#X msg 641 132 0.125;
#X msg 575 132 0.333333;
#X obj 80 243 outlet;
#X obj 386 243 outlet;
#X obj 386 75 r \$0-delbeat-r.s;
#X connect 0 0 4 0;
#X connect 0 0 16 0;
#X connect 1 0 8 0;
#X connect 1 1 9 0;
#X connect 1 2 3 0;
#X connect 1 3 2 0;
#X connect 1 4 6 0;
#X connect 1 5 7 0;
#X connect 1 6 11 0;
#X connect 1 7 10 0;
#X connect 2 0 5 0;
#X connect 3 0 5 0;
#X connect 4 0 24 0;
#X connect 5 0 4 0;
#X connect 5 1 4 1;
#X connect 6 0 5 0;
#X connect 7 0 5 0;
#X connect 8 0 5 0;
#X connect 9 0 5 0;
#X connect 10 0 5 0;
#X connect 11 0 5 0;
#X connect 12 0 1 0;
#X connect 13 0 20 0;
#X connect 13 1 21 0;
#X connect 13 2 15 0;
#X connect 13 3 14 0;
#X connect 13 4 18 0;
#X connect 13 5 19 0;
#X connect 13 6 23 0;
#X connect 13 7 22 0;
#X connect 14 0 17 0;
#X connect 15 0 17 0;
#X connect 16 0 25 0;
#X connect 17 0 16 0;
#X connect 17 1 16 1;
#X connect 18 0 17 0;
#X connect 19 0 17 0;
#X connect 20 0 17 0;
#X connect 21 0 17 0;
#X connect 22 0 17 0;
#X connect 23 0 17 0;
#X connect 26 0 13 0;
#X restore 349 62 pd beat-intervals;
#X obj 270 144 r \$0-delms-r.s;
#X obj 349 87 s \$0-delms-l.s;
#X obj 448 87 s \$0-delms-r.s;
#X obj 112 142 r \$0-delms-l.s;
#X connect 1 0 28 1;
#X connect 2 0 22 0;
#X connect 2 0 28 0;
#X connect 5 0 32 0;
#X connect 7 0 1 0;
#X connect 8 0 28 3;
#X connect 9 0 8 0;
#X connect 10 0 3 0;
#X connect 12 0 11 0;
#X connect 15 0 23 0;
#X connect 15 0 28 2;
#X connect 16 0 28 4;
#X connect 18 0 19 0;
#X connect 19 0 21 0;
#X connect 20 0 22 1;
#X connect 20 0 23 1;
#X connect 21 0 20 0;
#X connect 22 0 10 0;
#X connect 23 0 12 0;
#X connect 24 0 10 0;
#X connect 25 0 12 0;
#X connect 26 0 25 1;
#X connect 26 0 24 1;
#X connect 27 0 26 0;
#X connect 28 0 24 0;
#X connect 28 1 25 0;
#X connect 31 0 18 0;
#X connect 31 0 27 0;
#X connect 32 0 34 0;
#X connect 32 1 35 0;
#X connect 33 0 9 0;
#X connect 36 0 7 0;
#X coords 0 -1 1 1 160 90 1 20 20;
