#N canvas 480 23 850 795 10;
#X obj 17 122 hsl 195 8 0 1 0 1 \$0-loopstart.s \$0-loopstart.r empty
300 4 1 9 -228928 -1 -262144 0 0;
#X obj 17 132 hsl 195 8 0 1 0 1 \$0-loopend.s \$0-loopend.r empty 300
4 1 9 -203904 -1 -228856 19400 0;
#X obj 490 793 cnv 15 150 30 empty empty empty 20 12 0 14 -262144 -66577
0;
#X obj 15 41 cnv 1 1 78 empty \$0-pos empty 20 12 0 14 -258113 -66577
0;
#N canvas 0 22 450 300 (subpatch) 0;
#X array \$0-sound 132300 float 2;
#X coords 0 1 132300 -1 200 80 2 0 0;
#X restore 14 40 graph;
#X obj 147 1002 outlet~;
#X obj 462 739 vsl 36 12 0 1 0 0 \$0-reset-phs foo reset 4 7 0 10 -232576
-232576 -1 0 1;
#X obj 14 142 tgl 18 1 \$0-start.s \$0-start.r empty 17 7 0 10 -204786
-1 -1 1 1;
#N canvas 609 54 574 588 recall 0;
#X obj 265 24 inlet;
#X obj 251 151 spigot;
#X msg 142 204 0;
#X obj 142 43 inlet;
#X obj 182 204 f;
#X obj 158 265 outlet;
#X floatatom 255 195 5 0 0 0 - - -;
#X obj 142 99 sel 0 1;
#X obj 182 165 t b f;
#X obj 250 105 f;
#X obj 142 70 t f f b;
#X obj 247 63 t b f;
#X connect 0 0 11 0;
#X connect 1 0 6 0;
#X connect 1 0 8 0;
#X connect 2 0 5 0;
#X connect 3 0 10 0;
#X connect 4 0 5 0;
#X connect 7 0 2 0;
#X connect 7 1 4 0;
#X connect 8 0 4 0;
#X connect 8 1 4 1;
#X connect 9 0 1 0;
#X connect 10 0 7 0;
#X connect 10 1 1 1;
#X connect 10 2 9 0;
#X connect 11 0 9 0;
#X connect 11 1 9 1;
#X restore 14 434 pd recall;
#X text 578 523 calculate size;
#X obj 216 561 r \$0-numframes;
#X obj 147 432 r \$0-numframes;
#X obj 147 528 phasor~;
#X obj 147 839 +~;
#X obj 216 615 *;
#X obj 228 584 t b f;
#X msg 201 527 0;
#X obj 147 701 *~;
#X obj 490 488 t b f;
#X obj 464 522 expr abs($f1-$f2);
#X obj 147 500 expr $f1*(44100/($f2*$f3));
#X obj 147 455 t b f;
#X obj 464 546 s \$0-length;
#X obj 273 433 r \$0-length;
#X obj 273 458 t b f;
#X obj 215 691 r \$0-numframes;
#X obj 215 737 *;
#X obj 226 713 t b f;
#X obj 336 51 s \$0-numframes;
#X obj 215 782 samphold~;
#X obj 215 759 sig~;
#X obj 216 661 samphold~;
#X obj 216 638 sig~;
#N canvas 133 295 243 339 update-pos-loc 0;
#X obj 62 193 snapshot~;
#X obj 62 267 pack f \$0;
#X obj 80 159 metro 100;
#X obj 62 106 /~;
#X obj 77 65 r \$0-numframes;
#X obj 62 30 inlet~;
#X obj 80 134 r \$0-start.s;
#X obj 62 219 * 200;
#X obj 62 240 + 15;
#X msg 62 290 \; \$2-pos pos \$1 41 \; \$2-pos vis_size 1 78 \;;
#X connect 0 0 7 0;
#X connect 1 0 9 0;
#X connect 2 0 0 0;
#X connect 3 0 0 0;
#X connect 4 0 3 1;
#X connect 5 0 3 0;
#X connect 6 0 2 0;
#X connect 7 0 8 0;
#X connect 8 0 1 0;
#X restore 13 911 pd update-pos-loc;
#X obj 77 142 hsl 135 18 -10 10 0 0 \$0-rate.s \$0-rate.r rate 2 9
0 10 -262130 -99865 -1 6975 1;
#X obj 233 526 r \$0-reset-phs;
#N canvas 321 296 826 406 store.state 0;
#N canvas 81 45 329 237 read.write 0;
#X obj 74 111 savestate;
#X obj 74 91 r \$0-to.savestate;
#X obj 125 131 s \$0-savestate.right;
#X text 78 33 send and receive lists from the individual abstractions
, f 27;
#X obj 74 171 s \$0-savestate.left;
#X obj 74 131 t a b;
#X obj 101 151 s \$0-stop.loadbang;
#X connect 0 0 5 0;
#X connect 0 1 2 0;
#X connect 1 0 0 0;
#X connect 5 0 4 0;
#X connect 5 1 6 0;
#X restore 50 32 pd read.write;
#X obj 50 82 store.param \$0 loopstart;
#X obj 50 102 store.param \$0 loopend;
#X obj 50 122 store.param \$0 rate;
#X obj 50 142 store.param \$0 start;
#X obj 50 162 store.param \$0 filename;
#X obj 181 123 param-label \$0 rate;
#X obj 372 60 loadbang;
#X obj 372 80 spigot 1;
#X msg 432 80 0;
#X obj 372 100 f \$0;
#X obj 432 60 r \$0-stop.loadbang;
#X msg 372 120 \; \$1-rate.r 1 \;;
#X connect 7 0 8 0;
#X connect 8 0 10 0;
#X connect 9 0 8 1;
#X connect 10 0 12 0;
#X connect 11 0 9 0;
#X restore 236 11 pd store.state;
#X obj 387 427 r \$0-loopstart.s;
#X obj 502 427 r \$0-loopend.s;
#X obj 65 407 r \$0-rate.s;
#X symbolatom 461 764 33 0 0 0 - #0-filenamedisplay foo;
#X obj 543 18 r \$1-rate-ext;
#X obj 543 44 s \$0-rate.r;
#X floatatom 313 454 5 0 0 0 - - -;
#X obj 74 180 inlet~;
#X msg 168 286 stop;
#X obj 210 286 timer;
#X obj 150 254 sel 1 0, f 15;
#X floatatom 211 307 8 0 0 0 - - -;
#X floatatom 325 340 5 0 0 0 - - -;
#X obj 447 302 * 44.1;
#X obj 366 280 t b f f, f 14;
#X obj 366 338 /;
#X floatatom 447 323 8 0 0 0 - - -;
#X msg 366 302 1000;
#X obj 366 383 *;
#X obj 418 361 nbx 5 14 -1e+37 1e+37 0 0 empty len empty 0 -8 0 10
-262144 -1 -1 0 256;
#X obj 418 380 t b f;
#X obj 34 142 tgl 18 0 \$0-record.s \$0-record.r empty 17 7 0 10 -261234
-1 -1 0 1;
#X obj 148 334 tabwrite~ \$0-sound;
#X obj 88 262 z~ 64;
#X obj 74 234 limiter~ 50;
#X obj 74 311 *~;
#X obj 336 30 array size \$0-sound;
#X obj 147 910 tabread4~ \$0-sound;
#X obj 336 11 loadbang;
#X obj 54 142 tgl 18 0 \$0-overdub.s \$0-overdub.r empty 17 7 0 10
-228856 -1 -1 0 1;
#X obj 150 188 r \$0-record.s;
#X obj 181 214 r~ \$0-overdub-feed;
#X obj 175 951 s~ \$0-overdub-feed;
#X obj 387 961 outlet;
#X obj 387 937 \$0;
#X obj 383 909 loadbang;
#X connect 7 0 8 0;
#X connect 8 0 20 0;
#X connect 10 0 14 0;
#X connect 11 0 21 0;
#X connect 12 0 17 0;
#X connect 12 0 31 1;
#X connect 13 0 33 0;
#X connect 13 0 64 0;
#X connect 14 0 32 0;
#X connect 14 0 17 1;
#X connect 15 0 14 0;
#X connect 15 1 14 1;
#X connect 16 0 12 1;
#X connect 17 0 13 0;
#X connect 18 0 19 0;
#X connect 18 1 19 1;
#X connect 19 0 22 0;
#X connect 19 0 15 0;
#X connect 20 0 12 0;
#X connect 21 0 20 0;
#X connect 21 1 20 1;
#X connect 23 0 24 0;
#X connect 23 0 43 0;
#X connect 24 0 20 0;
#X connect 24 1 20 2;
#X connect 25 0 26 0;
#X connect 26 0 13 1;
#X connect 26 0 30 0;
#X connect 27 0 26 0;
#X connect 27 1 26 1;
#X connect 30 0 29 0;
#X connect 32 0 31 0;
#X connect 35 0 16 0;
#X connect 37 0 19 0;
#X connect 37 0 27 0;
#X connect 38 0 18 0;
#X connect 39 0 8 1;
#X connect 41 0 42 0;
#X connect 44 0 61 0;
#X connect 44 0 60 0;
#X connect 45 0 59 0;
#X connect 46 0 48 0;
#X connect 46 0 51 0;
#X connect 47 0 46 0;
#X connect 47 0 59 0;
#X connect 47 1 46 1;
#X connect 47 1 45 0;
#X connect 50 0 53 0;
#X connect 51 0 54 0;
#X connect 51 1 52 1;
#X connect 51 2 50 0;
#X connect 52 0 49 0;
#X connect 52 0 55 0;
#X connect 54 0 52 0;
#X connect 56 0 57 0;
#X connect 57 0 55 0;
#X connect 57 1 55 1;
#X connect 60 0 62 1;
#X connect 61 0 62 0;
#X connect 62 0 59 0;
#X connect 63 0 28 0;
#X connect 64 0 5 0;
#X connect 64 0 69 0;
#X connect 65 0 63 0;
#X connect 67 0 47 0;
#X connect 68 0 59 0;
#X connect 71 0 70 0;
#X connect 72 0 71 0;
#X coords 0 -1 1 1 208 155 1 10 10;
