#N canvas 635 22 1073 800 10;
#X floatatom 5 31 6 0 1000 3 del-ms - -, f 6;
#X obj -28 172 line~;
#X obj -81 152 inlet~;
#X obj -68 530 outlet~;
#X floatatom 51 31 3 0 105 3 fb #1-feedback-L-r #0-feedback-L, f 3
;
#X obj 522 19 r mstr-ms;
#X obj 4 17 hradio 9 1 1 8 \$0-delbeat-L \$1-delbeat-L-r empty 0 -8
0 8 -99865 -262144 -1 2;
#X obj 344 105 sel 0 1 2 3 4 5 6 7;
#X msg 374 139 1;
#X msg 344 139 2;
#X obj 337 208 /;
#X obj 332 176 t b f;
#X floatatom 330 242 5 0 0 0 - - -, f 5;
#X msg 404 140 0.75;
#X msg 439 141 0.5;
#X obj -28 148 pack 0 200;
#X msg 285 137 8;
#X msg 317 139 4;
#X obj 146 185 line~;
#X obj 146 161 pack 0 200;
#X obj -68 500 hip~ 5;
#X obj 98 531 outlet~;
#X obj 98 507 hip~ 5;
#X floatatom 86 31 6 0 1000 3 del-ms - -, f 6;
#X floatatom 132 31 3 0 105 3 fb #1-feedback-R-r #0-feedback-R, f
3;
#X obj 85 17 hradio 9 1 1 8 \$0-delbeat-R \$1-delbeat-R-r empty 0 -8
0 8 -258113 -262144 -1 3;
#X obj 93 152 inlet~;
#X obj 648 106 sel 0 1 2 3 4 5 6 7;
#X msg 678 140 1;
#X msg 648 140 2;
#X obj 641 209 /;
#X obj 636 177 t b f;
#X msg 708 141 0.75;
#X msg 743 142 0.5;
#X msg 589 138 8;
#X msg 621 140 4;
#X obj 344 79 r \$0-delbeat-L;
#X obj 648 80 r \$0-delbeat-R;
#X obj 173 111 inlet~ external mod;
#N canvas 406 24 773 449 admin 0;
#X obj 45 56 auto \$0-feedback-L \$1-feedback-L-r;
#X obj 45 76 auto \$0-feedback-R \$1-feedback-R-r;
#X obj 45 96 auto \$0-delbeat-L \$1-delbeat-L-r;
#X obj 45 116 auto \$0-delbeat-R \$1-delbeat-R-r;
#X obj 45 136 auto \$0-mix \$1-mix-r;
#X obj 299 44 loadbang;
#X obj 392 93 s poll-ms;
#X obj 299 68 t b b;
#X obj 300 99 symbol \$1;
#X msg 293 125 \; \$1-delbeat-L-r 3 \; \$1-delbeat-R-r 3 \; \$1-feedback-L-r
50 \; \$1-feedback-R-r 50 \;;
#X obj 283 22 bng 15 250 50 0 empty empty empty 17 7 0 10 -262144 -1
-1;
#X obj 43 155 auto \$0-jitter \$1-jitter-r;
#X obj 43 175 auto \$0-jitter-depth \$1-jitter-depth-r;
#X connect 5 0 7 0;
#X connect 7 0 8 0;
#X connect 7 1 6 0;
#X connect 8 0 9 0;
#X connect 10 0 7 0;
#X restore 346 14 pd admin;
#X obj 8 69 hsl 140 15 0 1 0 1 \$0-mix \$1-mix-r mix 60 8 0 10 -225271
-1 -1 11800 0;
#X msg 72 340 1 \$1;
#X obj 72 365 -;
#X obj 17 310 r \$0-mix;
#X obj 70 417 line~;
#X msg 69 394 \$1 20;
#X obj -27 472 *~;
#X obj 131 480 *~;
#X obj -68 472 *~;
#X obj 98 478 *~;
#X obj 11 418 line~;
#X msg 10 395 \$1 20;
#N canvas 654 318 737 338 delay-block 0;
#X obj 35 37 inlet~;
#X obj 318 33 inlet~;
#X obj 39 203 outlet~;
#X obj 324 213 outlet~;
#X obj 180 122 / 100;
#X obj 437 121 / 100;
#N canvas 904 388 280 330 \$0-delay-reader 0;
#X obj 96 107 inlet~;
#X obj 76 289 outlet~;
#X obj 112 163 inlet~;
#X obj 76 259 +~;
#X obj 112 198 vd~ \$0-delay-R;
#X connect 0 0 3 0;
#X connect 2 0 4 0;
#X connect 3 0 1 0;
#X connect 4 0 3 1;
#X restore 319 126 pd \$0-delay-reader;
#N canvas 716 372 600 400 \$0-delay-writer 0;
#X obj 96 107 inlet~;
#X obj 95 260 outlet~;
#X obj 173 110 inlet;
#X floatatom 263 199 5 0 0 0 - - -, f 5;
#X obj 127 210 hip~ 100;
#X obj 267 155 clip~ -1 1;
#X obj 127 163 *~;
#X obj 180 259 delwrite~ \$0-delay-R 2000;
#X obj 127 186 expr~ tanh($v1);
#X connect 0 0 1 0;
#X connect 0 0 6 0;
#X connect 2 0 6 1;
#X connect 3 0 4 1;
#X connect 4 0 7 0;
#X connect 5 0 4 0;
#X connect 6 0 8 0;
#X connect 8 0 4 0;
#X restore 319 147 pd \$0-delay-writer;
#N canvas 1005 193 280 330 \$0-delay-reader 0;
#X obj 96 107 inlet~;
#X obj 76 289 outlet~;
#X obj 112 163 inlet~;
#X obj 76 259 +~;
#X obj 112 198 vd~ \$0-delay-L;
#X connect 0 0 3 0;
#X connect 2 0 4 0;
#X connect 3 0 1 0;
#X connect 4 0 3 1;
#X restore 63 124 pd \$0-delay-reader;
#N canvas 840 57 600 400 \$0-delay-writer 1;
#X obj 96 107 inlet~;
#X obj 95 260 outlet~;
#X obj 173 110 inlet;
#X floatatom 263 199 5 0 0 0 - - -, f 5;
#X obj 128 219 hip~ 100;
#X obj 287 142 clip~ -1 1;
#X obj 127 163 *~;
#X obj 180 259 delwrite~ \$0-delay-L 2000;
#X obj 128 190 expr~ tanh($v1);
#X connect 0 0 1 0;
#X connect 0 0 6 0;
#X connect 2 0 6 1;
#X connect 3 0 4 1;
#X connect 4 0 7 0;
#X connect 5 0 4 0;
#X connect 6 0 8 0;
#X connect 8 0 4 0;
#X restore 62 150 pd \$0-delay-writer;
#X obj 180 99 r \$0-feedback-L;
#X obj 437 100 r \$0-feedback-R;
#X obj 490 37 inlet~ mod;
#X obj 153 37 inlet~;
#X obj 416 37 inlet~;
#X obj 626 97 block~ 1;
#X connect 0 0 8 0;
#X connect 1 0 6 0;
#X connect 4 0 9 1;
#X connect 5 0 7 1;
#X connect 6 0 7 0;
#X connect 7 0 3 0;
#X connect 8 0 9 0;
#X connect 9 0 2 0;
#X connect 10 0 4 0;
#X connect 11 0 5 0;
#X connect 12 0 6 1;
#X connect 12 0 8 1;
#X connect 13 0 8 1;
#X connect 14 0 6 1;
#X restore -50 263 pd delay-block;
#X obj 4 616 vsl 9 100 0 127 0 0 \$0-jitter \$1-jitter-r jitt 0 -9
0 10 -132896 -262144 -1 0 0;
#X obj 16 616 vsl 9 100 0 127 0 0 \$0-jitter-depth \$1-jitter-depth-r
empty 0 -9 0 10 -87253 -262144 -1 0 0;
#X msg 540 141 0.125;
#X msg 854 142 0.125;
#X msg 784 141 0.333333;
#X msg 474 141 0.333333;
#X obj 237 348 s \$1-mix-mod;
#X connect 0 0 15 0;
#X connect 1 0 52 1;
#X connect 2 0 46 0;
#X connect 2 0 52 0;
#X connect 5 0 10 0;
#X connect 5 0 30 0;
#X connect 7 0 16 0;
#X connect 7 1 17 0;
#X connect 7 2 9 0;
#X connect 7 3 8 0;
#X connect 7 4 13 0;
#X connect 7 5 14 0;
#X connect 7 6 58 0;
#X connect 7 7 55 0;
#X connect 8 0 11 0;
#X connect 9 0 11 0;
#X connect 10 0 12 0;
#X connect 10 0 0 0;
#X connect 11 0 10 0;
#X connect 11 1 10 1;
#X connect 13 0 11 0;
#X connect 14 0 11 0;
#X connect 15 0 1 0;
#X connect 16 0 11 0;
#X connect 17 0 11 0;
#X connect 18 0 52 3;
#X connect 19 0 18 0;
#X connect 20 0 3 0;
#X connect 22 0 21 0;
#X connect 23 0 19 0;
#X connect 26 0 47 0;
#X connect 26 0 52 2;
#X connect 27 0 34 0;
#X connect 27 1 35 0;
#X connect 27 2 29 0;
#X connect 27 3 28 0;
#X connect 27 4 32 0;
#X connect 27 5 33 0;
#X connect 27 6 57 0;
#X connect 27 7 56 0;
#X connect 28 0 31 0;
#X connect 29 0 31 0;
#X connect 30 0 23 0;
#X connect 31 0 30 0;
#X connect 31 1 30 1;
#X connect 32 0 31 0;
#X connect 33 0 31 0;
#X connect 34 0 31 0;
#X connect 35 0 31 0;
#X connect 36 0 7 0;
#X connect 37 0 27 0;
#X connect 38 0 52 4;
#X connect 41 0 42 0;
#X connect 42 0 45 0;
#X connect 43 0 41 0;
#X connect 43 0 51 0;
#X connect 43 0 59 0;
#X connect 44 0 46 1;
#X connect 44 0 47 1;
#X connect 45 0 44 0;
#X connect 46 0 20 0;
#X connect 47 0 22 0;
#X connect 48 0 20 0;
#X connect 49 0 22 0;
#X connect 50 0 49 1;
#X connect 50 0 48 1;
#X connect 51 0 50 0;
#X connect 52 0 48 0;
#X connect 52 1 49 0;
#X connect 55 0 11 0;
#X connect 56 0 31 0;
#X connect 57 0 31 0;
#X connect 58 0 11 0;
#X coords 0 -1 1 1 160 90 1 0 0;
