#N canvas 131 281 695 597 10;
#X floatatom 24 50 6 0 1000 3 del-ms #0-delms.s #0-foo;
#X obj 67 225 line~;
#X obj 12 226 inlet~;
#X obj 12 409 outlet~;
#X floatatom 69 50 3 0 105 3 fb #0-feedback.r #0-feedback.s;
#X obj 211 203 / 100;
#X obj 24 36 hradio 9 1 1 8 \$0-delbeat.s \$0-delbeat.s empty 0 -8
0 8 -141632 -262144 -1 2;
#X obj 12 381 hip~ 5;
#X obj 171 232 inlet~ external-mod;
#N canvas 0 23 450 300 delay-block 0;
#X obj 46 59 inlet~;
#X obj 210 63 inlet;
#X obj 132 61 inlet~;
#X obj 45 227 outlet~;
#N canvas 840 57 600 400 delay-writer 0;
#X obj 96 107 inlet~;
#X obj 95 276 outlet~;
#X obj 173 110 inlet;
#X obj 158 277 delwrite~ \$0-delay 2000;
#X obj 158 243 hip~ 100;
#X obj 158 167 *~;
#X obj 372 171 clip~ -1 1;
#X obj 158 189 tanh~;
#X obj 289 111 inlet;
#X connect 0 0 1 0;
#X connect 0 0 5 0;
#X connect 2 0 5 1;
#X connect 4 0 3 0;
#X connect 5 0 7 0;
#X connect 7 0 4 0;
#X connect 8 0 4 1;
#X restore 47 163 pd delay-writer;
#N canvas 1093 548 280 330 delay-reader 0;
#X obj 96 107 inlet~;
#X obj 76 289 outlet~;
#X obj 112 163 inlet~;
#X obj 76 259 +~;
#X obj 112 198 vd~ \$0-delay;
#X connect 0 0 3 0;
#X connect 2 0 4 0;
#X connect 3 0 1 0;
#X connect 4 0 3 1;
#X restore 47 131 pd delay-reader;
#X obj 252 169 block~ 1;
#X obj 271 66 inlet;
#X connect 0 0 5 0;
#X connect 1 0 4 1;
#X connect 2 0 5 1;
#X connect 4 0 3 0;
#X connect 5 0 4 0;
#X connect 7 0 4 2;
#X restore 46 300 pd delay-block;
#X f 28;
#X obj 27 104 hsl 67 18 0 1 0 1 \$0-mix.s \$0-mix.r mix 2 9 0 10 -225271
-1 -1 4000 1;
#X obj 12 353 *~;
#X obj 44 353 *~;
#X msg 83 348 1 \$1;
#X obj 83 373 -;
#N canvas 679 487 725 391 store.state 0;
#N canvas 81 45 329 237 read.write 0;
#X obj 74 111 savestate;
#X obj 74 91 r \$0-to.savestate;
#X obj 125 131 s \$0-savestate.right;
#X text 78 33 send and receive lists from the individual abstractions
, f 27;
#X obj 74 171 s \$0-savestate.left;
#X obj 74 131 t a b;
#X obj 101 151 s \$0-stop.loadbang;
#X connect 0 0 5 0;
#X connect 0 1 2 0;
#X connect 1 0 0 0;
#X connect 5 0 4 0;
#X connect 5 1 6 0;
#X restore 52 41 pd read.write;
#X obj 52 91 store.param \$0 mix;
#X obj 237 91 param-label \$0 mix;
#X obj 52 111 store.param \$0 delbeat;
#X obj 52 131 store.param \$0 feedback;
#X obj 52 151 store.param \$0 hipass;
#X restore 120 23 pd store.state;
#X obj 217 23 r mstr-ms;
#N canvas 458 410 718 374 beat-intervals 0;
#X obj 260 75 inlet;
#X obj 80 101 sel 0 1 2 3 4 5 6 7;
#X msg 169 134 1;
#X msg 139 134 2;
#X obj 80 204 /;
#X obj 80 172 t b f;
#X msg 199 134 0.75;
#X msg 234 134 0.5;
#X msg 80 134 8;
#X msg 112 134 4;
#X msg 335 134 0.125;
#X msg 269 134 0.333333;
#X obj 80 243 outlet;
#X obj 80 75 r \$0-delbeat.s;
#X connect 0 0 4 0;
#X connect 1 0 8 0;
#X connect 1 1 9 0;
#X connect 1 2 3 0;
#X connect 1 3 2 0;
#X connect 1 4 6 0;
#X connect 1 5 7 0;
#X connect 1 6 11 0;
#X connect 1 7 10 0;
#X connect 2 0 5 0;
#X connect 3 0 5 0;
#X connect 4 0 12 0;
#X connect 5 0 4 0;
#X connect 5 1 4 1;
#X connect 6 0 5 0;
#X connect 7 0 5 0;
#X connect 8 0 5 0;
#X connect 9 0 5 0;
#X connect 10 0 5 0;
#X connect 11 0 5 0;
#X connect 13 0 1 0;
#X restore 217 48 pd beat-intervals;
#X obj 217 73 s \$0-delms.s;
#X obj 210 182 r \$0-feedback.s;
#X obj 67 180 r \$0-delms.s;
#X msg 67 202 \$1 200;
#X obj 83 323 r \$0-mix.s;
#X obj 329 182 r \$0-hipass.s;
#X msg 329 206 \$1 200;
#X obj 329 229 line;
#X floatatom 24 84 6 0 1000 1 hpass #0-hipass.r #0-hipass.s;
#X obj 371 28 loadbang;
#X obj 371 59 \$0;
#X msg 371 80 \; \$1-hipass.r 300 \;;
#X connect 1 0 9 1;
#X connect 2 0 9 0;
#X connect 2 0 11 0;
#X connect 5 0 9 2;
#X connect 7 0 3 0;
#X connect 8 0 9 1;
#X connect 9 0 12 0;
#X connect 11 0 7 0;
#X connect 12 0 7 0;
#X connect 13 0 14 0;
#X connect 14 0 11 1;
#X connect 16 0 17 0;
#X connect 17 0 18 0;
#X connect 19 0 5 0;
#X connect 20 0 21 0;
#X connect 21 0 1 0;
#X connect 22 0 13 0;
#X connect 22 0 12 1;
#X connect 23 0 24 0;
#X connect 24 0 25 0;
#X connect 25 0 9 3;
#X connect 28 0 29 0;
#X coords 0 -1 1 1 80 106 1 20 20;
