#N canvas 629 23 721 795 10;
#X obj 56 77 hsl 155 8 0 1 0 1 \$0-loopstart.s \$0-loopstart.r empty
300 4 1 9 -228928 -1 -262144 0 0;
#X obj 56 85 hsl 155 8 0 1 0 1 \$0-loopend.s \$0-loopend.r empty 300
4 1 9 -203904 -1 -228856 15400 0;
#N canvas 536 200 792 436 snd-load 0;
#X obj 282 115 openpanel;
#X obj 282 240 soundfiler;
#X obj 281 326 outlet;
#X obj 281 304 f;
#X obj 382 142 s \$0-filenamedisplay;
#X obj 326 142 stripdir;
#X obj 77 57 table \$0-snd-l;
#X obj 77 78 table \$0-snd-r;
#X msg 282 208 read -resize \$1 \$2-snd-l \$2-snd-r;
#X obj 282 68 inlet load;
#X obj 442 239 inlet refresh;
#X obj 282 142 symbol;
#X obj 253 143 bng 15 250 50 0 empty empty empty 17 7 0 10 -262144
-1 -1;
#X msg 282 91 symbol ~/Dropbox/Audio Work/;
#X obj 180 181 s \$0-filename.s;
#X obj 183 91 r \$0-filename.r;
#X obj 282 181 pack s \$0;
#X obj 183 112 l2s;
#X msg 339 265 \$3;
#X obj 339 327 outlet;
#X obj 339 290 < 2;
#X connect 0 0 11 0;
#X connect 1 0 3 0;
#X connect 1 1 18 0;
#X connect 3 0 2 0;
#X connect 5 0 4 0;
#X connect 8 0 1 0;
#X connect 9 0 13 0;
#X connect 10 0 3 0;
#X connect 11 0 5 0;
#X connect 11 0 14 0;
#X connect 11 0 16 0;
#X connect 12 0 11 0;
#X connect 13 0 0 0;
#X connect 15 0 17 0;
#X connect 16 0 8 0;
#X connect 17 0 11 0;
#X connect 18 0 20 0;
#X connect 20 0 19 0;
#X restore 364 35 pd snd-load;
#X obj 147 630 tabread4~ \$0-snd-l;
#X obj 271 630 tabread4~ \$0-snd-r;
#X obj 61 47 cnv 15 150 30 empty empty empty 20 12 0 14 -262144 -66577
0;
#X obj 142 47 cnv 1 1 30 empty \$0-pos empty 20 12 0 14 -258113 -66577
0;
#N canvas 0 22 450 300 (subpatch) 0;
#X array \$0-display 1024 float 0;
#X coords 0 1 1023 -1 160 30 2 0 0;
#X restore 53 47 graph;
#X obj 147 722 outlet~;
#X obj 271 721 outlet~;
#X obj 13 50 vsl 36 12 0 1 0 0 \$0-load foo-r load 4 7 0 10 -204786
-204786 -1 0 1;
#X obj 13 70 vsl 36 12 0 1 0 0 \$0-reset-phs foo reset 4 7 0 10 -232576
-232576 -1 0 1;
#X obj 14 97 tgl 15 1 \$0-start.s \$0-start.r empty 17 7 0 10 -262144
-1 -1 1 1;
#N canvas 609 54 574 588 recall 0;
#X obj 265 24 inlet;
#X obj 251 151 spigot;
#X msg 142 204 0;
#X obj 142 43 inlet;
#X obj 182 204 f;
#X obj 158 265 outlet;
#X floatatom 255 195 5 0 0 0 - - -;
#X obj 142 99 sel 0 1;
#X obj 182 165 t b f;
#X obj 250 105 f;
#X obj 142 70 t f f b;
#X obj 247 63 t b f;
#X connect 0 0 11 0;
#X connect 1 0 6 0;
#X connect 1 0 8 0;
#X connect 2 0 5 0;
#X connect 3 0 10 0;
#X connect 4 0 5 0;
#X connect 7 0 2 0;
#X connect 7 1 4 0;
#X connect 8 0 4 0;
#X connect 8 1 4 1;
#X connect 9 0 1 0;
#X connect 10 0 7 0;
#X connect 10 1 1 1;
#X connect 10 2 9 0;
#X connect 11 0 9 0;
#X connect 11 1 9 1;
#X restore 14 154 pd recall;
#X text 578 243 calculate size;
#X obj 216 281 r \$0-numframes;
#X obj 147 152 r \$0-numframes;
#X obj 147 248 phasor~;
#X obj 147 559 +~;
#X obj 216 335 *;
#X obj 228 304 t b f;
#X msg 201 247 0;
#X obj 147 421 *~;
#X obj 490 208 t b f;
#X obj 464 242 expr abs($f1-$f2);
#X obj 147 220 expr $f1*(44100/($f2*$f3));
#X obj 147 175 t b f;
#X obj 464 266 s \$0-length;
#X obj 273 153 r \$0-length;
#X obj 273 178 t b f;
#X obj 215 411 r \$0-numframes;
#X obj 215 457 *;
#X obj 226 433 t b f;
#X obj 364 62 s \$0-numframes;
#X obj 215 502 samphold~;
#X obj 215 479 sig~;
#X obj 216 381 samphold~;
#X obj 216 358 sig~;
#N canvas 133 295 243 339 update-pos-loc 0;
#X obj 62 193 snapshot~;
#X obj 62 267 pack f \$0;
#X obj 80 159 metro 100;
#X obj 62 106 /~;
#X obj 77 65 r \$0-numframes;
#X obj 62 30 inlet~;
#X obj 62 219 * 160;
#X obj 62 240 + 54;
#X msg 62 290 \; \$2-pos pos \$1 47;
#X obj 80 134 r \$0-start.s;
#X connect 0 0 6 0;
#X connect 1 0 8 0;
#X connect 2 0 0 0;
#X connect 3 0 0 0;
#X connect 4 0 3 1;
#X connect 5 0 3 0;
#X connect 6 0 7 0;
#X connect 7 0 1 0;
#X connect 9 0 2 0;
#X restore 13 631 pd update-pos-loc;
#X obj 35 96 hsl 175 18 -10 10 0 0 \$0-rate.s \$0-rate.r rate 2 9 0
10 -262144 -128992 -66577 9570 1;
#X obj 427 10 r \$0-reset;
#X obj 364 10 r \$0-load;
#X obj 233 246 r \$0-reset-phs;
#N canvas 321 296 826 406 store.state 0;
#N canvas 81 45 329 237 read.write 0;
#X obj 74 111 savestate;
#X obj 74 91 r \$0-to.savestate;
#X obj 125 131 s \$0-savestate.right;
#X text 78 33 send and receive lists from the individual abstractions
, f 27;
#X obj 74 171 s \$0-savestate.left;
#X obj 74 131 t a b;
#X obj 101 151 s \$0-stop.loadbang;
#X connect 0 0 5 0;
#X connect 0 1 2 0;
#X connect 1 0 0 0;
#X connect 5 0 4 0;
#X connect 5 1 6 0;
#X restore 50 32 pd read.write;
#X obj 50 82 store.param \$0 loopstart;
#X obj 50 102 store.param \$0 loopend;
#X obj 50 122 store.param \$0 rate;
#X obj 50 142 store.param \$0 start;
#X obj 50 162 store.param \$0 filename;
#X obj 181 123 param-label \$0 rate;
#X restore 236 11 pd store.state;
#X obj 387 147 r \$0-loopstart.s;
#X obj 502 147 r \$0-loopend.s;
#X obj 65 127 r \$0-rate.s;
#N canvas 21 109 384 655 display-redraw 0;
#X obj 81 120 until;
#X obj 85 199 *;
#X obj 83 46 t b f f;
#X obj 23 435 del 500;
#X obj 78 368 pack f f;
#X obj 23 411 b;
#X obj 122 72 / 1024;
#X msg 82 87 1024;
#X obj 81 148 intcount 1024;
#X obj 83 22 r \$0-numframes;
#X obj 24 456 \$0;
#X obj 33 277 tabread \$0-snd-l;
#X obj 145 277 tabread \$0-snd-r;
#X obj 85 174 t f f f;
#X obj 85 225 t f f;
#X obj 51 324 expr ($f1+$f2)/2;
#X obj 78 404 tabwrite \$0-display;
#X msg 22 479 \; \$1-display normalize \;;
#X connect 0 0 8 0;
#X connect 1 0 14 0;
#X connect 2 0 7 0;
#X connect 2 2 6 0;
#X connect 3 0 10 0;
#X connect 4 0 5 0;
#X connect 4 0 16 0;
#X connect 5 0 3 0;
#X connect 6 0 1 1;
#X connect 7 0 0 0;
#X connect 8 0 13 0;
#X connect 9 0 2 0;
#X connect 10 0 17 0;
#X connect 11 0 15 0;
#X connect 12 0 15 1;
#X connect 13 0 1 0;
#X connect 13 1 4 1;
#X connect 14 0 11 0;
#X connect 14 1 12 0;
#X connect 15 0 4 0;
#X restore 236 33 pd display-redraw;
#X obj 173 690 *~;
#X obj 188 669 r \$0-ismono;
#X obj 427 85 s \$0-ismono;
#X obj 53 30 cnv 15 100 15 empty empty empty 20 12 0 14 -262144 -66577
0;
#X symbolatom 13 30 33 0 0 0 - #0-filenamedisplay foo;
#X obj 543 18 r \$1-rate-ext;
#X obj 543 44 s \$0-rate.r;
#X floatatom 313 174 5 0 0 0 - - -;
#X connect 2 0 33 0;
#X connect 2 1 50 0;
#X connect 3 0 8 0;
#X connect 3 0 48 0;
#X connect 4 0 9 0;
#X connect 12 0 13 0;
#X connect 13 0 25 0;
#X connect 15 0 19 0;
#X connect 16 0 26 0;
#X connect 17 0 22 0;
#X connect 17 0 36 1;
#X connect 18 0 3 0;
#X connect 18 0 4 0;
#X connect 18 0 38 0;
#X connect 19 0 37 0;
#X connect 19 0 22 1;
#X connect 20 0 19 0;
#X connect 20 1 19 1;
#X connect 21 0 17 1;
#X connect 22 0 18 0;
#X connect 23 0 24 0;
#X connect 23 1 24 1;
#X connect 24 0 27 0;
#X connect 24 0 20 0;
#X connect 25 0 17 0;
#X connect 26 0 25 0;
#X connect 26 1 25 1;
#X connect 28 0 29 0;
#X connect 28 0 55 0;
#X connect 29 0 25 0;
#X connect 29 1 25 2;
#X connect 30 0 31 0;
#X connect 31 0 18 1;
#X connect 31 0 35 0;
#X connect 32 0 31 0;
#X connect 32 1 31 1;
#X connect 35 0 34 0;
#X connect 37 0 36 0;
#X connect 40 0 2 1;
#X connect 41 0 2 0;
#X connect 42 0 21 0;
#X connect 44 0 24 0;
#X connect 44 0 32 0;
#X connect 45 0 23 0;
#X connect 46 0 13 1;
#X connect 48 0 9 0;
#X connect 49 0 48 1;
#X connect 53 0 54 0;
#X coords 0 -1 1 1 210 107 1 10 10;
