#N canvas 313 23 731 799 10;
#X declare sssad;
#X obj 474 44 cnv 15 208 86 empty empty empty 20 12 0 14 -66577 -66577
0;
#X obj 56 77 hsl 155 8 0 1 0 1 \$0-loopstart \$1-loopstart-r empty
300 4 1 9 -228928 -1 -262144 0 0;
#X obj 56 85 hsl 155 8 0 1 0 1 \$0-loopend \$1-loopend-r empty 300
4 1 9 -203904 -1 -228856 15400 0;
#N canvas 561 179 550 349 snd-load 0;
#X obj 231 71 openpanel;
#X obj 315 224 soundfiler;
#X obj 315 267 outlet;
#X obj 315 245 f;
#X obj 369 119 loadbang;
#X obj 350 71 s \$0-filenamedisplay;
#X obj 294 71 stripdir;
#X obj 26 13 table \$0-snd-l;
#X obj 26 34 table \$0-snd-r;
#X msg 317 201 read -resize \$1 \$2-snd-l \$2-snd-r;
#X obj 231 24 inlet load;
#X obj 422 23 inlet refresh;
#X obj 431 123 bng 15 250 50 0 empty empty empty 17 7 0 10 -262144
-1 -1;
#X obj 244 197 print;
#X obj 371 144 \$0;
#X obj 315 170 pack s f;
#X obj 231 103 symbol;
#X obj 126 147 s \$0-filename;
#X obj 109 62 r \$1-filename-r;
#X obj 283 238 bng 15 250 50 0 empty empty empty 17 7 0 10 -262144
-1 -1;
#X msg 231 47 symbol ~/Dropbox/Audio Work/;
#X connect 0 0 16 0;
#X connect 1 0 3 0;
#X connect 3 0 2 0;
#X connect 4 0 14 0;
#X connect 6 0 5 0;
#X connect 9 0 1 0;
#X connect 9 0 13 0;
#X connect 10 0 20 0;
#X connect 11 0 3 0;
#X connect 12 0 14 0;
#X connect 14 0 15 1;
#X connect 15 0 9 0;
#X connect 16 0 15 0;
#X connect 16 0 6 0;
#X connect 16 0 17 0;
#X connect 18 0 16 0;
#X connect 20 0 0 0;
#X restore 13 270 pd snd-load;
#X obj 170 711 tabread4~ \$0-snd-l;
#X obj 294 711 tabread4~ \$0-snd-r;
#N canvas 262 98 948 542 admin 0;
#N canvas 21 109 384 655 display-redraw 0;
#X obj 81 120 until;
#X obj 85 199 *;
#X obj 83 46 t b f f;
#X obj 23 435 del 500;
#X obj 78 368 pack f f;
#X obj 23 411 b;
#X obj 122 72 / 1024;
#X msg 82 87 1024;
#X obj 81 148 intcount 1024;
#X obj 83 22 r \$0-numframes;
#X obj 24 456 \$0;
#X obj 33 277 tabread \$0-snd-l;
#X obj 145 277 tabread \$0-snd-r;
#X obj 85 174 t f f f;
#X obj 85 225 t f f;
#X obj 51 324 expr ($f1+$f2)/2;
#X obj 78 404 tabwrite \$0-display;
#X msg 22 479 \; \$1-display normalize \;;
#X connect 0 0 8 0;
#X connect 1 0 14 0;
#X connect 2 0 7 0;
#X connect 2 2 6 0;
#X connect 3 0 10 0;
#X connect 4 0 5 0;
#X connect 4 0 16 0;
#X connect 5 0 3 0;
#X connect 6 0 1 1;
#X connect 7 0 0 0;
#X connect 8 0 13 0;
#X connect 9 0 2 0;
#X connect 10 0 17 0;
#X connect 11 0 15 0;
#X connect 12 0 15 1;
#X connect 13 0 1 0;
#X connect 13 1 4 1;
#X connect 14 0 11 0;
#X connect 14 1 12 0;
#X connect 15 0 4 0;
#X restore 18 14 pd display-redraw;
#X obj 135 14 declare sssad;
#X obj 17 75 auto \$0-rate \$1-rate-r;
#X text 16 51 sssad shit;
#X obj 16 100 auto \$0-filename \$1-filename-r;
#X obj 15 128 auto \$0-loopend \$1-loopend-r;
#X obj 15 152 auto \$0-loopstart \$1-loopstart-r;
#X restore 255 21 pd admin;
#X obj 61 47 cnv 15 150 30 empty empty empty 20 12 0 14 -262144 -66577
0;
#X obj 176 47 cnv 1 1 30 empty \$0-pos empty 20 12 0 14 -258113 -66577
0;
#N canvas 0 22 450 300 (subpatch) 0;
#X array \$0-display 1024 float 2;
#X coords 0 1 1024 -1 160 30 2 0 0;
#X restore 53 47 graph;
#X obj 170 743 outlet~;
#X obj 294 742 outlet~;
#X obj 13 49 vsl 36 12 0 1 0 0 \$0-load foo-r load 4 7 0 10 -204786
-204786 -1 0 1;
#X obj 13 70 vsl 36 12 0 1 0 0 \$0-reset-phs ffo reset 4 7 0 10 -232576
-232576 -1 0 1;
#X obj 86 270 bng 16 250 50 0 empty empty empty 17 7 0 10 -159808 -262144
-1;
#X obj 14 97 tgl 15 1 \$0-start \$1-start-r empty 17 7 0 10 -262144
-1 -1 1 1;
#N canvas 817 23 574 588 recall 1;
#X obj 251 42 inlet;
#X obj 251 151 spigot;
#X msg 142 204 0;
#X obj 142 43 inlet;
#X obj 182 204 f;
#X obj 158 265 outlet;
#X obj 142 70 t f f;
#X floatatom 255 195 5 0 0 0 - - -, f 5;
#X obj 142 99 sel 0 1;
#X obj 182 165 t b f;
#X connect 0 0 1 0;
#X connect 1 0 7 0;
#X connect 1 0 9 0;
#X connect 2 0 5 0;
#X connect 3 0 6 0;
#X connect 4 0 5 0;
#X connect 6 0 8 0;
#X connect 6 1 1 1;
#X connect 8 0 2 0;
#X connect 8 1 4 0;
#X connect 9 0 4 0;
#X connect 9 1 4 1;
#X restore 14 164 pd recall;
#X text 601 324 calculate size;
#X obj 239 362 r \$0-numframes;
#X obj 170 233 r \$0-numframes;
#X obj 170 329 phasor~;
#X obj 170 640 +~;
#X obj 239 416 *;
#X obj 251 385 t b f;
#X msg 224 328 0;
#X obj 170 502 *~;
#X obj 410 228 r \$0-loopstart;
#X obj 507 228 r \$0-loopend;
#X obj 513 289 t b f;
#X obj 487 323 expr abs($f1-$f2);
#X obj 170 301 expr $f1*(44100/($f2*$f3));
#X obj 170 256 t b f;
#X obj 487 347 s \$0-length;
#X obj 296 234 r \$0-length;
#X obj 296 259 t b f;
#X obj 238 492 r \$0-numframes;
#X obj 238 538 *;
#X obj 249 514 t b f;
#X obj 13 297 s \$0-numframes;
#X obj 238 583 samphold~;
#X obj 238 560 sig~;
#X obj 239 462 samphold~;
#X obj 239 439 sig~;
#N canvas 19 297 243 339 update-pos-loc 0;
#X obj 62 193 snapshot~;
#X obj 62 267 pack f \$0;
#X obj 80 159 metro 100;
#X obj 62 106 /~;
#X obj 77 65 r \$0-numframes;
#X obj 62 30 inlet~;
#X obj 80 134 r \$0-start;
#X obj 62 219 * 160;
#X obj 62 240 + 54;
#X msg 62 290 \; \$2-pos pos \$1 47;
#X connect 0 0 7 0;
#X connect 1 0 9 0;
#X connect 2 0 0 0;
#X connect 3 0 0 0;
#X connect 4 0 3 1;
#X connect 5 0 3 0;
#X connect 6 0 2 0;
#X connect 7 0 8 0;
#X connect 8 0 1 0;
#X restore 36 712 pd update-pos-loc;
#X obj 35 97 hsl 140 15 -10 10 0 0 \$0-rate \$1-rate-r rate 70 8 0
10 -262144 -128992 -191407 7019 1;
#X floatatom 181 97 5 -10 10 0 - - -, f 5;
#X msg 239 73 set \$1;
#X obj 239 51 r \$0-rate;
#X obj 65 137 r \$0-rate;
#X obj 76 245 r \$0-reset;
#X obj 13 245 r \$0-load;
#X obj 14 193 s \$0-rate-r;
#X obj 256 327 r \$0-reset-phs;
#X obj 53 30 cnv 15 100 15 empty empty empty 20 12 0 14 -262144 -66577
0;
#X symbolatom 13 30 33 0 0 0 - #0-filenamedisplay foo, f 33;
#X obj 331 418 change;
#X floatatom 97 333 5 0 0 0 - - -, f 5;
#X obj 181 139 s \$1-rate-r;
#X connect 3 0 38 0;
#X connect 4 0 10 0;
#X connect 5 0 11 0;
#X connect 14 0 3 1;
#X connect 15 0 16 0;
#X connect 16 0 51 0;
#X connect 16 0 30 0;
#X connect 18 0 22 0;
#X connect 19 0 31 0;
#X connect 20 0 25 0;
#X connect 20 0 41 1;
#X connect 21 0 4 0;
#X connect 21 0 5 0;
#X connect 21 0 43 0;
#X connect 22 0 42 0;
#X connect 22 0 25 1;
#X connect 23 0 22 0;
#X connect 23 1 22 1;
#X connect 24 0 20 1;
#X connect 25 0 21 0;
#X connect 26 0 29 0;
#X connect 26 0 37 0;
#X connect 27 0 28 0;
#X connect 28 0 29 0;
#X connect 28 1 29 1;
#X connect 29 0 32 0;
#X connect 29 0 23 0;
#X connect 30 0 20 0;
#X connect 30 0 56 0;
#X connect 31 0 30 0;
#X connect 31 1 30 1;
#X connect 33 0 34 0;
#X connect 34 0 30 0;
#X connect 34 1 30 2;
#X connect 35 0 36 0;
#X connect 36 0 40 0;
#X connect 36 0 21 1;
#X connect 37 0 36 0;
#X connect 37 1 36 1;
#X connect 40 0 39 0;
#X connect 42 0 41 0;
#X connect 45 0 57 0;
#X connect 46 0 45 0;
#X connect 47 0 46 0;
#X connect 48 0 16 1;
#X connect 49 0 3 1;
#X connect 50 0 3 0;
#X connect 52 0 24 0;
#X coords 0 -1 1 1 210 107 1 10 10;
