#N canvas 836 63 604 527 10;
#X obj 100 102 vsl 15 10 0 0 0 0 \$0-tog.s \$0-tog.r empty 0 -9 0 10
-262144 -262144 -1 0 1;
#X obj 100 175 f;
#X obj 133 174 + 1;
#X obj 193 285 outlet;
#X obj 165 174 mod 4;
#X obj 193 221 sel 1 2 3;
#N canvas 0 23 450 300 handle-ui 0;
#X obj 37 37 inlet;
#X msg 38 103 0;
#X msg 68 104 10;
#X msg 97 104 11;
#X obj 38 167 pack \$0 f;
#X obj 39 132 t b f;
#X obj 38 73 sel 0 1 2 3;
#X msg 128 104 12;
#X msg 38 190 \; \$1-tog.r color \$2 \$2;
#X connect 0 0 6 0;
#X connect 1 0 5 0;
#X connect 2 0 5 0;
#X connect 3 0 5 0;
#X connect 4 0 8 0;
#X connect 5 0 4 0;
#X connect 5 1 4 1;
#X connect 6 0 1 0;
#X connect 6 1 2 0;
#X connect 6 2 3 0;
#X connect 6 3 7 0;
#X connect 7 0 5 0;
#X restore 100 285 pd handle-ui;
#X msg 193 253 0;
#X msg 225 253 1;
#X msg 260 253 2;
#X msg 298 253 -1;
#X msg 100 147 bang;
#X obj 11 159 r \$1-tgl\$2.r;
#X obj 11 191 s \$1-tgl\$2.s;
#X connect 0 0 11 0;
#X connect 1 0 2 0;
#X connect 1 0 5 0;
#X connect 1 0 6 0;
#X connect 1 0 13 0;
#X connect 2 0 4 0;
#X connect 4 0 1 1;
#X connect 5 0 7 0;
#X connect 5 1 8 0;
#X connect 5 2 9 0;
#X connect 5 3 10 0;
#X connect 7 0 3 0;
#X connect 8 0 3 0;
#X connect 9 0 3 0;
#X connect 10 0 3 0;
#X connect 11 0 1 0;
#X connect 12 0 1 0;
#X coords 0 -1 1 1 15 15 2 100 100;
