#N canvas 749 69 468 449 10;
#X obj 40 161 *~ -1;
#X obj 39 210 min~;
#X obj 40 185 +~ 1;
#X obj 39 234 *~ 4;
#X obj 39 259 -~ 1;
#X obj 200 34 inlet;
#X obj 38 285 outlet~;
#X obj 62 47 loadbang;
#X obj 38 131 phasor~ 440;
#X obj 62 75 \$1;
#X obj 63 96 sig~;
#X obj 16 14 inlet~;
#X connect 0 0 2 0;
#X connect 1 0 3 0;
#X connect 2 0 1 0;
#X connect 3 0 4 0;
#X connect 4 0 6 0;
#X connect 5 0 8 1;
#X connect 7 0 9 0;
#X connect 8 0 0 0;
#X connect 8 0 1 1;
#X connect 9 0 10 0;
#X connect 10 0 8 0;
#X connect 11 0 8 0;
