#N canvas 180 24 314 606 10;
#X obj 23 219 *~;
#X obj 96 146 *~ -1;
#X obj 96 171 +~ 1;
#X obj 97 234 *~;
#X obj 23 271 min~;
#X obj 23 303 *~ 2;
#X obj 23 325 -~ 1;
#X obj 23 29 inlet~;
#X obj 23 354 outlet~;
#X obj 23 73 phasor~;
#X obj 211 30 inlet phase;
#X obj 123 32 inlet~ duty;
#X obj 124 71 expr~ 1 / $v1 \; 1 / (1-$v1) \;;
#X text 128 16 0-1;
#X connect 0 0 4 0;
#X connect 1 0 2 0;
#X connect 2 0 3 0;
#X connect 3 0 4 1;
#X connect 4 0 5 0;
#X connect 5 0 6 0;
#X connect 6 0 8 0;
#X connect 7 0 9 0;
#X connect 9 0 0 0;
#X connect 9 0 1 0;
#X connect 10 0 9 1;
#X connect 11 0 12 0;
#X connect 12 0 0 1;
#X connect 12 1 3 1;
