#N canvas 460 207 332 412 10;
#X obj 175 225 noise~;
#X obj 99 339 bp~ 1000 10;
#X obj 99 371 outlet~;
#X obj 108 117 hsl 128 15 500 10000 0 0 empty empty crackle 30 8 0
10 -262144 -1 -1 4679 0;
#X obj 108 135 hsl 128 15 20 20000 1 1 empty empty center_freq 30 8
0 10 -262144 -1 -1 5300 0;
#X obj 58 30 loadbang;
#X msg 58 97 1000;
#X obj 131 271 sig~;
#X obj 97 272 pow~;
#X obj 146 302 +~;
#X floatatom 197 171 5 0 0 0 - - -;
#X obj 108 153 hsl 128 15 0.003 0.3 1 1 empty empty hiss 30 8 0 10
-262144 -1 -1 1600 0;
#X msg 59 120 0;
#X obj 175 275 *~;
#X obj 245 237 hip~ 18000;
#X obj 246 261 hip~ 18000;
#X floatatom 279 189 5 0 0 0 - - -;
#X obj 246 284 hip~ 18000;
#X msg 280 159 17000;
#X msg 57 74 5000;
#X connect 0 0 8 0;
#X connect 0 0 14 0;
#X connect 1 0 2 0;
#X connect 3 0 7 0;
#X connect 4 0 1 1;
#X connect 5 0 6 0;
#X connect 5 0 19 0;
#X connect 5 0 18 0;
#X connect 6 0 4 0;
#X connect 7 0 8 1;
#X connect 8 0 1 0;
#X connect 8 0 9 0;
#X connect 9 0 1 0;
#X connect 10 0 1 2;
#X connect 11 0 13 1;
#X connect 12 0 11 0;
#X connect 13 0 9 1;
#X connect 14 0 15 0;
#X connect 15 0 17 0;
#X connect 16 0 14 1;
#X connect 16 0 15 1;
#X connect 16 0 17 1;
#X connect 17 0 13 0;
#X connect 18 0 16 0;
#X connect 19 0 3 0;
#X coords 0 -1 1 1 144 112 1 100 100;
