#N canvas 688 83 450 300 10;
#X obj 42 25 inlet~;
#X obj 167 25 inlet;
#X obj 46 100 *~;
#X obj 25 136 outlet~;
#X obj 161 45 dbtorms;
#X obj 159 95 line~;
#X msg 157 69 \$1 5;
#X obj 215 34 loadbang;
#X obj 218 66 f \$1;
#X obj 99 23 inlet~;
#X obj 106 97 *~;
#X obj 101 136 outlet~;
#X connect 0 0 2 0;
#X connect 1 0 4 0;
#X connect 2 0 3 0;
#X connect 4 0 6 0;
#X connect 5 0 2 1;
#X connect 5 0 10 1;
#X connect 6 0 5 0;
#X connect 7 0 8 0;
#X connect 8 0 4 0;
#X connect 9 0 10 0;
#X connect 10 0 11 0;
