#N canvas 0 23 815 592 10;
#X obj 165 177 pack f f;
#X msg 306 253 midi_note 1 \$1 \$2;
#X obj 237 140 moses 1;
#X obj 210 119 t f f;
#X obj 165 208 demux, f 15;
#X msg 237 162 0;
#X msg 276 163 1;
#X msg 165 253 midi_noteoff 1 \$1;
#X obj 165 326 outlet;
#X obj 165 67 inlet;
#X obj 212 66 inlet;
#X connect 0 0 4 0;
#X connect 1 0 8 0;
#X connect 2 0 5 0;
#X connect 2 1 6 0;
#X connect 3 0 0 1;
#X connect 3 1 2 0;
#X connect 4 0 7 0;
#X connect 4 1 1 0;
#X connect 5 0 4 1;
#X connect 6 0 4 1;
#X connect 7 0 8 0;
#X connect 9 0 0 0;
#X connect 10 0 3 0;
