#N canvas 673 444 561 395 10;
#X obj 38 27 inlet;
#X obj 38 81 text set \$0-preset;
#X obj 185 153 text get \$0-preset;
#X obj 199 109 bng 15 250 50 0 empty empty empty 17 7 0 10 -262144
-1 -1;
#X obj 185 219 outlet;
#X msg 186 133 0;
#N canvas 1165 299 502 321 store.state 0;
#N canvas 81 45 329 237 read.write 0;
#X obj 74 111 savestate;
#X obj 74 91 r \$0-to.savestate;
#X obj 125 131 s \$0-savestate.right;
#X text 78 33 send and receive lists from the individual abstractions
, f 27;
#X obj 74 171 s \$0-savestate.left;
#X obj 74 131 t a b;
#X obj 101 151 s \$0-stop.loadbang;
#X connect 0 0 5 0;
#X connect 0 1 2 0;
#X connect 1 0 0 0;
#X connect 5 0 4 0;
#X connect 5 1 6 0;
#X restore 51 32 pd read.write;
#X obj 51 57 store.text \$0 preset;
#X restore 327 28 pd store.state;
#X obj 38 54 route program_data, f 21;
#X obj 185 197 list trim;
#X obj 185 176 list prepend program_data_set;
#X obj 186 31 inlet;
#X obj 144 107 print;
#X obj 161 81 spig;
#X obj 327 50 text define \$0-preset;
#X connect 0 0 7 0;
#X connect 2 0 9 0;
#X connect 3 0 5 0;
#X connect 5 0 2 0;
#X connect 7 0 1 0;
#X connect 7 1 12 0;
#X connect 8 0 4 0;
#X connect 9 0 8 0;
#X connect 10 0 5 0;
#X connect 12 0 11 0;
