#N canvas 0 23 450 300 10;
#X obj 106 107 vu 15 80 empty empty -1 -8 0 9 -262144 -99865 1 0;
#X obj 105 37 env~;
#X obj 105 60 - 101;
#X obj 105 13 inlet~;
#X connect 1 0 2 0;
#X connect 2 0 0 0;
#X connect 3 0 1 0;
#X coords 0 -1 1 1 54 94 2 100 100;
