#N canvas 612 611 1197 630 10;
#X obj 374 21 metroplex z 120;
#X obj 108 219 bng 15 250 50 0 empty empty empty 17 7 0 10 -262144
-1 -1;
#X obj 158 219 bng 15 250 50 0 empty empty empty 17 7 0 10 -262144
-1 -1;
#X obj 208 219 bng 15 250 50 0 empty empty empty 17 7 0 10 -262144
-1 -1;
#X obj 258 219 bng 15 250 50 0 empty empty empty 17 7 0 10 -262144
-1 -1;
#X obj 308 219 bng 15 250 50 0 empty empty empty 17 7 0 10 -262144
-1 -1;
#X obj 358 219 bng 15 250 50 0 empty empty empty 17 7 0 10 -262144
-1 -1;
#X obj 408 219 bng 15 250 50 0 empty empty empty 17 7 0 10 -262144
-1 -1;
#X obj 458 219 bng 15 250 50 0 empty empty empty 17 7 0 10 -262144
-1 -1;
#X obj 105 290 s kick;
#N canvas 1763 530 721 758 seq8-triggers 1;
#X obj 198 23 inlet;
#X obj 13 30 tgl 15 1 empty empty empty 17 7 0 10 -262144 -1 -1 1 1
;
#X obj 206 269 spigot;
#X obj 200 80 intcount 8;
#X obj 200 103 sel 0 1 2 3 4 5 6 7;
#X obj 31 30 tgl 15 1 empty empty empty 17 7 0 10 -262144 -1 -1 0 1
;
#X obj 256 269 spigot;
#X obj 49 30 tgl 15 1 empty empty empty 17 7 0 10 -262144 -1 -1 0 1
;
#X obj 306 269 spigot;
#X obj 67 30 tgl 15 1 empty empty empty 17 7 0 10 -262144 -1 -1 1 1
;
#X obj 356 269 spigot;
#X obj 85 30 tgl 15 1 empty empty empty 17 7 0 10 -262144 -1 -1 1 1
;
#X obj 406 269 spigot;
#X obj 103 30 tgl 15 1 empty empty empty 17 7 0 10 -262144 -1 -1 0
1;
#X obj 456 269 spigot;
#X obj 121 30 tgl 15 1 empty empty empty 17 7 0 10 -262144 -1 -1 1
1;
#X obj 506 269 spigot;
#X obj 139 30 tgl 15 1 empty empty empty 17 7 0 10 -262144 -1 -1 1
1;
#X obj 556 269 spigot;
#X obj 208 450 outlet;
#X obj 261 450 outlet;
#X obj 318 450 outlet;
#X obj 371 450 outlet;
#X obj 433 450 outlet;
#X obj 486 450 outlet;
#X obj 543 450 outlet;
#X obj 596 450 outlet;
#X obj 252 23 inlet;
#X msg 254 48 reset;
#X obj 390 99 bng 15 250 50 0 empty empty empty 17 7 0 10 -262144 -1
-1;
#X connect 0 0 3 0;
#X connect 1 0 2 1;
#X connect 2 0 19 0;
#X connect 3 0 4 0;
#X connect 4 0 2 0;
#X connect 4 1 6 0;
#X connect 4 2 8 0;
#X connect 4 3 10 0;
#X connect 4 4 12 0;
#X connect 4 5 14 0;
#X connect 4 6 16 0;
#X connect 4 7 18 0;
#X connect 5 0 6 1;
#X connect 6 0 20 0;
#X connect 7 0 8 1;
#X connect 8 0 21 0;
#X connect 9 0 10 1;
#X connect 10 0 22 0;
#X connect 11 0 12 1;
#X connect 12 0 23 0;
#X connect 13 0 14 1;
#X connect 14 0 24 0;
#X connect 15 0 16 1;
#X connect 16 0 25 0;
#X connect 17 0 18 1;
#X connect 18 0 26 0;
#X connect 27 0 28 0;
#X connect 28 0 29 0;
#X connect 28 0 3 0;
#X coords 0 -1 1 1 33 41 1 10 10;
#X restore 107 135 pd seq8-triggers;
#X f 32;
#X obj 539 223 bng 15 250 50 0 empty empty empty 17 7 0 10 -262144
-1 -1;
#X obj 589 223 bng 15 250 50 0 empty empty empty 17 7 0 10 -262144
-1 -1;
#X obj 639 223 bng 15 250 50 0 empty empty empty 17 7 0 10 -262144
-1 -1;
#X obj 689 223 bng 15 250 50 0 empty empty empty 17 7 0 10 -262144
-1 -1;
#X obj 739 223 bng 15 250 50 0 empty empty empty 17 7 0 10 -262144
-1 -1;
#X obj 789 223 bng 15 250 50 0 empty empty empty 17 7 0 10 -262144
-1 -1;
#X obj 839 223 bng 15 250 50 0 empty empty empty 17 7 0 10 -262144
-1 -1;
#X obj 889 223 bng 15 250 50 0 empty empty empty 17 7 0 10 -262144
-1 -1;
#N canvas 120 44 1258 798 seq8-triggers 0;
#X obj 417 146 inlet;
#X obj 105 116 tgl 15 1 empty empty empty 17 7 0 10 -262144 -1 -1 1
1;
#X obj 425 392 spigot;
#X obj 419 203 intcount 8;
#X obj 419 226 sel 0 1 2 3 4 5 6 7;
#X obj 582 309 bng 15 250 50 0 empty empty empty 17 7 0 10 -262144
-1 -1;
#X obj 123 116 tgl 15 1 empty empty empty 17 7 0 10 -262144 -1 -1 1
1;
#X obj 475 392 spigot;
#X obj 632 309 bng 15 250 50 0 empty empty empty 17 7 0 10 -262144
-1 -1;
#X obj 141 116 tgl 15 1 empty empty empty 17 7 0 10 -262144 -1 -1 0
1;
#X obj 525 392 spigot;
#X obj 682 309 bng 15 250 50 0 empty empty empty 17 7 0 10 -262144
-1 -1;
#X obj 159 116 tgl 15 1 empty empty empty 17 7 0 10 -262144 -1 -1 1
1;
#X obj 575 392 spigot;
#X obj 732 309 bng 15 250 50 0 empty empty empty 17 7 0 10 -262144
-1 -1;
#X obj 177 116 tgl 15 1 empty empty empty 17 7 0 10 -262144 -1 -1 0
1;
#X obj 625 392 spigot;
#X obj 782 309 bng 15 250 50 0 empty empty empty 17 7 0 10 -262144
-1 -1;
#X obj 195 116 tgl 15 1 empty empty empty 17 7 0 10 -262144 -1 -1 1
1;
#X obj 675 392 spigot;
#X obj 832 309 bng 15 250 50 0 empty empty empty 17 7 0 10 -262144
-1 -1;
#X obj 213 116 tgl 15 1 empty empty empty 17 7 0 10 -262144 -1 -1 1
1;
#X obj 725 392 spigot;
#X obj 882 309 bng 15 250 50 0 empty empty empty 17 7 0 10 -262144
-1 -1;
#X obj 231 116 tgl 15 1 empty empty empty 17 7 0 10 -262144 -1 -1 1
1;
#X obj 775 392 spigot;
#X obj 932 309 bng 15 250 50 0 empty empty empty 17 7 0 10 -262144
-1 -1;
#X obj 425 435 outlet;
#X obj 475 434 outlet;
#X obj 522 434 outlet;
#X obj 573 436 outlet;
#X obj 625 435 outlet;
#X obj 675 434 outlet;
#X obj 722 434 outlet;
#X obj 773 436 outlet;
#X connect 0 0 3 0;
#X connect 1 0 2 1;
#X connect 2 0 5 0;
#X connect 2 0 27 0;
#X connect 3 0 4 0;
#X connect 4 0 2 0;
#X connect 4 1 7 0;
#X connect 4 2 10 0;
#X connect 4 3 13 0;
#X connect 4 4 16 0;
#X connect 4 5 19 0;
#X connect 4 6 22 0;
#X connect 4 7 25 0;
#X connect 6 0 7 1;
#X connect 7 0 8 0;
#X connect 7 0 28 0;
#X connect 9 0 10 1;
#X connect 10 0 11 0;
#X connect 10 0 29 0;
#X connect 12 0 13 1;
#X connect 13 0 14 0;
#X connect 13 0 30 0;
#X connect 15 0 16 1;
#X connect 16 0 17 0;
#X connect 16 0 31 0;
#X connect 18 0 19 1;
#X connect 19 0 20 0;
#X connect 19 0 32 0;
#X connect 21 0 22 1;
#X connect 22 0 23 0;
#X connect 22 0 33 0;
#X connect 24 0 25 1;
#X connect 25 0 26 0;
#X connect 25 0 34 0;
#X coords 0 -1 1 1 151 41 1 100 100;
#X restore 554 142 pd seq8-triggers;
#X obj 544 283 s hat;
#N canvas 754 57 920 591 kick 0;
#N canvas 1265 53 634 693 kick_synth 0;
#X floatatom 267 137 5 0 0 0 - - -;
#X text 270 197 fDec = 250;
#X floatatom 292 356 5 0 0 0 - - -;
#X text 327 360 pScale = 1;
#X obj 233 401 *~ 1;
#X obj 233 422 phasor~;
#X obj 214 107 bng 15 250 50 0 empty empty empty 17 7 0 10 -262144
-1 -1;
#X obj 233 442 expr~ if ($v1 > 0.5 \, 0 \, 1);
#X obj 265 471 noise~;
#X floatatom 450 371 5 0 0 0 - - -;
#X obj 339 413 *~ 1.5;
#X obj 236 514 vcf~ 0.5;
#X obj 199 625 *~;
#X obj 357 535 osc~;
#X floatatom 488 471 5 0 0 0 - - -;
#X obj 356 504 *~ 1;
#X obj 221 160 f 250;
#X obj 210 46 inlet;
#X text 204 25 trig;
#X obj 265 115 inlet;
#X text 265 93 decay time;
#X obj 292 325 inlet;
#X text 290 305 pitchScale;
#X text 432 322 filterScale;
#X obj 432 336 inlet;
#X text 453 448 sineVol;
#X obj 199 646 outlet~;
#X obj 500 447 inlet;
#N canvas 0 23 450 300 vol_env 0;
#X obj 125 167 vline~;
#X obj 125 188 *~;
#X msg 115 115 0.5 \, 1 5 \, 0.5 60 5 \, 0 \$1 65;
#X obj 108 69 inlet;
#X obj 125 209 outlet~;
#X connect 0 0 1 0;
#X connect 0 0 1 1;
#X connect 1 0 4 0;
#X connect 2 0 0 0;
#X connect 3 0 2 0;
#X restore 51 502 pd vol_env;
#N canvas 0 23 450 300 pitch_env 0;
#X obj 37 37 inlet;
#X obj 33 107 vline~;
#X obj 36 222 mtof~;
#X msg 36 73 1 \, 0.5 5 \, 0 \$1 5;
#X obj 33 155 *~ 80;
#X obj 33 176 +~ 29;
#X obj 33 128 *~;
#X obj 36 243 outlet~;
#X connect 0 0 3 0;
#X connect 1 0 6 0;
#X connect 1 0 6 1;
#X connect 2 0 7 0;
#X connect 3 0 1 0;
#X connect 4 0 5 0;
#X connect 5 0 2 0;
#X connect 6 0 4 0;
#X restore 221 247 pd pitch_env;
#X connect 0 0 16 1;
#X connect 2 0 4 1;
#X connect 4 0 5 0;
#X connect 5 0 7 0;
#X connect 6 0 16 0;
#X connect 7 0 11 0;
#X connect 8 0 11 0;
#X connect 9 0 10 1;
#X connect 10 0 11 1;
#X connect 11 1 12 1;
#X connect 12 0 26 0;
#X connect 13 0 12 1;
#X connect 14 0 15 1;
#X connect 15 0 13 0;
#X connect 16 0 28 0;
#X connect 16 0 29 0;
#X connect 17 0 6 0;
#X connect 19 0 0 0;
#X connect 21 0 2 0;
#X connect 24 0 9 0;
#X connect 27 0 14 0;
#X connect 28 0 12 0;
#X connect 29 0 4 0;
#X connect 29 0 10 0;
#X connect 29 0 15 0;
#X restore 41 346 pd kick_synth;
#X f 64;
#X obj 38 97 bng 15 250 50 0 empty empty empty 17 7 0 10 -262144 -1
-1;
#X floatatom 114 306 5 0 0 1 decay - -;
#X obj 115 157 vsl 15 128 50 2000 1 0 empty kick_decay empty 0 -9 0
10 -262144 -1 -1 0 1;
#X floatatom 193 310 5 0 0 1 pitch_scale - -;
#X obj 193 166 vsl 15 128 0.1 3 0 0 empty kick_pitch empty 0 -9 0 10
-262144 -1 -1 0 1;
#X floatatom 419 311 5 0 0 1 sine_scale - -;
#X obj 419 167 vsl 15 128 0 2 0 0 empty kick_sine empty 0 -9 0 10 -262144
-1 -1 0 1;
#X obj 41 367 *~ 0.25;
#X obj 41 388 dac~;
#X obj 38 75 r kick;
#X floatatom 300 312 5 0 0 1 filter_scale - -;
#X obj 300 168 vsl 15 128 0.1 3 0 0 empty kick_filter empty 0 -9 0
10 -262144 -1 -1 0 1;
#X msg 527 291 \; kick_decay 250 \; kick_pitch 1 \; kick_filter 1.5
\; kick_sine 1 \;;
#X msg 674 289 \; kick_decay 150 \; kick_pitch 0.5 \; kick_filter 1.5
\; kick_sine 1 \;;
#X msg 524 363 \; kick_decay 450 \; kick_pitch 0.25 \; kick_filter
0.5 \; kick_sine 1 \;;
#X msg 694 361 \; kick_decay 1500 \; kick_pitch 0.5 \; kick_filter
0.5 \; kick_sine 0.5 \;;
#X msg 520 432 \; kick_decay 50 \; kick_pitch 2.25 \; kick_filter 1.5
\; kick_sine 0.8 \;;
#X connect 0 0 8 0;
#X connect 1 0 0 0;
#X connect 2 0 0 1;
#X connect 3 0 2 0;
#X connect 4 0 0 2;
#X connect 5 0 4 0;
#X connect 6 0 0 4;
#X connect 7 0 6 0;
#X connect 8 0 9 0;
#X connect 8 0 9 1;
#X connect 10 0 1 0;
#X connect 11 0 0 3;
#X connect 12 0 11 0;
#X restore 96 376 pd kick;
#N canvas 0 23 706 496 hat 0;
#N canvas 0 23 645 536 cymbal 0;
#X obj 161 56 noise~;
#X floatatom 413 87 5 0 0 0 - - -;
#N canvas 0 23 858 387 six_pulse_oscs 0;
#X obj 37 37 inlet;
#X obj 26 156 phasor~;
#X obj 26 177 expr~ $v1 > 0.55;
#X obj 26 232 *~ 0.9;
#X obj 130 121 * 1.342;
#X obj 131 156 phasor~;
#X obj 131 177 expr~ $v1 > 0.55;
#X obj 235 156 phasor~;
#X obj 235 177 expr~ $v1 > 0.55;
#X obj 340 156 phasor~;
#X obj 340 177 expr~ $v1 > 0.55;
#X obj 444 156 phasor~;
#X obj 444 177 expr~ $v1 > 0.55;
#X obj 549 156 phasor~;
#X obj 549 177 expr~ $v1 > 0.55;
#X obj 234 123 * 1.2312;
#X obj 341 121 * 1.6532;
#X obj 444 122 * 1.9523;
#X obj 548 120 * 2.1523;
#X obj 26 253 outlet~;
#X connect 0 0 4 0;
#X connect 0 0 18 0;
#X connect 0 0 17 0;
#X connect 0 0 16 0;
#X connect 0 0 15 0;
#X connect 0 0 1 0;
#X connect 1 0 2 0;
#X connect 2 0 3 0;
#X connect 3 0 19 0;
#X connect 4 0 5 0;
#X connect 5 0 6 0;
#X connect 6 0 3 0;
#X connect 7 0 8 0;
#X connect 8 0 3 0;
#X connect 9 0 10 0;
#X connect 10 0 3 0;
#X connect 11 0 12 0;
#X connect 12 0 3 0;
#X connect 13 0 14 0;
#X connect 14 0 3 0;
#X connect 15 0 7 0;
#X connect 16 0 9 0;
#X connect 17 0 11 0;
#X connect 18 0 13 0;
#X restore 413 107 pd six_pulse_oscs;
#X obj 161 258 *~;
#X floatatom 371 69 5 0 0 0 - - -;
#X obj 328 66 bng 15 250 50 0 empty empty empty 17 7 0 10 -262144 -1
-1;
#X obj 161 117 *~;
#N canvas 0 23 305 203 vol_env 0;
#X obj 74 76 f 250;
#X obj 72 43 inlet;
#X obj 128 38 inlet;
#X obj 76 126 vline~;
#X obj 76 147 outlet~;
#X msg 76 105 1 2 \, 0.4 \$1 2 \, 0 \$1 \$1;
#X connect 0 0 5 0;
#X connect 1 0 0 0;
#X connect 2 0 0 1;
#X connect 3 0 4 0;
#X connect 5 0 3 0;
#X restore 179 234 pd vol_env;
#N canvas 0 23 305 203 noise_env 0;
#X obj 72 43 inlet;
#X obj 128 38 inlet;
#X obj 68 141 line~;
#X msg 69 117 1 \, 0.6 \$1;
#X obj 87 72 f 250;
#X obj 87 93 * 0.5;
#X obj 71 171 outlet~;
#X connect 0 0 4 0;
#X connect 1 0 4 1;
#X connect 2 0 6 0;
#X connect 3 0 2 0;
#X connect 4 0 5 0;
#X connect 5 0 3 0;
#X restore 198 102 pd noise_env;
#X obj 161 197 freeverb~;
#X obj 193 273 delread~ \$0-del 5;
#X obj 31 296 delwrite~ \$0-del 10;
#N canvas 0 23 450 300 filters 0;
#X obj 36 37 inlet~;
#X obj 43 248 biquad~ 1.86507 -0.892661 0.894294 -1.78859 0.894294
;
#X obj 38 124 biquad~ 0.88843 -0.568945 0.614344 -1.22869 0.614344
;
#X obj 42 201 biquad~ 0.88843 -0.568945 0.614344 -1.22869 0.614344
;
#X obj 42 81 biquad~ 0.638282 -0.176456 0.134544 0.269087 0.134544
;
#X text 214 106 6800Hz resonant hipass \, Q=1.5;
#X text 210 53 7000Hz resonant lowpass \, Q=0.6;
#X text 220 182 6800Hz resonant hipass \, Q=1.5;
#X text 228 230 1200Hz resonant hipass \, Q=1.5;
#X obj 43 269 outlet~;
#X connect 0 0 4 0;
#X connect 1 0 9 0;
#X connect 2 0 3 0;
#X connect 3 0 1 0;
#X connect 4 0 2 0;
#X restore 161 154 pd filters;
#X obj 330 38 inlet;
#X obj 372 42 inlet;
#X obj 416 43 inlet;
#X text 461 47 basefreq;
#X text 368 24 dur;
#X text 290 21 trig;
#X obj 161 349 outlet~;
#X obj 161 315 *~ 0.5;
#X obj 413 128 *~ 1;
#X obj 461 65 loadbang;
#X msg 461 86 220;
#X connect 0 0 6 0;
#X connect 1 0 2 0;
#X connect 2 0 21 0;
#X connect 3 0 11 0;
#X connect 3 0 20 0;
#X connect 4 0 7 1;
#X connect 4 0 8 1;
#X connect 5 0 7 0;
#X connect 5 0 8 0;
#X connect 6 0 12 0;
#X connect 7 0 3 1;
#X connect 8 0 6 1;
#X connect 9 0 3 0;
#X connect 10 0 20 0;
#X connect 12 0 9 0;
#X connect 13 0 5 0;
#X connect 14 0 4 0;
#X connect 15 0 1 0;
#X connect 20 0 19 0;
#X connect 21 0 12 0;
#X connect 22 0 23 0;
#X connect 23 0 1 0;
#X restore 63 269 pd cymbal;
#X obj 43 248 bng 15 250 50 0 empty empty empty 17 7 0 10 -262144 -1
-1;
#X floatatom 85 242 5 0 0 1 decay - -;
#X obj 85 97 vsl 15 128 20 2000 1 1 empty hh_decay empty 0 -9 0 10
-262144 -1 -1 965 1;
#X floatatom 163 246 5 0 0 1 pitch - -;
#X obj 166 101 vsl 15 128 100 2000 1 1 empty hh_pitch empty 0 -9 0
10 -262144 -1 -1 9484 1;
#X obj 66 365 dac~;
#X msg 247 102 \; hh_decay 250 \; hh_pitch 250 \;;
#X msg 346 102 \; hh_decay 70 \; hh_pitch 500 \;;
#X msg 247 146 \; hh_decay 170 \; hh_pitch 200 \;;
#X msg 344 146 \; hh_decay 750 \; hh_pitch 450 \;;
#N canvas 0 23 374 160 filter_calculation_tool 0;
#N canvas 868 536 706 476 calculate_biquad_coefficients 0;
#X obj 131 15 inlet;
#X obj 353 10 inlet;
#X obj 486 98 expr pow(10 \, abs(1/20));
#X text 631 98 V;
#X obj 141 377 print;
#X obj 380 67 f 1;
#N canvas 1009 506 605 495 lowpass 0;
#X obj 37 37 inlet;
#X obj 57 98 expr tan(3.14159265 * $f1);
#X text 223 94 K;
#X obj 297 32 t f f;
#X text 28 154 norm;
#X obj 46 312 pack f f f f f;
#X obj 62 124 t f f;
#X text 103 226 lp_a0;
#X obj 69 267 * 2;
#X obj 49 225 t f f f;
#X obj 63 174 t f f;
#X obj 196 202 expr 2 * $f1 * (($f2*$f2) - 1);
#X obj 299 9 inlet;
#X obj 46 333 outlet;
#X obj 214 244 expr (1 - ($f2 / $f3) + ($f2*$f2)) * $f1;
#X obj 63 153 expr 1 / (1 + ($f1/$f2) + ($f1*$f1));
#X obj 49 204 expr $f2 * $f2 * $f1;
#X connect 0 0 1 0;
#X connect 1 0 6 0;
#X connect 3 0 14 2;
#X connect 3 0 15 1;
#X connect 5 0 13 0;
#X connect 6 0 15 0;
#X connect 6 1 11 1;
#X connect 6 1 14 1;
#X connect 6 1 16 1;
#X connect 8 0 5 1;
#X connect 9 0 5 0;
#X connect 9 1 8 0;
#X connect 9 2 5 2;
#X connect 10 0 16 0;
#X connect 10 1 11 0;
#X connect 10 1 14 0;
#X connect 11 0 5 3;
#X connect 12 0 3 0;
#X connect 14 0 5 4;
#X connect 15 0 10 0;
#X connect 16 0 9 0;
#X restore 172 173 pd lowpass;
#X obj 443 7 loadbang;
#X obj 185 60 loadbang;
#X obj 174 311 outlet;
#X obj 353 31 t b f;
#X obj 131 36 / 44100;
#X text 72 162 a0 a1 a2 b1 b2;
#N canvas 0 23 450 300 convert_to_pd_biquad 0;
#X obj 24 18 inlet;
#X obj 52 69 unpack f f f f f;
#X obj 121 112 * -1;
#X obj 155 113 * -1;
#X obj 61 175 pack f f f f f;
#X obj 49 141 f 0;
#X obj 24 39 t b l;
#X obj 61 196 outlet;
#X connect 0 0 6 0;
#X connect 1 0 4 2;
#X connect 1 1 4 3;
#X connect 1 2 4 4;
#X connect 1 3 2 0;
#X connect 1 4 3 0;
#X connect 2 0 5 1;
#X connect 3 0 4 1;
#X connect 4 0 7 0;
#X connect 5 0 4 0;
#X connect 6 0 5 0;
#X connect 6 1 1 0;
#X restore 172 194 pd convert_to_pd_biquad;
#X obj 170 103 f 0.01;
#X text 68 216 -b1 -b2 a0 a1 a2;
#N canvas 0 23 450 300 convert_to_pd_biquad 0;
#X obj 24 18 inlet;
#X obj 52 69 unpack f f f f f;
#X obj 121 112 * -1;
#X obj 155 113 * -1;
#X obj 61 175 pack f f f f f;
#X obj 49 141 f 0;
#X obj 24 39 t b l;
#X obj 61 196 outlet;
#X connect 0 0 6 0;
#X connect 1 0 4 2;
#X connect 1 1 4 3;
#X connect 1 2 4 4;
#X connect 1 3 2 0;
#X connect 1 4 3 0;
#X connect 2 0 5 1;
#X connect 3 0 4 1;
#X connect 4 0 7 0;
#X connect 5 0 4 0;
#X connect 6 0 5 0;
#X connect 6 1 1 0;
#X restore 348 196 pd convert_to_pd_biquad;
#N canvas 1009 506 605 495 highpass 0;
#X obj 37 37 inlet;
#X obj 57 98 expr tan(3.14159265 * $f1);
#X text 223 94 K;
#X obj 297 32 t f f;
#X text 28 154 norm;
#X obj 46 312 pack f f f f f;
#X obj 62 124 t f f;
#X obj 49 225 t f f f, f 12;
#X obj 63 174 t f f;
#X obj 196 202 expr 2 * $f1 * (($f2*$f2) - 1);
#X obj 299 9 inlet;
#X obj 46 333 outlet;
#X obj 214 244 expr (1 - ($f2 / $f3) + ($f2*$f2)) * $f1;
#X obj 63 153 expr 1 / (1 + ($f1/$f2) + ($f1*$f1));
#X obj 69 267 * -2;
#X connect 0 0 1 0;
#X connect 1 0 6 0;
#X connect 3 0 12 2;
#X connect 3 0 13 1;
#X connect 5 0 11 0;
#X connect 6 0 13 0;
#X connect 6 1 9 1;
#X connect 6 1 12 1;
#X connect 7 0 5 0;
#X connect 7 1 14 0;
#X connect 7 2 5 2;
#X connect 8 0 7 0;
#X connect 8 1 9 0;
#X connect 8 1 12 0;
#X connect 9 0 5 3;
#X connect 10 0 3 0;
#X connect 12 0 5 4;
#X connect 13 0 8 0;
#X connect 14 0 5 1;
#X restore 348 175 pd highpass;
#X obj 170 15 samplerate~;
#X obj 347 309 outlet;
#X obj 527 308 outlet;
#N canvas 1003 702 450 300 convert_to_pd_biquad 0;
#X obj 24 18 inlet;
#X obj 52 69 unpack f f f f f;
#X obj 121 112 * -1;
#X obj 155 113 * -1;
#X obj 61 175 pack f f f f f;
#X obj 49 141 f 0;
#X obj 24 39 t b l;
#X obj 61 196 outlet;
#X connect 0 0 6 0;
#X connect 1 0 4 2;
#X connect 1 1 4 3;
#X connect 1 2 4 4;
#X connect 1 3 2 0;
#X connect 1 4 3 0;
#X connect 2 0 5 1;
#X connect 3 0 4 1;
#X connect 4 0 7 0;
#X connect 5 0 4 0;
#X connect 6 0 5 0;
#X connect 6 1 1 0;
#X restore 522 200 pd convert_to_pd_biquad;
#N canvas 1009 506 605 495 bandpass 0;
#X obj 37 37 inlet;
#X obj 57 98 expr tan(3.14159265 * $f1);
#X text 223 94 K;
#X obj 297 32 t f f;
#X text 28 154 norm;
#X obj 62 124 t f f;
#X obj 49 225 t f f f;
#X obj 63 174 t f f;
#X obj 196 202 expr 2 * $f1 * (($f2*$f2) - 1);
#X obj 299 9 inlet;
#X obj 46 333 outlet;
#X obj 214 244 expr (1 - ($f2 / $f3) + ($f2*$f2)) * $f1;
#X obj 63 153 expr 1 / (1 + ($f1/$f2) + ($f1*$f1));
#X obj 49 204 expr $f2 / ($f3 * $f1);
#X obj 46 312 pack f 0 f f f;
#X obj 88 269 * -1;
#X connect 0 0 1 0;
#X connect 1 0 5 0;
#X connect 3 0 11 2;
#X connect 3 0 12 1;
#X connect 3 0 13 2;
#X connect 5 0 12 0;
#X connect 5 1 8 1;
#X connect 5 1 11 1;
#X connect 5 1 13 1;
#X connect 6 0 14 0;
#X connect 6 2 15 0;
#X connect 7 0 13 0;
#X connect 7 1 8 0;
#X connect 7 1 11 0;
#X connect 8 0 14 3;
#X connect 9 0 3 0;
#X connect 11 0 14 4;
#X connect 12 0 7 0;
#X connect 13 0 6 0;
#X connect 14 0 10 0;
#X connect 15 0 14 2;
#X restore 523 177 pd bandpass;
#X connect 0 0 11 0;
#X connect 1 0 10 0;
#X connect 5 0 6 1;
#X connect 5 0 17 1;
#X connect 5 0 22 1;
#X connect 6 0 13 0;
#X connect 7 0 5 0;
#X connect 8 0 14 0;
#X connect 10 0 14 0;
#X connect 10 1 5 0;
#X connect 11 0 14 0;
#X connect 13 0 9 0;
#X connect 14 0 6 0;
#X connect 14 0 17 0;
#X connect 14 0 22 0;
#X connect 16 0 19 0;
#X connect 17 0 16 0;
#X connect 18 0 11 1;
#X connect 21 0 20 0;
#X connect 22 0 21 0;
#X restore 21 47 pd calculate_biquad_coefficients;
#X floatatom 21 23 5 0 0 1 cutoff - -;
#X floatatom 210 25 5 0 0 1 resonance - -;
#X obj 21 74 print lowpass;
#X obj 115 74 print highpass;
#X obj 209 77 print bandpass;
#X connect 0 0 3 0;
#X connect 0 1 4 0;
#X connect 0 2 5 0;
#X connect 1 0 0 0;
#X connect 2 0 0 1;
#X restore 309 49 pd filter_calculation_tool;
#X obj 64 292 vol~;
#X obj 102 292 hsl 128 15 0 100 0 1 empty empty empty -2 -8 0 10 -262144
-1 -1 12700 1;
#X obj 22 122 r hat;
#X connect 0 0 12 0;
#X connect 1 0 0 0;
#X connect 2 0 0 1;
#X connect 3 0 2 0;
#X connect 4 0 0 2;
#X connect 5 0 4 0;
#X connect 12 0 6 0;
#X connect 12 0 6 1;
#X connect 13 0 12 1;
#X connect 14 0 1 0;
#X restore 537 355 pd hat;
#X connect 0 0 10 0;
#X connect 0 0 19 0;
#X connect 1 0 9 0;
#X connect 2 0 9 0;
#X connect 3 0 9 0;
#X connect 4 0 9 0;
#X connect 5 0 9 0;
#X connect 6 0 9 0;
#X connect 7 0 9 0;
#X connect 8 0 9 0;
#X connect 10 0 1 0;
#X connect 10 1 2 0;
#X connect 10 2 3 0;
#X connect 10 3 4 0;
#X connect 10 4 5 0;
#X connect 10 5 6 0;
#X connect 10 6 7 0;
#X connect 10 7 8 0;
#X connect 11 0 20 0;
#X connect 12 0 20 0;
#X connect 13 0 20 0;
#X connect 14 0 20 0;
#X connect 15 0 20 0;
#X connect 16 0 20 0;
#X connect 16 0 10 1;
#X connect 17 0 20 0;
#X connect 18 0 20 0;
#X connect 19 0 11 0;
#X connect 19 1 12 0;
#X connect 19 2 13 0;
#X connect 19 3 14 0;
#X connect 19 4 15 0;
#X connect 19 5 16 0;
#X connect 19 6 17 0;
#X connect 19 7 18 0;
