#N canvas 770 336 1217 692 10;
#X obj 313 267 cos~;
#X obj 313 290 +~ 1;
#X obj 400 211 +~ 0.25;
#X obj 400 266 cos~;
#X obj 400 289 +~ 1;
#X obj 368 571 outlet~;
#X obj 499 210 +~ 0.25;
#X obj 499 265 cos~;
#X obj 499 288 +~ 1;
#X obj 594 208 +~ 0.25;
#X obj 594 263 cos~;
#X obj 594 286 +~ 1;
#X obj 243 100 inlet~;
#X obj 679 296 line~;
#X obj 679 275 pack 0 50;
#X obj 594 347 *~;
#X obj 499 349 *~;
#X obj 400 350 *~;
#X obj 313 351 *~;
#X obj 442 162 line~;
#X obj 442 137 pack 0 50;
#X obj 313 192 phasor~;
#X obj 549 565 outlet~;
#X text 679 209 modulation;
#X text 441 94 frequency;
#X obj 599 120 block~ 1;
#X obj 242 126 delwrite~ \$0-chorus 1000;
#X obj 314 374 vd~ \$0-chorus;
#X obj 400 374 vd~ \$0-chorus;
#X obj 499 370 vd~ \$0-chorus;
#X obj 594 370 vd~ \$0-chorus;
#X obj 107 135 hsl 67 15 0 100 0 1 \$0-depth \$1-depth-r moddepth 15
8 0 10 -90603 -191407 -262144 483 1;
#X obj 107 153 hsl 67 15 0 1 0 1 \$0-mix \$1-mix-r mix 15 8 0 10 -225271
-1 -1 2200 1;
#X obj 107 117 hsl 67 15 0 20 0 1 \$0-freq \$1-freq-r freq 15 8 0 10
-152832 -191407 -262144 46 1;
#X msg 461 437 1 \$1;
#X obj 461 462 -;
#X obj 460 412 r \$0-mix;
#X obj 358 480 *~;
#X obj 530 475 *~;
#X obj 400 479 *~;
#X obj 577 476 *~;
#X obj 440 112 r \$0-freq;
#X obj 673 238 r \$0-depth;
#X obj 90 195 auto \$0-mix \$1-mix-r;
#X obj 90 218 auto \$0-freq \$1-freq-r;
#X obj 90 240 auto \$0-depth \$1-depth-r;
#X connect 0 0 1 0;
#X connect 1 0 18 0;
#X connect 2 0 3 0;
#X connect 2 0 6 0;
#X connect 3 0 4 0;
#X connect 4 0 17 0;
#X connect 6 0 7 0;
#X connect 6 0 9 0;
#X connect 7 0 8 0;
#X connect 8 0 16 0;
#X connect 9 0 10 0;
#X connect 10 0 11 0;
#X connect 11 0 15 0;
#X connect 12 0 26 0;
#X connect 12 0 39 0;
#X connect 12 0 40 0;
#X connect 13 0 15 1;
#X connect 13 0 16 1;
#X connect 13 0 17 1;
#X connect 13 0 18 1;
#X connect 14 0 13 0;
#X connect 15 0 30 0;
#X connect 16 0 29 0;
#X connect 17 0 28 0;
#X connect 18 0 27 0;
#X connect 19 0 21 0;
#X connect 20 0 19 0;
#X connect 21 0 0 0;
#X connect 21 0 2 0;
#X connect 27 0 37 0;
#X connect 28 0 38 0;
#X connect 29 0 37 0;
#X connect 30 0 38 0;
#X connect 34 0 35 0;
#X connect 35 0 40 1;
#X connect 35 0 39 1;
#X connect 36 0 34 0;
#X connect 36 0 38 1;
#X connect 36 0 37 1;
#X connect 37 0 5 0;
#X connect 38 0 22 0;
#X connect 39 0 5 0;
#X connect 40 0 22 0;
#X connect 41 0 20 0;
#X connect 42 0 14 0;
#X coords 0 -1 1 1 80 72 1 100 100;
