#N canvas 367 22 1073 799 10;
#X floatatom 58 83 6 -33 33 1 % #1-del-offset-L-r #0-del-offset-L,
f 6;
#X obj 49 331 line~;
#X obj -27 271 inlet~;
#X obj -22 678 outlet~;
#X floatatom 115 83 3 0 105 1 fb #1-feedback-L-r #0-feedback-L, f
3;
#X obj 95 392 / 100;
#X obj 57 72 hradio 9 1 1 10 \$0-delbeat-L \$1-delbeat-L-r empty 0
-8 0 8 -99865 -262144 -1 4;
#X obj 47 305 pack 0 200;
#X obj 253 304 line~;
#X obj 253 281 pack 0 200;
#X obj -22 648 hip~ 5;
#X obj 145 659 outlet~;
#X obj 145 635 hip~ 5;
#X floatatom 58 111 6 -33 33 1 % #1-del-offset-R-r #0-del-offset-R
, f 6;
#X floatatom 114 111 3 0 105 1 fb #1-feedback-R-r #0-feedback-R, f
3;
#X obj 58 100 hradio 9 1 1 10 \$0-delbeat-R \$1-delbeat-R-r empty 0
-8 0 8 -258113 -262144 -1 3;
#X obj 147 271 inlet~;
#X obj 265 385 / 100;
#N canvas 904 388 280 330 \$0-delay-reader 0;
#X obj 96 107 inlet~;
#X obj 76 289 outlet~;
#X obj 112 163 inlet~;
#X obj 76 259 +~;
#X obj 112 198 vd~ \$0-delay-R;
#X connect 0 0 3 0;
#X connect 2 0 4 0;
#X connect 3 0 1 0;
#X connect 4 0 3 1;
#X restore 145 361 pd \$0-delay-reader;
#N canvas 881 579 600 400 \$0-delay-writer 0;
#X obj 96 107 inlet~;
#X obj 95 260 outlet~;
#X obj 173 110 inlet;
#X floatatom 263 199 5 0 0 0 - - -, f 5;
#X obj 127 210 hip~ 100;
#X obj 267 155 clip~ -1 1;
#X obj 127 163 *~;
#X obj 180 259 delwrite~ \$0-delay-R 2000;
#X obj 127 186 tanh~;
#X connect 0 0 1 0;
#X connect 0 0 6 0;
#X connect 2 0 6 1;
#X connect 3 0 4 1;
#X connect 4 0 7 0;
#X connect 5 0 4 0;
#X connect 6 0 8 0;
#X connect 8 0 4 0;
#X restore 144 386 pd \$0-delay-writer;
#N canvas 1005 193 280 330 \$0-delay-reader 0;
#X obj 96 107 inlet~;
#X obj 76 289 outlet~;
#X obj 112 163 inlet~;
#X obj 76 259 +~;
#X obj 112 198 vd~ \$0-delay-L;
#X connect 0 0 3 0;
#X connect 2 0 4 0;
#X connect 3 0 1 0;
#X connect 4 0 3 1;
#X restore -19 367 pd \$0-delay-reader;
#N canvas 840 57 600 400 \$0-delay-writer 0;
#X obj 96 107 inlet~;
#X obj 95 260 outlet~;
#X obj 173 110 inlet;
#X floatatom 263 199 5 0 0 0 - - -, f 5;
#X obj 128 219 hip~ 100;
#X obj 287 142 clip~ -1 1;
#X obj 127 163 *~;
#X obj 180 259 delwrite~ \$0-delay-L 2000;
#X obj 128 190 tanh~;
#X connect 0 0 1 0;
#X connect 0 0 6 0;
#X connect 2 0 6 1;
#X connect 3 0 4 1;
#X connect 4 0 7 0;
#X connect 5 0 4 0;
#X connect 6 0 8 0;
#X connect 8 0 4 0;
#X restore -20 393 pd \$0-delay-writer;
#X obj 209 92 inlet~ external mod;
#N canvas 406 24 773 449 admin 0;
#X obj 45 56 auto \$0-feedback-L \$1-feedback-L-r;
#X obj 45 76 auto \$0-feedback-R \$1-feedback-R-r;
#X obj 45 96 auto \$0-delbeat-L \$1-delbeat-L-r;
#X obj 45 116 auto \$0-delbeat-R \$1-delbeat-R-r;
#X obj 45 136 auto \$0-mix \$1-mix-r;
#X obj 299 44 loadbang;
#X obj 392 93 s poll-ms;
#X obj 299 68 t b b;
#X obj 300 99 symbol \$1;
#X msg 293 125 \; \$1-delbeat-L-r 3 \; \$1-delbeat-R-r 3 \; \$1-feedback-L-r
50 \; \$1-feedback-R-r 50 \;;
#X obj 283 22 bng 15 250 50 0 empty empty empty 17 7 0 10 -262144 -1
-1;
#X obj 43 155 auto \$0-jitter \$1-jitter-r;
#X obj 43 175 auto \$0-jitter-depth \$1-jitter-depth-r;
#X obj 43 196 auto \$0-del-offset-L \$1-del-offset-L-r;
#X obj 43 216 auto \$0-del-offset-R \$1-del-offset-R-r;
#X connect 5 0 7 0;
#X connect 7 0 8 0;
#X connect 7 1 6 0;
#X connect 8 0 9 0;
#X connect 10 0 7 0;
#X restore 409 99 pd admin;
#X obj 102 332 r \$0-feedback-L;
#X obj 267 357 r \$0-feedback-R;
#X obj 61 130 hsl 86 15 0 1 0 1 \$0-mix \$1-mix-r mix 15 8 0 10 -225271
-1 -1 6600 0;
#X msg 126 459 1 \$1;
#X obj 126 484 -;
#X obj 71 429 r \$0-mix;
#X obj 124 536 line~;
#X msg 123 513 \$1 20;
#X obj 27 591 *~;
#X obj 185 599 *~;
#X obj -14 591 *~;
#X obj 152 597 *~;
#X obj 65 537 line~;
#X msg 64 514 \$1 20;
#X obj 409 122 block~ 1;
#X obj 173 79 vsl 9 100 0 127 0 0 \$0-jitter \$1-jitter-r jitt 0 -9
0 10 -132896 -262144 -1 0 0;
#X obj 185 79 vsl 9 100 0 127 0 0 \$0-jitter-depth \$1-jitter-depth-r
empty 0 -9 0 10 -87253 -262144 -1 0 0;
#X obj 47 277 +;
#X obj 47 245 t b f;
#X obj 253 258 +;
#X obj 253 235 t b f;
#N canvas 752 599 668 343 calc-time-L 0;
#X obj 144 182 outlet;
#X obj 74 154 r mstr-ms;
#X msg 180 82 1;
#X msg 150 82 2;
#X obj 143 152 /;
#X obj 138 120 t b f;
#X floatatom 196 202 5 0 0 0 - - -, f 5;
#X msg 210 82 0.75;
#X msg 245 82 0.5;
#X msg 90 82 8;
#X msg 123 82 4;
#X msg 283 82 0.375;
#X msg 325 82 0.25;
#X obj 150 23 r \$0-delbeat-L;
#X msg 365 82 0.125;
#X msg 413 81 0.0625;
#X obj 150 49 sel 0 1 2 3 4 5 6 7 8 9;
#X connect 1 0 4 0;
#X connect 2 0 5 0;
#X connect 3 0 5 0;
#X connect 4 0 6 0;
#X connect 4 0 0 0;
#X connect 5 0 4 0;
#X connect 5 1 4 1;
#X connect 7 0 5 0;
#X connect 8 0 5 0;
#X connect 9 0 5 0;
#X connect 10 0 5 0;
#X connect 11 0 5 0;
#X connect 12 0 5 0;
#X connect 13 0 16 0;
#X connect 14 0 5 0;
#X connect 15 0 5 0;
#X connect 16 0 9 0;
#X connect 16 1 10 0;
#X connect 16 2 3 0;
#X connect 16 3 2 0;
#X connect 16 4 7 0;
#X connect 16 5 8 0;
#X connect 16 6 11 0;
#X connect 16 7 12 0;
#X connect 16 9 14 0;
#X connect 16 10 15 0;
#X restore -9 215 pd calc-time-L;
#N canvas 1239 619 668 343 calc-time-R 0;
#X obj 144 182 outlet;
#X obj 74 154 r mstr-ms;
#X msg 180 82 1;
#X msg 150 82 2;
#X obj 143 152 /;
#X obj 138 120 t b f;
#X floatatom 196 202 5 0 0 0 - - -, f 5;
#X msg 210 82 0.75;
#X msg 245 82 0.5;
#X msg 90 82 8;
#X msg 123 82 4;
#X msg 283 82 0.375;
#X msg 325 82 0.25;
#X msg 365 82 0.125;
#X msg 413 81 0.0625;
#X obj 150 49 sel 0 1 2 3 4 5 6 7 8 9;
#X obj 150 23 r \$0-delbeat-R;
#X connect 1 0 4 0;
#X connect 2 0 5 0;
#X connect 3 0 5 0;
#X connect 4 0 6 0;
#X connect 4 0 0 0;
#X connect 5 0 4 0;
#X connect 5 1 4 1;
#X connect 7 0 5 0;
#X connect 8 0 5 0;
#X connect 9 0 5 0;
#X connect 10 0 5 0;
#X connect 11 0 5 0;
#X connect 12 0 5 0;
#X connect 13 0 5 0;
#X connect 14 0 5 0;
#X connect 15 0 9 0;
#X connect 15 1 10 0;
#X connect 15 2 3 0;
#X connect 15 3 2 0;
#X connect 15 4 7 0;
#X connect 15 5 8 0;
#X connect 15 6 11 0;
#X connect 15 7 12 0;
#X connect 15 9 13 0;
#X connect 15 10 14 0;
#X connect 16 0 15 0;
#X restore 235 179 pd calc-time-R;
#X floatatom 102 233 5 0 0 0 - - -, f 5;
#X obj 47 192 r \$0-del-offset-L;
#X obj 253 208 r \$0-del-offset-R;
#X connect 1 0 20 1;
#X connect 2 0 20 0;
#X connect 2 0 32 0;
#X connect 5 0 21 1;
#X connect 7 0 1 0;
#X connect 8 0 18 1;
#X connect 9 0 8 0;
#X connect 10 0 3 0;
#X connect 12 0 11 0;
#X connect 16 0 18 0;
#X connect 16 0 33 0;
#X connect 17 0 19 1;
#X connect 18 0 19 0;
#X connect 19 0 35 0;
#X connect 20 0 21 0;
#X connect 21 0 34 0;
#X connect 22 0 20 1;
#X connect 22 0 18 1;
#X connect 24 0 5 0;
#X connect 25 0 17 0;
#X connect 27 0 28 0;
#X connect 28 0 31 0;
#X connect 29 0 27 0;
#X connect 29 0 37 0;
#X connect 30 0 32 1;
#X connect 30 0 33 1;
#X connect 31 0 30 0;
#X connect 32 0 10 0;
#X connect 33 0 12 0;
#X connect 34 0 10 0;
#X connect 35 0 12 0;
#X connect 36 0 35 1;
#X connect 36 0 34 1;
#X connect 37 0 36 0;
#X connect 41 0 7 0;
#X connect 42 0 41 0;
#X connect 42 1 41 1;
#X connect 43 0 9 0;
#X connect 44 0 43 0;
#X connect 44 1 43 1;
#X connect 45 0 41 0;
#X connect 46 0 43 0;
#X connect 48 0 42 0;
#X connect 48 0 47 0;
#X connect 49 0 44 0;
#X coords 0 -1 1 1 105 100 1 50 50;
